<svg width="120" height="120" viewBox="0 0 120 120" fill="none" xmlns="http://www.w3.org/2000/svg">
<path d="M40.1999 109.5C39.5999 111.1 40.3999 113 41.8999 113.6C42.1999 113.7 42.5999 113.8 42.9999 113.8H82.5999C84.2999 113.8 85.5999 112.4 85.5999 110.6C85.5999 110.2 85.4999 109.8 85.3999 109.5L62.8999 47.4L40.1999 109.5Z" fill="#CCECEF"/>
<path d="M79.6998 110.8H40.0998C39.5998 110.8 39.0998 110.7 38.5998 110.5C37.7998 110.2 37.0998 109.6 36.6998 108.9C36.6998 108.8 36.5998 108.8 36.5998 108.7C35.9998 107.7 35.8998 106.4 36.2998 105.2L46.5998 77.1L50.8998 65.3C50.8998 65.2 50.8998 65.2 50.9998 65.1L58.9998 43C59.0998 42.6 59.4998 42.3 59.8998 42.3C60.2998 42.3 60.6998 42.6 60.7998 43L83.3998 105.1C83.5998 105.6 83.6998 106.1 83.6998 106.6C83.6998 109 81.8998 110.8 79.6998 110.8ZM38.8998 108.4C38.9998 108.5 39.1998 108.6 39.3998 108.7C39.5998 108.8 39.8998 108.8 40.0998 108.8H79.6998C80.1998 108.8 80.5998 108.6 80.8998 108.4L59.8998 89.8L38.8998 108.4ZM47.8998 79.1L38.0998 105.8C37.9998 106 37.9998 106.2 37.9998 106.4L58.2998 88.3L47.8998 79.1ZM61.3998 88.4L81.6998 106.4C81.6998 106.2 81.5998 106 81.5998 105.9L71.8998 79.2L61.3998 88.4ZM48.6998 77.1L59.8998 87.1L71.0998 77.2L67.2998 66.6H52.4998L48.6998 77.1ZM53.2998 64.6H66.5998L59.9998 46.4L53.2998 64.6ZM86.6998 34.8C86.0998 34.8 85.6998 34.4 85.6998 33.8C85.6998 19.7 74.1998 8.20001 59.9998 8.20001C45.7998 8.20001 34.2998 19.7 34.2998 33.8C34.2998 34.4 33.8998 34.8 33.2998 34.8C32.6998 34.8 32.2998 34.4 32.2998 33.8C32.2998 18.6 44.6998 6.20001 59.9998 6.20001C75.2998 6.20001 87.6998 18.6 87.6998 33.9C87.6998 34.4 87.1998 34.8 86.6998 34.8ZM73.2998 34.8C72.6998 34.8 72.2998 34.4 72.2998 33.8C72.2998 27 66.7998 21.5 59.9998 21.5C53.1998 21.5 47.6998 27 47.6998 33.8C47.6998 34.4 47.2998 34.8 46.6998 34.8C46.0998 34.8 45.6998 34.4 45.6998 33.8C45.6998 25.9 52.0998 19.5 59.9998 19.5C67.8998 19.5 74.2998 25.9 74.2998 33.8C74.2998 34.4 73.8998 34.8 73.2998 34.8Z" fill="#003959"/>
</svg>
