<svg width="120" height="120" viewBox="0 0 120 120" fill="none" xmlns="http://www.w3.org/2000/svg">
<path d="M28.8999 14.8H64.8999C71.4999 14.8 76.8999 20.2 76.8999 26.8V106C76.8999 112.6 71.4999 118 64.8999 118H28.8999C22.2999 118 16.8999 112.6 16.8999 106V26.8C16.8999 20.1 22.1999 14.8 28.8999 14.8Z" fill="#CCECEF"/>
<path d="M51.3 3H98.2C102.6 3 106.2 6.6 106.2 11V43.2C106.2 47.6 102.6 51.2 98.2 51.2H51.3C46.9 51.2 43.3 47.6 43.3 43.2V11C43.3 6.6 46.9 3 51.3 3Z" fill="white"/>
<path d="M37.6999 51.2H21.3999C20.7999 51.2 20.3999 50.8 20.3999 50.2C20.3999 49.6 20.7999 49.2 21.3999 49.2H37.5999C38.1999 49.2 38.5999 49.6 38.5999 50.2C38.5999 50.8 38.1999 51.2 37.6999 51.2ZM38.6999 40.1C38.6999 39.5 38.2999 39.1 37.6999 39.1H21.3999C20.7999 39.1 20.3999 39.5 20.3999 40.1C20.3999 40.7 20.7999 41.1 21.3999 41.1H37.5999C38.1999 41.1 38.6999 40.6 38.6999 40.1ZM38.6999 29.9C38.6999 29.3 38.2999 28.9 37.6999 28.9H21.3999C20.7999 28.9 20.3999 29.3 20.3999 29.9C20.3999 30.5 20.7999 30.9 21.3999 30.9H37.5999C38.1999 30.9 38.6999 30.5 38.6999 29.9ZM62.3999 70.5C62.3999 69.9 61.9999 69.5 61.3999 69.5H21.3999C20.7999 69.5 20.3999 69.9 20.3999 70.5C20.3999 71.1 20.7999 71.5 21.3999 71.5H61.3999C61.8999 71.5 62.3999 71 62.3999 70.5ZM62.3999 80.6C62.3999 80 61.9999 79.6 61.3999 79.6H21.3999C20.7999 79.6 20.3999 80 20.3999 80.6C20.3999 81.2 20.7999 81.6 21.3999 81.6H61.3999C61.8999 81.6 62.3999 81.1 62.3999 80.6ZM62.3999 60.3C62.3999 59.7 61.9999 59.3 61.3999 59.3H21.3999C20.7999 59.3 20.3999 59.7 20.3999 60.3C20.3999 60.9 20.7999 61.3 21.3999 61.3H61.3999C61.8999 61.3 62.3999 60.9 62.3999 60.3Z" fill="#007F8B"/>
<path d="M25.2999 113.1C21.3999 113.1 17.7999 111.6 15.0999 108.8C12.3999 106 10.8999 102.4 10.8999 98.5V24.1C10.8999 16 17.3999 9.5 25.3999 9.5H34.0999C34.6999 9.5 35.0999 9.9 35.0999 10.5C35.0999 11.1 34.6999 11.5 34.0999 11.5H25.3999C18.4999 11.5 12.8999 17.2 12.8999 24.1V91.7H70.1999V62.8C70.1999 62.2 70.5999 61.8 71.1999 61.8C71.7999 61.8 72.1999 62.2 72.1999 62.8V98.5C72.1999 106.6 65.6999 113.1 57.6999 113.1H25.2999ZM12.7999 93.6V98.5C12.7999 101.9 14.0999 105 16.4999 107.4C18.8999 109.8 21.9999 111.1 25.2999 111.1H57.5999C64.4999 111.1 70.0999 105.4 70.0999 98.5V93.6H12.7999ZM100.8 48.8H56.2999C51.6999 48.8 47.8999 45 47.8999 40.3V10.5C47.8999 5.8 51.6999 2 56.2999 2H100.8C105.4 2 109.2 5.8 109.2 10.5V40.4C109.2 45 105.4 48.8 100.8 48.8ZM49.8999 12.3V40.4C49.8999 44 52.7999 46.9 56.2999 46.9H100.8C104.3 46.9 107.2 44 107.2 40.4V12.3L82.9999 27.5C80.2999 29.2 76.7999 29.2 74.0999 27.5L49.8999 12.3ZM49.8999 9.9L75.0999 25.8C77.1999 27.1 79.7999 27.1 81.8999 25.8L107.1 9.9C106.8 6.6 104.1 4 100.7 4H56.2999C52.8999 4 50.1999 6.6 49.8999 9.9Z" fill="#003959"/>
</svg>
