<svg width="120" height="120" viewBox="0 0 120 120" fill="none" xmlns="http://www.w3.org/2000/svg">
<path fill-rule="evenodd" clip-rule="evenodd" d="M22.5 46.8C22.5 22.6 42.3 7.09998 62 7.09998C81.7 7.09998 101.5 22.6 101.5 46.9C101.5 78.1 70.3 112.2 63.4 119.4C62.6 120.2 61.4 120.2 60.7 119.4C53.7 112.2 22.5 78.1 22.5 46.8ZM81.7 48.7C81.7 59.9 72.9 69 62 69C51.1 69 42.3 59.9 42.3 48.7C42.3 37.5 51.1 28.4 62 28.4C72.9 28.4 81.7 37.5 81.7 48.7Z" fill="#CCECEF"/>
<path d="M59 0.0999756C38.8 0.0999756 18.5 16 18.5 40.9C18.5 56.8 26.4 73.4 35.1 86.7C43.8 100.1 53.4 110.5 56.9 114.1C58.1 115.3 59.9 115.3 61 114.1C64.5 110.5 74.1 100.1 82.8 86.7C91.5 73.3 99.4 56.8 99.4 40.9C99.4 15.9 79.2 0.0999756 59 0.0999756ZM81.2 85.6C72.6 98.8 63.1 109.1 59.7 112.7C59.3 113.1 58.8 113.1 58.4 112.7C55 109.1 45.5 98.9 36.9 85.6C28.3 72.3 20.6 56.2 20.6 40.9C20.5 17.2 39.8 2.09998 59 2.09998C78.2 2.09998 97.5 17.2 97.5 40.9C97.4 56.2 89.8 72.3 81.2 85.6ZM59 21.4C47.5 21.4 38.3 31 38.3 42.7C38.2 54.4 47.5 64 59 64C70.5 64 79.7 54.4 79.7 42.7C79.7 30.9 70.4 21.4 59 21.4ZM59 62C48.7 62 40.3 53.4 40.3 42.7C40.3 32 48.7 23.4 59 23.4C69.3 23.4 77.7 32 77.7 42.7C77.7 53.4 69.3 62 59 62Z" fill="#003959"/>
</svg>
