<svg width="120" height="120" viewBox="0 0 120 120" fill="none" xmlns="http://www.w3.org/2000/svg">
<path d="M116.1 14.9C115.4 13.2 114.3 11.5 112.3 11.5H54.9001C52.0001 11.5 50.6001 13.7 50.0001 15.6C49.7001 16.5 49.5001 17.5 49.4001 18.2C49.4001 18.5 49.3001 18.8 49.3001 19C49.3001 19.1 49.3001 19.2 49.3001 19.2V19.3V19.4V19.7C49.3001 20 49.3001 20.5 49.3001 21C49.3001 22.2 49.3001 23.9 49.3001 26C49.3001 30.2 49.2001 36.1 48.9001 42.9C48.4001 56.2 47.3001 72.5 44.8001 85.2H24.9001C23.3001 85.2 22.0001 85.7 21.0001 86.7C20.1001 87.6 19.6001 88.9 19.2001 90.3C18.7001 92.6 18.7001 95.5 18.7001 98.3C18.7001 98.9 18.7001 99.4 18.7001 100C18.7001 103.5 18.5001 106.7 17.5001 109.1C17.0001 110.3 16.3001 111.2 15.3001 111.8C14.3001 112.4 12.9001 112.8 11.0001 112.8C10.5001 112.8 10.1001 113.2 10.1001 113.7C10.1001 114.2 10.5001 114.6 11.0001 114.6H66.1001C68.2001 114.6 70.0001 114.1 71.3001 113.3C72.7001 112.4 73.6001 111.2 74.2001 109.8C74.8001 108.5 75.1001 107 75.3001 105.4H93.6001C96.1001 105.4 98.0001 103.8 99.6001 101.3C101.2 98.8 102.4 95.4 103.4 91.4C105.5 83.3 106.7 72.6 107.4 61.9C108.1 51.2 108.3 40.5 108.4 32.5C108.4 30.5 108.4 28.6 108.4 27H111.8C112 27 112.2 27 112.5 27C115.5 26.6 117.7 23.9 117.3 20.9C117.2 18.9 116.8 16.6 116.1 14.9Z" fill="#CCECEF"/>
<path d="M41.5 11.1C41.7 8.50002 43.8 6.40002 46.5 6.40002H93.1C95.9 6.40002 98.2 8.70002 98.1 11.6C97.4 26.9 95.4 71.1 94.1 74.5C90.7 83.2 55.4 81.5 42.4 80.6C39.7 80.4 37.7 78.1 37.9 75.4L41.5 11.1Z" fill="white"/>
<path d="M72.4 25.8H57.9C57.3 25.8 56.9 25.4 56.9 24.8C56.9 24.2 57.3 23.8 57.9 23.8H72.5C73.1 23.8 73.5 24.2 73.5 24.8C73.5 25.4 73 25.8 72.4 25.8ZM91.4 53.9C91.4 53.3 91 52.9 90.4 52.9H54.5C53.9 52.9 53.5 53.3 53.5 53.9C53.5 54.5 53.9 54.9 54.5 54.9H90.3C90.9 54.9 91.4 54.5 91.4 53.9ZM92.5 39.4C92.5 38.8 92.1 38.4 91.5 38.4H55.7C55.1 38.4 54.7 38.8 54.7 39.4C54.7 40 55.1 40.4 55.7 40.4H91.5C92 40.4 92.5 39.9 92.5 39.4ZM93.6 68.5C93.6 67.9 93.2 67.5 92.6 67.5L51.5 67.2C51 67.2 50.5 67.6 50.5 68.2C50.5 68.8 50.9 69.2 51.5 69.2L92.6 69.5C93.1 69.5 93.6 69 93.6 68.5Z" fill="#007F8B"/>
<path d="M113.1 15.1C112.4 8.79999 110.6 5.49999 107.9 5.29999C107.8 5.29999 107.8 5.29999 107.7 5.29999H48.5999C44.0999 5.29999 42.7999 10.6 42.7999 13.4C42.7999 13.8 43.2999 55 38.1999 80.9H17.6999C15.9999 80.9 14.5999 81.4 13.5999 82.4C11.2999 84.8 11.2999 89.4 11.2999 94.3C11.2999 99.4 11.3999 104.8 8.6999 107.4C7.4999 108.6 5.6999 109.2 3.3999 109.2C2.8999 109.2 2.3999 109.6 2.3999 110.2C2.3999 110.7 2.8999 111.2 3.3999 111.2H60.0999C62.9999 111.2 65.1999 110.4 66.7999 108.8C68.4999 107 69.2999 104.6 69.6999 101.8H88.4999C90.1999 101.8 91.6999 101.1 93.0999 99.6C103.3 89.3 104.1 41 104 21.5H107.4C107.6 21.5 107.9 21.5 108.1 21.5C109.6 21.3 111 20.6 111.9 19.4C112.9 18.2 113.3 16.7 113.1 15.1ZM68.0999 94.3C68.0999 96.4 68.0999 98.6 67.9999 100.6C67.9999 100.7 67.9999 100.7 67.9999 100.8C67.6999 103.5 67.0999 105.9 65.5999 107.4C64.3999 108.6 62.5999 109.2 60.2999 109.2H9.7999C9.8999 109.1 10.0999 108.9 10.1999 108.8C13.3999 105.5 13.3999 99.8 13.3999 94.3C13.3999 89.8 13.2999 85.6 15.0999 83.8C15.6999 83.2 16.5999 82.9 17.6999 82.9H69.9999C67.9999 85.4 68.0999 89.8 68.0999 94.3ZM69.9999 99.8C70.0999 98 70.0999 96.1 70.0999 94.3C70.0999 89.8 69.9999 85.6 71.7999 83.8C72.3999 83.2 73.2999 82.9 74.3999 82.9C75.8999 82.9 76.8999 83.2 77.5999 83.9C78.7999 85.1 78.7999 87.6 78.7999 90.2C78.7999 93.4 78.6999 97 81.0999 99.4C81.2999 99.6 81.3999 99.7 81.5999 99.8H69.9999ZM91.7999 98.3C90.7999 99.3 89.6999 99.8 88.5999 99.8C85.6999 99.8 83.5999 99.2 82.3999 98C80.5999 96.2 80.6999 93.2 80.6999 90.2C80.6999 87.2 80.7999 84.3 78.9999 82.5C77.9999 81.4 76.3999 80.9 74.3999 80.9H40.1999C45.1999 54.8 44.6999 13.8 44.6999 13.4C44.6999 13.3 44.8999 7.29999 48.4999 7.29999H103.6C102.2 9.09999 101.8 11.7 101.7 13.4C101.9 14.2 103.7 86.1 91.7999 98.3ZM110.3 18.1C109.7 18.9 108.8 19.4 107.8 19.5C107.7 19.5 107.5 19.5 107.4 19.5H104C104 16.1 103.9 13.9 103.9 13.4C103.9 13.3 104.1 7.29999 107.8 7.29999C109.3 7.29999 110.6 10.3 111.2 15.3C111.2 16.4 111 17.3 110.3 18.1Z" fill="#003959"/>
</svg>
