<svg width="120" height="120" viewBox="0 0 120 120" fill="none" xmlns="http://www.w3.org/2000/svg">
<path d="M8.80023 48.1C7.30023 47.4 6.00023 46.3 5.20023 44.8C4.40023 43.3 4.10023 41.7 4.30023 40C4.50023 38.3 5.30023 36.8 6.50023 35.6C7.70023 34.4 9.20023 33.6 10.9002 33.4L110.5 18.4C112 18.2 113.5 18.4 114.8 19C116.2 19.6 117.3 20.6 118.1 21.9C118.9 23.2 119.3 24.6 119.3 26.1C119.3 27.6 118.8 29.1 117.9 30.3L67.0002 105.1C66.2002 106.3 65.0002 107.3 63.6002 107.9C62.2002 108.5 60.7002 108.6 59.2002 108.4C57.7002 108.1 56.4002 107.4 55.3002 106.4C54.2002 105.4 53.5002 104.1 53.1002 102.6L44.0002 63.5L8.80023 48.1Z" fill="#CCECEF"/>
<path d="M116.5 15.6C115.6 14.2 114.3 13 112.8 12.3C111.3 11.6 109.6 11.4 107.9 11.6L8.30014 26.6C6.40014 26.9 4.70014 27.8 3.40014 29.1C2.10014 30.4 1.20014 32.2 1.00014 34.1C0.800141 36 1.10014 37.9 2.00014 39.5C2.90014 41.1 4.40014 42.4 6.10014 43.2L29.9001 53.6L20.7001 74.5C20.1001 76 19.8001 77.5 20.0001 79.1C20.2001 80.7 20.8001 82.1 21.8001 83.4C22.8001 84.6 24.1001 85.6 25.6001 86.1C26.6001 86.5 27.6001 86.6 28.6001 86.6C29.2001 86.6 29.7001 86.6 30.2001 86.4L46.6001 83.3L49.8001 97C50.2001 98.6 51.0001 100.1 52.3001 101.3C53.5001 102.5 55.1001 103.2 56.7001 103.5C57.2001 103.6 57.7001 103.6 58.2001 103.6C59.4001 103.6 60.5001 103.4 61.6001 102.9C63.2001 102.2 64.5001 101.2 65.4001 99.8L116.3 25C117.3 23.6 117.8 22 117.8 20.3C117.8 18.7 117.4 17 116.5 15.6ZM6.90014 41.4C5.60014 40.8 4.50014 39.8 3.80014 38.6C3.10014 37.4 2.80014 35.9 3.00014 34.4C3.20014 33 3.90014 31.6 4.90014 30.6C5.90014 29.6 7.30014 28.9 8.70014 28.7L108.3 13.6C109.6 13.4 110.9 13.6 112.1 14.1C113 14.5 113.8 15.1 114.4 15.8L41.8001 56.5H41.7001L31.2001 52L6.90014 41.4ZM46.2001 81.4L29.8001 84.5C28.6001 84.7 27.4001 84.6 26.2001 84.2C25.1001 83.8 24.1001 83.1 23.3001 82.1C22.5001 81.1 22.1001 80 21.9001 78.8C21.7001 77.6 21.9001 76.4 22.4001 75.2L31.6001 54.3V54.2L40.8001 58.2L46.2001 81.4ZM114.6 24L63.7001 98.7C63.0001 99.8 61.9001 100.6 60.7001 101.1C59.5001 101.6 58.2001 101.8 56.9001 101.5C55.6001 101.3 54.5001 100.7 53.5001 99.8C52.6001 98.9 51.9001 97.8 51.6001 96.5L48.3001 82.3L42.7001 58.2H42.8001L115.2 17.5C115.6 18.4 115.7 19.3 115.7 20.3C115.8 21.6 115.4 22.9 114.6 24Z" fill="#003959"/>
</svg>
