<svg width="120" height="120" viewBox="0 0 120 120" fill="none" xmlns="http://www.w3.org/2000/svg">
<path d="M105.5 84.1C113.4 80.7 118.5 72.9 118.3 64.5C118.3 51.8 107.6 41.6 94.6001 41.6C94.3001 41.6 94.0001 41.6 93.7001 41.6C88.1001 30.4 76.4001 23.2 63.6001 23.1C46.0001 22.7 31.2001 35.6 29.7001 52.5C20.1001 50.3 10.5001 56.1 8.20009 65.5C7.90009 66.6 7.80009 67.7 7.70009 68.9C7.20009 76.5 12.5001 83.3 20.1001 85" fill="#CCECEF"/>
<path d="M69.3002 103.1C65.6002 101.5 63.2002 97.9 63.2002 94C63.2002 88.1 68.1002 83.2 74.2002 83.2C74.3002 83.2 74.5002 83.2 74.6002 83.2C77.2002 77.9 82.6002 74.5 88.7002 74.4C96.9002 74.1 103.9 80.1 104.7 88.1C109.2 87.1 113.7 89.7 114.8 94.1C114.9 94.6 115 95.2 115 95.7C115.3 99.3 112.8 102.5 109.3 103.3" fill="white"/>
<path d="M116 95.6C116 95 115.9 94.4 115.8 93.8C114.7 89.3 110.2 86.3 105.6 86.9C105.2 84.8 104.5 82.8 103.4 81.1C111.4 77 116.3 68.7 116 59.7C115.9 53 113.2 46.7 108.4 42C103.6 37.3 97.3 34.8 90.6 34.9C90.5 34.9 90.4 34.9 90.3 34.9C84.3 23.3 72.1 15.8 59.1 15.8H58.9C58.7 15.8 58.6 15.8 58.4 15.8C40.7 15.8 25.8 29.3 23.9 47C19.3 46.2 14.6 47.2 10.6 49.8C6.30001 52.6 3.30001 56.9 2.20001 61.9C1.90001 63.1 1.80001 64.4 1.80001 65.6C1.30001 74.1 7.00001 81.6 15.3 83.5C15.4 83.5 15.5 83.5 15.5 83.5C16 83.5 16.4 83.2 16.5 82.7C16.6 82.2 16.3 81.6 15.7 81.5C8.40001 79.9 3.30001 73.2 3.70001 65.7C3.70001 64.6 3.90001 63.4 4.10001 62.3C5.10001 57.8 7.80001 53.9 11.7 51.4C15.6 48.9 20.1 48.1 24.6 49.1C24.9 49.2 25.2 49.1 25.4 48.9C25.6 48.7 25.8 48.5 25.8 48.2C27.1 30.9 41.6 17.6 58.8 17.8H59C71.5 17.8 83.2 25.1 88.7 36.4C88.9 36.7 89.2 37 89.6 36.9C89.9 36.9 90.2 36.9 90.5 36.9C96.6 36.8 102.5 39.1 106.9 43.5C111.3 47.8 113.8 53.6 113.9 59.8C114.2 68.2 109.5 75.8 102.1 79.5C98.9 75.7 94.1 73.3 88.7 73.5C82.6 73.6 76.9 77 74 82.3C67.4 82.4 62.1 87.7 62.2 94.1C62.1 98.5 64.8 102.4 68.9 104.2C69 104.2 69.1 104.3 69.3 104.3L109.3 104.5C109.4 104.5 109.5 104.5 109.5 104.5C113.6 103.3 116.3 99.6 116 95.6ZM109.2 102.2L69.5 102C66.3 100.5 64.2 97.4 64.2 93.9C64.2 88.5 68.7 84.1 74.2 84.1C74.3 84.1 74.4 84.1 74.6 84.1C75 84.1 75.4 83.9 75.5 83.5C77.9 78.6 83.1 75.4 88.7 75.3C96.4 75.1 102.9 80.7 103.6 88.1C103.6 88.4 103.8 88.6 104 88.8C104.2 89 104.5 89 104.8 89C108.8 88.1 112.8 90.4 113.7 94.3C113.8 94.8 113.9 95.2 113.9 95.7C114.3 98.7 112.2 101.5 109.2 102.2ZM75.8 37.9C75.8 37.4 75.4 37 74.9 37C74.4 37 74 37.4 74 37.9V47.8C70.2 40.2 61.3 36.4 53.2 39.3C44.3 42.5 39.7 52.4 42.8 61.4C45.9 70.4 55.6 75.1 64.5 72C67.5 70.9 70.1 69 72.1 66.5C72.4 66.1 72.3 65.5 72 65.2C71.6 64.9 71 64.9 70.7 65.4C68.9 67.7 66.6 69.4 63.9 70.3C56 73.1 47.4 68.9 44.6 60.9C41.8 52.8 46 44 53.8 41.2C61.3 38.5 69.4 42.1 72.6 49.4H62.8C62.3 49.4 61.9 49.8 61.9 50.3C61.9 50.8 62.3 51.2 62.8 51.2H74.9C75.4 51.2 75.8 50.8 75.8 50.3V37.9Z" fill="#003959"/>
</svg>
