<svg width="120" height="120" viewBox="0 0 120 120" fill="none" xmlns="http://www.w3.org/2000/svg">
<path d="M114.4 81.5L115.9 84.5H118.8C118.9 84.5 119.1 84.5 119.2 84.6C119.3 84.7 119.4 84.8 119.5 84.9C119.6 85 119.6 85.2 119.5 85.3C119.5 85.4 119.4 85.6 119.3 85.7L116.8 88.3L118.2 91.5C118.3 91.6 118.3 91.8 118.2 92C118.2 92.2 118.1 92.3 118 92.4C117.9 92.5 117.7 92.6 117.6 92.6C117.4 92.6 117.3 92.6 117.2 92.5L113.9 90.6L110.6 92.5C110.5 92.6 110.3 92.6 110.1 92.6C109.9 92.6 109.8 92.5 109.7 92.4C109.6 92.3 109.5 92.2 109.5 92C109.5 91.8 109.5 91.7 109.5 91.5L110.9 88.3L108.4 85.7C108.3 85.6 108.2 85.5 108.2 85.3C108.2 85.2 108.2 85 108.2 84.9C108.3 84.8 108.3 84.7 108.5 84.6C108.6 84.5 108.8 84.5 108.9 84.5H111.8L113.3 81.5C113.4 81.4 113.5 81.3 113.6 81.2C113.7 81.1 113.9 81.1 114 81.1C114.1 81.1 114.3 81.1 114.4 81.2C114.3 81.3 114.4 81.4 114.4 81.5ZM13.2001 101.7L15.5001 106.4H19.9001C20.1001 106.4 20.3001 106.5 20.5001 106.6C20.7001 106.7 20.8001 106.9 20.9001 107.1C21.0001 107.3 21.0001 107.5 21.0001 107.8C20.9001 108 20.8001 108.2 20.7001 108.4L16.9001 112.4L19.0001 117.3C19.1001 117.5 19.1001 117.8 19.1001 118C19.0001 118.2 18.9001 118.4 18.7001 118.6C18.5001 118.8 18.3001 118.9 18.0001 118.9C17.8001 118.9 17.5001 118.9 17.3001 118.7L12.2001 115.8L7.00006 118.6C6.80006 118.7 6.50006 118.8 6.30006 118.8C6.10006 118.8 5.80006 118.7 5.60006 118.5C5.40006 118.3 5.30006 118.1 5.20006 117.9C5.10006 117.7 5.20006 117.4 5.30006 117.2L7.40006 112.3L3.60006 108.3C3.40006 108.2 3.30006 108 3.30006 107.7C3.20006 107.5 3.30006 107.3 3.30006 107C3.40006 106.8 3.50006 106.6 3.70006 106.5C3.90006 106.4 4.10006 106.3 4.30006 106.3H8.70006L11.0001 101.6C11.1001 101.4 11.2001 101.2 11.4001 101.1C11.6001 101 11.8001 100.9 12.0001 100.9C12.2001 100.9 12.4001 101 12.6001 101.1C12.9001 101.4 13.1001 101.5 13.2001 101.7ZM68.9001 20.5L80.2001 44.1H102.3C103.4 44.1 104.5 44.4 105.5 45C106.4 45.6 107.2 46.5 107.6 47.5C108 48.5 108.1 49.7 107.8 50.8C107.5 51.9 107 52.9 106.1 53.6L87.0001 73.8L97.6001 98.5C98.1001 99.6 98.2001 100.9 97.9001 102.1C97.6001 103.3 97.0001 104.4 96.1001 105.2C95.2001 106 94.1001 106.5 92.8001 106.6C91.6001 106.7 90.4001 106.5 89.3001 105.8L63.8001 91.2L38.2001 105.8C37.2001 106.4 35.9001 106.7 34.7001 106.6C33.5001 106.5 32.4001 106 31.4001 105.2C30.5001 104.4 29.9001 103.3 29.6001 102.1C29.3001 100.9 29.4001 99.7 29.9001 98.5L40.5001 73.8L21.3001 53.6C20.5001 52.9 19.9001 51.9 19.6001 50.8C19.3001 49.7 19.4001 48.6 19.8001 47.5C20.2001 46.5 20.9001 45.6 21.9001 44.9C22.9001 44.2 23.9001 44 25.0001 44H47.1001L58.4001 20.4C58.9001 19.4 59.6001 18.6 60.6001 18.1C61.5001 17.5 62.6001 17.2 63.6001 17.2C64.7001 17.2 65.7001 17.5 66.6001 18.1C67.7001 18.7 68.4001 19.5 68.9001 20.5ZM97.9001 4.5L99.8001 8.5H103.6C103.8 8.5 104 8.5 104.1 8.6C104.3 8.7 104.4 8.9 104.5 9C104.6 9.2 104.6 9.4 104.5 9.6C104.5 9.8 104.4 10 104.2 10.1L100.9 13.5L102.7 17.7C102.8 17.9 102.8 18.1 102.8 18.3C102.8 18.5 102.6 18.7 102.5 18.8C102.3 18.9 102.2 19 101.9 19C101.7 19 101.5 19 101.3 18.9L96.9001 16.4L92.5001 18.9C92.5001 19 92.3001 19 92.1001 19C91.9001 19 91.7001 18.9 91.5001 18.8C91.3001 18.7 91.2001 18.5 91.2001 18.3C91.2001 18.1 91.2001 17.9 91.3001 17.7L93.1001 13.5L89.8001 10.1C89.7001 10 89.6001 9.8 89.5001 9.6C89.5001 9.4 89.5001 9.2 89.5001 9C89.6001 8.8 89.7001 8.7 89.9001 8.6C90.1001 8.5 90.2001 8.4 90.4001 8.5H94.2001L96.1001 4.5C96.2001 4.3 96.3001 4.2 96.5001 4.1C96.7001 4 96.9001 4 97.0001 4C97.1001 4 97.4001 4.1 97.5001 4.1C97.7001 4.2 97.8001 4.4 97.9001 4.5ZM18.0001 21.6L19.5001 24.8H22.5001C22.7001 24.8 22.8001 24.8 22.9001 24.9C23.0001 25 23.1001 25.1 23.2001 25.2C23.3001 25.3 23.3001 25.5 23.2001 25.6C23.2001 25.7 23.1001 25.9 23.0001 26L20.4001 28.7L21.8001 32C21.9001 32.2 21.9001 32.3 21.8001 32.5C21.8001 32.7 21.7001 32.8 21.6001 32.9C21.5001 33 21.3001 33.1 21.2001 33.1C21.0001 33.1 20.9001 33.1 20.7001 33L17.2001 31L13.7001 33C13.6001 33.1 13.4001 33.1 13.2001 33.1C13.0001 33.1 12.9001 33 12.8001 32.9C12.7001 32.8 12.6001 32.6 12.6001 32.5C12.6001 32.3 12.6001 32.2 12.6001 32L14.0001 28.7L11.4001 26C11.3001 25.9 11.2001 25.8 11.2001 25.6C11.2001 25.5 11.2001 25.3 11.2001 25.2C11.3001 25.1 11.4001 24.9 11.5001 24.9C11.6001 24.8 11.8001 24.8 11.9001 24.8H14.9001L16.4001 21.6C16.5001 21.5 16.6001 21.4 16.7001 21.3C16.8001 21.2 17.0001 21.2 17.1001 21.2C17.2001 21.2 17.4001 21.2 17.5001 21.3C17.8001 21.4 17.9001 21.5 18.0001 21.6Z" fill="#CCECEF"/>
<path d="M108.3 91.7C108.2 91.7 108.2 91.7 108.1 91.7C107.7 91.7 107.4 91.5 107.1 91.3C106.8 91.1 106.6 90.7 106.6 90.4C106.5 90 106.6 89.7 106.7 89.3L107.8 86.7L105.8 84.6C105.6 84.4 105.4 84.1 105.3 83.8C105.2 83.5 105.2 83.1 105.4 82.8C105.5 82.5 105.8 82.2 106 82C106.3 81.8 106.6 81.7 107 81.7H109.2L110.4 79.2C110.6 78.9 110.8 78.6 111.1 78.5C111.6 78.2 112.4 78.2 112.9 78.5C113.2 78.7 113.4 78.9 113.5 79.2L114.7 81.7H116.9C117.2 81.7 117.6 81.8 117.9 82C118.2 82.2 118.4 82.5 118.6 82.8C118.7 83.1 118.8 83.5 118.7 83.8C118.6 84.1 118.4 84.4 118.2 84.7L116.2 86.8L117.3 89.4C117.4 89.7 117.5 90.1 117.4 90.5C117.3 90.9 117.1 91.2 116.8 91.4C116.5 91.6 116.2 91.8 115.8 91.8C115.4 91.8 115.1 91.8 114.7 91.6L111.9 90L109.1 91.6C108.9 91.6 108.6 91.7 108.3 91.7ZM107.6 83.6L109.7 85.7C110 86 110.1 86.4 109.9 86.8L108.8 89.3L111.5 87.8C111.8 87.6 112.2 87.6 112.5 87.8L115.2 89.3L114.1 86.8C113.9 86.4 114 86 114.3 85.7L116.4 83.6H114.2C113.8 83.6 113.5 83.4 113.3 83L112.1 80.4L110.9 83C110.7 83.3 110.4 83.6 110 83.6H107.6ZM107.1 83.1C107.2 83.2 107.1 83.1 107.1 83.1V83.1ZM4.60001 117.1C4.50001 117.1 4.50001 117.1 4.40001 117.1C3.90001 117.1 3.50001 116.9 3.20001 116.6C2.90001 116.3 2.60001 115.9 2.50001 115.5C2.40001 115.1 2.40001 114.6 2.60001 114.2L4.50001 109.9L1.10001 106.4C0.800012 106.2 0.600012 105.8 0.500012 105.4C0.400012 105 0.400012 104.6 0.600012 104.1C0.800012 103.7 1.00001 103.4 1.40001 103.1C1.80001 102.9 2.20001 102.8 2.60001 102.8H6.40001L8.40001 98.7C8.60001 98.3 8.90001 98 9.20001 97.8C9.90001 97.4 10.8 97.4 11.5 97.8C11.8 98 12.1 98.3 12.3 98.7L14.3 102.8H18.1C18.5 102.8 18.9 102.9 19.3 103.1C19.7 103.3 19.9 103.7 20.1 104.1C20.3 104.5 20.3 104.9 20.2 105.4C20.1 105.8 19.9 106.2 19.6 106.5L16.3 110L18.2 114.3C18.4 114.7 18.4 115.2 18.3 115.6C18.2 116 18 116.4 17.6 116.7C17.3 117 16.8 117.2 16.4 117.2C15.9 117.2 15.5 117.1 15.1 116.9L10.5 114.3L5.90001 116.9C5.40001 117 5.00001 117.1 4.60001 117.1ZM10.4 112.1C10.6 112.1 10.7 112.1 10.9 112.2L16.1 115.1L17.2 115.2L16.2 115L14.1 110C13.9 109.6 14 109.2 14.3 108.9L18.1 104.9L19.2 105L18.2 104.8L18.1 104.7H13.7C13.3 104.7 13 104.5 12.8 104.1L10.5 99.4C10.5 99.4 10.5 99.4 10.4 99.3H10.2L7.90001 104C7.70001 104.3 7.40001 104.6 7.00001 104.6H2.60001L2.50001 104.7L2.60001 104.8L6.40001 108.8C6.70001 109.1 6.80001 109.5 6.60001 109.9L4.50001 114.8V115H4.70001L9.80001 112.1C10 112.1 10.2 112.1 10.4 112.1ZM87 104.1C85.8 104.1 84.6 103.8 83.6 103.2L58.5 88.8L33.4 103.1C32.2 103.8 30.8 104.1 29.3 104C27.9 103.9 26.6 103.3 25.5 102.3C24.4 101.3 23.7 100.1 23.4 98.7C23.1 97.3 23.2 95.9 23.8 94.5L34 70.5L15.3 50.8C14.4 50 13.7 48.8 13.4 47.5C13.1 46.2 13.2 44.9 13.7 43.6C14.2 42.4 15 41.3 16.1 40.6C17.2 39.9 18.5 39.5 19.8 39.5H41.2L52.3 16.5C52.9 15.3 53.8 14.4 54.8 13.7C57 12.4 59.8 12.4 61.9 13.7C63 14.4 63.8 15.3 64.4 16.4L75.5 39.4H97C98.3 39.3 99.6 39.7 100.7 40.4C101.8 41.1 102.7 42.2 103.2 43.4C103.7 44.6 103.8 46 103.5 47.3C103.2 48.6 102.5 49.8 101.5 50.7L82.9 70.5L93.3 94.6C93.9 95.9 94 97.4 93.7 98.8C93.4 100.2 92.6 101.5 91.6 102.4C90.5 103.4 89.2 103.9 87.8 104.1C87.4 104.1 87.2 104.1 87 104.1ZM58.5 86.7C58.7 86.7 58.8 86.7 59 86.8L84.6 101.4C85.5 101.9 86.5 102.1 87.5 102C88.5 101.9 89.4 101.5 90.2 100.8C91 100.1 91.5 99.2 91.7 98.2C91.9 97.2 91.8 96.2 91.4 95.2L80.8 70.7C80.6 70.3 80.7 69.9 81 69.6L100.2 49.4C100.9 48.7 101.4 47.9 101.6 47C101.8 46.1 101.7 45.2 101.4 44.3C101.1 43.4 100.5 42.7 99.7 42.2C98.9 41.7 98 41.5 97.1 41.5H75C74.6 41.5 74.3 41.3 74.1 40.9L62.7 17.4C62.3 16.6 61.7 15.9 60.9 15.5C59.4 14.6 57.4 14.6 55.9 15.5C55.1 16 54.5 16.6 54.1 17.4L42.8 41C42.6 41.3 42.3 41.6 41.9 41.6H19.8C18.8 41.6 18 41.8 17.2 42.3C16.4 42.8 15.9 43.5 15.5 44.4C15.2 45.3 15.1 46.2 15.3 47.1C15.5 48 16 48.8 16.7 49.4L35.9 69.7C36.2 70 36.3 70.4 36.1 70.8L25.5 95.4C25.1 96.3 25 97.4 25.3 98.4C25.5 99.4 26 100.3 26.8 101C27.6 101.7 28.5 102.1 29.5 102.2C30.5 102.3 31.5 102.1 32.4 101.6L58 86.8C58.1 86.7 58.3 86.7 58.5 86.7ZM100 18.3C99.7 18.3 99.3 18.2 99 18L95.1 15.8L91.3 18C91 18.2 90.5 18.3 90.1 18.3C89.7 18.3 89.3 18.1 89 17.8C88.7 17.5 88.5 17.2 88.4 16.8C88.3 16.4 88.3 16 88.5 15.6L90 12L87.2 9.00001C87 8.80001 86.8 8.40001 86.7 8.10001C86.6 7.70001 86.6 7.30001 86.8 6.90001C86.9 6.50001 87.2 6.20001 87.5 6.00001C87.8 5.80001 88.2 5.70001 88.6 5.70001H91.7L93.4 2.30001C93.6 2.00001 93.8 1.70001 94.1 1.50001C94.7 1.10001 95.6 1.10001 96.2 1.50001C96.5 1.70001 96.8 2.00001 96.9 2.30001L98.6 5.70001H101.7C102.1 5.70001 102.4 5.80001 102.8 6.00001C103.1 6.20001 103.4 6.50001 103.5 6.90001C103.6 7.30001 103.7 7.70001 103.6 8.10001C103.5 8.50001 103.3 8.80001 103 9.10001L100.3 12L101.8 15.5C102 15.9 102 16.3 101.9 16.7C101.8 17.1 101.6 17.5 101.3 17.7C101 18 100.6 18.1 100.2 18.2C100.1 18.2 100.1 18.3 100 18.3ZM88.7 7.70001L91.9 11C92.2 11.3 92.3 11.7 92.1 12.1L90.3 16.3L94.7 13.8C95 13.6 95.4 13.6 95.7 13.8L100.1 16.3L98.3 12.2C98.1 11.8 98.2 11.4 98.5 11.1L101.7 7.80001H98C97.6 7.80001 97.3 7.60001 97.1 7.20001L95.2 3.20001L93.3 7.20001C93.1 7.50001 92.8 7.80001 92.4 7.80001H88.7V7.70001ZM12.4 32C12.3 32 12.3 32 12.2 32C11.8 32 11.5 31.8 11.2 31.6C10.9 31.4 10.7 31 10.6 30.7C10.5 30.3 10.5 30 10.7 29.6L11.9 26.9L9.80001 24.7C9.60001 24.5 9.40001 24.2 9.30001 23.9C9.20001 23.5 9.20001 23.2 9.40001 22.9C9.50001 22.6 9.80001 22.3 10.1 22.1C10.4 21.9 10.7 21.8 11.1 21.8H13.4L14.7 19.2C14.9 18.9 15.1 18.6 15.4 18.5C16 18.2 16.7 18.2 17.3 18.5C17.6 18.7 17.8 18.9 18 19.2L19.3 21.8H21.7C22 21.8 22.4 21.9 22.7 22.1C23 22.3 23.2 22.6 23.4 22.9C23.5 23.2 23.6 23.6 23.5 23.9C23.4 24.2 23.2 24.6 23 24.8L20.9 27L22.1 29.7C22.2 30.1 22.3 30.4 22.2 30.8C22.1 31.2 21.9 31.5 21.6 31.7C21.3 31.9 21 32.1 20.6 32.1C20.2 32.1 19.9 32.1 19.5 31.9L16.5 30.2L13.5 31.9C13 31.9 12.7 32 12.4 32ZM11.6 23.6L13.8 25.9C14.1 26.2 14.2 26.6 14 27L12.8 29.7L15.7 28.1C16 27.9 16.4 27.9 16.7 28.1L19.6 29.7L18.5 27C18.3 26.6 18.4 26.2 18.7 25.9L20.9 23.6H18.5C18.1 23.6 17.8 23.4 17.6 23L16.3 20.2L15 23C14.8 23.3 14.5 23.6 14.1 23.6H11.6ZM11.1 23.2C11.2 23.2 11.2 23.2 11.1 23.2V23.2Z" fill="#003959"/>
</svg>
