<svg width="120" height="120" viewBox="0 0 120 120" fill="none" xmlns="http://www.w3.org/2000/svg">
<path d="M62.2999 80.5C62.2999 75.3 68.6 71.2 76.4 71.2C84.2 71.2 90.5 75.4 90.5 80.5C91.2 74.7 96.3999 70.6 102.2 71.2C108 70.6 113.2 74.8 113.9 80.5V78.2C113.9 48.5 92.0999 24.5 62.2999 24.5C32.5 24.5 10.7 48.6 10.7 78.2V80.5C11.4 74.7 16.6 70.6 22.4 71.2C28.2 70.6 33.3999 74.8 34.0999 80.5C34.0999 75.3 40.4 71.2 48.2 71.2C56 71.2 62.2999 75.3 62.2999 80.5Z" fill="#CCECEF"/>
<path d="M109.8 71.7C109.8 72.5 109.8 73.3 109.7 74.1C107.8 69.5 103.4 66.2 98.1999 66.2C92.8999 66.2 88.2999 69.6 86.5999 74.4C84.7999 69.7 79.1 66.2 72.4 66.2C70.9 66.2 69.4999 66.4 68.1999 66.7C63.4999 60.5 60.7 52.8 60.7 44.4C60.7 35.2 63.9999 26.8 69.5999 20.4C92.5999 25.7 109.8 46.6 109.8 71.7Z" fill="white"/>
<path d="M95.6 34C86.2 24 73.2999 18.3 59.2999 18.1V9.70001C59.2999 9.20001 58.8999 8.70001 58.2999 8.70001C57.7999 8.70001 57.2999 9.20001 57.2999 9.70001V18C43.2999 18.3 30.4 23.9 21 33.9C11.4 44.1 6.19995 57.7 6.19995 72.4V74.7C6.19995 75.2 6.59995 75.7 7.09995 75.7C7.59995 75.7 8.09995 75.4 8.19995 74.8C8.89995 69.3 14.1 66.4 18.8 66.4C23.4 66.4 28.7 69.4 29.4 74.8C29.5 75.3 29.9 75.7 30.5 75.7C31 75.7 31.4 75.2 31.4 74.7C31.4 70.1 37.1999 66.4 44.2999 66.4C51.3999 66.4 57.2 70.1 57.2 74.7V109.5C57.2 113.9 60.7999 117.5 65.1999 117.5C69.5999 117.5 73.2 113.9 73.2 109.5V107.2C73.2 106.6 72.7999 106.2 72.2 106.2C71.7 106.2 71.2 106.6 71.2 107.2V109.5C71.2 112.8 68.4999 115.5 65.1999 115.5C61.8999 115.5 59.2 112.8 59.2 109.5V74.7C59.2 70.1 65 66.4 72.1 66.4C79.2 66.4 85 70.1 85 74.7C85 75.2 85.4 75.7 85.9 75.7C85.9 75.7 85.9 75.7 86 75.7C86.5 75.7 86.9 75.3 87 74.8C87.6 69.9 92 66.4 97.6 66.4C103.2 66.4 107.6 69.9 108.2 74.8C108.3 75.3 108.7 75.7 109.2 75.7C109.7 75.7 110.1 75.2 110.1 74.7V72.4C110.3 57.7 105.1 44.1 95.6 34ZM97.7 64.4C92.3999 64.4 88.1 67 86.1 71C84 67.1 78.5 64.4 72.1 64.4C65.8 64.4 60.2999 67.1 58.2 71C56 67.2 50.5999 64.4 44.2999 64.4C37.9 64.4 32.4 67.2 30.2999 71.1C28.0999 66.7 23.2 64.4 18.7 64.4C14.3 64.4 10.4 66.3 8.19995 69.4C8.79995 56.4 13.7999 44.4 22.2999 35.3C31.5999 25.4 44.2999 20 58.0999 20C71.8999 20 84.7 25.4 94 35.3C102.5 44.4 107.5 56.3 108.1 69.3C106 66.3 102.2 64.4 97.7 64.4Z" fill="#003959"/>
<path d="M51.7001 80.1C51.1001 80.1 50.7001 79.7 50.7001 79.1V65.8C50.7001 65.2 51.1001 64.8 51.7001 64.8C52.3001 64.8 52.7001 65.2 52.7001 65.8V79.1C52.7001 79.7 52.2001 80.1 51.7001 80.1ZM31.3001 30.5V23.1C31.3001 22.5 30.9001 22.1 30.3001 22.1C29.7001 22.1 29.3001 22.5 29.3001 23.1V30.5C29.3001 31.1 29.7001 31.5 30.3001 31.5C30.9001 31.5 31.3001 31 31.3001 30.5ZM25.1001 81.8V76.8C25.1001 76.2 24.7001 75.8 24.1001 75.8C23.5001 75.8 23.1001 76.2 23.1001 76.8V81.8C23.1001 82.4 23.5001 82.8 24.1001 82.8C24.7001 82.8 25.1001 82.4 25.1001 81.8ZM82.0001 85.7V78.3C82.0001 77.7 81.6001 77.3 81.0001 77.3C80.4001 77.3 80.0001 77.7 80.0001 78.3V85.7C80.0001 86.3 80.4001 86.7 81.0001 86.7C81.6001 86.7 82.0001 86.2 82.0001 85.7ZM38.4001 92.5V87.2C38.4001 86.6 38.0001 86.2 37.4001 86.2C36.8001 86.2 36.4001 86.6 36.4001 87.2V92.5C36.4001 93.1 36.8001 93.5 37.4001 93.5C38.0001 93.5 38.4001 93 38.4001 92.5ZM70.5001 10.9V3.5C70.5001 2.9 70.1001 2.5 69.5001 2.5C68.9001 2.5 68.5001 2.9 68.5001 3.5V10.9C68.5001 11.5 68.9001 11.9 69.5001 11.9C70.1001 11.9 70.5001 11.5 70.5001 10.9ZM38.4001 11.5V6.2C38.4001 5.6 38.0001 5.2 37.4001 5.2C36.8001 5.2 36.4001 5.6 36.4001 6.2V11.5C36.4001 12.1 36.8001 12.5 37.4001 12.5C38.0001 12.5 38.4001 12.1 38.4001 11.5ZM89.2001 36.4V22.2C89.2001 21.6 88.8001 21.2 88.2001 21.2C87.6001 21.2 87.2001 21.6 87.2001 22.2V36.4C87.2001 37 87.6001 37.4 88.2001 37.4C88.8001 37.4 89.2001 37 89.2001 36.4ZM43.8001 39.1V31.1C43.8001 30.5 43.4001 30.1 42.8001 30.1C42.2001 30.1 41.8001 30.5 41.8001 31.1V39.1C41.8001 39.7 42.2001 40.1 42.8001 40.1C43.4001 40.1 43.8001 39.6 43.8001 39.1Z" fill="#007F8B"/>
</svg>
