<svg width="120" height="120" viewBox="0 0 120 120" fill="none" xmlns="http://www.w3.org/2000/svg">
<path d="M64.5002 109.6C68.1002 111.9 72.4002 112.9 76.7002 112.5C80.9002 112 84.9002 110.1 87.9002 107.1L90.5002 104.5C91.7002 103.3 92.3002 101.7 92.3002 100.1C92.3002 98.4 91.6002 96.8 90.5002 95.7L79.5002 84.5C78.9002 83.9 78.2002 83.5 77.5002 83.1C76.7002 82.8 75.9002 82.6 75.1002 82.6C74.3002 82.6 73.5002 82.8 72.7002 83.1C71.9002 83.4 71.3002 83.9 70.7002 84.5C69.5002 85.7 67.9002 86.3 66.3002 86.3C64.6002 86.3 63.0002 85.6 61.9002 84.5L44.1002 66.8C43.5002 66.2 43.1002 65.5 42.7002 64.8C42.4002 64 42.2002 63.2 42.2002 62.4C42.2002 61.6 42.4002 60.8 42.7002 60C43.0002 59.2 43.5002 58.5 44.1002 58C45.3002 56.8 45.9002 55.2 45.9002 53.6C45.9002 51.9 45.2002 50.3 44.1002 49.2L33.0002 38.1C31.8002 36.9 30.2002 36.3 28.6002 36.3C26.9002 36.3 25.3002 37 24.2002 38.1L21.6002 40.7C18.6002 43.7 16.7002 47.7 16.2002 51.9C15.7002 56.1 16.7002 60.4 19.0002 64C31.1002 82 46.6002 97.5 64.5002 109.6Z" fill="#CCECEF"/>
<path d="M111.5 69.9C111 69.9 110.5 69.5 110.5 69C108.9 37.7 82.1998 11 50.9998 9.40002C50.3998 9.40002 49.9998 8.90002 50.0998 8.30002C50.0998 7.70002 50.5998 7.30002 51.1998 7.40002C83.3998 9.10002 110.9 36.6 112.6 68.8C112.5 69.4 112.1 69.9 111.5 69.9ZM91.5998 68.8C92.1998 68.8 92.5998 68.3 92.4998 67.7C91.3998 46.6 73.2998 28.4 52.0998 27.3C51.5998 27.3 51.0998 27.7 50.9998 28.2C50.9998 28.8 51.3998 29.2 51.8998 29.3C72.0998 30.4 89.2998 47.6 90.3998 67.8C90.4998 68.4 90.9998 68.8 91.5998 68.8C91.4998 68.8 91.4998 68.8 91.5998 68.8ZM71.5998 67.8C72.1998 67.8 72.5998 67.3 72.4998 66.7C72.1998 61.8 70.0998 57 66.3998 53.4C62.7998 49.8 57.9998 47.6 53.0998 47.3C52.5998 47.3 52.0998 47.7 51.9998 48.2C51.9998 48.8 52.3998 49.2 52.8998 49.3C57.2998 49.5 61.5998 51.5 64.8998 54.8C68.1998 58.1 70.0998 62.3 70.3998 66.8C70.4998 67.4 70.9998 67.8 71.5998 67.8C71.4998 67.8 71.4998 67.8 71.5998 67.8Z" fill="#007F8B"/>
<path d="M67.1002 112.1C63.3002 112.1 59.6002 111 56.5002 109H56.4002C38.3002 96.7 22.9002 81.3 10.6002 63.2C10.6002 63.2 10.6002 63.1 10.5002 63.1C8.10019 59.3 7.00019 54.8 7.50019 50.3C8.00019 45.8 10.0002 41.6 13.2002 38.5L15.8002 35.9C17.2002 34.5 19.0002 33.8 20.9002 33.8C22.8002 33.8 24.7002 34.6 26.0002 35.9L37.1002 47C38.5002 48.4 39.2002 50.2 39.2002 52.1C39.2002 54 38.4002 55.9 37.1002 57.2C36.6002 57.7 36.2002 58.3 36.0002 58.9C35.7002 59.5 35.6002 60.2 35.6002 60.9C35.6002 61.6 35.7002 62.3 36.0002 62.9C36.3002 63.5 36.6002 64.1 37.1002 64.6L55.0002 82.3C56.0002 83.3 57.3002 83.8 58.7002 83.8C60.1002 83.8 61.4002 83.3 62.4002 82.3C63.1002 81.6 63.9002 81.1 64.8002 80.7C66.6002 80 68.6002 80 70.4002 80.7C71.3002 81.1 72.1002 81.6 72.8002 82.3L83.9002 93.4C85.3002 94.8 86.0002 96.6 86.0002 98.5C86.0002 100.4 85.2002 102.3 83.9002 103.6L81.3002 106.2C78.1002 109.4 73.9002 111.4 69.5002 111.9C68.6002 112.1 67.9002 112.1 67.1002 112.1ZM57.5002 107.3C60.9002 109.5 65.0002 110.4 69.0002 110C73.0002 109.6 76.8002 107.7 79.6002 104.9L82.2002 102.3C83.2002 101.3 83.7002 100 83.7002 98.6C83.7002 97.2 83.2002 95.9 82.2002 94.9L71.3002 83.7C70.8002 83.2 70.2002 82.8 69.6002 82.6C68.3002 82.1 66.9002 82.1 65.6002 82.6C65.0002 82.9 64.4002 83.2 63.9002 83.7C62.5002 85.1 60.7002 85.8 58.8002 85.8C56.9002 85.8 55.0002 85 53.7002 83.7L35.8002 66C35.1002 65.3 34.6002 64.5 34.2002 63.6C33.8002 62.7 33.6002 61.8 33.6002 60.8C33.6002 59.8 33.8002 58.9 34.2002 58C34.6002 57.1 35.1002 56.3 35.8002 55.6C36.8002 54.6 37.3002 53.3 37.3002 51.9C37.3002 50.5 36.8002 49.2 35.8002 48.2L24.8002 37.3C23.8002 36.3 22.5002 35.8 21.1002 35.8C19.7002 35.8 18.4002 36.3 17.4002 37.3L14.8002 39.9C11.9002 42.8 10.1002 46.5 9.70019 50.5C9.30019 54.5 10.2002 58.6 12.4002 62C24.4002 80 39.6002 95.2 57.5002 107.3Z" fill="#003959"/>
</svg>
