<svg width="120" height="120" viewBox="0 0 120 120" fill="none" xmlns="http://www.w3.org/2000/svg">
<path d="M97.3001 59.1C97.4001 65.2 95.7001 71.3 92.5001 76.5C89.3001 81.7 84.7001 86 79.2001 88.7H78.8001V111.7C78.8001 113.7 78.0001 115.6 76.6001 116.9C75.2001 118.3 73.3001 119.1 71.4001 119.1H56.5001C54.5001 119.1 52.6001 118.3 51.3001 116.9C49.9001 115.5 49.1001 113.6 49.1001 111.7V88.7H48.7001C43.2001 86 38.6001 81.7 35.4001 76.5C32.2001 71.3 30.5001 65.2 30.6001 59.1C30.8001 50.3 34.3001 41.9 40.5001 35.7C46.7001 29.5 55.1001 25.9 63.9001 25.8C72.7001 26 81.1001 29.5 87.3001 35.7C93.5001 42 97.1001 50.3 97.3001 59.1Z" fill="#CCECEF"/>
<path fill-rule="evenodd" clip-rule="evenodd" d="M45.7 111.4V84.4H51.7V111.4C51.7 113.1 50.4 114.4 48.7 114.4C47 114.4 45.7 113 45.7 111.4Z" fill="white"/>
<path d="M67.4 84.4C66.8 84.4 66.4 84 66.4 83.4V62.1H53.6V83.3C53.6 83.9 53.2 84.3 52.6 84.3C52 84.3 51.6 83.9 51.6 83.3V62.1H45.2C43.5 62.1 41.9 61.6 40.5 60.7C39.1 59.8 38 58.5 37.4 56.9C36.8 55.4 36.6 53.7 36.9 52C37.2 50.4 38 48.9 39.2 47.7C40.4 46.5 41.9 45.7 43.5 45.4C45.1 45.1 46.8 45.2 48.4 45.9C49.9 46.5 51.2 47.6 52.2 49C53.1 50.4 53.6 52 53.6 53.7V60.1H66.4V53.7C66.4 52 66.9 50.4 67.8 49C68.7 47.6 70 46.5 71.6 45.9C73.1 45.3 74.8 45.1 76.5 45.4C78.1 45.7 79.6 46.5 80.8 47.7C82 48.9 82.8 50.4 83.1 52C83.4 53.6 83.3 55.3 82.6 56.9C82 58.4 80.9 59.7 79.5 60.7C78.1 61.6 76.5 62.1 74.8 62.1H68.4V83.3C68.4 83.9 68 84.4 67.4 84.4ZM68.4 60.1H74.8C76.1 60.1 77.3 59.7 78.4 59C79.5 58.3 80.3 57.3 80.8 56.1C81.3 54.9 81.4 53.6 81.2 52.4C81 51.2 80.3 50 79.4 49.1C78.5 48.2 77.4 47.6 76.1 47.3C74.9 47.1 73.6 47.2 72.4 47.7C71.2 48.2 70.2 49 69.5 50.1C68.8 51.2 68.4 52.4 68.4 53.7V60.1ZM45.2 47.3C44.8 47.3 44.4 47.3 43.9 47.4C42.7 47.6 41.5 48.3 40.6 49.2C39.7 50.1 39.1 51.2 38.8 52.5C38.6 53.7 38.7 55 39.2 56.2C39.7 57.4 40.5 58.4 41.6 59.1C42.7 59.8 43.9 60.2 45.2 60.2H51.6V53.8C51.6 52.5 51.2 51.3 50.5 50.2C49.8 49.1 48.8 48.3 47.6 47.8C46.9 47.5 46 47.3 45.2 47.3Z" fill="#007F8B"/>
<path d="M84.1 29.6C77.7 23.2 69.1 19.5 60 19.4C50.8999 19.6 42.4 23.2 35.9 29.6C29.5 36 25.8 44.6 25.7 53.7C25.6 60 27.3 66.2 30.6 71.7C33.9 77.1 38.6 81.4 44.2 84.2V107.8C44.2 110 45.1 112.2 46.7 113.8C48.2999 115.4 50.3999 116.3 52.5999 116.3H67.4C69.6 116.3 71.8 115.4 73.3 113.8C74.9 112.2 75.8 110.1 75.8 107.8V84.2C81.4 81.4 86.1 77.1 89.4 71.7C92.7 66.3 94.4 60.1 94.3 53.7C94.2 44.6 90.5 36.1 84.1 29.6ZM71.9 112.3C70.7 113.5 69.1 114.2 67.4 114.2H52.5999C50.8999 114.2 49.2999 113.5 48.0999 112.3C48 112.2 47.8999 112.1 47.7999 112L73.8 108.2C73.7 109.8 73 111.2 71.9 112.3ZM73.8 106.2L47.2999 110.1C47.0999 110.1 46.8999 110.2 46.7999 110.4C46.5 109.6 46.2999 108.7 46.2999 107.9V102L73.9 97.8V106.2H73.8ZM73.8 95.8L46.2 100V91.7L73.8 87.5V95.8ZM73.8 85.5L46.2 89.6V84.4H73.8V85.5ZM87.7 70.6C84.6 75.6 80.2 79.7 75 82.3H45C39.7999 79.7 35.4 75.6 32.2999 70.6C29.1999 65.5 27.6 59.7 27.7 53.7C27.9 45.1 31.2999 37 37.2999 31C43.3999 24.9 51.3999 21.5 60 21.4C68.6 21.5 76.6 25 82.7 31C88.7999 37.1 92.2 45.1 92.3 53.7C92.4 59.7 90.7999 65.5 87.7 70.6ZM60 10.3C59.4 10.3 59 9.90003 59 9.30002V1.90002C59 1.30002 59.4 0.900024 60 0.900024C60.5999 0.900024 61 1.30002 61 1.90002V9.30002C61 9.80002 60.5999 10.3 60 10.3ZM15.6 54.7H8.19995C7.59995 54.7 7.19995 54.3 7.19995 53.7C7.19995 53.1 7.59995 52.7 8.19995 52.7H15.6C16.2 52.7 16.6 53.1 16.6 53.7C16.6 54.3 16.1 54.7 15.6 54.7ZM24.7 22.9C24.5 22.9 24.2 22.8 24 22.6L18.6 17.4C18.2 17 18.2 16.4 18.6 16C19 15.6 19.6 15.6 20 16L25.4 21.2C25.8 21.6 25.8 22.2 25.4 22.6C25.2 22.8 25 22.9 24.7 22.9ZM111.8 54.7H104.4C103.8 54.7 103.4 54.3 103.4 53.7C103.4 53.1 103.8 52.7 104.4 52.7H111.8C112.4 52.7 112.8 53.1 112.8 53.7C112.8 54.3 112.4 54.7 111.8 54.7ZM95.3 22.9C95 22.9 94.7999 22.8 94.6 22.6C94.2 22.2 94.2 21.6 94.6 21.2L100 16C100.4 15.6 101 15.6 101.4 16C101.8 16.4 101.8 17 101.4 17.4L96 22.6C95.8 22.8 95.6 22.9 95.3 22.9Z" fill="#003959"/>
</svg>
