<svg width="120" height="120" viewBox="0 0 120 120" fill="none" xmlns="http://www.w3.org/2000/svg">
<path d="M23.3999 27C23.3999 20.4 28.7999 15 35.3999 15H71.3999C77.9999 15 83.3999 20.4 83.3999 27V106C83.3999 112.6 77.9999 118 71.3999 118H35.3999C28.7999 118 23.3999 112.6 23.3999 106V27Z" fill="#CCECEF"/>
<path d="M50 29.4C50 35.5 52.4 41.4 56.7 45.7C61 50 66.9 52.4 73 52.4C79.1 52.4 85 50 89.3 45.7C93.6 41.4 96 35.5 96 29.4C96 23.3 93.6 17.4 89.3 13.1C85 8.80002 79.2 6.40002 73.1 6.40002C67 6.40002 61.1 8.80002 56.8 13.1C52.4 17.4 50 23.3 50 29.4Z" fill="white"/>
<path d="M50.0998 51.2H27.8998C27.2998 51.2 26.8998 50.8 26.8998 50.2C26.8998 49.6 27.2998 49.2 27.8998 49.2H50.0998C50.6998 49.2 51.0998 49.6 51.0998 50.2C51.0998 50.8 50.5998 51.2 50.0998 51.2ZM46.5998 40.1C46.5998 39.5 46.1998 39.1 45.5998 39.1H27.8998C27.2998 39.1 26.8998 39.5 26.8998 40.1C26.8998 40.7 27.2998 41.1 27.8998 41.1H45.5998C46.0998 41.1 46.5998 40.6 46.5998 40.1ZM42.0998 29.9C42.0998 29.3 41.6998 28.9 41.0998 28.9H27.8998C27.2998 28.9 26.8998 29.3 26.8998 29.9C26.8998 30.5 27.2998 30.9 27.8998 30.9H41.0998C41.5998 30.9 42.0998 30.5 42.0998 29.9ZM68.7998 70.5C68.7998 69.9 68.3998 69.5 67.7998 69.5H27.7998C27.1998 69.5 26.7998 69.9 26.7998 70.5C26.7998 71.1 27.1998 71.5 27.7998 71.5H67.7998C68.3998 71.5 68.7998 71 68.7998 70.5ZM68.7998 80.6C68.7998 80 68.3998 79.6 67.7998 79.6H27.7998C27.1998 79.6 26.7998 80 26.7998 80.6C26.7998 81.2 27.1998 81.6 27.7998 81.6H67.7998C68.3998 81.6 68.7998 81.1 68.7998 80.6ZM68.7998 60.3C68.7998 59.7 68.3998 59.3 67.7998 59.3H27.7998C27.1998 59.3 26.7998 59.7 26.7998 60.3C26.7998 60.9 27.1998 61.3 27.7998 61.3H67.7998C68.3998 61.3 68.7998 60.9 68.7998 60.3ZM84.6998 27.5C84.1998 26.6 83.3998 25.9 82.3998 25.5L76.7998 23.4C76.1998 23.2 75.7998 22.8 75.4998 22.3C75.1998 21.8 75.0998 21.3 75.1998 20.7C75.2998 20.2 75.5998 19.7 76.0998 19.3C76.5998 18.9 77.1998 18.7 77.7998 18.7H83.2998C83.8998 18.7 84.2998 18.3 84.2998 17.7C84.2998 17.1 83.8998 16.7 83.2998 16.7H80.2998V15.2C80.2998 14.6 79.7998 14.2 79.2998 14.2C78.7998 14.2 78.2998 14.6 78.2998 15.2V16.7H77.8998C76.7998 16.7 75.7998 17.1 74.9998 17.7C74.1998 18.3 73.5998 19.3 73.3998 20.3C73.1998 21.3 73.3998 22.4 73.8998 23.3C74.3998 24.2 75.1998 24.9 76.1998 25.3L81.7998 27.4C82.3998 27.6 82.7998 28 83.0998 28.5C83.3998 29 83.4998 29.5 83.3998 30.1C83.2998 30.6 82.9998 31.1 82.4998 31.5C81.9998 31.9 81.3998 32.1 80.7998 32.1H75.2998C74.7998 32.1 74.2998 32.5 74.2998 33.1C74.2998 33.6 74.7998 34.1 75.2998 34.1H78.2998V35.6C78.2998 36.1 78.7998 36.6 79.2998 36.6C79.7998 36.6 80.2998 36.1 80.2998 35.6V34.1H80.6998C81.7998 34.1 82.7998 33.7 83.5998 33.1C84.3998 32.5 84.9998 31.6 85.1998 30.5C85.3998 29.5 85.1998 28.5 84.6998 27.5Z" fill="#007F8B"/>
<path d="M31.7999 113.1C27.8999 113.1 24.2999 111.6 21.5999 108.8C18.8999 106 17.3999 102.4 17.3999 98.5V24.1C17.3999 16 23.8999 9.49998 31.8999 9.49998H40.5999C41.1999 9.49998 41.5999 9.89998 41.5999 10.5C41.5999 11.1 41.1999 11.5 40.5999 11.5H31.8999C24.9999 11.5 19.3999 17.2 19.3999 24.1V91.7H76.6999V62.8C76.6999 62.2 77.0999 61.8 77.6999 61.8C78.2999 61.8 78.6999 62.2 78.6999 62.8V98.5C78.6999 106.6 72.1999 113.1 64.1999 113.1H31.7999ZM19.2999 93.6V98.5C19.2999 101.9 20.5999 105 22.9999 107.4C25.3999 109.8 28.4999 111.1 31.7999 111.1H64.0999C70.9999 111.1 76.5999 105.4 76.5999 98.5V93.6H19.2999ZM78.6999 50.1C72.2999 50.1 66.1999 47.6 61.6999 43.1C57.1999 38.6 54.6999 32.5 54.6999 26.1C54.6999 19.7 57.1999 13.6 61.6999 9.09998C66.1999 4.59998 72.2999 2.09998 78.6999 2.09998C85.0999 2.09998 91.1999 4.59998 95.6999 9.09998C100.2 13.6 102.7 19.7 102.7 26.1C102.7 32.5 100.2 38.6 95.6999 43.1C91.0999 47.6 85.0999 50.1 78.6999 50.1ZM78.6999 3.99998C72.7999 3.99998 67.2999 6.29998 63.0999 10.5C58.8999 14.7 56.5999 20.2 56.5999 26.1C56.5999 32 58.8999 37.5 63.0999 41.7C67.2999 45.9 72.7999 48.2 78.6999 48.2C84.5999 48.2 90.0999 45.9 94.2999 41.7C98.4999 37.5 100.8 32 100.8 26.1C100.8 20.2 98.4999 14.7 94.2999 10.5C90.0999 6.29998 84.5999 3.99998 78.6999 3.99998Z" fill="#003959"/>
</svg>
