<svg width="120" height="120" viewBox="0 0 120 120" fill="none" xmlns="http://www.w3.org/2000/svg">
  <path fill-rule="evenodd" clip-rule="evenodd"
    d="M86.1001 48V105.2C86.1001 111.8 80.7001 117.2 74.1001 117.2H38.1001C31.5001 117.2 26.1001 111.8 26.1001 105.2V26.2C26.1001 19.6 31.5001 14.2 38.1001 14.2H64.9001L49.5001 43.4C49.2001 43.9 49.1001 44.4 49.1001 45C49.1001 45.5 49.3001 46.1 49.6001 46.6C49.9001 47.1 50.3001 47.5 50.8001 47.7C51.3001 48 51.8001 48.1 52.4001 48.1H86.1001V48Z"
    fill="#CCECEF" />
  <path
    d="M90.8001 44.9C90.8001 45.4 90.6001 46 90.3001 46.5C90.0001 47 89.6001 47.4 89.1001 47.6C88.6001 47.9 88.1001 48 87.5001 48H52.4001C51.8001 48 51.3001 47.9 50.8001 47.6C50.3001 47.3 49.9001 46.9 49.6001 46.5C49.3001 46 49.1001 45.5 49.1001 44.9C49.1001 44.3 49.2001 43.8 49.5001 43.3L65.0001 14.2L67.1001 10.2C67.4001 9.70002 67.8001 9.20002 68.3001 8.90002C68.8001 8.60002 69.4001 8.40002 70.0001 8.40002C70.6001 8.40002 71.2001 8.60002 71.7001 8.90002C72.2001 9.20002 72.6001 9.60002 72.9001 10.2L90.5001 43.3C90.7001 43.8 90.8001 44.4 90.8001 44.9Z"
    fill="white" />
  <path
    d="M78.2 28.9C77.6 28.9 77.2 28.5 77.2 27.9V18C77.2 17.4 77.6 17 78.2 17C78.8 17 79.2 17.4 79.2 18V27.9C79.2 28.4 78.8 28.9 78.2 28.9ZM79.2 34.5V33.4C79.2 32.8 78.8 32.4 78.2 32.4C77.6 32.4 77.2 32.8 77.2 33.4V34.5C77.2 35.1 77.6 35.5 78.2 35.5C78.8 35.5 79.2 35 79.2 34.5ZM41.7 49.4C41.7 48.8 41.3 48.4 40.7 48.4H30.5C29.9 48.4 29.5 48.8 29.5 49.4C29.5 50 29.9 50.4 30.5 50.4H40.7C41.3 50.4 41.7 50 41.7 49.4ZM44.7 39.3C44.7 38.7 44.3 38.3 43.7 38.3H30.5C29.9 38.3 29.5 38.7 29.5 39.3C29.5 39.9 29.9 40.3 30.5 40.3H43.7C44.3 40.3 44.7 39.9 44.7 39.3ZM50.7 29.2C50.7 28.6 50.3 28.2 49.7 28.2H30.5C29.9 28.2 29.5 28.6 29.5 29.2C29.5 29.8 29.9 30.2 30.5 30.2H49.7C50.3 30.2 50.7 29.7 50.7 29.2ZM71.5 69.7C71.5 69.1 71.1 68.7 70.5 68.7H30.5C29.9 68.7 29.5 69.1 29.5 69.7C29.5 70.3 29.9 70.7 30.5 70.7H70.5C71 70.7 71.5 70.3 71.5 69.7ZM71.5 79.8C71.5 79.2 71.1 78.8 70.5 78.8H30.5C29.9 78.8 29.5 79.2 29.5 79.8C29.5 80.4 29.9 80.8 30.5 80.8H70.5C71 80.8 71.5 80.4 71.5 79.8ZM71.5 59.6C71.5 59 71.1 58.6 70.5 58.6H30.5C29.9 58.6 29.5 59 29.5 59.6C29.5 60.2 29.9 60.6 30.5 60.6H70.5C71 60.6 71.5 60.1 71.5 59.6Z"
    fill="#007F8B" />
  <path
    d="M95.8 44.2H60.7C60 44.2 59.3 44 58.6 43.7C58 43.4 57.4 42.8 57 42.2C56.6 41.6 56.4 40.9 56.4 40.1C56.4 39.4 56.5 38.7 56.9 38L74.4 5.00001C74.8 4.30001 75.3 3.70001 76 3.30001C77.3 2.50001 79.1 2.50001 80.4 3.30001C81.1 3.70001 81.6 4.30001 82 4.90001L99.6 38C99.9 38.6 100.1 39.4 100.1 40.1C100.1 40.8 99.9 41.5 99.5 42.2C99.1 42.8 98.6 43.3 97.9 43.7C97.3 44.1 96.5 44.2 95.8 44.2ZM60.7 42.2H95.8C96.2 42.2 96.6 42.1 96.9 41.9C97.2 41.7 97.5 41.4 97.7 41.1C97.9 40.8 98 40.4 98 40C98 39.6 97.9 39.3 97.8 38.9L80.3 5.90001C80.1 5.50001 79.8 5.20001 79.5 5.00001C78.8 4.60001 77.8 4.60001 77.1 5.00001C76.7 5.20001 76.5 5.50001 76.3 5.90001L58.6 39C58.4 39.3 58.3 39.7 58.3 40.1C58.3 40.5 58.4 40.8 58.6 41.2C58.8 41.5 59.1 41.8 59.4 42C59.9 42.1 60.3 42.2 60.7 42.2ZM34.4 112.3C30.5 112.3 26.9 110.8 24.2 108C21.5 105.2 20 101.6 20 97.7V23.3C20 15.2 26.5 8.70001 34.5 8.70001H43.2C43.8 8.70001 44.2 9.10001 44.2 9.70001C44.2 10.3 43.8 10.7 43.2 10.7H34.5C27.6 10.7 22 16.4 22 23.3V90.9H79.3V62C79.3 61.4 79.7 61 80.3 61C80.9 61 81.3 61.4 81.3 62V97.7C81.3 105.8 74.8 112.3 66.8 112.3H34.4ZM21.9 92.9V97.8C21.9 101.2 23.2 104.3 25.6 106.7C28 109.1 31.1 110.4 34.4 110.4H66.7C73.6 110.4 79.2 104.7 79.2 97.8V92.9H21.9Z"
    fill="#003959" />
</svg>