<svg width="120" height="120" viewBox="0 0 120 120" fill="none" xmlns="http://www.w3.org/2000/svg">
<path d="M117.9 63.9C118.4 61.4 116.8 58.9 114.3 58.4C114 58.3 113.7 58.3 113.4 58.3H56.2998C54.0998 58.3 52.1998 56.8 51.7998 54.6L50.4998 48.1C50.0998 45.9 48.1998 44.4 45.9998 44.4H15.8998C13.2998 44.4 11.2998 46.5 11.2998 49C11.2998 49.3 11.2998 49.6 11.3998 49.9L23.4998 110.3C23.8998 112.5 25.7998 114 27.9998 114H104.2C106.4 114 108.3 112.5 108.7 110.3C110.5 100.8 115.6 75.2 117.9 63.9Z" fill="#CCECEF"/>
<path d="M89.6001 48.6H54.6001C52.7001 48.6 51.1001 47.3 50.8001 45.4L46.5001 19.9C46.1001 17.6 47.9001 15.5 50.3001 15.5H89.6001C91.8001 15.5 93.5001 17.2 93.5001 19.3V44.9C93.5001 47 91.7001 48.6 89.6001 48.6Z" fill="white"/>
<path d="M81.2001 21.9H40.1001C39.5001 21.9 39.1001 21.5 39.1001 20.9C39.1001 20.3 39.5001 19.9 40.1001 19.9H81.3001C81.9001 19.9 82.3001 20.3 82.3001 20.9C82.3001 21.5 81.8001 21.9 81.2001 21.9ZM82.2001 35.4C82.2001 34.8 81.8001 34.4 81.2001 34.4H61.2001C60.6001 34.4 60.2001 34.8 60.2001 35.4C60.2001 36 60.6001 36.4 61.2001 36.4H81.2001C81.8001 36.4 82.2001 35.9 82.2001 35.4Z" fill="#007F8B"/>
<path d="M95.8 110.1H19.8C17.1 110.1 14.8 108.2 14.3 105.6L2.1 45.2C2 44.8 2 44.4 2 44.1C2 41 4.5 38.5 7.6 38.5H37.7C40.4 38.5 42.7 40.4 43.2 43L44.5 49.5C44.8 51.2 46.3 52.4 48 52.4H105.1C105.4 52.4 105.8 52.4 106.3 52.5C107.7 52.8 109 53.7 109.8 54.9C110.6 56.2 110.9 57.7 110.6 59.1C108.4 69.9 103.6 93.8 101.6 104L101.3 105.5C100.8 108.2 98.5 110.1 95.8 110.1ZM7.6 40.5C5.6 40.5 4 42.1 4 44.1C4 44.3 4 44.5 4 44.7V44.8L16.1 105.2C16.4 106.9 17.9 108.1 19.6 108.1H95.6C97.4 108.1 98.8 106.9 99.1 105.2L99.4 103.7C101.4 93.5 106.2 69.6 108.4 58.8C108.6 57.8 108.4 56.9 107.9 56C107.4 55.2 106.6 54.6 105.6 54.4H105.5C105.4 54.4 105.1 54.4 104.9 54.4H48C45.3 54.4 43 52.5 42.5 49.9L41.2 43.4C40.9 41.7 39.4 40.5 37.7 40.5H7.6ZM96.7 44.2V11.6C96.7 8.5 94.2 6 91.1 6H30.6C27.6 6 25 8.5 25 11.6V30.2C25 30.8 25.4 31.2 26 31.2C26.6 31.2 27 30.8 27 30.2V11.6C27 9.6 28.6 8 30.6 8H91C93 8 94.6 9.6 94.6 11.6V44.2C94.6 44.8 95 45.2 95.6 45.2C96.2 45.2 96.7 44.7 96.7 44.2Z" fill="#003959"/>
</svg>
