<svg width="120" height="120" viewBox="0 0 120 120" fill="none" xmlns="http://www.w3.org/2000/svg">
<path d="M6.7998 63.4C6.7998 78 12.5998 92 22.8998 102.4C33.1998 112.7 47.1998 118.5 61.8998 118.5C76.5998 118.5 90.4998 112.7 100.9 102.4C111.2 92 117 78 117 63.4C117 48.8 111.2 34.8 100.9 24.4C90.5998 14.1 76.5998 8.29999 61.8998 8.29999C47.1998 8.29999 33.2998 14.1 22.8998 24.4C12.5998 34.7 6.7998 48.8 6.7998 63.4Z" fill="#CCECEF"/>
<path d="M51.8999 57.6C51.8999 59.5 52.6999 61.3 53.9999 62.7C55.2999 64 57.1999 64.8 59.0999 64.8C60.9999 64.8 62.7999 64 64.1999 62.7C65.4999 61.4 66.2999 59.5 66.2999 57.6C66.2999 55.7 65.4999 53.9 64.1999 52.5C62.8999 51.2 60.9999 50.4 59.0999 50.4C57.1999 50.4 55.3999 51.2 53.9999 52.5C52.5999 53.9 51.8999 55.7 51.8999 57.6Z" fill="white"/>
<path d="M59.1 113.7C51.7 113.7 44.5 112.3 37.6 109.4C30.8 106.6 24.6 102.5 19.4 97.2C14.2 92 10.1 85.8 7.2 79C4.4 72.3 3 65 3 57.6C3 50.2 4.4 43 7.2 36.2C10 29.4 14.1 23.2 19.4 18C24.6 12.8 30.8 8.7 37.6 5.8C44.4 3 51.7 1.5 59.1 1.5C66.5 1.5 73.7 3 80.5 5.8C87.3 8.6 93.5 12.7 98.7 18C103.9 23.2 108 29.4 110.9 36.2C113.7 43 115.2 50.3 115.2 57.7C115.2 65.1 113.8 72.3 110.9 79.2C108.1 86 104 92.2 98.7 97.4C93.5 102.6 87.3 106.7 80.5 109.6C73.7 112.3 66.5 113.7 59.1 113.7ZM59.1 3.5C52 3.5 45 4.9 38.4 7.6C31.8 10.3 25.9 14.3 20.8 19.3C15.8 24.3 11.8 30.3 9.1 36.9C6.4 43.5 5 50.5 5 57.6C5 64.7 6.4 71.7 9.1 78.3C11.8 84.9 15.8 90.8 20.8 95.9C25.8 100.9 31.8 104.9 38.4 107.6C45 110.3 52 111.7 59.1 111.7C66.2 111.7 73.2 110.3 79.8 107.6C86.4 104.9 92.3 100.9 97.4 95.9C102.4 90.9 106.4 84.9 109.1 78.3C111.8 71.7 113.2 64.7 113.2 57.6C113.2 50.5 111.8 43.5 109.1 36.9C106.4 30.3 102.4 24.4 97.4 19.3C92.4 14.3 86.4 10.3 79.8 7.6C73.2 4.9 66.2 3.5 59.1 3.5ZM88.5 85.7L65.5 62.7C66.6 61.3 67.2 59.5 67.2 57.7C67.2 55.5 66.4 53.5 64.8 51.9C63.5 50.6 61.8 49.8 60 49.6V31.3C60 30.8 59.5 30.3 59 30.3C58.5 30.3 58 30.8 58 31.3V49.5C56.2 49.7 54.5 50.5 53.2 51.8C51.7 53.3 50.8 55.4 50.8 57.6C50.8 59.8 51.6 61.8 53.2 63.4C54.7 64.9 56.8 65.8 59 65.8C60.8 65.8 62.6 65.2 64 64.1L87 87.1C87.2 87.3 87.5 87.4 87.7 87.4C87.9 87.4 88.2 87.3 88.4 87.1C88.9 86.7 88.9 86.1 88.5 85.7ZM63.5 61.9L63.4 62L63.3 62.1C62.2 63.2 60.7 63.8 59.1 63.8C57.4 63.8 55.9 63.2 54.7 62C53.5 60.8 52.9 59.3 52.9 57.6C52.9 55.9 53.5 54.4 54.7 53.2C55.9 52 57.4 51.4 59.1 51.4C60.8 51.4 62.3 52 63.5 53.2C64.7 54.4 65.3 55.9 65.3 57.6C65.2 59.2 64.6 60.8 63.5 61.9Z" fill="#003959"/>
</svg>
