<svg width="80" height="80" viewBox="0 0 80 80" fill="none" xmlns="http://www.w3.org/2000/svg">
<path d="M27.5001 72.6999C27.1001 73.7999 27.6001 75 28.7001 75.4C28.9001 75.5 29.2001 75.5 29.4001 75.5H55.8001C56.9001 75.5 57.8001 74.6 57.8001 73.4C57.8001 73.1 57.8001 72.8999 57.7001 72.5999L42.7001 31.2L27.5001 72.6999Z" fill="#CCECEF"/>
<path d="M53.7999 73.9H27.3999C26.9999 73.9 26.6999 73.8 26.2999 73.7C25.6999 73.5 25.1999 73 24.8999 72.5C24.8999 72.4 24.7999 72.4 24.7999 72.3C24.3999 71.5 24.2999 70.6 24.5999 69.7L34.2999 43.1C34.2999 43.1 34.2999 43 34.3999 43L39.7999 28.3C39.8999 27.9 40.2999 27.6 40.6999 27.6C41.0999 27.6 41.4999 27.9 41.5999 28.3L56.5999 69.7C56.6999 70 56.7999 70.4 56.7999 70.8C56.7999 72.5 55.3999 73.9 53.7999 73.9ZM27.1999 71.9C27.2999 71.9 27.2999 71.9 27.3999 71.9H53.7999C53.8999 71.9 53.9999 71.9 53.9999 71.9L40.5999 60L27.1999 71.9ZM32.7999 53L26.6999 69.6L39.0999 58.6L32.7999 53ZM42.0999 58.6L54.3999 69.5L48.3999 53L42.0999 58.6ZM33.4999 51L40.5999 57.3L47.6999 51L45.2999 44.4H35.9999L33.4999 51ZM36.5999 42.4H44.4999L40.5999 31.6L36.5999 42.4ZM58.3999 23.2C57.7999 23.2 57.3999 22.8 57.3999 22.2C57.3999 12.9 49.8999 5.40002 40.5999 5.40002C31.2999 5.40002 23.8999 13 23.8999 22.2C23.8999 22.8 23.4999 23.2 22.8999 23.2C22.2999 23.2 21.8999 22.8 21.8999 22.2C21.8999 11.8 30.2999 3.40002 40.6999 3.40002C51.0999 3.40002 59.4999 11.8 59.4999 22.2C59.3999 22.8 58.9999 23.2 58.3999 23.2ZM49.5999 23.2C48.9999 23.2 48.5999 22.8 48.5999 22.2C48.5999 17.9 45.0999 14.3 40.6999 14.3C36.3999 14.3 32.7999 17.8 32.7999 22.2C32.7999 22.8 32.3999 23.2 31.7999 23.2C31.1999 23.2 30.7999 22.8 30.7999 22.2C30.7999 16.7 35.1999 12.3 40.6999 12.3C46.1999 12.3 50.5999 16.7 50.5999 22.2C50.5999 22.8 50.0999 23.2 49.5999 23.2Z" fill="#003959"/>
</svg>
