<svg width="80" height="80" viewBox="0 0 80 80" fill="none" xmlns="http://www.w3.org/2000/svg">
<path d="M6.1 34.8001C5.1 34.4001 4.2 33.6001 3.7 32.6001C3.2 31.6001 2.9 30.5001 3.1 29.4001C3.3 28.3001 3.8 27.3001 4.5 26.5001C5.2 25.7001 6.3 25.2001 7.4 25.0001L73.9 15.0001C74.9 14.9001 75.9 15.0001 76.8 15.4001C77.7 15.8001 78.5 16.5001 79 17.3001C79.5 18.1001 79.8 19.1001 79.8 20.1001C79.8 21.1001 79.5 22.1001 78.9 22.9001L44.9 72.8001C44.3 73.6001 43.5 74.3001 42.6 74.7001C41.7 75.1001 40.7 75.2001 39.7 75.0001C38.7 74.8001 37.8 74.4001 37.1 73.7001C36.4 73.0001 35.9 72.1001 35.7 71.2001L29.7 45.1001L6.1 34.8001Z" fill="#CCECEF"/>
<path d="M78 13.9C77.4 12.9 76.5 12.1 75.4 11.6C74.3 11.1 73.1 10.9 71.9 11.1L5.39999 21.1C4.19999 21.4 2.89999 22 1.99999 23C1.09999 23.9 0.499986 25.2 0.299986 26.5C0.0999857 27.8 0.399986 29.2 0.999986 30.3C1.59999 31.5 2.69999 32.4 3.89999 32.9L19.5 39.7L13.5 53.4C13 54.4 12.9 55.6 13 56.6C13.1 57.7 13.6 58.8 14.3 59.6C15 60.5 15.9 61.1 17 61.5C17.7 61.7 18.4 61.9 19.1 61.9C19.5 61.9 19.9 61.9 20.3 61.8L31 59.8L33 68.6C33.3 69.8 33.9 70.8 34.7 71.6C35.6 72.4 36.6 73 37.8 73.2C38.2 73.2999 38.5 73.3 38.9 73.3C39.7 73.3 40.5 73.1 41.3 72.8C42.4 72.3 43.3 71.6 44 70.6L78 20.7C78.7 19.7 79.1 18.6 79.1 17.4C79 16.1 78.6 14.9 78 13.9ZM4.69999 31C3.89999 30.7 3.19999 30 2.79999 29.2C2.39999 28.4 2.19999 27.5 2.29999 26.6C2.39999 25.7 2.79999 24.9 3.49999 24.2C4.09999 23.6 4.99999 23.1 5.79999 23L72.3 13C73.1 12.9 73.9 13 74.6 13.3C75 13.5 75.4 13.8 75.7 14.1L27.9 41.1H27.8L20.9 38.1L4.69999 31ZM30.4 57.8L19.8 59.8C19.1 59.9 18.3 59.9 17.6 59.6C16.9 59.3 16.3 58.9 15.8 58.3C15.3 57.7 15 57 14.9 56.3C14.8 55.5 14.9 54.8 15.2 54.1L21.2 40.4V40.3L26.9 42.8L30.4 57.8ZM76.2 19.5L42.2 69.4C41.7 70.1 41.1 70.6 40.4 70.9C39.7 71.2 38.9 71.3 38.1 71.1C37.3 71 36.6 70.6 36 70C35.4 69.5 35 68.7 34.8 68L32.6 58.6L28.9 42.7H29L76.7 15.9C76.8 16.3 76.9 16.8 76.9 17.3C76.9 18.1 76.7 18.8 76.2 19.5Z" fill="#003959"/>
</svg>
