<svg width="80" height="80" viewBox="0 0 80 80" fill="none" xmlns="http://www.w3.org/2000/svg">
<path d="M42.9999 73.3C45.3999 74.8 48.2999 75.5 51.0999 75.2C53.8999 74.9 56.5999 73.6 58.5999 71.6L60.3999 69.8C61.1999 69 61.5999 68 61.5999 66.8C61.5999 65.6 61.1999 64.6 60.3999 63.8L52.9999 56.6C52.5999 56.2 52.1999 55.9 51.5999 55.7C50.9999 55.5 50.5999 55.4 49.9999 55.4C49.4999 55.4 48.8999 55.5 48.3999 55.7C47.8999 55.9 47.3999 56.2 46.9999 56.6C46.1999 57.4 45.1999 57.8 43.9999 57.8C42.8999 57.8 41.7999 57.4 40.9999 56.6L29.3999 44.8C28.9999 44.4 28.6999 44 28.4999 43.4C28.2999 42.9 28.1999 42.4 28.1999 41.8C28.1999 41.3 28.2999 40.7 28.4999 40.2C28.6999 39.7 28.9999 39.2 29.3999 38.8C30.1999 38 30.5999 37 30.5999 35.8C30.5999 34.7 30.1999 33.6 29.3999 32.8L21.9999 25.6C21.1999 24.8 20.1999 24.4 18.9999 24.4C17.8999 24.4 16.7999 24.8 15.9999 25.6L14.1999 27.4C12.1999 29.4 10.8999 32.1 10.5999 34.9C10.2999 37.7 10.9999 40.6 12.4999 43C20.7999 54.9 31.0999 65.2 42.9999 73.3Z" fill="#CCECEF"/>
<path d="M74.3998 47.1C73.8998 47.1 73.3998 46.7 73.3998 46.2C72.2998 25.6 54.5998 7.89998 33.9998 6.79998C33.3998 6.79998 32.9998 6.29998 33.0998 5.69998C33.0998 5.09998 33.5998 4.69998 34.1998 4.79998C55.6998 5.99998 74.1998 24.5 75.3998 46.1C75.3998 46.6 74.9998 47.1 74.3998 47.1ZM61.0998 46.4C61.6998 46.4 62.0998 45.9 61.9998 45.3C61.1998 31 48.9998 18.8 34.7998 18.1C34.2998 18.1 33.7998 18.5 33.6998 19C33.6998 19.6 34.0998 20 34.5998 20.1C47.9998 20.9 59.2998 32.2 59.9998 45.5C60.0998 46 60.4998 46.4 61.0998 46.4ZM47.7998 45.8C48.3998 45.8 48.7998 45.3 48.6998 44.7C48.4998 41.3 46.9998 38.1 44.5998 35.6C42.0998 33.1 38.8998 31.6 35.4998 31.5C34.9998 31.5 34.4998 31.9 34.3998 32.4C34.3998 33 34.7998 33.4 35.2998 33.5C38.1998 33.7 40.8998 34.9 43.0998 37.1C45.1998 39.2 46.4998 42 46.6998 44.9C46.6998 45.3 47.1998 45.8 47.7998 45.8C47.6998 45.8 47.6998 45.8 47.7998 45.8Z" fill="#007F8B"/>
<path d="M44.7998 75.3001C42.1998 75.3001 39.6998 74.6 37.4998 73.2C37.4998 73.2 37.4998 73.2 37.3998 73.2C25.2998 64.9 14.9998 54.6001 6.79982 42.5C5.09982 39.9 4.39982 36.8001 4.69982 33.7001C4.99982 30.6 6.39982 27.8 8.59982 25.6L10.3998 23.8C11.3998 22.8 12.6998 22.3 14.0998 22.3C15.4998 22.3 16.7998 22.8 17.7998 23.8L25.1998 31.2001C26.1998 32.2001 26.6998 33.5001 26.6998 34.9001C26.6998 36.3001 26.1998 37.6 25.1998 38.6C24.8998 38.9 24.6998 39.2 24.4998 39.6C24.2998 40 24.2998 40.4 24.2998 40.8C24.2998 41.2 24.3998 41.6 24.4998 42C24.5998 42.4 24.8998 42.7001 25.1998 43L36.9998 54.8C38.1998 56 40.2998 56 41.4998 54.8C41.9998 54.3 42.4998 53.9001 43.1998 53.7001C44.4998 53.2001 45.8998 53.2001 47.1998 53.7001C47.7998 54 48.3998 54.3 48.8998 54.8L56.2998 62.2001C57.2998 63.2001 57.7998 64.5 57.7998 65.9001C57.7998 67.3001 57.2998 68.6 56.2998 69.6L54.5998 71.4001C52.3998 73.6001 49.5998 74.9001 46.4998 75.3001C45.7998 75.2001 45.2998 75.3001 44.7998 75.3001ZM38.5998 71.5C40.7998 72.9001 43.4998 73.5 46.0998 73.2C48.6998 72.9 51.0998 71.7001 52.9998 69.9001L54.7998 68.1C55.3998 67.5 55.6998 66.7001 55.6998 65.9001C55.6998 65.1001 55.3998 64.3 54.7998 63.7001L47.3998 56.3C47.0998 56 46.7998 55.8 46.3998 55.6C45.5998 55.3 44.6998 55.3 43.9998 55.6C43.5998 55.8 43.2998 56 42.9998 56.3C41.9998 57.3 40.6998 57.8 39.2998 57.8C37.8998 57.8 36.5998 57.3 35.5998 56.3L23.6998 44.5C23.1998 44 22.7998 43.5 22.5998 42.8C22.2998 42.2 22.1998 41.5 22.1998 40.8C22.1998 40.1 22.2998 39.5 22.5998 38.8C22.8998 38.2 23.1998 37.6 23.6998 37.1C24.2998 36.5 24.5998 35.7001 24.5998 34.9001C24.5998 34.1001 24.2998 33.3001 23.6998 32.7001L16.2998 25.3C15.0998 24.1 12.9998 24.1 11.7998 25.3L10.0998 27C8.29982 28.8 7.09982 31.3001 6.79982 33.9001C6.49982 36.5001 7.09982 39.1 8.49982 41.3C16.5998 53.3 26.6998 63.4 38.5998 71.5Z" fill="#003959"/>
</svg>
