<svg width="80" height="80" viewBox="0 0 80 80" fill="none" xmlns="http://www.w3.org/2000/svg">
<path d="M32.2 9.80005H54.2C59.2 9.80005 63.2 13.8 63.2 18.8V69.6C63.2 74.6001 59.2 78.6 54.2 78.6H32.2C27.2 78.6 23.2 74.6001 23.2 69.6V18.8C23.2 13.9 27.3 9.80005 32.2 9.80005Z" fill="#CCECEF"/>
<path d="M41 19.6C41 23.7 42.6 27.6 45.5 30.5C48.4 33.4 52.3 35 56.4 35C60.5 35 64.4 33.4 67.3 30.5C70.2 27.6 71.8 23.7 71.8 19.6C71.8 15.5 70.2 11.6 67.3 8.69995C64.4 5.79995 60.5 4.19995 56.4 4.19995C52.3 4.19995 48.4 5.79995 45.5 8.69995C42.7 11.6 41 15.5 41 19.6Z" fill="white"/>
<path d="M41.1 34.5H26.3C25.7 34.5 25.3 34.1 25.3 33.5C25.3 32.9 25.7 32.5 26.3 32.5H41.1C41.7 32.5 42.1 32.9 42.1 33.5C42.1 34.1 41.7 34.5 41.1 34.5ZM39.1 26.7001C39.1 26.1 38.7 25.7001 38.1 25.7001H26.3C25.7 25.7001 25.3 26.1 25.3 26.7001C25.3 27.3001 25.7 27.7001 26.3 27.7001H38.1C38.7 27.7001 39.1 27.3001 39.1 26.7001ZM36.1 20C36.1 19.4 35.7 19 35.1 19H26.3C25.7 19 25.3 19.4 25.3 20C25.3 20.6 25.7 21 26.3 21H35.1C35.7 21 36.1 20.5 36.1 20ZM53.9001 47C53.9001 46.4001 53.5001 46 52.9001 46H26.3C25.7 46 25.3 46.4001 25.3 47C25.3 47.6 25.7 48 26.3 48H52.9001C53.5001 48 53.9001 47.5 53.9001 47ZM53.9001 53.7001C53.9001 53.1001 53.5001 52.7001 52.9001 52.7001H26.3C25.7 52.7001 25.3 53.1001 25.3 53.7001C25.3 54.3 25.7 54.7001 26.3 54.7001H52.9001C53.5001 54.7001 53.9001 54.3 53.9001 53.7001ZM53.9001 40.2001C53.9001 39.6 53.5001 39.2001 52.9001 39.2001H26.3C25.7 39.2001 25.3 39.6 25.3 40.2001C25.3 40.8001 25.7 41.2001 26.3 41.2001H52.9001C53.5001 41.2001 53.9001 40.8001 53.9001 40.2001ZM64.5 18.2C64.1 17.5 63.5 17 62.8 16.7L59 15.4C58.7001 15.3 58.4 15.1 58.3 14.8C58.1 14.6 58.1001 14.3 58.2001 14C58.3 13.7 58.4001 13.5 58.7001 13.3C59 13.1 59.3 13 59.6 13H63.3C63.9 13 64.3001 12.5 64.3001 12C64.3001 11.5 63.9 11 63.3 11H61.6V10.3C61.6 9.80005 61.1 9.30005 60.6 9.30005C60 9.30005 59.6 9.80005 59.6 10.3V11C58.8 11 58.1 11.3 57.5 11.7C56.9 12.2 56.5 12.9 56.3 13.6C56.2 14.4 56.3001 15.1 56.7001 15.8C57.1 16.5 57.7001 17 58.4001 17.3L62.1 18.7C62.4 18.8 62.7001 19 62.8 19.3C63 19.5 63 19.8 62.9001 20.1C62.8001 20.4 62.7001 20.6 62.4001 20.8C62.2001 21 61.8 21.1 61.5 21.1H57.8C57.3 21.1 56.8 21.5 56.8 22.1C56.8 22.6 57.3 23.1 57.8 23.1H59.5V23.8C59.5 24.4 59.9001 24.8 60.5 24.8C61 24.8 61.5 24.4 61.5 23.8V23C62.3 23 63 22.7 63.6 22.3C64.2 21.8 64.6001 21.1 64.8001 20.4C65.0001 19.7 64.9001 18.9 64.5 18.2Z" fill="#007F8B"/>
<path d="M28.8999 75.7C23.3999 75.7 18.8999 71.2 18.8999 65.6V16.1C18.8999 10.5 23.3999 6 28.8999 6H34.6999C35.2999 6 35.6999 6.4 35.6999 7C35.6999 7.6 35.2999 8 34.6999 8H28.8999C24.4999 8 20.8999 11.6 20.8999 16.1V60.8H58.3999V41.8C58.3999 41.2 58.7999 40.8 59.3999 40.8C59.9999 40.8 60.3999 41.2 60.3999 41.8V65.6C60.3999 71.2 55.8999 75.7 50.3999 75.7H28.8999ZM20.8999 62.8V65.7C20.8999 70.1 24.4999 73.8 28.8999 73.8H50.3999C54.7999 73.8 58.3999 70.2 58.3999 65.7V62.8H20.8999ZM60.1999 33.7C55.7999 33.7 51.6999 32 48.5999 28.9C45.4999 25.8 43.7999 21.7 43.7999 17.3C43.7999 12.9 45.4999 8.8 48.5999 5.7C51.6999 2.7 55.7999 1 60.1999 1C64.5999 1 68.6999 2.7 71.7999 5.8C74.8999 8.9 76.5999 13 76.5999 17.4C76.5999 21.8 74.8999 25.9 71.7999 29C68.5999 32 64.4999 33.7 60.1999 33.7ZM60.1999 3C56.2999 3 52.6999 4.5 49.9999 7.2C47.2999 9.9 45.7999 13.5 45.7999 17.4C45.7999 21.2 47.2999 24.8 49.9999 27.6C52.6999 30.3 56.2999 31.8 60.1999 31.8C63.9999 31.8 67.5999 30.3 70.3999 27.6C73.0999 24.9 74.5999 21.3 74.5999 17.4C74.5999 13.6 73.0999 10 70.3999 7.2C67.5999 4.5 63.9999 3 60.1999 3Z" fill="#003959"/>
</svg>
