<svg width="80" height="80" viewBox="0 0 80 80" fill="none" xmlns="http://www.w3.org/2000/svg">
<path d="M78.3002 43.9001C78.6002 42.2001 77.6002 40.6 75.9002 40.2001C75.7002 40.1 75.5002 40.1 75.3002 40.1H37.2002C35.7002 40.1 34.5002 39.1 34.2002 37.6L33.3002 33.3C33.0002 31.8 31.8002 30.8 30.3002 30.8H10.3002C8.6002 30.8 7.2002 32.2001 7.2002 33.9001C7.2002 34.1001 7.2002 34.3 7.3002 34.5L15.4002 74.8001C15.7002 76.3001 16.9002 77.3001 18.4002 77.3001H69.2002C70.7002 77.3001 71.9002 76.3001 72.2002 74.8001C73.3002 68.5001 76.7002 51.5001 78.3002 43.9001Z" fill="#CCECEF"/>
<path d="M59.3999 33.7H35.9999C34.6999 33.7 33.6999 32.8 33.4999 31.6L30.5999 14.6C30.2999 13.1 31.4999 11.7 33.0999 11.7H59.2999C60.7999 11.7 61.8999 12.8 61.8999 14.2V31.2999C61.9999 32.5999 60.7999 33.7 59.3999 33.7Z" fill="white"/>
<path d="M53.7999 16.3H26.3999C25.7999 16.3 25.3999 15.9 25.3999 15.3C25.3999 14.7 25.7999 14.3 26.3999 14.3H53.8999C54.4999 14.3 54.8999 14.7 54.8999 15.3C54.8999 15.9 54.3999 16.3 53.7999 16.3ZM54.7999 24.9C54.7999 24.3 54.3999 23.9 53.7999 23.9H40.3999C39.7999 23.9 39.3999 24.3 39.3999 24.9C39.3999 25.5 39.7999 25.9 40.3999 25.9H53.7999C54.3999 25.9 54.7999 25.5 54.7999 24.9Z" fill="#007F8B"/>
<path d="M63.5001 75.1H12.8001C10.8001 75.1 9.2001 73.7 8.8001 71.8L0.700098 31.6C0.600098 31.3 0.600098 31 0.600098 30.8C0.600098 28.6 2.4001 26.7 4.7001 26.7H24.7001C26.7001 26.7 28.3001 28.1 28.7001 30L29.6001 34.3C29.8001 35.3 30.6001 36 31.6001 36H69.7001C69.9001 36 70.2001 36 70.6001 36.1C72.8001 36.6 74.2001 38.7 73.7001 40.9C72.2001 48.1 69.1001 63.9 67.7001 70.9L67.5001 71.8C67.1001 73.7 65.5001 75.1 63.5001 75.1ZM4.7001 28.6C3.6001 28.6 2.6001 29.5 2.6001 30.7C2.6001 30.8 2.6001 30.9 2.6001 31V31.1L10.7001 71.4C10.9001 72.4 11.7001 73.1 12.7001 73.1H63.4001C64.4001 73.1 65.2001 72.4 65.4001 71.5L65.6001 70.6C67.0001 63.7 70.2001 47.8 71.6001 40.6C71.8001 39.5 71.1001 38.3 70.0001 38.1H69.9001C69.9001 38.1 69.7001 38.1 69.6001 38.1H31.6001C29.6001 38.1 28.0001 36.7 27.6001 34.8L26.7001 30.5C26.5001 29.5 25.7001 28.8 24.7001 28.8H4.7001V28.6ZM64.4001 30.8V9.1C64.4001 6.9 62.6001 5 60.3001 5H20.1001C17.8001 5 16.0001 6.8 16.0001 9.1V21.5C16.0001 22.1 16.4001 22.5 17.0001 22.5C17.6001 22.5 18.0001 22.1 18.0001 21.5V9.1C18.0001 7.9 18.9001 7 20.1001 7H60.4001C61.5001 7 62.5001 7.9 62.5001 9.1V30.8C62.5001 31.4 62.9001 31.8 63.5001 31.8C64.1001 31.8 64.4001 31.3 64.4001 30.8Z" fill="#003959"/>
</svg>
