<svg width="80" height="80" viewBox="0 0 80 80" fill="none" xmlns="http://www.w3.org/2000/svg">
<path d="M41.0002 54C41.0002 50.6 45.2002 47.8 50.4002 47.8C55.6002 47.8 59.8002 50.6 59.8002 54C60.3002 50.2 63.7002 47.4 67.6002 47.8C71.5002 47.4 74.9002 50.2 75.4002 54V52.4C75.4002 32.6 60.9002 16.6 41.0002 16.6C21.1002 16.6 6.7002 32.6 6.7002 52.4V54C7.2002 50.2 10.6002 47.4 14.5002 47.8C18.4002 47.4 21.8002 50.2 22.3002 54C22.3002 50.6 26.5002 47.8 31.7002 47.8C36.8002 47.7 41.0002 50.6 41.0002 54Z" fill="#CCECEF"/>
<path d="M72.7 48.1C72.7 48.6 72.7 49.2 72.7 49.7C71.5 46.6 68.5 44.5 65 44.5C61.5 44.5 58.4 46.8 57.2 50C56 46.8 52.2 44.5 47.8 44.5C46.8 44.5 45.9 44.6 45 44.8C41.9 40.7 40 35.5 40 29.9C40 23.8 42.2 18.2 45.9 13.9C61.3 17.5 72.7 31.4 72.7 48.1Z" fill="white"/>
<path d="M39.2998 12V6.80005C39.2998 6.20005 38.8998 5.80005 38.2998 5.80005C37.7998 5.80005 37.2998 6.20005 37.2998 6.80005V12C18.0998 12.5 3.2998 28.4 3.2998 48.6V50.1C3.2998 50.6 3.6998 51.1 4.1998 51.1C4.6998 51.1 5.1998 50.7001 5.2998 50.2001C5.69981 46.8 8.9998 45 11.9998 45C14.9998 45 18.2998 47 18.7998 50.3C18.8998 50.8 19.2998 51.2001 19.7998 51.2001H19.8998C20.3998 51.2001 20.7998 50.7001 20.7998 50.2001C20.7998 47.4001 24.5998 45 29.0998 45C33.5998 45 37.3998 47.4001 37.3998 50.2001V73.4C37.3998 76.5 39.8998 79 42.9998 79C46.0998 79 48.5998 76.5 48.5998 73.4V71.9C48.5998 71.4 48.1998 70.9 47.5998 70.9C47.0998 70.9 46.5998 71.4 46.5998 71.9V73.4C46.5998 75.4 44.9998 77 42.9998 77C40.9998 77 39.3998 75.4 39.3998 73.4V50.1C39.3998 47.3 43.1998 44.9001 47.6998 44.9001C52.1998 44.9001 55.9998 47.3 55.9998 50.1C55.9998 50.6 56.3998 51.1 56.8998 51.1C57.3998 51.1 57.8998 50.7001 57.9998 50.2001C58.3998 47.1001 61.1998 44.9001 64.6998 44.9001C68.2998 44.9001 71.0998 47.1001 71.4998 50.2001C71.5998 50.7001 71.9998 51.1 72.5998 51.1C73.0998 51.1 73.4998 50.6 73.4998 50.1V48.6C73.3998 28.4 58.4998 12.5 39.2998 12ZM64.6998 43C61.2998 43 58.4998 44.6 56.9998 47.1C55.3998 44.7 51.8998 43 47.6998 43C43.4998 43 39.9998 44.6 38.3998 47.1C36.6998 44.7 33.1998 43 29.0998 43C24.8998 43 21.3998 44.7 19.7998 47.1C18.0998 44.4 14.8998 43 11.9998 43C9.2998 43 6.9998 44 5.3998 45.7001C6.7998 27.7001 20.7998 14 38.2998 14C55.7998 14 69.7998 27.6 71.1998 45.6C69.6998 43.9 67.2998 43 64.6998 43Z" fill="#003959"/>
<path d="M34.0001 54.0999C33.4001 54.0999 33.0001 53.6999 33.0001 53.0999V44.2C33.0001 43.6 33.4001 43.2 34.0001 43.2C34.6001 43.2 35.0001 43.6 35.0001 44.2V53.0999C35.0001 53.5999 34.5001 54.0999 34.0001 54.0999ZM20.7001 20.7V15.8C20.7001 15.2 20.3001 14.8 19.7001 14.8C19.1001 14.8 18.7001 15.2 18.7001 15.8V20.7C18.7001 21.3 19.1001 21.7 19.7001 21.7C20.3001 21.7 20.7001 21.2 20.7001 20.7ZM16.6001 54.9V51.5C16.6001 50.9 16.2001 50.5 15.6001 50.5C15.0001 50.5 14.6001 50.9 14.6001 51.5V54.9C14.6001 55.5 15.0001 55.9 15.6001 55.9C16.2001 55.9 16.6001 55.4 16.6001 54.9ZM54.5001 57.4V52.5C54.5001 51.9 54.1001 51.5 53.5001 51.5C52.9001 51.5 52.5001 51.9 52.5001 52.5V57.4C52.5001 58 52.9001 58.4 53.5001 58.4C54.1001 58.4 54.5001 58 54.5001 57.4ZM25.5001 62V58.4C25.5001 57.8 25.1001 57.4 24.5001 57.4C23.9001 57.4 23.5001 57.8 23.5001 58.4V62C23.5001 62.5999 23.9001 63 24.5001 63C25.1001 63 25.5001 62.5 25.5001 62ZM46.8001 7.59995V2.69995C46.8001 2.09995 46.4001 1.69995 45.8001 1.69995C45.2001 1.69995 44.8001 2.09995 44.8001 2.69995V7.59995C44.8001 8.19995 45.2001 8.59995 45.8001 8.59995C46.4001 8.59995 46.8001 8.19995 46.8001 7.59995ZM25.5001 7.99995V4.39995C25.5001 3.79995 25.1001 3.39995 24.5001 3.39995C23.9001 3.39995 23.5001 3.79995 23.5001 4.39995V7.99995C23.5001 8.59995 23.9001 8.99995 24.5001 8.99995C25.1001 8.99995 25.5001 8.59995 25.5001 7.99995ZM59.3001 24.6V15.1C59.3001 14.5 58.9001 14.1 58.3001 14.1C57.7001 14.1 57.3001 14.5 57.3001 15.1V24.6C57.3001 25.2 57.7001 25.6 58.3001 25.6C58.9001 25.6 59.3001 25.2 59.3001 24.6ZM29.0001 26.4V21.1C29.0001 20.5 28.6001 20.1 28.0001 20.1C27.4001 20.1 27.0001 20.5 27.0001 21.1V26.4C27.0001 27 27.4001 27.4 28.0001 27.4C28.6001 27.4 29.0001 26.9 29.0001 26.4Z" fill="#007F8B"/>
</svg>
