<svg width="80" height="80" viewBox="0 0 80 80" fill="none" xmlns="http://www.w3.org/2000/svg">
<path d="M77.0999 9.3C76.5999 8.2 75.7999 7 74.4999 7H35.9999C34.0999 7 33.0999 8.5 32.6999 9.7C32.4999 10.3 32.3999 11 32.2999 11.4C32.2999 11.6 32.2999 11.8 32.1999 12C32.1999 12.1 32.1999 12.1 32.1999 12.2V12.3V12.5C32.1999 12.7 32.1999 13 32.1999 13.4C32.1999 14.2 32.1999 15.3 32.1999 16.7C32.1999 19.5 32.0999 23.5 31.8999 28C31.5999 36.9 30.7999 47.8 29.1999 56.3H15.7999C14.6999 56.3 13.7999 56.6 13.1999 57.3C12.5999 57.9 12.1999 58.8 11.9999 59.7C11.6999 61.2 11.6999 63.1 11.6999 65.1C11.6999 65.5 11.6999 65.9 11.6999 66.2C11.6999 68.5 11.5999 70.7 10.8999 72.3C10.5999 73.1 10.0999 73.7 9.3999 74.1C8.6999 74.5 7.7999 74.8 6.4999 74.8C6.1999 74.8 5.8999 75.1 5.8999 75.4C5.9999 75.7 6.2999 76 6.5999 76H43.5999C44.9999 76 46.1999 75.7 47.0999 75.1C47.9999 74.5 48.5999 73.7 49.0999 72.7C49.4999 71.8 49.6999 70.8 49.7999 69.8H62.0999C63.7999 69.8 65.0999 68.7 66.0999 67.1C67.0999 65.5 67.9999 63.2 68.6999 60.5C70.0999 55.1 70.8999 47.9 71.3999 40.8C71.8999 33.7 71.9999 26.5 72.0999 21.2C72.0999 19.9 72.0999 18.6 72.0999 17.5H74.3999C74.4999 17.5 74.6999 17.5 74.7999 17.5C76.7999 17.3 78.2999 15.4 77.9999 13.4C77.7999 12 77.4999 10.5 77.0999 9.3Z" fill="#CCECEF"/>
<path d="M27.6 8.7C27.8 6.1 29.9 4 32.6 4H60.8C63.6 4 65.9 6.4 65.8 9.2C65.3 20.5 64 46.4 63.2 48.5C61 53.9 39.6 53.2 29.9 52.6C27.2 52.4 25.2 50.1 25.4 47.4L27.6 8.7Z" fill="white"/>
<path d="M48.1001 17.3H38.4001C37.8001 17.3 37.4001 16.9 37.4001 16.3C37.4001 15.7 37.8001 15.3 38.4001 15.3H48.1001C48.7001 15.3 49.1001 15.7 49.1001 16.3C49.1001 16.9 48.6001 17.3 48.1001 17.3ZM61.1001 35.8C61.1001 35.2 60.7001 34.8 60.1001 34.8H36.1001C35.5001 34.8 35.1001 35.2 35.1001 35.8C35.1001 36.4 35.5001 36.8 36.1001 36.8H60.1001C60.6001 36.8 61.1001 36.4 61.1001 35.8ZM61.8001 26.1C61.8001 25.5 61.4001 25.1 60.8001 25.1H36.8001C36.2001 25.1 35.8001 25.5 35.8001 26.1C35.8001 26.7 36.2001 27.1 36.8001 27.1H60.8001C61.4001 27.1 61.8001 26.6 61.8001 26.1ZM62.6001 45.5C62.6001 44.9 62.2001 44.5 61.6001 44.5L34.1001 44.3C33.6001 44.3 33.1001 44.7 33.1001 45.3C33.1001 45.9 33.5001 46.3 34.1001 46.3L61.6001 46.5C62.1001 46.5 62.6001 46.1 62.6001 45.5Z" fill="#007F8B"/>
<path d="M75.6 9.8C75.1 5.4 73.8 3.1 71.9 3C71.8 3 71.8 3 71.7 3H32.2C28.9 3 28 6.7 28 8.8C28 9.1 28.3 36.3 25 53.6H11.5C10.3 53.6 9.3 54 8.5 54.7C6.8 56.4 6.9 59.5 6.9 62.9C6.9 66.3 6.9 69.7 5.3 71.4C4.5 72.2 3.5 72.5 2 72.5C1.5 72.5 1 72.9 1 73.5C1 74 1.5 74.5 2 74.5H39.9C41.9 74.5 43.5 73.9 44.6 72.8C45.8 71.6 46.3 70 46.6 68.2H58.9C60.1 68.2 61.2 67.7 62.2 66.7C65.8 63 68.1 52.1 69 34.3C69.4 26.7 69.5 19.4 69.5 14.5H71.5C71.7 14.5 71.8 14.5 72 14.5C73.1 14.4 74.1 13.8 74.8 13C75.4 12 75.7 10.9 75.6 9.8ZM43.2 71.3C42.4 72.1 41.4 72.4 39.9 72.4H7C9 70.1 9 66.4 8.9 62.7C8.9 59.9 8.9 57 9.9 56C10.1 55.8 10.5 55.5 11.4 55.5H45.7C44.7 57.3 44.7 60 44.7 62.8C44.9 66.2 44.9 69.7 43.2 71.3ZM46.8 66.2C46.8 65.1 46.8 64 46.8 62.8C46.8 60 46.8 57.1 47.9 56.1C48.1 55.9 48.5 55.6 49.4 55.6C50.3 55.6 50.9 55.8 51.3 56.2C52 56.9 52 58.5 52 60.2C52 62.3 52 64.6 53.4 66.3H46.8V66.2ZM67.1 34.1C66 55.7 63.1 62.9 60.9 65.2C60.3 65.8 59.7 66.1 59 66.1C57.2 66.1 55.9 65.7 55.1 65C54 63.9 54 61.9 54.1 60C54.1 58 54.1 55.9 52.9 54.6C52.1 53.8 51.1 53.4 49.6 53.4H27C30.3 35.9 30 8.9 30 8.6C30 8.6 30.1 4.8 32.2 4.8H68.4C67.7 6 67.4 7.5 67.4 8.6C67.4 8.9 67.7 21.1 67.1 34.1ZM73.2 11.6C72.8 12.1 72.3 12.3 71.7 12.4C71.6 12.4 71.5 12.4 71.5 12.4H69.5C69.5 10.1 69.4 8.7 69.4 8.7C69.4 8.7 69.5 4.9 71.6 4.9C72.3 4.9 73.1 6.5 73.5 10C73.7 10.6 73.5 11.2 73.2 11.6Z" fill="#003959"/>
</svg>
