<svg width="80" height="80" viewBox="0 0 80 80" fill="none" xmlns="http://www.w3.org/2000/svg">
<path d="M4.8999 42.2999C4.8999 51.7 8.5999 60.7999 15.2999 67.5C21.9999 74.2 30.9999 77.9 40.4999 77.9C49.9999 77.9 58.9999 74.2 65.6999 67.5C72.2999 60.7999 75.9999 51.7 75.9999 42.2999C75.9999 32.9 72.2999 23.8 65.5999 17.1C58.8999 10.5 49.8999 6.69995 40.3999 6.69995C30.8999 6.69995 21.8999 10.4 15.1999 17.1C8.5999 23.8 4.8999 32.7999 4.8999 42.2999Z" fill="#CCECEF"/>
<path d="M33.8999 38.6C33.8999 39.8 34.3999 41 35.2999 41.9C36.1999 42.8 37.3999 43.3 38.5999 43.3C39.7999 43.3 40.9999 42.8 41.8999 41.9C42.7999 41 43.2999 39.8 43.2999 38.6C43.2999 37.4 42.7999 36.2 41.8999 35.3C40.9999 34.4 39.7999 33.9 38.5999 33.9C37.3999 33.9 36.1999 34.4 35.2999 35.3C34.3999 36.2 33.8999 37.3 33.8999 38.6Z" fill="white"/>
<path d="M72.4 24.6C70.6 20.1 67.9 16.2 64.5 12.7C61 9.3 57 6.6 52.6 4.8C48.1 2.9 43.4 2 38.6 2C33.8 2 29.1 2.9 24.6 4.8C20.1 6.7 16.1 9.3 12.7 12.7C9.3 16.1 6.6 20.1 4.8 24.6C2.9 29 2 33.7 2 38.6C2 43.4 2.9 48.1 4.8 52.6C6.6 57 9.3 61 12.7 64.4C16.1 67.8 20.1 70.5 24.6 72.3C29.1 74.1 33.8 75.1 38.6 75.1C43.4 75.1 48.1 74.2 52.6 72.3C57.1 70.4 61.1 67.8 64.5 64.4C67.9 61 70.6 57 72.4 52.5C74.3 48 75.2 43.3 75.2 38.5C75.1 33.7 74.2 29 72.4 24.6ZM70.5 51.8C68.8 56 66.2 59.8 63 63C59.8 66.2 56 68.8 51.8 70.5C47.6 72.3 43.1 73.1 38.6 73.1C34 73.1 29.6 72.2 25.4 70.5C21.2 68.8 17.4 66.2 14.2 63C11 59.8 8.4 56 6.7 51.8C4.9 47.6 4 43.1 4 38.6C4 34 4.9 29.6 6.6 25.4C8.4 21.2 10.9 17.4 14.1 14.2C17.3 11 21.1 8.4 25.3 6.7C29.6 4.9 34 4 38.6 4C43.2 4 47.6 4.9 51.8 6.6C56 8.4 59.8 10.9 63 14.1C66.2 17.3 68.8 21.1 70.5 25.3C72.3 29.5 73.1 34 73.1 38.5C73.1 43.1 72.3 47.6 70.5 51.8ZM57.8 56.4L43.2 41.8C43.9 40.9 44.2 39.8 44.2 38.6C44.2 37.1 43.6 35.7 42.5 34.6C41.7 33.8 40.6 33.2 39.5 33V21.6C39.5 21.1 39 20.6 38.5 20.6C38 20.6 37.5 21.1 37.5 21.6V33C36.4 33.2 35.3 33.7 34.5 34.6C33.4 35.7 32.8 37.1 32.8 38.6C32.8 40.1 33.4 41.5 34.5 42.6C35.6 43.7 37 44.2 38.5 44.2C39.7 44.2 40.8 43.9 41.7 43.2L56.3 57.8C56.5 58 56.8 58.1 57 58.1C57.3 58.1 57.5 58 57.7 57.8C58.2 57.5 58.2 56.8 57.8 56.4ZM36 41.1C35.3 40.4 34.9 39.5 34.9 38.5C34.9 37.5 35.3 36.6 36 35.9C36.7 35.2 37.6 34.8 38.6 34.8C39.6 34.8 40.5 35.2 41.2 35.9C41.9 36.6 42.3 37.5 42.3 38.5C42.3 39.4 41.9 40.3 41.3 41C41.3 41 41.3 41.1 41.2 41.1L41.1 41.2C39.7 42.5 37.3 42.5 36 41.1Z" fill="#003959"/>
</svg>
