<svg width="80" height="80" viewBox="0 0 80 80" fill="none" xmlns="http://www.w3.org/2000/svg">
<path d="M59.2 32.5V69.6C59.2 74.6001 55.2 78.6 50.2 78.6H28.2C23.2 78.6 19.2 74.6001 19.2 69.6V18.8C19.2 13.8 23.2 9.80005 28.2 9.80005H45.4L35.0999 29.4C34.8999 29.7 34.8 30.1 34.9 30.5C34.9 30.9 35 31.2001 35.2 31.5C35.4 31.8 35.7 32.1 36 32.3C36.2999 32.5 36.6999 32.6 37.0999 32.6H59.2V32.5Z" fill="#CCECEF"/>
<path d="M50.7001 7.29995C50.5001 6.99995 50.2001 6.69995 49.9001 6.49995C49.6001 6.29995 49.2001 6.19995 48.8001 6.19995C48.4001 6.19995 48.0001 6.29995 47.7001 6.49995C47.2001 6.69995 47.0001 6.99995 46.8001 7.29995L35.1001 29.4C34.9001 29.7 34.8001 30.1 34.9001 30.5C34.9001 30.9 35.0001 31.2 35.2001 31.5C35.4001 31.7999 35.7001 32.0999 36.0001 32.2999C36.3001 32.5 36.7001 32.5999 37.1001 32.5999H60.5001C60.9001 32.5999 61.2001 32.5 61.6001 32.2999C61.9001 32.0999 62.2001 31.9 62.4001 31.5C62.6001 31.2 62.7001 30.7999 62.7001 30.5C62.7001 30.1 62.6001 29.8 62.5001 29.4L50.7001 7.29995Z" fill="white"/>
<path d="M54.1 20.1C53.5 20.1 53.1 19.7 53.1 19.1V12.5C53.1 11.9 53.5 11.5 54.1 11.5C54.7 11.5 55.1 11.9 55.1 12.5V19.1C55.1 19.6 54.7 20.1 54.1 20.1ZM55.1 23.5V22.8C55.1 22.2 54.7 21.8 54.1 21.8C53.5 21.8 53.1 22.2 53.1 22.8V23.5C53.1 24.1 53.5 24.5 54.1 24.5C54.7 24.5 55.1 24 55.1 23.5ZM30.1 33.5C30.1 32.9 29.7001 32.5 29.1 32.5H22.3C21.7 32.5 21.3 32.9 21.3 33.5C21.3 34.1 21.7 34.5 22.3 34.5H29.1C29.7001 34.5 30.1 34 30.1 33.5ZM32.1 26.7C32.1 26.1 31.7001 25.7 31.1 25.7H22.3C21.7 25.7 21.3 26.1 21.3 26.7C21.3 27.3 21.7 27.7 22.3 27.7H31.1C31.7001 27.7 32.1 27.3 32.1 26.7ZM36.1 20C36.1 19.4 35.7 19 35.1 19H22.3C21.7 19 21.3 19.4 21.3 20C21.3 20.6 21.7 21 22.3 21H35.1C35.7 21 36.1 20.5 36.1 20ZM49.9001 47C49.9001 46.4 49.5001 46 48.9001 46H22.3C21.7 46 21.3 46.4 21.3 47C21.3 47.6 21.7 48 22.3 48H48.9001C49.5001 48 49.9001 47.5 49.9001 47ZM49.9001 53.7C49.9001 53.1 49.5001 52.7 48.9001 52.7H22.3C21.7 52.7 21.3 53.1 21.3 53.7C21.3 54.3 21.7 54.7 22.3 54.7H48.9001C49.5001 54.7 49.9001 54.3 49.9001 53.7ZM49.9001 40.2C49.9001 39.6 49.5001 39.2 48.9001 39.2H22.3C21.7 39.2 21.3 39.6 21.3 40.2C21.3 40.8 21.7 41.2 22.3 41.2H48.9001C49.5001 41.2 49.9001 40.8 49.9001 40.2Z" fill="#007F8B"/>
<path d="M65.7999 30.3H42.3999C41.8999 30.3 41.2999 30.2 40.8999 29.9C40.3999 29.6 39.9999 29.3 39.6999 28.8C39.3999 28.3 39.1999 27.8 39.1999 27.3C39.1999 26.8 39.2999 26.2001 39.5999 25.7001L51.2999 3.70005C51.5999 3.20005 51.9999 2.80005 52.4999 2.50005C53.4999 1.90005 54.7999 1.90005 55.7999 2.50005C56.2999 2.80005 56.6999 3.20005 56.9999 3.70005L68.6999 25.8C68.9999 26.3 69.0999 26.8 69.0999 27.4C69.0999 27.9 68.8999 28.5 68.5999 28.9C68.2999 29.4 67.8999 29.7001 67.3999 30C66.8999 30.2001 66.3999 30.3 65.7999 30.3ZM54.0999 4.00005C53.8999 4.00005 53.6999 4.10005 53.4999 4.20005C53.2999 4.30005 53.1999 4.50005 53.0999 4.70005L41.2999 26.7001C41.1999 26.9001 41.1999 27.1 41.1999 27.3C41.1999 27.5 41.2999 27.7 41.3999 27.8C41.4999 28 41.6999 28.1 41.7999 28.2001C41.9999 28.3001 42.1999 28.3 42.3999 28.3H65.7999C65.9999 28.3 66.1999 28.2001 66.3999 28.2001C66.5999 28.1 66.6999 28 66.7999 27.8C66.8999 27.6 66.9999 27.5 66.9999 27.3C66.9999 27.1 66.9999 26.9001 66.8999 26.7001L55.1999 4.60005C55.0999 4.40005 54.8999 4.30005 54.7999 4.10005C54.4999 4.10005 54.2999 4.00005 54.0999 4.00005ZM24.8999 75.7C22.1999 75.7 19.6999 74.7001 17.7999 72.8C15.8999 70.9 14.8999 68.4 14.8999 65.7V16.1C14.8999 10.5 19.3999 6.00005 24.8999 6.00005H30.6999C31.2999 6.00005 31.6999 6.40005 31.6999 7.00005C31.6999 7.60005 31.2999 8.00005 30.6999 8.00005H24.8999C20.4999 8.00005 16.8999 11.6 16.8999 16.1V60.8H54.3999V41.8C54.3999 41.2001 54.7999 40.8 55.3999 40.8C55.9999 40.8 56.3999 41.2001 56.3999 41.8V65.6C56.3999 71.2001 51.8999 75.7 46.3999 75.7H24.8999ZM16.8999 62.8V65.7C16.8999 67.9 17.6999 69.9 19.1999 71.4C20.6999 72.9 22.6999 73.8 24.7999 73.8H46.2999C50.6999 73.8 54.2999 70.2 54.2999 65.7V62.8H16.8999Z" fill="#003959"/>
</svg>
