<svg width="80" height="80" viewBox="0 0 80 80" fill="none" xmlns="http://www.w3.org/2000/svg">
<path d="M69.3999 58.5C74.5999 56.2 77.8999 51.2 77.7999 45.7C77.7999 37.4 70.7999 30.7 62.2999 30.7C62.0999 30.7 61.8999 30.7 61.6999 30.7C57.9999 23.4 50.3999 18.7 41.9999 18.6C30.4999 18.3 20.7999 26.7 19.8999 37.8C13.5999 36.4 7.29993 40.2 5.89993 46.3C5.69993 47 5.59993 47.8 5.59993 48.5C5.29993 53.5 8.69993 57.9 13.6999 59.1" fill="#CCECEF"/>
<path d="M45.1001 71.6C42.7001 70.6 41.1001 68.2 41.1001 65.6C41.1001 61.7 44.3001 58.5 48.3001 58.5C48.4001 58.5 48.5001 58.5 48.6001 58.5C50.3001 55 53.9001 52.8 57.8001 52.8C63.2001 52.6 67.7001 56.5 68.2001 61.7C71.1001 61 74.1001 62.8 74.8001 65.6C74.9001 65.9 74.9001 66.3 74.9001 66.6C75.1001 68.9 73.5001 71 71.1001 71.6" fill="white"/>
<path d="M69.1002 60.6C68.9002 59.3 68.4002 58.1 67.7002 57C73.3002 54.4 76.8002 48.7 76.6002 42.5C76.5002 38 74.7002 33.8 71.5002 30.7C68.3002 27.6 64.1002 25.9 59.6002 25.9C55.6002 18.3 47.6002 13.4 39.0002 13.4H38.9002C38.8002 13.4 38.7002 13.4 38.6002 13.4C27.0002 13.4 17.2002 22.2 15.8002 33.7C12.8002 33.3 9.80017 34 7.20017 35.6C4.30017 37.5 2.30017 40.4 1.50017 43.8C1.30017 44.6 1.20017 45.5 1.20017 46.3C0.900172 52.1 4.70017 57.1 10.3002 58.3C10.4002 58.3 10.4002 58.3 10.5002 58.3C11.0002 58.3 11.4002 58 11.5002 57.5C11.6002 57 11.3002 56.4 10.7002 56.3C6.10017 55.3 2.90017 51.1 3.20017 46.3C3.20017 45.6 3.30017 44.8 3.40017 44.2C4.00017 41.3 5.70017 38.9 8.20017 37.3C10.6002 35.7 13.5002 35.2 16.4002 35.8C16.7002 35.9 17.0002 35.8 17.2002 35.6C17.4002 35.4 17.6002 35.2 17.6002 34.9C18.4002 23.9 27.6002 15.3 38.6002 15.3C38.7002 15.3 38.8002 15.3 38.9002 15.3H39.0002C47.0002 15.3 54.5002 20 58.1002 27.2C58.3002 27.6 58.7002 27.8 59.1002 27.8C59.3002 27.8 59.5002 27.8 59.6002 27.8C63.5002 27.7 67.2002 29.2 70.1002 32C72.9002 34.8 74.5002 38.4 74.6002 42.4C74.8002 47.8 71.7002 52.8 66.8002 55C66.7002 55.1 66.6002 55.2 66.5002 55.2C64.4002 52.8 61.2002 51.4 57.8002 51.5C53.7002 51.6 49.9002 53.8 48.0002 57.2C43.6002 57.4 40.1002 61 40.1002 65.3C40.1002 68.3 41.9002 71 44.7002 72.2C44.8002 72.3 45.0002 72.3 45.1002 72.3L71.3002 72.4C71.4002 72.4 71.5002 72.4 71.5002 72.4C74.3002 71.7 76.2002 69.2 76.0002 66.4C76.0002 66 75.9002 65.6 75.8002 65.2C75.1002 62.4 72.2002 60.4 69.1002 60.6ZM71.1002 70.7L45.3002 70.6C43.3002 69.7 42.1002 67.7 42.1002 65.6C42.1002 62.3 44.9002 59.6 48.3002 59.5H48.5002C48.9002 59.5 49.3002 59.3 49.4002 58.9C50.9002 55.8 54.2002 53.8 57.7002 53.7C62.5002 53.5 66.7002 57.1 67.1002 61.7C67.1002 62 67.3002 62.2 67.5002 62.4C67.7002 62.6 68.0002 62.6 68.3002 62.6C70.7002 62 73.1002 63.5 73.7002 65.8C73.8002 66.1 73.8002 66.3 73.8002 66.7C74.1002 68.6 72.9002 70.2 71.1002 70.7ZM51.1002 31.4V39.2C51.1002 39.7 50.6002 40.2 50.1002 40.2H42.4002C41.9002 40.2 41.4002 39.7 41.4002 39.2C41.4002 38.6 41.9002 38.2 42.4002 38.2H48.0002C45.9002 34.2 41.0002 32.2 36.7002 33.8C31.8002 35.5 29.3002 40.9 31.0002 45.8C31.8002 48.2 33.5002 50.1 35.8002 51.2C38.0002 52.3 40.6002 52.4 42.9002 51.6C44.6002 51 46.0002 50 47.1002 48.6C47.3002 48.4 47.5002 48.3 47.8002 48.2C48.1002 48.2 48.3002 48.2 48.5002 48.4C48.9002 48.7 49.0002 49.4 48.7002 49.8C47.4002 51.5 45.6002 52.7 43.6002 53.4C42.4002 53.8 41.1002 54.1 39.8002 54.1C38.1002 54.1 36.5002 53.7 35.0002 53C32.3002 51.7 30.2002 49.4 29.2002 46.5C27.1002 40.6 30.2002 34.1 36.1002 32C41.0002 30.3 46.3002 32.1 49.2002 36.3V31.5C49.2002 31 49.7002 30.5 50.2002 30.5C50.7002 30.4 51.1002 30.9 51.1002 31.4Z" fill="#003959"/>
</svg>
