<svg width="80" height="80" viewBox="0 0 80 80" fill="none" xmlns="http://www.w3.org/2000/svg">
<path fill-rule="evenodd" clip-rule="evenodd" d="M15 31.5C15 15.3 28.2 5 41.3 5C54.5 5 67.6 15.3 67.6 31.5C67.6 51.7 48 73.7 42.7 79.4C41.9 80.2 40.7 80.2 40 79.4C34.6 73.7 15 51.7 15 31.5ZM54.4 32.7C54.4 40.2 48.5 46.2 41.2 46.2C33.9 46.2 28 40.1 28 32.7C28 25.2 33.9 19.2 41.2 19.2C48.5 19.2 54.4 25.3 54.4 32.7Z" fill="#CCECEF"/>
<path d="M39.3 0C25.7 0 12 10.7 12 27.5C12 37.9 17 48.6 22.6 57.4C28.2 66.2 34.5 73.2 37.2 76C38.3 77.2 40.2 77.2 41.4 76C44.1 73.2 50.4 66.2 56 57.4C61.6 48.6 66.6 37.9 66.6 27.5C66.6 10.7 52.9 0 39.3 0ZM54.3 56.4C48.8 65 42.6 71.9 39.9 74.7C39.6 75.1 39 75.1 38.6 74.7C36 71.9 29.8 65 24.3 56.4C18.8 47.7 14 37.3 14 27.5C14 12 26.6 2 39.3 2C52 2 64.6 12 64.6 27.5C64.6 37.3 59.8 47.7 54.3 56.4ZM39.3 14.2C31.5 14.2 25.1 20.7 25.1 28.7C25.1 36.7 31.4 43.2 39.3 43.2C47.1 43.2 53.4 36.7 53.4 28.7C53.4 20.7 47.1 14.2 39.3 14.2ZM39.3 41.3C32.6 41.3 27.1 35.7 27.1 28.8C27.1 21.9 32.6 16.3 39.3 16.3C46 16.3 51.4 21.9 51.4 28.8C51.4 35.7 46 41.3 39.3 41.3Z" fill="#003959"/>
</svg>
