<svg width="80" height="80" viewBox="0 0 80 80" fill="none" xmlns="http://www.w3.org/2000/svg">
<path d="M65.7001 39.5C65.7001 43.6 64.7001 47.6 62.5001 51.1C60.4001 54.6 57.3001 57.4001 53.6001 59.2001H53.3001V74.5C53.3001 75.8 52.8001 77.1 51.9001 78C51.0001 78.9001 49.7001 79.5 48.4001 79.5H38.5001C37.2001 79.5 35.9001 79 35.0001 78C34.1001 77.1 33.5001 75.8 33.5001 74.5V59.2001H33.2001C29.5001 57.4001 26.5001 54.6 24.3001 51.1C22.2001 47.6 21.1001 43.6 21.1001 39.5C21.2001 33.6 23.6001 28 27.7001 23.9C31.9001 19.8 37.4001 17.4 43.3001 17.3C49.2001 17.4 54.7001 19.8 58.9001 23.9C63.3001 28 65.6001 33.6 65.7001 39.5Z" fill="#CCECEF"/>
<path fill-rule="evenodd" clip-rule="evenodd" d="M30 74V56H34V74C34 75.1 33.1 76 32 76C30.9 76 30 75.1 30 74Z" fill="white"/>
<path d="M44.5002 56.3C43.9002 56.3 43.5002 55.9 43.5002 55.3V41.5H35.6002V55.3C35.6002 55.9 35.2002 56.3 34.6002 56.3C34.0002 56.3 33.6002 55.9 33.6002 55.3V41.5H29.7002C28.5002 41.5 27.4002 41.2 26.4002 40.5C25.4002 39.8 24.7002 38.9 24.2002 37.8C23.7002 36.7 23.6002 35.5 23.9002 34.4C24.1002 33.2 24.7002 32.2 25.5002 31.4C26.3002 30.6 27.4002 30 28.5002 29.8C29.7002 29.6 30.8002 29.7 31.9002 30.1C33.0002 30.6 33.9002 31.3 34.6002 32.3C35.3002 33.3 35.6002 34.4 35.6002 35.6V39.5H43.5002V35.6C43.5002 34.4 43.8002 33.3 44.5002 32.3C45.2002 31.3 46.1002 30.6 47.2002 30.1C48.3002 29.6 49.5002 29.5 50.6002 29.8C51.8002 30 52.8002 30.6 53.6002 31.4C54.4002 32.2 55.0002 33.3 55.2002 34.4C55.4002 35.6 55.3002 36.7 54.9002 37.8C54.4002 38.9 53.7002 39.8 52.7002 40.5C51.7002 41.2 50.6002 41.5 49.4002 41.5H45.5002V55.3C45.5002 55.9 45.1002 56.3 44.5002 56.3ZM45.5002 39.5H49.4002C50.2002 39.5 50.9002 39.3 51.6002 38.8C52.2002 38.4 52.8002 37.8 53.1002 37C53.4002 36.3 53.5002 35.5 53.3002 34.7C53.1002 33.9 52.8002 33.2 52.2002 32.7C51.6002 32.2 51.0002 31.8 50.2002 31.6C49.4002 31.4 48.6002 31.5 47.9002 31.8C47.2002 32.1 46.6002 32.6 46.1002 33.3C45.7002 33.9 45.4002 34.7 45.4002 35.5V39.5H45.5002ZM29.7002 31.6C29.4002 31.6 29.2002 31.6 28.9002 31.7C28.1002 31.9 27.4002 32.2 26.9002 32.8C26.3002 33.4 26.0002 34 25.8002 34.8C25.6002 35.6 25.7002 36.4 26.0002 37.1C26.3002 37.8 26.8002 38.4 27.5002 38.9C28.1002 39.3 28.9002 39.6 29.7002 39.6H33.6002V35.7C33.6002 34.9 33.4002 34.2 32.9002 33.5C32.5002 32.9 31.9002 32.3 31.1002 32C30.7002 31.7 30.2002 31.6 29.7002 31.6Z" fill="#007F8B"/>
<path d="M55.9 19.3C51.6 14.9 45.8 12.5 39.6 12.4C33.4 12.5 27.7 15 23.3 19.3C18.9 23.7 16.5 29.4 16.4 35.6C16.3 39.9 17.5 44.1 19.7 47.7C21.9 51.3 25 54.2 28.7 56.1V71.6C28.7 73.2 29.3 74.7 30.4 75.8C31.5 76.9 33 77.5 34.6 77.5H44.5C46.1 77.5 47.6 76.9 48.7 75.8C49.8 74.7 50.4 73.2 50.4 71.6V56.1C54.1 54.2 57.2 51.3 59.4 47.7C61.6 44 62.8 39.8 62.7 35.5C62.7 29.4 60.2 23.6 55.9 19.3ZM30.9 72.8C30.8 72.4 30.7 72 30.7 71.6V68L48.5 65.3V70.2L31 72.8H30.9ZM48.4 56.4L30.6 59.1V56.3H48.4V56.4ZM48.4 58.5V63.4L30.7 66V61.1L48.4 58.5ZM47.3 74.4C46.5 75.1 45.6 75.6 44.5 75.6H34.6C33.7 75.6 32.8 75.3 32.1 74.7L48.3 72.3C48.2 73.1 47.9 73.8 47.3 74.4ZM57.8 46.7C55.8 50 53 52.6 49.5 54.4H29.7C26.3 52.7 23.4 50 21.4 46.7C19.4 43.4 18.3 39.5 18.4 35.6C18.5 30 20.7 24.7 24.7 20.7C28.7 16.7 34 14.5 39.6 14.4C45.2 14.5 50.5 16.8 54.5 20.7C58.5 24.7 60.7 30 60.8 35.6C60.8 39.5 59.8 43.3 57.8 46.7ZM39.6 6.9C39 6.9 38.6 6.5 38.6 5.9V1C38.6 0.4 39 0 39.6 0C40.2 0 40.6 0.4 40.6 1V5.9C40.6 6.5 40.1 6.9 39.6 6.9ZM9.9 36.6H5C4.4 36.6 4 36.2 4 35.6C4 35 4.4 34.6 5 34.6H9.9C10.5 34.6 10.9 35 10.9 35.6C10.9 36.2 10.5 36.6 9.9 36.6ZM16 15.4C15.8 15.4 15.5 15.3 15.3 15.1L11.7 11.6C11.3 11.2 11.3 10.6 11.7 10.2C12.1 9.8 12.7 9.8 13.1 10.2L16.7 13.7C17.1 14.1 17.1 14.7 16.7 15.1C16.6 15.3 16.3 15.4 16 15.4ZM74.1 36.6H69.2C68.6 36.6 68.2 36.2 68.2 35.6C68.2 35 68.6 34.6 69.2 34.6H74.1C74.7 34.6 75.1 35 75.1 35.6C75.1 36.2 74.7 36.6 74.1 36.6ZM63.1 15.4C62.8 15.4 62.6 15.3 62.4 15.1C62 14.7 62 14.1 62.4 13.7L66 10.2C66.4 9.8 67 9.8 67.4 10.2C67.8 10.6 67.8 11.2 67.4 11.6L63.8 15.1C63.6 15.3 63.4 15.4 63.1 15.4Z" fill="#003959"/>
</svg>
