<svg width="80" height="80" viewBox="0 0 80 80" fill="none" xmlns="http://www.w3.org/2000/svg">
<path d="M76.3998 54.4L77.3998 56.4H79.2998C79.3998 56.4 79.4998 56.4 79.5998 56.5C79.6998 56.5999 79.6998 56.6 79.7998 56.7C79.7998 56.7999 79.7998 56.9 79.7998 57C79.7998 57.0999 79.6998 57.2 79.6998 57.2L78.0998 58.9L78.9998 61C78.9998 61.0999 78.9998 61.2 78.9998 61.2999C78.9998 61.3999 78.8998 61.5 78.7998 61.5999C78.6998 61.6999 78.5998 61.7 78.4998 61.7C78.3998 61.7 78.2998 61.6999 78.1998 61.5999L75.9998 60.4L73.7998 61.5999C73.6998 61.6999 73.5998 61.7 73.4998 61.7C73.3998 61.7 73.2998 61.5999 73.1998 61.5999C73.0998 61.5 73.0998 61.3999 72.9998 61.2999C72.9998 61.2 72.9998 61.0999 72.9998 61L73.8998 58.9L72.2998 57.2C72.1998 57.1 72.1998 57.0999 72.1998 57C72.1998 56.9 72.1998 56.7999 72.1998 56.7C72.1998 56.6 72.2998 56.5 72.3998 56.5C72.4998 56.4 72.5998 56.4 72.6998 56.4H74.5998L75.5998 54.4C75.5998 54.3 75.6998 54.2999 75.7998 54.2C75.8998 54.2 75.9998 54.0999 76.0998 54.0999C76.1998 54.0999 76.2998 54.1 76.3998 54.2C76.2998 54.2999 76.2998 54.3 76.3998 54.4ZM8.6998 67.9L10.1998 70.9H13.0998C13.1998 70.9 13.3998 70.9 13.4998 71C13.5998 71.1 13.6998 71.2 13.7998 71.3C13.8998 71.4 13.8998 71.6 13.7998 71.7C13.7998 71.7999 13.6998 72 13.5998 72.1L11.0998 74.7L12.4998 77.9C12.5998 78 12.5998 78.2 12.4998 78.4C12.4998 78.6 12.3998 78.7 12.2998 78.8C12.1998 78.9 11.9998 79 11.8998 79.1C11.6998 79.1 11.5998 79.1 11.3998 79L8.0998 77.1L4.6998 79C4.5998 79.1 4.3998 79.1 4.1998 79.1C4.0998 79 3.9998 79 3.7998 78.9C3.6998 78.8 3.5998 78.7 3.5998 78.5C3.5998 78.3 3.5998 78.2 3.5998 78L4.9998 74.8L2.4998 72.2C2.3998 72.1 2.2998 72 2.2998 71.8C2.2998 71.7 2.2998 71.5 2.2998 71.4C2.3998 71.3 2.3998 71.1 2.5998 71.1C2.6998 71 2.8998 71 2.9998 71H5.8998L7.39981 68C7.4998 67.9 7.5998 67.7999 7.6998 67.7C7.7998 67.6 7.9998 67.6 8.0998 67.6C8.1998 67.6 8.3998 67.6 8.4998 67.7C8.5998 67.7 8.6998 67.8 8.6998 67.9ZM45.9998 14L53.4998 29.5H68.0998C68.7998 29.5 69.5998 29.7 70.1998 30.1C70.7998 30.5 71.2998 31.0999 71.5998 31.7999C71.8998 32.5 71.8998 33.2 71.7998 34C71.5998 34.7 71.1998 35.4 70.6998 35.9L57.9998 49.0999L64.9998 65.3C65.2998 66 65.3998 66.8999 65.1998 67.7C64.9998 68.5 64.5998 69.2 63.9998 69.7C63.3998 70.2 62.6998 70.6 61.8998 70.6C61.0998 70.7 60.2998 70.5 59.5998 70.1L42.6998 60.5L25.7998 70.1C25.0998 70.5 24.2998 70.7 23.4998 70.6C22.6998 70.5 21.9998 70.2 21.3998 69.7C20.7998 69.2 20.3998 68.5 20.1998 67.7C19.9998 66.8999 20.0998 66.1 20.3998 65.3L27.3998 49.0999L14.6998 35.7999C14.1998 35.2999 13.7998 34.7 13.5998 33.9C13.3998 33.2 13.4998 32.4 13.7998 31.7C14.0998 31 14.4998 30.4 15.1998 30C15.7998 29.6 16.4998 29.4 17.2998 29.4H31.8998L39.1998 14C39.4998 13.4 39.9998 12.8 40.5998 12.5C41.1998 12.1 41.8998 11.9 42.5998 11.9C43.2998 11.9 43.9998 12.1 44.5998 12.5C45.1998 12.8 45.6998 13.3 45.9998 14ZM65.2998 3.09995L66.5998 5.69995H68.9998C69.0998 5.69995 69.1998 5.69995 69.2998 5.79995C69.3998 5.89995 69.4998 5.99995 69.4998 6.09995C69.4998 6.19995 69.5998 6.29995 69.4998 6.49995C69.4998 6.59995 69.3998 6.69995 69.2998 6.79995L67.2998 8.99995L68.4998 11.7C68.5998 11.8 68.5998 12 68.4998 12.1C68.4998 12.2 68.3998 12.3 68.2998 12.4C68.1998 12.5 68.0998 12.5 67.8998 12.6C67.7998 12.6 67.5998 12.6 67.4998 12.5L64.6998 10.9L61.8998 12.5C61.7998 12.6 61.5998 12.6 61.4998 12.6C61.3998 12.6 61.1998 12.5 61.0998 12.4C60.9998 12.3 60.8998 12.2 60.8998 12.1C60.8998 12 60.8998 11.8 60.8998 11.7L62.0998 8.99995L59.9998 6.79995C59.8998 6.69995 59.7998 6.59995 59.7998 6.49995C59.7998 6.39995 59.7998 6.29995 59.7998 6.09995C59.7998 5.99995 59.8998 5.89995 59.9998 5.79995C60.0998 5.69995 60.1998 5.69995 60.2998 5.69995H62.7998L64.0998 3.09995C64.1998 2.99995 64.1998 2.89995 64.2998 2.79995C64.3998 2.69995 64.4998 2.69995 64.5998 2.69995C64.6998 2.69995 64.7998 2.69995 64.8998 2.79995C65.0998 2.89995 65.1998 2.99995 65.2998 3.09995ZM11.8998 14.7L12.8998 16.7H14.7998C14.8998 16.7 14.9998 16.7 15.0998 16.8C15.1998 16.9 15.1998 16.9 15.2998 17C15.2998 17.1 15.2998 17.2 15.2998 17.3C15.2998 17.4 15.1998 17.5 15.1998 17.5L13.4998 19.2L14.3998 21.2999C14.3998 21.4 14.3998 21.5 14.3998 21.6C14.3998 21.7 14.2998 21.7999 14.1998 21.9C14.0998 22 13.9998 22 13.8998 22C13.7998 22 13.6998 22 13.5998 21.9L11.3998 20.6L9.2998 22C9.1998 22.1 9.0998 22.1 8.9998 22.1C8.8998 22.1 8.7998 22 8.6998 22C8.5998 21.9 8.5998 21.8 8.4998 21.7C8.4998 21.6 8.4998 21.5 8.4998 21.4L9.3998 19.2999L7.6998 17.6C7.5998 17.5 7.5998 17.5 7.5998 17.4C7.5998 17.3 7.5998 17.2 7.5998 17.1C7.5998 17 7.6998 16.9 7.7998 16.9C7.8998 16.8 7.9998 16.8 8.0998 16.8H9.9998L10.9998 14.8C10.9998 14.7 11.0998 14.6 11.1998 14.6C11.2998 14.6 11.3998 14.5 11.4998 14.5C11.5998 14.5 11.6998 14.5 11.7998 14.6C11.7998 14.6 11.8998 14.6 11.8998 14.7Z" fill="#CCECEF"/>
<path d="M72.2998 61.2001H72.1998C71.8998 61.2001 71.6998 61.1001 71.4998 60.9001C71.2998 60.7001 71.1998 60.5 71.0998 60.2001C70.9998 60 71.0998 59.7001 71.1998 59.4001L71.8998 57.8L70.5998 56.5C70.4998 56.4001 70.2998 56.2001 70.2998 55.9001C70.1998 55.7001 70.2998 55.4001 70.3998 55.2001C70.4998 55 70.5998 54.8 70.8998 54.6C71.0998 54.5 71.3998 54.4001 71.5998 54.4001H72.9998L73.7998 52.8C73.8998 52.6 74.0998 52.4 74.2998 52.3C74.6998 52.1 75.1998 52.1 75.5998 52.3C75.7998 52.4 75.9998 52.6 76.0998 52.8L76.8998 54.4001H78.2998C78.4998 54.4001 78.7998 54.5 78.9998 54.6C79.1998 54.7 79.3998 54.9001 79.4998 55.2001C79.5998 55.4001 79.5998 55.7001 79.5998 55.9001C79.5998 56.1001 79.3998 56.4001 79.1998 56.5L77.9998 57.8L78.6998 59.4001C78.7998 59.6001 78.7998 59.9001 78.7998 60.2001C78.6998 60.5 78.5998 60.7001 78.3998 60.9001C78.1998 61.1001 77.9998 61.2001 77.6998 61.2001C77.3998 61.2001 77.1998 61.2001 76.8998 61L75.0998 60L73.2998 61C72.6998 61.1 72.4998 61.2001 72.2998 61.2001ZM72.0998 55.9001L73.2998 57.1C73.4998 57.3 73.5998 57.6001 73.3998 57.9001L72.7998 59.3L74.2998 58.5C74.4998 58.4001 74.7998 58.4001 74.9998 58.5L76.4998 59.3L75.9998 58C75.8998 57.7001 75.8998 57.4001 76.0998 57.2001L77.2998 56H76.0998C75.7998 56 75.5998 55.8 75.3998 55.6L74.6998 54L73.9998 55.5C73.8998 55.8 73.5998 55.9001 73.2998 55.9001H72.0998ZM71.5998 55.4001C71.5998 55.5 71.5998 55.5 71.5998 55.4001V55.4001ZM3.19982 78.1C3.19982 78.1 3.09982 78.1 2.99982 78.1C2.69982 78.1 2.39982 77.9 2.19982 77.7C1.99982 77.5 1.79982 77.2001 1.69982 76.9C1.59982 76.6 1.69982 76.3 1.79982 76L2.99982 73.3L0.79982 71C0.59982 70.8 0.49982 70.6001 0.39982 70.3C0.29982 70 0.39982 69.7001 0.49982 69.4C0.59982 69.1 0.79982 68.9 1.09982 68.7C1.39982 68.5 1.59982 68.5 1.89982 68.5H4.29982L5.59982 65.9C5.69982 65.6 5.89982 65.4 6.19982 65.3C6.69982 65 7.29982 65 7.79982 65.3C7.99982 65.4 8.19982 65.6 8.39982 65.9L9.69982 68.5H12.0998C12.3998 68.5 12.6998 68.6 12.8998 68.7C13.0998 68.9 13.2998 69.1 13.4998 69.4C13.6998 69.7001 13.5998 70 13.5998 70.3C13.4998 70.6001 13.3998 70.9 13.1998 71.1L11.0998 73.3L11.9998 76C12.0998 76.3 12.1998 76.6 12.0998 76.9C11.9998 77.2001 11.8998 77.5 11.5998 77.7C11.3998 77.9 11.0998 78 10.7998 78.1C10.4998 78.1 10.1998 78.1 9.89982 77.9L6.89982 76.2L3.89982 77.9C3.69982 78 3.39982 78.1 3.19982 78.1ZM1.89982 70L4.49982 72.6C4.69982 72.8 4.79982 73.1 4.59982 73.4L3.19982 76.6L6.59982 74.7C6.79982 74.6 7.09982 74.6 7.29982 74.7L10.5998 76.6L9.19982 73.4C9.09982 73.1 9.09982 72.8 9.29982 72.6L11.7998 70H8.99982C8.69982 70 8.49982 69.8 8.29982 69.6L6.79982 66.6L5.29982 69.6C5.29982 69.8 4.99982 70 4.69982 70H1.89982ZM57.8998 69.4C57.0998 69.4 56.1998 69.2 55.4998 68.7L39.0998 59.4001L22.6998 68.7C21.7998 69.2 20.7998 69.4 19.7998 69.3C18.7998 69.2001 17.8998 68.8 17.0998 68.1C16.2998 67.4 15.7998 66.5 15.5998 65.5C15.3998 64.5 15.4998 63.5 15.8998 62.5L22.6998 47L10.4998 34.1C9.89982 33.5 9.39982 32.7001 9.19982 31.8C8.99982 30.9 9.09982 29.9 9.39982 29C9.69982 28.1 10.2998 27.4 11.0998 26.9C11.8998 26.4 12.7998 26.1 13.7998 26.1H27.6998L34.8998 11.1C35.2998 10.3 35.8998 9.60005 36.6998 9.10005C38.1998 8.20005 40.1998 8.20005 41.7998 9.10005C42.5998 9.60005 43.1998 10.2 43.5998 11L50.7998 26H64.6998C65.5998 26 66.4998 26.2001 67.2998 26.7001C68.0998 27.2001 68.6998 28 69.0998 28.8C69.4998 29.7 69.4998 30.6 69.2998 31.6C69.0998 32.5 68.5998 33.4001 67.8998 34L55.6998 47L62.3998 62.6C62.7998 63.6 62.8998 64.6 62.6998 65.6C62.4998 66.6 61.9998 67.5 61.1998 68.2C60.3998 68.9 59.4998 69.3 58.4998 69.4C58.2998 69.4 58.0998 69.4 57.8998 69.4ZM39.1998 57.2001C39.3998 57.2001 39.4998 57.2001 39.6998 57.3L56.4998 67C56.9998 67.3 57.5998 67.4 58.1998 67.4C58.7998 67.3 59.2998 67.1 59.7998 66.7C60.1998 66.3 60.5998 65.8 60.6998 65.2C60.7998 64.6 60.7998 64 60.5998 63.5L53.5998 47.3C53.3998 46.9 53.4998 46.5 53.7998 46.2001L66.3998 32.9001C66.8998 32.5001 67.0998 32 67.1998 31.5C67.2998 31 67.2998 30.4 67.0998 29.9C66.8998 29.4 66.5998 29 66.0998 28.7001C65.6998 28.4001 65.0998 28.3 64.5998 28.3H49.9998C49.5998 28.3 49.2998 28.1 49.0998 27.7001L41.5998 12.2C41.3998 11.7 40.9998 11.3 40.5998 11.1C39.6998 10.6 38.4998 10.5 37.5998 11.1C37.1998 11.4 36.7998 11.8 36.4998 12.2L29.0998 27.7001C28.8998 28 28.5998 28.3 28.1998 28.3H13.6998C13.1998 28.3 12.5998 28.4001 12.1998 28.7001C11.7998 29 11.3998 29.4 11.1998 29.9C10.9998 30.4 10.9998 30.9 11.0998 31.5C11.1998 32 11.4998 32.5001 11.8998 32.9001L24.5998 46.3C24.8998 46.6 24.9998 47 24.7998 47.4001L17.7998 63.6C17.5998 64.1 17.4998 64.7001 17.6998 65.3C17.7998 65.9 18.0998 66.4 18.5998 66.8C18.9998 67.2001 19.5998 67.4 20.1998 67.5C20.7998 67.6 21.3998 67.4 21.8998 67.1L38.7998 57.5C38.7998 57.3 38.9998 57.2001 39.1998 57.2001ZM60.1998 12.1H60.0998C59.7998 12.1 59.4998 12 59.2998 11.8C59.0998 11.6 58.8998 11.4 58.8998 11.1C58.7998 10.8 58.8998 10.5 58.9998 10.2L59.9998 7.90005L58.1998 6.00005C57.9998 5.90005 57.8998 5.60005 57.7998 5.30005C57.6998 5.00005 57.7998 4.70005 57.8998 4.50005C57.9998 4.20005 58.1998 4.00005 58.3998 3.90005C58.5998 3.70005 58.8998 3.70005 59.1998 3.70005H61.1998L62.2998 1.50005C62.3998 1.30005 62.5998 1.10005 62.7998 0.900049C63.2998 0.600049 63.7998 0.600049 64.2998 0.900049C64.4998 1.00005 64.6998 1.20005 64.7998 1.50005L65.8998 3.70005H67.8998C68.1998 3.70005 68.3998 3.80005 68.6998 3.90005C68.8998 4.10005 69.0998 4.30005 69.1998 4.50005C69.2998 4.80005 69.2998 5.00005 69.2998 5.30005C69.1998 5.60005 69.0998 5.80005 68.8998 6.00005L66.8998 8.00005L67.8998 10.3C67.9998 10.6 67.9998 10.9 67.9998 11.2C67.8998 11.5 67.7998 11.7 67.5998 11.9C67.3998 12.1 67.0998 12.2 66.7998 12.2C66.4998 12.2 66.1998 12.2 65.9998 12L63.4998 10.6L60.8998 12C60.6998 12.1 60.4998 12.1 60.1998 12.1ZM63.3998 9.00005C63.4998 9.00005 63.6998 9.00005 63.7998 9.10005L66.3998 10.5L65.3998 8.10005C65.2998 7.80005 65.2998 7.50005 65.4998 7.30005L67.3998 5.30005H65.2998C64.9998 5.30005 64.7998 5.10005 64.5998 4.90005L63.3998 2.50005L62.1998 4.90005C62.0998 5.20005 61.7998 5.30005 61.4998 5.30005H59.3998L61.2998 7.30005C61.4998 7.50005 61.5998 7.80005 61.3998 8.10005L60.3998 10.5L62.9998 9.00005C63.1998 9.00005 63.2998 9.00005 63.3998 9.00005ZM13.2998 21.5C13.0998 21.5 12.8998 21.4 12.6998 21.3L10.8998 20.3L8.99982 21.3C8.79982 21.4 8.49982 21.5 8.29982 21.5C7.99982 21.5 7.79982 21.4001 7.59982 21.2001C7.39982 21 7.29982 20.8 7.19982 20.5C7.09982 20.2001 7.19982 20 7.29982 19.7001L7.99982 18L6.69982 16.6C6.59982 16.5 6.39982 16.2 6.39982 16C6.29982 15.8 6.39982 15.5 6.49982 15.3C6.59982 15.1 6.79982 14.9 6.99982 14.7C7.19982 14.6 7.49982 14.5 7.69982 14.5H9.09982L9.69982 13C9.79982 12.8 9.99982 12.6 10.1998 12.5C10.5998 12.3 11.0998 12.3 11.4998 12.5C11.6998 12.6 11.8998 12.8 11.9998 13L12.7998 14.6H14.1998C14.3998 14.6 14.6998 14.7 14.8998 14.8C15.0998 14.9 15.2998 15.1 15.3998 15.4C15.4998 15.6 15.4998 15.9 15.4998 16.1C15.3998 16.3 15.2998 16.6 15.0998 16.7001L13.7998 18L14.4998 19.7001C14.5998 20 14.5998 20.2001 14.5998 20.5C14.4998 20.8 14.3998 21 14.1998 21.2001C13.9998 21.4001 13.7998 21.5 13.4998 21.5C13.3998 21.5 13.2998 21.5 13.2998 21.5ZM10.7998 18.6C10.8998 18.6 11.0998 18.6 11.1998 18.7001L12.7998 19.6L12.1998 18.2001C12.0998 17.9001 12.0998 17.6 12.2998 17.4L13.4998 16.1H12.1998C11.8998 16.1 11.6998 15.9 11.4998 15.7L10.6998 14.1L9.99982 15.7C9.89982 16 9.59982 16.1 9.29982 16.1H8.09982L9.29982 17.4C9.49982 17.6 9.59982 17.9001 9.39982 18.2001L8.79982 19.6L10.3998 18.7001C10.4998 18.7001 10.6998 18.6 10.7998 18.6ZM14.0998 16.1C14.1998 16.1 14.1998 16.1 14.0998 16.1V16.1Z" fill="#003959"/>
</svg>
