<svg width="80" height="80" viewBox="0 0 80 80" fill="none" xmlns="http://www.w3.org/2000/svg">
<path d="M20.2002 9.80005H42.2002C47.2002 9.80005 51.2002 13.8 51.2002 18.8V69.6C51.2002 74.6001 47.2002 78.6 42.2002 78.6H20.2002C15.2002 78.6 11.2002 74.6001 11.2002 69.6V18.8C11.2002 13.9 15.3002 9.80005 20.2002 9.80005Z" fill="#CCECEF"/>
<path d="M35 2H66C69.3 2 72 4.7 72 8V29C72 32.3 69.3 35 66 35H35C31.7 35 29 32.3 29 29V8C29 4.7 31.7 2 35 2Z" fill="white"/>
<path d="M25.0998 34.5H14.2998C13.6998 34.5 13.2998 34.1 13.2998 33.5C13.2998 32.9 13.6998 32.5 14.2998 32.5H25.0998C25.6998 32.5 26.0998 32.9 26.0998 33.5C26.0998 34.1 25.6998 34.5 25.0998 34.5ZM26.0998 26.7C26.0998 26.1 25.6998 25.7 25.0998 25.7H14.2998C13.6998 25.7 13.2998 26.1 13.2998 26.7C13.2998 27.3 13.6998 27.7 14.2998 27.7H25.0998C25.6998 27.7 26.0998 27.3 26.0998 26.7ZM26.0998 20C26.0998 19.4 25.6998 19 25.0998 19H14.2998C13.6998 19 13.2998 19.4 13.2998 20C13.2998 20.6 13.6998 21 14.2998 21H25.0998C25.6998 21 26.0998 20.5 26.0998 20ZM41.8998 47C41.8998 46.4 41.4998 46 40.8998 46H14.2998C13.6998 46 13.2998 46.4 13.2998 47C13.2998 47.6 13.6998 48 14.2998 48H40.8998C41.4998 48 41.8998 47.5 41.8998 47ZM41.8998 53.7C41.8998 53.1 41.4998 52.7 40.8998 52.7H14.2998C13.6998 52.7 13.2998 53.1 13.2998 53.7C13.2998 54.3 13.6998 54.7 14.2998 54.7H40.8998C41.4998 54.7 41.8998 54.3 41.8998 53.7ZM41.8998 40.2C41.8998 39.6 41.4998 39.2 40.8998 39.2H14.2998C13.6998 39.2 13.2998 39.6 13.2998 40.2C13.2998 40.8 13.6998 41.2 14.2998 41.2H40.8998C41.4998 41.2 41.8998 40.8 41.8998 40.2Z" fill="#007F8B"/>
<path d="M16.8999 75.7C11.3999 75.7 6.8999 71.2 6.8999 65.6V16.1C6.8999 10.5 11.3999 6 16.8999 6H22.6999C23.2999 6 23.6999 6.4 23.6999 7C23.6999 7.6 23.2999 8 22.6999 8H16.8999C12.4999 8 8.8999 11.6 8.8999 16.1V60.8H46.3999V41.8C46.3999 41.2 46.7999 40.8 47.3999 40.8C47.9999 40.8 48.3999 41.2 48.3999 41.8V65.6C48.3999 71.2 43.8999 75.7 38.3999 75.7H16.8999ZM8.8999 62.8V65.7C8.8999 70.1 12.4999 73.8 16.8999 73.8H38.3999C42.7999 73.8 46.3999 70.2 46.3999 65.7V62.8H8.8999ZM67.1999 32.9H37.4999C34.1999 32.9 31.5999 30.2 31.5999 26.9V7C31.5999 3.7 34.2999 1 37.4999 1H67.0999C70.3999 1 72.9999 3.7 72.9999 7V26.9C73.0999 30.2 70.3999 32.9 67.1999 32.9ZM33.5999 8.8V26.9C33.5999 29.1 35.3999 30.9 37.4999 30.9H67.0999C69.2999 30.9 70.9999 29.1 70.9999 26.9V8.8L55.3999 18.6C53.4999 19.8 50.9999 19.8 49.0999 18.6L33.5999 8.8ZM33.5999 6.4L50.1999 16.9C51.4999 17.7 53.0999 17.7 54.3999 16.9L71.0999 6.4C70.7999 4.5 69.1999 3 67.1999 3H37.4999C35.4999 3 33.8999 4.5 33.5999 6.4Z" fill="#003959"/>
</svg>
