<svg id="Layer_1" data-name="Layer 1" xmlns="http://www.w3.org/2000/svg" viewBox="0 0 16 16"><path d="M11.55,12.35l-3.2,3.2a.42.42,0,0,1-.15.11h0a.47.47,0,0,1-.38,0h0a.42.42,0,0,1-.15-.11l-3.2-3.2a.49.49,0,0,1,.7-.7L7.5,14V6.4a.5.5,0,0,1,1,0V14l2.35-2.34a.49.49,0,0,1,.7.7ZM13.3,8.8V1.6A1.3,1.3,0,0,0,12,.3H4A1.3,1.3,0,0,0,2.7,1.6V8.8A1.3,1.3,0,0,0,4,10.1H6.29a.5.5,0,1,0,0-1H4a.29.29,0,0,1-.3-.3V1.6A.29.29,0,0,1,4,1.3h8a.29.29,0,0,1,.3.3V8.8a.29.29,0,0,1-.3.3H9.71a.5.5,0,0,0,0,1H12A1.3,1.3,0,0,0,13.3,8.8Z"/></svg>