<svg id="Layer_1" data-name="Layer 1" xmlns="http://www.w3.org/2000/svg" viewBox="0 0 16 16"><path d="M4,13.45a.56.56,0,0,1-.32-.11.52.52,0,0,1-.07-.71l8.1-9.9a.5.5,0,0,1,.78.64l-8.1,9.9A.51.51,0,0,1,4,13.45ZM8,12.55a6.66,6.66,0,0,1-1.46-.16.49.49,0,0,1-.38-.59.51.51,0,0,1,.59-.39A6,6,0,0,0,8,11.55c3.09,0,5.74-2.57,6.63-3.55a13.37,13.37,0,0,0-2.94-2.42.48.48,0,0,1-.17-.68.49.49,0,0,1,.68-.18,14.53,14.53,0,0,1,3.3,2.74.81.81,0,0,1,0,1.07C14.66,9.48,11.66,12.55,8,12.55Zm6.75-4.43h0ZM3.81,11.2a.47.47,0,0,1-.27-.08,14.71,14.71,0,0,1-3-2.58.81.81,0,0,1,0-1.07c.84-1,3.84-4,7.5-4a6.88,6.88,0,0,1,1.54.18.5.5,0,0,1,.38.59.51.51,0,0,1-.6.38A6.07,6.07,0,0,0,8,4.45C4.91,4.45,2.26,7,1.37,8a13.6,13.6,0,0,0,2.7,2.28.5.5,0,0,1-.26.92ZM8,10.68a.5.5,0,0,1-.5-.5.5.5,0,0,1,.5-.5A1.69,1.69,0,0,0,9.69,8a.5.5,0,0,1,.5-.5.5.5,0,0,1,.5.5A2.69,2.69,0,0,1,8,10.68ZM5.81,8.5a.5.5,0,0,1-.5-.5A2.69,2.69,0,0,1,8,5.32a.5.5,0,0,1,0,1A1.69,1.69,0,0,0,6.31,8,.5.5,0,0,1,5.81,8.5Z"/></svg>