<svg id="Layer_1" data-name="Layer 1" xmlns="http://www.w3.org/2000/svg" viewBox="0 0 16 16"><path d="M11.86,15.7a4.1,4.1,0,0,1-2.18-.63l0,0A32.23,32.23,0,0,1,1,6.34a4,4,0,0,1,.53-5L2,.79a1.73,1.73,0,0,1,2.38,0L6.44,2.88a1.66,1.66,0,0,1,.49,1.19,1.62,1.62,0,0,1-.49,1.18.91.91,0,0,0-.15.23.75.75,0,0,0,0,.26A.62.62,0,0,0,6.3,6a.74.74,0,0,0,.14.22L9.78,9.56a.72.72,0,0,0,1,0,1.58,1.58,0,0,1,.54-.37,1.7,1.7,0,0,1,1.29,0,2,2,0,0,1,.54.36l2.09,2.09a1.66,1.66,0,0,1,.49,1.19A1.71,1.71,0,0,1,15.21,14l-.5.5a4.09,4.09,0,0,1-2.41,1.16Zm-1.64-1.48h0a3,3,0,0,0,2,.46A3,3,0,0,0,14,13.81l.49-.5a.66.66,0,0,0,.2-.48.67.67,0,0,0-.2-.48l-2.08-2.09a.68.68,0,0,0-.23-.14.67.67,0,0,0-.52,0,.74.74,0,0,0-.22.14,1.72,1.72,0,0,1-2.37,0L5.74,6.93a1.72,1.72,0,0,1-.37-.55,1.78,1.78,0,0,1-.13-.64,1.74,1.74,0,0,1,.13-.64,1.62,1.62,0,0,1,.37-.55.71.71,0,0,0,.19-.48.69.69,0,0,0-.19-.48L3.65,1.5a.69.69,0,0,0-1,0L2.19,2a3,3,0,0,0-.41,3.79A31.24,31.24,0,0,0,10.22,14.22ZM15.51.6a.51.51,0,0,0-.71,0L10.56,4.85V2.05a.5.5,0,0,0-1,0v4a.47.47,0,0,0,.15.35.45.45,0,0,0,.17.11.39.39,0,0,0,.18,0h4a.5.5,0,0,0,.5-.5.5.5,0,0,0-.5-.5H11.27l4.24-4.24A.5.5,0,0,0,15.51.6Z"/></svg>