<?xml version="1.0" encoding="utf-8"?>
<!-- Generator: Adobe Illustrator 26.0.2, SVG Export Plug-In . SVG Version: 6.00 Build 0)  -->
<svg version="1.1" id="Layer_1" xmlns="http://www.w3.org/2000/svg" xmlns:xlink="http://www.w3.org/1999/xlink" x="0px" y="0px"
	 viewBox="0 0 16 16" style="enable-background:new 0 0 16 16;" xml:space="preserve">
<path d="M15.7,0.8v5c0,0.3-0.2,0.5-0.5,0.5c-0.3,0-0.5-0.2-0.5-0.5V2l-8.1,8c-0.1,0.1-0.2,0.1-0.4,0.1S6,10.1,5.9,10
	c-0.2-0.2-0.2-0.5,0-0.7l8.1-8h-3.9c-0.3,0-0.5-0.2-0.5-0.5c0-0.3,0.2-0.5,0.5-0.5h5.1c0.1,0,0.1,0,0.2,0c0,0,0,0,0,0
	c0.1,0,0.1,0.1,0.2,0.1c0,0,0.1,0.1,0.1,0.1c0,0,0,0,0,0C15.7,0.7,15.7,0.7,15.7,0.8z M12.2,15.4c0.2-0.2,0.3-0.5,0.3-0.7V7.1
	c0-0.3-0.2-0.5-0.5-0.5s-0.5,0.2-0.5,0.5l-0.1,7.6L1.3,14.6L1.4,4.5h7.5c0.3,0,0.5-0.2,0.5-0.5S9.2,3.5,8.9,3.5H1.4
	c-0.3,0-0.6,0.1-0.7,0.3C0.4,4,0.3,4.3,0.3,4.6v10.1c0,0.3,0.1,0.5,0.3,0.8c0.2,0.2,0.5,0.3,0.7,0.3h10.1
	C11.7,15.7,12,15.6,12.2,15.4z"/>
</svg>
