<svg id="Layer_1" data-name="Layer 1" xmlns="http://www.w3.org/2000/svg" viewBox="0 0 16 16"><path d="M11.05,8a.51.51,0,0,1-.15.36L8.36,10.83a.48.48,0,0,1-.7,0,.5.5,0,0,1,0-.71L9.32,8.5H.92a.5.5,0,0,1,0-1h8.4L7.67,5.88a.5.5,0,1,1,.69-.71L10.9,7.64A.51.51,0,0,1,11.05,8ZM9.46,15.4a7.85,7.85,0,0,0,4.35-2.59A7.4,7.4,0,0,0,14,3.42,7.79,7.79,0,0,0,9.75.67a8,8,0,0,0-5.08.39A7.68,7.68,0,0,0,.92,4.42a.5.5,0,1,0,.87.49A6.77,6.77,0,0,1,5.06,2,7,7,0,0,1,9.5,1.63,6.88,6.88,0,0,1,13.2,4a6.44,6.44,0,0,1,1.38,4.09,6.53,6.53,0,0,1-1.53,4,6.84,6.84,0,0,1-3.8,2.26,7,7,0,0,1-4.42-.5,6.66,6.66,0,0,1-3.15-3.05.5.5,0,0,0-.9.45A7.8,7.8,0,0,0,4.4,14.83a8.1,8.1,0,0,0,3.39.75A7.83,7.83,0,0,0,9.46,15.4Z"/></svg>