<svg id="Layer_1" data-name="Layer 1" xmlns="http://www.w3.org/2000/svg" viewBox="0 0 16 16"><path d="M9.14,9.91a1.16,1.16,0,0,1-.33.81,1.06,1.06,0,0,1-.31.21v1.53a.5.5,0,0,1-1,0V10.93a1,1,0,0,1-.3-.21,1.13,1.13,0,0,1-.34-.81,1.15,1.15,0,0,1,.33-.8,1.17,1.17,0,0,1,1.61,0A1.12,1.12,0,0,1,9.14,9.91Zm4.78-3.5v8.92a.5.5,0,0,1-.5.5H2.58a.5.5,0,0,1-.5-.5V6.41a.5.5,0,0,1,.5-.5H4V4.17A4,4,0,0,1,5.17,1.34,4,4,0,0,1,8,.17a4,4,0,0,1,4,4V5.91h1.41A.5.5,0,0,1,13.92,6.41ZM5,5.91h6V4.17a3,3,0,0,0-.88-2.12,3.1,3.1,0,0,0-4.26,0A3,3,0,0,0,5,4.17Zm7.93,1H3.08v7.92h9.84Z"/></svg>