<svg id="Layer_1" data-name="Layer 1" xmlns="http://www.w3.org/2000/svg" viewBox="0 0 16 16"><path d="M13.24,12.19c-.21,0-.31-.21-.31-.4v-4A5.23,5.23,0,0,0,8.44,2.44V.8a.5.5,0,0,0-.5-.5.5.5,0,0,0-.5.5V2.45A5.26,5.26,0,0,0,3.07,7.83v4c0,.19-.1.4-.31.4a.5.5,0,0,0-.5.5.51.51,0,0,0,.5.5H13.24a.51.51,0,0,0,.5-.5A.5.5,0,0,0,13.24,12.19ZM4,12.19a1.75,1.75,0,0,0,.05-.4v-4A4.2,4.2,0,0,1,8,3.41a4.2,4.2,0,0,1,3.93,4.42v4a1.75,1.75,0,0,0,.05.4ZM7.94,15.7a1.63,1.63,0,0,1-.31,0,2,2,0,0,1-1.5-1.61.5.5,0,1,1,1-.18,1,1,0,0,0,.72.82.93.93,0,0,0,1-.84.5.5,0,0,1,.59-.38.49.49,0,0,1,.39.59A2,2,0,0,1,7.94,15.7Zm2.82-7.63a.5.5,0,0,1-.5-.5,2.23,2.23,0,0,0-1.11-2,.51.51,0,0,1-.21-.68.5.5,0,0,1,.67-.21,3.23,3.23,0,0,1,1.65,2.93A.5.5,0,0,1,10.76,8.07Z"/></svg>