<svg id="Layer_1" data-name="Layer 1" xmlns="http://www.w3.org/2000/svg" viewBox="0 0 16 16"><path d="M15.54,2A2.85,2.85,0,0,0,14,.46,3.05,3.05,0,0,0,12.9.25a2.7,2.7,0,0,0-1.09.23,2.62,2.62,0,0,0-.92.62L1.57,10.42a.53.53,0,0,0-.13.23L.27,15.12a.48.48,0,0,0,.13.48.47.47,0,0,0,.35.15.32.32,0,0,0,.13,0l4.47-1.17a.53.53,0,0,0,.23-.13L14.9,5.11a2.77,2.77,0,0,0,.62-.92,2.7,2.7,0,0,0,.23-1.09A2.86,2.86,0,0,0,15.54,2ZM10.23,3.18l.95.95-7,7-1.33-.57ZM1.45,14.55l.83-3.17,1.62.69.7,1.66Zm4-1.4-.57-1.33,7-7,.94.94ZM14.6,3.8a1.65,1.65,0,0,1-.41.6l-.67.67L10.93,2.48l.67-.68a1.75,1.75,0,0,1,.6-.4,1.69,1.69,0,0,1,.7-.15h0a1.81,1.81,0,0,1,.69.14,1.62,1.62,0,0,1,.6.4,1.62,1.62,0,0,1,.4.6,1.68,1.68,0,0,1,.14.7A1.71,1.71,0,0,1,14.6,3.8Z"/></svg>