<?xml version="1.0" encoding="utf-8"?>
<!-- Generator: Adobe Illustrator 26.0.2, SVG Export Plug-In . SVG Version: 6.00 Build 0)  -->
<svg version="1.1" id="Layer_1" xmlns="http://www.w3.org/2000/svg" xmlns:xlink="http://www.w3.org/1999/xlink" x="0px" y="0px"
	 viewBox="0 0 16 16" style="enable-background:new 0 0 16 16;" xml:space="preserve">
<path d="M14.8,14.1c0.2,0.2,0.2,0.5,0,0.7c0,0,0,0,0,0c-0.2,0.2-0.5,0.2-0.7,0c0,0,0,0,0,0L8,8.7l-6,6.1c-0.2,0.2-0.5,0.2-0.7,0
	c0,0,0,0,0,0c-0.2-0.2-0.2-0.5,0-0.7c0,0,0,0,0,0l6-6.1l-6-6c-0.2-0.2-0.2-0.5,0-0.7c0,0,0,0,0,0c0.2-0.2,0.5-0.2,0.7,0c0,0,0,0,0,0
	l6,6l6.1-6c0.2-0.2,0.5-0.2,0.7,0c0,0,0,0,0,0c0.2,0.2,0.2,0.5,0,0.7c0,0,0,0,0,0L8.7,8L14.8,14.1z"/>
</svg>
