<svg id="Layer_1" data-name="Layer 1" xmlns="http://www.w3.org/2000/svg" viewBox="0 0 16 16"><path d="M11.86,15.7a4.1,4.1,0,0,1-2.18-.63v0A32.12,32.12,0,0,1,1,6.34a4,4,0,0,1,.53-5L2,.79a1.76,1.76,0,0,1,2.38,0L6.44,2.88a1.66,1.66,0,0,1,.5,1.19,1.69,1.69,0,0,1-.5,1.19.55.55,0,0,0-.14.22.58.58,0,0,0-.06.26A.62.62,0,0,0,6.3,6a.64.64,0,0,0,.14.22L9.78,9.56a.71.71,0,0,0,1,0,1.84,1.84,0,0,1,.55-.37,1.7,1.7,0,0,1,1.29,0,1.68,1.68,0,0,1,.54.37l2.09,2.08a1.66,1.66,0,0,1,.49,1.19A1.71,1.71,0,0,1,15.21,14l-.5.5a4.06,4.06,0,0,1-2.41,1.16Zm-1.64-1.48h0a3.09,3.09,0,0,0,2,.46A3,3,0,0,0,14,13.81l.49-.5a.66.66,0,0,0,.2-.48.67.67,0,0,0-.2-.48l-2.09-2.09a.55.55,0,0,0-.22-.14.67.67,0,0,0-.52,0,.74.74,0,0,0-.22.14,1.7,1.7,0,0,1-2.37,0L5.74,6.93a1.84,1.84,0,0,1-.37-.55,1.74,1.74,0,0,1-.13-.64,1.79,1.79,0,0,1,.13-.65,2,2,0,0,1,.36-.54.68.68,0,0,0,.21-.48.7.7,0,0,0-.2-.48L3.65,1.5a.71.71,0,0,0-1,0l-.5.5a3,3,0,0,0-.87,1.81,3,3,0,0,0,.46,2A31.24,31.24,0,0,0,10.22,14.22Z"/></svg>