<?xml version="1.0" encoding="utf-8"?>
<!-- Generator: Adobe Illustrator 26.0.2, SVG Export Plug-In . SVG Version: 6.00 Build 0)  -->
<svg version="1.1" id="Layer_1" xmlns="http://www.w3.org/2000/svg" xmlns:xlink="http://www.w3.org/1999/xlink" x="0px" y="0px"
	 viewBox="0 0 16 16" style="enable-background:new 0 0 16 16;" xml:space="preserve">
<path d="M8,15.7c-0.3,0-0.5-0.2-0.5-0.5V8.5H0.8C0.5,8.5,0.3,8.3,0.3,8c0-0.3,0.2-0.5,0.5-0.5h6.7V0.8c0-0.3,0.2-0.5,0.5-0.5
	c0.3,0,0.5,0.2,0.5,0.5v6.7h6.7c0.3,0,0.5,0.2,0.5,0.5c0,0.3-0.2,0.5-0.5,0.5H8.5v6.7C8.5,15.5,8.3,15.7,8,15.7z"/>
</svg>
