<svg id="Layer_1" data-name="Layer 1" xmlns="http://www.w3.org/2000/svg" viewBox="0 0 16 16"><path d="M11.44,15.7a.55.55,0,0,1-.36-.15l-3.2-3.34A2.39,2.39,0,0,1,9.2,8.16a2.5,2.5,0,0,1,1.12.08,2.35,2.35,0,0,1,.95.59l.17.17.17-.17a2.45,2.45,0,0,1,1-.59,2.5,2.5,0,0,1,1.12-.08,2.41,2.41,0,0,1,1,.43,2.33,2.33,0,0,1,.73.86,2.43,2.43,0,0,1,.22,1.45A2.33,2.33,0,0,1,15,12.21l-3.2,3.34A.51.51,0,0,1,11.44,15.7ZM9.58,9.13H9.36a1.41,1.41,0,0,0-.6.26,1.38,1.38,0,0,0-.43.5,1.43,1.43,0,0,0-.13.84,1.49,1.49,0,0,0,.39.77l2.85,3,2.84-3a1.31,1.31,0,0,0,.4-.77,1.4,1.4,0,0,0-.55-1.34,1.41,1.41,0,0,0-.6-.26,1.6,1.6,0,0,0-.65,0,1.36,1.36,0,0,0-.56.35l-.52.52a.51.51,0,0,1-.71,0l-.52-.53a1.35,1.35,0,0,0-1-.4Zm-7.95,4L5,11.6a8.15,8.15,0,0,0,1.39.28.5.5,0,0,0,.11-1,7.05,7.05,0,0,1-1.38-.29.5.5,0,0,0-.36,0L2.42,11.69l.73-1.63A.5.5,0,0,0,3,9.46,4.46,4.46,0,0,1,1.77,8,4.34,4.34,0,0,1,1.3,6.12C1.3,3.46,4,1.3,7.37,1.3s6.08,2.16,6.08,4.82a3.83,3.83,0,0,1-.1.82.5.5,0,0,0,1,.22,4.55,4.55,0,0,0,.12-1C14.45,2.91,11.27.3,7.37.3S.3,2.91.3,6.13A5.4,5.4,0,0,0,2.08,10L1,12.49a.5.5,0,0,0,.46.71A.46.46,0,0,0,1.63,13.15Z"/></svg>