<svg id="Layer_1" data-name="Layer 1" xmlns="http://www.w3.org/2000/svg" viewBox="0 0 16 16"><path d="M15.2,2.17H11.3v-.7a1.1,1.1,0,0,0-1-1.17H5.87A1.13,1.13,0,0,0,4.7,1.47v.7H.8a.5.5,0,0,0-.5.5.5.5,0,0,0,.5.5H2.17V14.53A1.13,1.13,0,0,0,3.33,15.7h9.34a1.13,1.13,0,0,0,1.16-1.17V3.17H15.2a.5.5,0,0,0,.5-.5A.5.5,0,0,0,15.2,2.17Zm-9.5-.7c0-.13,0-.17.17-.17h4.37a.24.24,0,0,1,.06.18v.7H5.7Zm7.13,13.06c0,.13,0,.17-.16.17H3.33c-.12,0-.16,0-.16-.17V3.17h9.66ZM5.2,12.9a.5.5,0,0,1-.5-.5V4.93a.5.5,0,0,1,1,0V12.4A.5.5,0,0,1,5.2,12.9Zm2.8,0a.5.5,0,0,1-.5-.5V4.93a.5.5,0,0,1,1,0V12.4A.5.5,0,0,1,8,12.9Zm2.8,0a.5.5,0,0,1-.5-.5V4.93a.5.5,0,0,1,1,0V12.4A.5.5,0,0,1,10.8,12.9Z"/></svg>