<svg id="Layer_1" data-name="Layer 1" xmlns="http://www.w3.org/2000/svg" viewBox="0 0 16 16"><path d="M11.52,7.18a4.34,4.34,0,1,0,4.34,4.34A4.35,4.35,0,0,0,11.52,7.18Zm0,7.68a3.34,3.34,0,1,1,3.34-3.34A3.35,3.35,0,0,1,11.52,14.86Zm2-2.91-1.6,1.6a.42.42,0,0,1-.15.11h0a.47.47,0,0,1-.38,0h0a.42.42,0,0,1-.15-.11L9.57,12a.49.49,0,0,1,.7-.7L11,12V9.68a.5.5,0,0,1,1,0V12l.75-.74a.49.49,0,1,1,.7.7Zm-6-5.45H2.64a.5.5,0,0,0,0,1H7.52a.5.5,0,0,0,0-1ZM5.28,3.74H2.64a.5.5,0,0,0,0,1H5.28a.5.5,0,0,0,0-1ZM11.66,4h0a.42.42,0,0,0-.11-.15L8.1.36A.23.23,0,0,0,8,.29a.1.1,0,0,0,0,0L7.88.18h0a.43.43,0,0,0-.19,0h-7a.5.5,0,0,0-.5.5V14.08a.5.5,0,0,0,.5.5H6.4a.5.5,0,0,0,0-1H1.14V1.14h6v3a.5.5,0,0,0,.5.5h3V5.92a.5.5,0,0,0,1,0V4.16A.43.43,0,0,0,11.66,4ZM8.18,3.66V1.85L10,3.66Z"/></svg>