<svg id="Layer_1" data-name="Layer 1" xmlns="http://www.w3.org/2000/svg" viewBox="0 0 16 16"><path d="M1.51,16a1.44,1.44,0,0,1-.75-.21,1.53,1.53,0,0,1-.55-.58,1.7,1.7,0,0,1-.21-.8,1.69,1.69,0,0,1,.19-.8L6.68.84A1.55,1.55,0,0,1,7.23.23a1.43,1.43,0,0,1,1.54,0,1.5,1.5,0,0,1,.56.61l6.49,12.79a1.68,1.68,0,0,1,.18.8,1.78,1.78,0,0,1-.21.78,1.62,1.62,0,0,1-.55.58,1.43,1.43,0,0,1-.74.21ZM8,1a.39.39,0,0,0-.23.07.61.61,0,0,0-.2.22L1.08,14.06A.81.81,0,0,0,1,14.4a.66.66,0,0,0,.08.32.54.54,0,0,0,.2.22.7.7,0,0,0,.23.06h13a.38.38,0,0,0,.22-.07.41.41,0,0,0,.19-.2.62.62,0,0,0,.09-.32.72.72,0,0,0-.07-.33L8.43,1.29a.51.51,0,0,0-.19-.22A.44.44,0,0,0,8,1Zm.6,9.49V4.63a.5.5,0,0,0-1,0v5.86a.5.5,0,0,0,1,0Zm0,2.43A.6.6,0,0,0,8,12.36a.56.56,0,1,0,0,1.12A.6.6,0,0,0,8.56,12.92Z"/></svg>