<svg id="Layer_1" data-name="Layer 1" xmlns="http://www.w3.org/2000/svg" viewBox="0 0 16 16"><path d="M15.39,7a1.68,1.68,0,0,0-.8-.61l-.8-.28A.57.57,0,0,1,13.56,6a.53.53,0,0,1-.16-.23.5.5,0,0,1-.05-.27.6.6,0,0,1,.06-.27l.36-.76a1.67,1.67,0,0,0,.14-1,1.73,1.73,0,0,0-.46-.9,1.73,1.73,0,0,0-.9-.46,1.67,1.67,0,0,0-1,.14l-.76.36a.6.6,0,0,1-.27.06.47.47,0,0,1-.27,0A.53.53,0,0,1,10,2.44a.57.57,0,0,1-.15-.23l-.28-.8A1.72,1.72,0,0,0,9,.61,1.68,1.68,0,0,0,7,.61a1.64,1.64,0,0,0-.62.8l-.28.8A.68.68,0,0,1,6,2.44a.87.87,0,0,1-.23.16.56.56,0,0,1-.28,0,.6.6,0,0,1-.27-.06l-.76-.36a1.69,1.69,0,0,0-1.91.32,1.73,1.73,0,0,0-.46.9,1.66,1.66,0,0,0,.14,1l.36.76a.63.63,0,0,1,.06.27.62.62,0,0,1,0,.27A.53.53,0,0,1,2.44,6a.61.61,0,0,1-.24.15l-.79.28A1.72,1.72,0,0,0,.61,7,1.62,1.62,0,0,0,.3,8,1.57,1.57,0,0,0,.61,9a1.68,1.68,0,0,0,.8.62l.8.28a.68.68,0,0,1,.23.14.63.63,0,0,1,.16.24.49.49,0,0,1,0,.27.63.63,0,0,1-.06.27l-.36.76a1.66,1.66,0,0,0-.14,1,1.73,1.73,0,0,0,.46.9,1.73,1.73,0,0,0,.9.46,1.67,1.67,0,0,0,1-.14l.76-.36a.6.6,0,0,1,.27-.06.47.47,0,0,1,.27.05.63.63,0,0,1,.38.4l.28.79a1.67,1.67,0,0,0,2.54.8,1.68,1.68,0,0,0,.62-.8l.28-.79a.63.63,0,0,1,.38-.4.42.42,0,0,1,.27-.05.6.6,0,0,1,.27.06l.76.36a1.67,1.67,0,0,0,2.37-1.23,1.64,1.64,0,0,0-.14-1l-.36-.76a.6.6,0,0,1-.06-.27.5.5,0,0,1,.05-.27.53.53,0,0,1,.16-.23.55.55,0,0,1,.24-.15l.79-.28a1.68,1.68,0,0,0,.8-.61,1.67,1.67,0,0,0,0-1.94Zm-.81,1.36a.75.75,0,0,1-.33.25l-.79.28a1.71,1.71,0,0,0-.59.36,1.57,1.57,0,0,0-.39.57,1.49,1.49,0,0,0-.13.69,1.57,1.57,0,0,0,.16.67l.36.76a.73.73,0,0,1,.06.41.74.74,0,0,1-.19.36.7.7,0,0,1-.36.19.73.73,0,0,1-.41-.06l-.76-.36a1.57,1.57,0,0,0-.67-.16,1.79,1.79,0,0,0-.69.12,1.73,1.73,0,0,0-.57.4,1.71,1.71,0,0,0-.36.59l-.29.79a.66.66,0,0,1-.24.33.69.69,0,0,1-.78,0,.66.66,0,0,1-.24-.33l-.29-.79a1.71,1.71,0,0,0-.36-.59,1.73,1.73,0,0,0-.57-.4,1.78,1.78,0,0,0-.65-.12h0a1.57,1.57,0,0,0-.67.16L4,12.87a.73.73,0,0,1-.41.06.74.74,0,0,1-.36-.19.7.7,0,0,1-.19-.36A.73.73,0,0,1,3.13,12l.36-.76a1.57,1.57,0,0,0,.16-.67,1.62,1.62,0,0,0-.12-.69,1.73,1.73,0,0,0-.4-.57,1.57,1.57,0,0,0-.59-.36l-.79-.29a.66.66,0,0,1-.33-.24A.69.69,0,0,1,1.3,8a.67.67,0,0,1,.12-.39.75.75,0,0,1,.33-.25l.79-.28a1.71,1.71,0,0,0,.59-.36,1.78,1.78,0,0,0,.4-.57,1.62,1.62,0,0,0,.12-.69,1.57,1.57,0,0,0-.16-.67L3.13,4a.73.73,0,0,1-.06-.41.7.7,0,0,1,.19-.36.74.74,0,0,1,.36-.19A.73.73,0,0,1,4,3.13l.76.36a1.57,1.57,0,0,0,.67.16,1.8,1.8,0,0,0,.69-.13,1.61,1.61,0,0,0,.57-.39,1.57,1.57,0,0,0,.36-.59l.29-.79a.66.66,0,0,1,.24-.33.69.69,0,0,1,.78,0,.75.75,0,0,1,.25.33l.28.79a1.71,1.71,0,0,0,.36.59,1.73,1.73,0,0,0,.57.4,1.6,1.6,0,0,0,.69.12,1.57,1.57,0,0,0,.67-.16L12,3.13a.73.73,0,0,1,.41-.06.69.69,0,0,1,.55.55.73.73,0,0,1-.06.41l-.36.76a1.57,1.57,0,0,0-.16.67,1.62,1.62,0,0,0,.12.69,1.73,1.73,0,0,0,.4.57,1.71,1.71,0,0,0,.59.36l.79.28a.75.75,0,0,1,.33.25.69.69,0,0,1,0,.78ZM8,4.68A3.32,3.32,0,1,0,11.32,8,3.32,3.32,0,0,0,8,4.68Zm0,5.64A2.32,2.32,0,1,1,10.32,8,2.32,2.32,0,0,1,8,10.32Z"/></svg>