<svg id="Layer_1" data-name="Layer 1" xmlns="http://www.w3.org/2000/svg" viewBox="0 0 16 16"><path d="M11.55,4.35a.48.48,0,0,1-.7,0L8.5,2V9.6a.5.5,0,1,1-1,0V2L5.15,4.35a.49.49,0,0,1-.7-.7L7.58.52,7.65.45A.42.42,0,0,1,7.8.34h0a.47.47,0,0,1,.38,0h0a.42.42,0,0,1,.15.11l.07.07,3.13,3.13A.48.48,0,0,1,11.55,4.35ZM13.3,14.4V7.2A1.3,1.3,0,0,0,12,5.9H9.71a.5.5,0,0,0,0,1H12a.29.29,0,0,1,.3.3v7.2a.29.29,0,0,1-.3.3H4a.29.29,0,0,1-.3-.3V7.2A.29.29,0,0,1,4,6.9H6.29a.5.5,0,1,0,0-1H4A1.3,1.3,0,0,0,2.7,7.2v7.2A1.3,1.3,0,0,0,4,15.7h8A1.3,1.3,0,0,0,13.3,14.4Z"/></svg>