<?xml version="1.0" encoding="utf-8"?>
<!-- Generator: Adobe Illustrator 26.0.2, SVG Export Plug-In . SVG Version: 6.00 Build 0)  -->
<svg version="1.1" id="Layer_1" xmlns="http://www.w3.org/2000/svg" xmlns:xlink="http://www.w3.org/1999/xlink" x="0px" y="0px"
	 viewBox="0 0 16 16" style="enable-background:new 0 0 16 16;" xml:space="preserve">
<path d="M15.6,7L9,0.4c-0.6-0.6-1.5-0.6-2.1,0L0.4,7c-0.6,0.6-0.6,1.5,0,2.1l6.5,6.5C7.2,15.9,7.6,16,8,16c0.4,0,0.8-0.1,1-0.4
	l6.5-6.5C16.1,8.5,16.1,7.5,15.6,7z M14.9,8.3l-6.5,6.5c-0.2,0.2-0.5,0.2-0.7,0L1.1,8.3c-0.2-0.2-0.2-0.5,0-0.7l6.5-6.5
	C7.7,1,7.9,1,8,1c0.1,0,0.3,0,0.4,0.1l6.5,6.5C15.1,7.8,15.1,8.2,14.9,8.3z M11.2,7.7L9.4,9.6C9.3,9.7,9.1,9.7,9,9.7s-0.3,0-0.4-0.1
	c-0.2-0.2-0.2-0.5,0-0.7l1-1h-3c-0.3,0-0.5,0.2-0.5,0.5v2c0,0.3-0.2,0.5-0.5,0.5c-0.3,0-0.5-0.2-0.5-0.5v-2c0-0.8,0.7-1.5,1.5-1.5h3
	l-1-1c-0.2-0.2-0.2-0.5,0-0.7C8.8,5,9.2,5,9.4,5.2L11.2,7C11.4,7.2,11.4,7.5,11.2,7.7z"/>
</svg>
