<svg width="20" height="20" viewBox="0 0 20 20" fill="none" xmlns="http://www.w3.org/2000/svg">
<path fill-rule="evenodd" clip-rule="evenodd" d="M0 10C0 4.5 4.5 0 10 0C15.5 0 20 4.5 20 10C20 15.5 15.5 20 10 20C4.5 20 0 15.5 0 10ZM8.125 13.5C8.25 13.625 8.5 13.75 8.75 13.75C9 13.75 9.25 13.625 9.5 13.5L15.375 7.62503C15.75 7.25003 15.75 6.62503 15.375 6.25003C15 5.87503 14.375 5.87503 14 6.25003L8.75 11.375L6.5 9.12503C6.125 8.75003 5.5 8.75003 5.125 9.12503C4.75 9.50003 4.75 10.125 5.125 10.5L8.125 13.5Z" fill="white"/>
</svg>
