<svg width="20" height="20" viewBox="0 0 20 20" fill="none" xmlns="http://www.w3.org/2000/svg">
<path fill-rule="evenodd" clip-rule="evenodd" d="M19.75 17L11.625 1C11.5 0.75 11.25 0.5 11 0.25C10.9217 0.223911 10.8489 0.197822 10.7793 0.172869C10.5152 0.0782671 10.2967 0 10 0C9.70327 0 9.4848 0.0782671 9.22074 0.172869C9.15109 0.197822 9.07827 0.223911 9 0.25C8.75 0.5 8.5 0.75 8.375 1L0.25 17C0.125 17.25 0 17.625 0 18C0 18.2064 0.0378827 18.4129 0.0719385 18.5985C0.0997449 18.75 0.125 18.8876 0.125 19C0.375 19.375 0.625 19.625 0.875 19.75C0.953267 19.7761 1.02609 19.8022 1.09574 19.8271C1.3598 19.9217 1.57827 20 1.875 20H18.125C18.4217 20 18.6402 19.9217 18.9043 19.8271C18.9739 19.8022 19.0467 19.7761 19.125 19.75C19.375 19.5 19.625 19.25 19.75 19C19.875 18.75 20 18.375 20 18C20 17.625 19.875 17.25 19.75 17ZM8.99994 12.75C8.99994 13.375 9.49994 13.75 9.99994 13.75C10.4999 13.75 10.9999 13.375 10.9999 12.875V6.12497C10.9999 5.49997 10.6249 5.12497 9.99994 5.12497C9.37494 5.12497 8.99994 5.62497 8.99994 6.12497V12.75ZM9.99994 15.125C10.4999 15.125 10.9999 15.625 10.9999 16.125C10.9999 16.625 10.4999 17.125 9.99994 17.125C9.49994 17.125 8.99994 16.625 8.99994 16.125C8.99994 15.625 9.49994 15.125 9.99994 15.125Z" fill="white"/>
</svg>
