<svg width="20" height="20" viewBox="0 0 20 20" fill="none" xmlns="http://www.w3.org/2000/svg">
<path fill-rule="evenodd" clip-rule="evenodd" d="M20 10C20 15.5 15.5 20 10 20C4.5 20 0 15.5 0 10C0 4.5 4.5 0 10 0C15.5 0 20 4.5 20 10ZM9.00002 15.1251C9.00002 15.7501 9.50002 16.1251 10 16.1251C10.5 16.1251 11 15.7501 11 15.2501V8.50006C11 7.87506 10.625 7.50006 10 7.50006C9.37502 7.50006 9.00002 8.00006 9.00002 8.50006V15.1251ZM10 4.12506C10.5 4.12506 11 4.62506 11 5.12506C11 5.62506 10.5 6.12506 10 6.12506C9.50002 6.12506 9.00002 5.62506 9.00002 5.12506C9.00002 4.62506 9.50002 4.12506 10 4.12506Z" fill="white"/>
</svg>
