<svg width="20" height="20" viewBox="0 0 20 20" fill="none" xmlns="http://www.w3.org/2000/svg">
<path fill-rule="evenodd" clip-rule="evenodd" d="M0 10C0 4.5 4.5 0 10 0C15.5 0 20 4.5 20 10C20 15.5 15.5 20 10 20C4.5 20 0 15.5 0 10ZM14.125 14.25C14.5 13.875 14.5 13.25 14.125 12.875L11.375 10L14.25 7.125C14.625 6.75 14.625 6.125 14.25 5.75C13.875 5.375 13.25 5.375 12.875 5.75L9.99997 8.625L7.24997 5.875C6.87497 5.5 6.24997 5.5 5.87497 5.875C5.49997 6.25 5.49997 6.75 5.87497 7.125L8.62497 10L5.87497 12.875C5.49997 13.25 5.49997 13.875 5.87497 14.25C5.99997 14.375 6.24997 14.5 6.49997 14.5C6.74997 14.5 6.99997 14.5 7.12497 14.25L9.99997 11.375L12.875 14.25C13 14.375 13.25 14.5 13.5 14.5C13.75 14.5 13.875 14.5 14.125 14.25Z" fill="white"/>
</svg>
