<svg width="20" height="20" viewBox="0 0 20 20" fill="none" xmlns="http://www.w3.org/2000/svg">
<path fill-rule="evenodd" clip-rule="evenodd" d="M0 10C0 4.5 4.5 0 10 0C15.5 0 20 4.5 20 10C20 15.5 15.5 20 10 20C4.5 20 0 15.5 0 10ZM13.625 8.25C13.625 9.375 13 10.375 12 11L13.375 13.75C13.625 14.125 13.5 14.75 13 15C12.875 15.125 12.625 15.125 12.5 15.125C12.25 15.125 11.875 14.875 11.75 14.625L9.99998 11.625H8.62498V14.125C8.62498 14.75 8.12498 15.125 7.62498 15.125C6.99998 15.125 6.62498 14.625 6.62498 14.125V6C6.62498 5.375 7.12498 5 7.62498 5H10.25C12.125 5 13.5 6.5 13.625 8.25ZM8.49998 9.625H10.25C11 9.625 11.625 9 11.625 8.25C11.625 7.5 11 6.875 10.25 6.875H8.49998V9.625Z" fill="white"/>
</svg>
