<svg width="20" height="20" viewBox="0 0 20 20" fill="none" xmlns="http://www.w3.org/2000/svg">
<path fill-rule="evenodd" clip-rule="evenodd" d="M0 10C0 4.5 4.5 0 10 0C15.5 0 20 4.5 20 10C20 15.5 15.5 20 10 20C4.5 20 0 15.5 0 10ZM8.87499 14.625C8.87499 15.125 9.37499 15.625 9.87499 15.625C10.375 15.625 10.875 15.125 10.875 14.625C10.875 14.125 10.375 13.625 9.87499 13.625C9.37499 13.625 8.87499 14.125 8.87499 14.625ZM11.375 11.375C11.25 11.375 11 11.5 10.75 11.625C10.75 12 10.375 12.375 9.87499 12.375C9.24999 12.375 8.87499 12 8.87499 11.5C8.87499 10.25 9.74999 9.875 10.25 9.75C10.3125 9.75 10.375 9.71875 10.4375 9.6875C10.5 9.65625 10.5625 9.625 10.625 9.625C11.5 9.25 12 8.25 11.75 7.375C11.5 6.5 10.625 5.875 9.62499 6C8.62499 6.125 8.24999 6.5 7.87499 7.5C7.62499 8 7.12499 8.25 6.62499 8C6.12499 7.75 5.87499 7.25 6.12499 6.75C6.74999 5.5 7.49999 4.375 9.37499 4.125C11.25 3.875 13 5 13.5 6.875C14 8.625 13.125 10.625 11.375 11.375Z" fill="white"/>
</svg>
