<svg width="20" height="20" viewBox="0 0 20 20" fill="none" xmlns="http://www.w3.org/2000/svg">
<path fill-rule="evenodd" clip-rule="evenodd" d="M0 10C0 4.5 4.5 0 10 0C15.5 0 20 4.5 20 10C20 15.5 15.5 20 10 20C4.5 20 0 15.5 0 10ZM9.00002 11.7501C9.00002 12.3751 9.50002 12.7501 10 12.7501C10.5 12.7501 11 12.3751 11 11.8751V5.12506C11 4.50006 10.625 4.12506 10 4.12506C9.37502 4.12506 9.00002 4.62506 9.00002 5.12506V11.7501ZM10 14.1251C10.5 14.1251 11 14.6251 11 15.1251C11 15.6251 10.5 16.1251 10 16.1251C9.50002 16.1251 9.00002 15.6251 9.00002 15.1251C9.00002 14.6251 9.50002 14.1251 10 14.1251Z" fill="white"/>
</svg>
