<svg width="12" height="12" viewBox="0 0 12 12" fill="none" xmlns="http://www.w3.org/2000/svg">
<path d="M10.4464 6.65355C10.6417 6.84881 10.9582 6.84882 11.1535 6.65355C11.3488 6.45829 11.3488 6.14171 11.1535 5.94645L6.35351 1.14645C6.2246 1.01754 6.04281 0.973732 5.87796 1.01503C5.79309 1.03628 5.71271 1.08009 5.64635 1.14646L2.64635 4.14646L2.6428 4.15005L0.846398 5.94645C0.651135 6.14171 0.651135 6.45829 0.846398 6.65355C1.04166 6.84881 1.35824 6.84881 1.5535 6.65355L2.4999 5.70715V10.5C2.4999 10.7762 2.72376 11 2.9999 11H8.9999C9.27604 11 9.4999 10.7762 9.4999 10.5V5.70706L10.4464 6.65355Z" fill="#666666"/>
</svg>
