<svg width="20" height="20" viewBox="0 0 20 20" fill="none" xmlns="http://www.w3.org/2000/svg">
<path fill-rule="evenodd" clip-rule="evenodd" d="M0 10C0 4.5 4.5 0 10 0C15.5 0 20 4.5 20 10C20 15.5 15.5 20 10 20C4.5 20 0 15.5 0 10ZM14.875 10.9999C15.5 10.9999 15.875 10.4999 15.875 9.99994C15.875 9.49994 15.5 9.12494 15 8.99994H11V4.99994C11 4.49994 10.75 3.99994 10.125 3.99994C9.49998 3.99994 9.12498 4.49994 9.12498 4.99994V8.99994H5.12498C4.49998 8.99994 4.12498 9.49994 4.12498 9.99994C4.12498 10.4999 4.49998 10.9999 4.99998 10.9999H8.99998V14.9999C8.99998 15.4999 9.37498 15.9999 9.99998 15.9999C10.625 15.9999 11 15.4999 11 14.9999V10.9999H14.875Z" fill="white"/>
</svg>
