<?xml version="1.0" encoding="utf-8"?>
<!-- Generator: Adobe Illustrator 26.0.2, SVG Export Plug-In . SVG Version: 6.00 Build 0)  -->
<svg version="1.1" id="Layer_1" xmlns="http://www.w3.org/2000/svg" xmlns:xlink="http://www.w3.org/1999/xlink" x="0px" y="0px"
	 viewBox="0 0 48 48" style="enable-background:new 0 0 48 48;" xml:space="preserve">
<path d="M45,47.4H3c-0.6,0-1-0.4-1-1s0.4-1,1-1h42c0.6,0,1,0.4,1,1S45.6,47.4,45,47.4z M45,39.4h-2v-3.5c0-0.7-0.3-1.3-0.7-1.8
	c-0.5-0.5-1.1-0.7-1.8-0.7H40v-16h0.5c0.7,0,1.3-0.3,1.8-0.7c0.5-0.5,0.7-1.1,0.7-1.8v-4.5c0-0.3-0.1-0.5-0.2-0.7c0,0,0-0.1-0.1-0.1
	c-0.1-0.1-0.2-0.1-0.3-0.2L25.1,0.9c-0.7-0.3-1.5-0.3-2.2,0L5.6,9.5c0,0,0,0-0.1,0.1C5.3,9.7,5.2,9.8,5.1,9.9c0,0-0.1,0.1-0.1,0.2
	c0,0,0,0,0,0.1s0,0.2,0,0.2v4.5c0,0.7,0.3,1.3,0.7,1.8c0.5,0.5,1.1,0.7,1.8,0.7H8v16H7.5c-0.7,0-1.3,0.3-1.8,0.7
	C5.3,34.6,5,35.2,5,35.9v3.5H3c-0.6,0-1,0.4-1,1c0,0.5,0.4,1,1,1h42c0.5,0,1-0.5,1-1S45.6,39.4,45,39.4z M23.8,2.6
	c0.1-0.1,0.3-0.1,0.4,0l13.6,6.8H10.2L23.8,2.6z M7.5,15.4c-0.1,0-0.3-0.1-0.4-0.2c0,0-0.1-0.2-0.1-0.3v-3.5h34v3.5
	c0,0.1-0.1,0.3-0.2,0.3c-0.1,0.1-0.2,0.2-0.3,0.2H7.5z M38,17.4v16h-4v-16C34,17.4,38,17.4,38,17.4z M32,17.4v16h-4v-16
	C28,17.4,32,17.4,32,17.4z M26,17.4v16h-4v-16C22,17.4,26,17.4,26,17.4z M20,17.4v16h-4v-16C16,17.4,20,17.4,20,17.4z M14,17.4v16
	h-4v-16C10,17.4,14,17.4,14,17.4z M41,39.4H7v-3.5c0-0.1,0-0.3,0.1-0.4c0.1-0.1,0.2-0.1,0.4-0.1h33c0.1,0,0.3,0,0.3,0.1
	c0.1,0.1,0.2,0.2,0.2,0.4V39.4z"/>
</svg>
