<?xml version="1.0" encoding="utf-8"?>
<!-- Generator: Adobe Illustrator 26.0.2, SVG Export Plug-In . SVG Version: 6.00 Build 0)  -->
<svg version="1.1" id="Layer_1" xmlns="http://www.w3.org/2000/svg" xmlns:xlink="http://www.w3.org/1999/xlink" x="0px" y="0px"
	 viewBox="0 0 48 48" style="enable-background:new 0 0 48 48;" xml:space="preserve">
<path d="M24,48C10.8,48,0,37.2,0,24S10.8,0,24,0s24,10.8,24,24S37.2,48,24,48z M24,2C11.9,2,2,11.9,2,24s9.9,22,22,22s22-9.9,22-22
	S36.1,2,24,2z M37.4,21.3c-0.3,0-0.7-0.2-0.9-0.5c-0.5-0.8-1.3-1.4-2.2-1.6s-1.8,0-2.5,0.5c-0.4,0.3-0.8,0.7-1.1,1.1
	c-0.3,0.5-0.9,0.6-1.4,0.3c-0.5-0.3-0.6-0.9-0.3-1.4c0.4-0.7,1-1.3,1.7-1.8c1.2-0.8,2.7-1,4.1-0.7c1.4,0.3,2.6,1.2,3.4,2.5
	c0.3,0.5,0.1,1.1-0.3,1.4C37.7,21.2,37.5,21.3,37.4,21.3z M19.2,21.3c-0.3,0-0.6-0.2-0.8-0.4c-1.2-1.7-3.7-2.2-5.6-1.1
	c-0.5,0.3-1,0.7-1.3,1.1c-0.3,0.5-0.9,0.6-1.4,0.3c-0.5-0.3-0.6-0.9-0.3-1.4c0.5-0.7,1.2-1.3,1.9-1.7c2.8-1.6,6.5-0.8,8.3,1.7
	c0.3,0.5,0.2,1.1-0.3,1.4C19.6,21.2,19.4,21.3,19.2,21.3z M36.4,30.1C36.3,30,36.1,30,36,30H12c-0.1,0-0.3,0-0.4,0.1
	c-0.5,0.2-0.8,0.8-0.5,1.3c0.1,0.2,0.2,0.4,0.3,0.6c2.4,5,7.4,8,12.7,8c1.8,0,3.6-0.4,5.4-1.1c3.2-1.3,5.8-3.8,7.3-6.9
	c0.1-0.2,0.2-0.4,0.3-0.6C37.1,30.9,36.9,30.3,36.4,30.1z M28.6,37.1c-5.6,2.3-12,0.1-15-5.1h20.8C33.1,34.3,31.1,36,28.6,37.1z"/>
</svg>
