<?xml version="1.0" encoding="utf-8"?>
<!-- Generator: Adobe Illustrator 26.0.2, SVG Export Plug-In . SVG Version: 6.00 Build 0)  -->
<svg version="1.1" id="Layer_1" xmlns="http://www.w3.org/2000/svg" xmlns:xlink="http://www.w3.org/1999/xlink" x="0px" y="0px"
	 viewBox="0 0 48 48" style="enable-background:new 0 0 48 48;" xml:space="preserve">
<path d="M37.3,21l-1-2.6C33.3,10.6,27.8,7,19.2,7C9.3,7,2.3,13.2,0.8,23.2C-0.1,28.9,0,35.3,0,35.6c0,0.5,0.5,1,1,1h3.9
	c0.8,2.7,3.2,4.6,6.1,4.6s5.4-2,6.1-4.6h13.8c0.8,2.7,3.2,4.6,6.1,4.6c2.9,0,5.3-2,6.1-4.6H47c0.5,0,1-0.5,1-1
	C48,31.7,48,21.4,37.3,21z M11,39.2c-2.4,0-4.4-2-4.4-4.4s2-4.4,4.4-4.4s4.4,2,4.4,4.4C15.3,37.2,13.4,39.2,11,39.2z M37,39.2
	c-2.4,0-4.4-2-4.4-4.4s2-4.4,4.4-4.4s4.4,2,4.4,4.4C41.4,37.2,39.4,39.2,37,39.2z M43.4,34.6c-0.1-3.4-2.9-6.1-6.4-6.1
	c-3.4,0-6.2,2.7-6.4,6.1H17.3c-0.1-3.4-2.9-6.1-6.4-6.1c-3.4,0-6.2,2.7-6.4,6.1H2c0-2,0.1-6.8,0.8-11.1C4.1,14.6,10.4,9,19.2,9
	c7.8,0,12.6,3.1,15.3,10.1l1.2,3.2c0.2,0.4,0.5,0.6,0.9,0.6c7.8,0,9.2,5.7,9.4,11.6L43.4,34.6L43.4,34.6z M32.6,21.5
	c-3.3-9.9-10.2-9.9-14.8-9.9c-5.2,0-10.9,3.5-11.7,10.1c0,0.3,0.1,0.6,0.2,0.8c0.2,0.2,0.5,0.3,0.8,0.3h24.5c0.3,0,0.6-0.2,0.8-0.4
	S32.7,21.8,32.6,21.5z M16.9,20.8H8.3c1.1-4.3,4.8-6.8,8.5-7.1v7.1H16.9z M18.9,20.8v-7.2c4,0,8.6,0.5,11.4,7.2H18.9z"/>
</svg>
