<?xml version="1.0" encoding="utf-8"?>
<!-- Generator: Adobe Illustrator 26.0.2, SVG Export Plug-In . SVG Version: 6.00 Build 0)  -->
<svg version="1.1" id="Layer_1" xmlns="http://www.w3.org/2000/svg" xmlns:xlink="http://www.w3.org/1999/xlink" x="0px" y="0px"
	 viewBox="0 0 48 48" style="enable-background:new 0 0 48 48;" xml:space="preserve">
<path d="M26,40h-8.8c-2.3,0-4.3-1.6-4.9-3.9L9,22.2c-0.1-0.5,0.2-1.1,0.7-1.2s1.1,0.2,1.2,0.7l3.3,13.9c0.3,1.4,1.5,2.3,2.9,2.3H26
	c0.6,0,1,0.4,1,1S26.5,40,26,40z M20,12c-3.3,0-6-2.7-6-6s2.7-6,6-6s6,2.7,6,6S23.3,12,20,12z M20,2c-2.2,0-4,1.8-4,4s1.8,4,4,4
	s4-1.8,4-4S22.2,2,20,2z M32.9,48c-2.1,0-3.8-1.6-4-3.7L28.3,36h-4.8c-4,0-7.4-3-7.9-6.9L14,18.6c-0.3-2.2,1.2-4.2,3.4-4.5
	c1.1-0.2,2.1,0.1,3,0.7c0.9,0.6,1.4,1.6,1.6,2.6l0.2,1.4c5.9-0.8,11.7,1.9,15,7c1.2,1.9,2,4,2.3,6.2l0.3,1.7c0,0.1,0,0.2,0,0.3
	c0,1.1-0.9,2-2,2h-1.4l0.6,7.7c0.1,1.1-0.2,2.1-0.9,2.9c-0.7,0.8-1.7,1.3-2.7,1.4L32.9,48z M28.4,34c1,0,1.8,0.8,1.9,1.8l0.7,8.4
	c0.1,1,1,1.8,2,1.8h0.2c0.5,0,0.9-0.3,1.3-0.7c0.3-0.4,0.5-0.9,0.5-1.5L34.3,35c0-0.3,0.1-0.6,0.3-0.8s0.5-0.3,0.7-0.3h2.5l-0.3-1.7
	c-0.3-1.9-1-3.8-2-5.4c-3-4.7-8.5-7-14-5.9c-0.3,0.1-0.6,0-0.8-0.2c-0.2-0.2-0.4-0.4-0.4-0.7L20,17.6c-0.1-0.5-0.4-1-0.8-1.3
	s-1-0.5-1.5-0.4c-1.1,0.2-1.8,1.2-1.7,2.3l1.5,10.5c0.4,3,3,5.2,5.9,5.2L28.4,34C28.3,34,28.3,34,28.4,34z"/>
</svg>
