<?xml version="1.0" encoding="utf-8"?>
<!-- Generator: Adobe Illustrator 26.0.2, SVG Export Plug-In . SVG Version: 6.00 Build 0)  -->
<svg version="1.1" id="Layer_1" xmlns="http://www.w3.org/2000/svg" xmlns:xlink="http://www.w3.org/1999/xlink" x="0px" y="0px"
	 viewBox="0 0 48 48" style="enable-background:new 0 0 48 48;" xml:space="preserve">
<path d="M30.5,48c-0.6,0-1-0.4-1-1v-6.1c0-0.6,0.4-1,1-1h3.1c1.4,0,2.7-0.5,3.6-1.5c1-1,1.5-2.3,1.5-3.6v-6.1c0-0.6,0.4-1,1-1h3.9
	c0.1,0,0.2,0,0.2-0.1c0.1,0,0.1-0.1,0.2-0.2c0-0.1,0.1-0.2,0.1-0.2c0-0.1,0-0.2,0-0.3c-0.4-1.2-0.9-2.3-1.3-3.4
	C38.3,11.5,34.7,2,22.1,2l0,0c-3.7,0-7.2,1.1-10.2,3.1c-3,2.1-5.3,5-6.7,8.4c-1.3,3.4-1.6,7.1-0.8,10.7S7,31,9.7,33.5
	C9.9,33.7,10,34,10,34.2V47c0,0.6-0.4,1-1,1s-1-0.4-1-1V34.6c-2.8-2.7-4.8-6.2-5.6-10c-0.9-4-0.6-8.1,0.9-11.9s4-7,7.4-9.3
	C14.1,1.2,18,0,22,0l0,0c14,0,18,10.5,22.6,22.7c0.4,1.1,0.9,2.3,1.3,3.4c0.1,0.4,0.2,0.8,0.2,1.2c0,0.4-0.2,0.8-0.4,1.1
	c-0.2,0.3-0.5,0.6-0.9,0.8c-0.4,0.2-0.8,0.3-1.2,0.3h-2.9v5.1c0,1.9-0.7,3.7-2.1,5s-3.1,2.1-5,2.1h-2.1V47C31.5,47.6,31,48,30.5,48z
	 M25.1,43.9c0,0.1,0,0.1,0,0.2c0,0.4-0.2,0.8-0.5,1c-0.3,0.3-0.7,0.5-1,0.5c-0.1,0-0.1,0-0.2,0s-0.1,0-0.2,0c-0.4,0-0.8-0.2-1.1-0.5
	c-0.3-0.3-0.5-0.7-0.5-1.1c0-0.1,0-0.1,0-0.2s0-0.1,0-0.2c0-0.4,0.2-0.8,0.5-1c0.3-0.3,0.7-0.5,1.1-0.5c0.1,0,0.1,0,0.2,0
	s0.1,0,0.2,0c0.4,0,0.8,0.2,1,0.5c0.3,0.3,0.5,0.7,0.5,1C25.1,43.8,25.1,43.9,25.1,43.9z M17.5,42.4c0,0.1,0,0.1,0,0.2
	c0,0.4-0.2,0.8-0.5,1c-0.3,0.3-0.7,0.5-1,0.5c-0.1,0-0.1,0-0.2,0s-0.1,0-0.2,0c-0.4,0-0.8-0.2-1-0.5c-0.3-0.3-0.5-0.7-0.5-1
	c0-0.1,0-0.1,0-0.2s0-0.1,0-0.2c0-0.4,0.2-0.8,0.5-1.1s0.7-0.5,1-0.5c0.1,0,0.1,0,0.2,0s0.1,0,0.2,0c0.4,0,0.8,0.2,1,0.5
	c0.3,0.3,0.5,0.7,0.5,1.1C17.4,42.3,17.5,42.3,17.5,42.4z M23.6,36.3c0,0.1,0,0.1,0,0.2c0,0.4-0.2,0.8-0.5,1c-0.3,0.3-0.7,0.5-1,0.5
	c-0.1,0-0.1,0-0.2,0s-0.1,0-0.2,0c-0.4,0-0.8-0.2-1-0.5c-0.3-0.3-0.5-0.7-0.5-1c0-0.1,0-0.1,0-0.2c0-0.1,0-0.1,0-0.2
	c0-0.4,0.2-0.8,0.5-1.1s0.7-0.5,1-0.5c0.1,0,0.1,0,0.2,0s0.1,0,0.2,0c0.4,0,0.8,0.2,1,0.5c0.3,0.3,0.5,0.7,0.5,1.1
	C23.6,36.1,23.6,36.2,23.6,36.3z"/>
</svg>
