<?xml version="1.0" encoding="utf-8"?>
<!-- Generator: Adobe Illustrator 26.0.2, SVG Export Plug-In . SVG Version: 6.00 Build 0)  -->
<svg version="1.1" id="Layer_1" xmlns="http://www.w3.org/2000/svg" xmlns:xlink="http://www.w3.org/1999/xlink" x="0px" y="0px"
	 viewBox="0 0 48 48" style="enable-background:new 0 0 48 48;" xml:space="preserve">
<path d="M25.9,44H21c-0.5,0-0.9-0.4-1-0.9L18.8,34H16c-0.6,0-1-0.4-1-1v-5.5c0-2,0.9-4,2.5-5.4s3.7-2.2,5.9-2.2s4.3,0.8,5.9,2.2
	c1.6,1.4,2.5,3.4,2.5,5.4V33c0,0.6-0.4,1-1,1H28l-1.1,9.1C26.8,43.6,26.4,44,25.9,44z M21.8,42H25l1.1-9.1c0.1-0.5,0.5-0.9,1-0.9
	h2.7v-4.5c0-1.5-0.7-2.9-1.8-4c-1.2-1.1-2.9-1.7-4.6-1.7s-3.4,0.6-4.6,1.7S17,26,17,27.5V32h2.7c0.5,0,0.9,0.4,1,0.9L21.8,42z
	 M23.4,18.8c-0.9,0-1.8-0.2-2.6-0.5c-0.8-0.3-1.6-0.9-2.2-1.5s-1.1-1.4-1.5-2.2s-0.5-1.7-0.5-2.6s0.2-1.8,0.5-2.6s0.9-1.6,1.5-2.2
	s1.4-1.1,2.2-1.5c1.7-0.7,3.6-0.7,5.3,0c0.8,0.3,1.6,0.9,2.2,1.5s1.2,1.4,1.5,2.2s0.5,1.7,0.5,2.6c0,0.9-0.2,1.8-0.5,2.6
	s-0.9,1.6-1.5,2.2s-1.4,1.1-2.2,1.5C25.2,18.6,24.3,18.8,23.4,18.8z M23.4,7c-0.6,0-1.3,0.1-1.9,0.4c-0.6,0.2-1.1,0.6-1.6,1.1
	s-0.8,1-1.1,1.6c-0.2,0.6-0.4,1.2-0.4,1.9c0,0.6,0.1,1.3,0.4,1.9c0.2,0.6,0.6,1.1,1.1,1.6s1,0.8,1.6,1.1c1.2,0.5,2.6,0.5,3.8,0
	c0.6-0.2,1.1-0.6,1.6-1.1s0.8-1,1.1-1.6c0.2-0.6,0.4-1.2,0.4-1.9c0-0.6-0.1-1.3-0.4-1.9c-0.2-0.6-0.6-1.1-1.1-1.6s-1-0.8-1.6-1.1
	C24.7,7.1,24,7,23.4,7z"/>
</svg>
