<?xml version="1.0" encoding="utf-8"?>
<!-- Generator: Adobe Illustrator 26.0.2, SVG Export Plug-In . SVG Version: 6.00 Build 0)  -->
<svg version="1.1" id="Layer_1" xmlns="http://www.w3.org/2000/svg" xmlns:xlink="http://www.w3.org/1999/xlink" x="0px" y="0px"
	 viewBox="0 0 48 48" style="enable-background:new 0 0 48 48;" xml:space="preserve">
<path d="M22.5,1v10c0,3.5-2.5,6.4-5.8,6.9V47c0,0.5-0.5,1-1,1s-1-0.5-1-1V17.9C11.5,17.4,9,14.5,9,11V1c0-0.5,0.5-1,1-1s1,0.5,1,1
	v10c0,2.4,1.6,4.4,3.8,4.9V1c0-0.5,0.5-1,1-1c0.5,0,1,0.5,1,1v14.9c2.1-0.5,3.8-2.5,3.8-4.9V1c0-0.5,0.5-1,1-1S22.5,0.5,22.5,1z
	 M33,0c-3.7,0-6.8,3.1-6.8,7v4c0,3.5,2.5,6.4,5.8,6.9V47c0,0.5,0.5,1,1,1s1-0.5,1-1V17.9c3.2-0.5,5.8-3.4,5.8-6.9V7
	C39.8,3.1,36.7,0,33,0z M37.8,11c0,2.8-2.1,5-4.8,5s-4.8-2.2-4.8-5V7c0-2.8,2.1-5,4.8-5s4.8,2.2,4.8,5V11z"/>
</svg>
