<?xml version="1.0" encoding="utf-8"?>
<!-- Generator: Adobe Illustrator 26.0.2, SVG Export Plug-In . SVG Version: 6.00 Build 0)  -->
<svg version="1.1" id="Layer_1" xmlns="http://www.w3.org/2000/svg" xmlns:xlink="http://www.w3.org/1999/xlink" x="0px" y="0px"
	 viewBox="0 0 48 48" style="enable-background:new 0 0 48 48;" xml:space="preserve">
<path d="M47,9.7h-6.1c-0.4,0-0.7-0.2-0.9-0.6c-0.2-0.3-0.1-0.8,0.1-1.1l4.8-6h-4.1c-0.6,0-1-0.4-1-1s0.4-1,1-1H47
	c0.4,0,0.7,0.2,0.9,0.6c0.2,0.3,0.1,0.8-0.1,1.1l-4.8,6h4c0.6,0,1,0.4,1,1S47.6,9.7,47,9.7z M36.3,23.5h-7.7c-0.4,0-0.7-0.2-0.9-0.6
	c-0.2-0.4-0.1-0.8,0.1-1.1l6.3-7.6h-5.5c-0.6,0-1-0.4-1-1s0.4-1,1-1h7.7c0.4,0,0.7,0.2,0.9,0.6c0.2,0.4,0.1,0.8-0.1,1.1l-6.3,7.6
	h5.5c0.6,0,1,0.4,1,1S36.8,23.5,36.3,23.5z M19.4,48c-1.1,0-2.3-0.4-3.2-1.1c-0.9-0.7-1.6-1.6-1.9-2.7c-0.2-0.5,0.1-1.1,0.7-1.2
	c0.5-0.2,1.1,0.1,1.2,0.7c0.2,0.7,0.6,1.3,1.2,1.7c1.1,0.8,2.8,0.8,3.9,0c0.6-0.4,1-1,1.2-1.7c0.2-0.5,0.7-0.8,1.2-0.7
	c0.5,0.2,0.8,0.7,0.7,1.2c-0.3,1.1-1,2.1-1.9,2.7C21.7,47.6,20.5,48,19.4,48z M38.7,38.3c-0.2,0.3-0.5,0.5-0.9,0.5H1
	c-0.4,0-0.7-0.2-0.9-0.5s-0.2-0.7,0-1c0,0,2.9-4.8,2.9-16.3c0-4.4,1.7-8.5,4.8-11.5c2.9-2.8,6.6-4.5,10.6-4.8V1c0-0.5,0.4-1,1-1
	c0.5,0,1,0.5,1,1v3.6c2.1,0.1,4.1,0.7,6,1.6c0.5,0.2,0.7,0.8,0.5,1.3C26.6,8.1,26,8.3,25.5,8c-1.9-0.9-4-1.4-6.1-1.4
	c-3.8,0-7.4,1.5-10.1,4.2s-4.2,6.3-4.2,10.1c0,8.5-1.5,13.6-2.5,15.9h33.5c-1-2-1.6-4.1-1.9-6.3c-0.1-0.6,0.3-1.1,0.9-1.1
	c0.5-0.1,1,0.3,1.1,0.9c0.3,2.5,1.2,4.9,2.4,7.1C38.8,37.6,38.8,38,38.7,38.3z"/>
</svg>
