<?xml version="1.0" encoding="utf-8"?>
<!-- Generator: Adobe Illustrator 26.0.2, SVG Export Plug-In . SVG Version: 6.00 Build 0)  -->
<svg version="1.1" id="Layer_1" xmlns="http://www.w3.org/2000/svg" xmlns:xlink="http://www.w3.org/1999/xlink" x="0px" y="0px"
	 viewBox="0 0 48 48" style="enable-background:new 0 0 48 48;" xml:space="preserve">
<path d="M30.8,48c-0.6,0-1-0.4-1-1v-6c0-0.6,0.4-1,1-1H33c2.8,0,5.1-2.2,5.1-5v-6c0-0.6,0.4-1,1-1h5.5c-0.3-1.1-0.7-2.2-1-3.2
	C39.8,13.1,36.3,2,22.2,2l0,0C11.8,2,3.4,10.3,3.4,20.5c0,5.9,2.9,11.5,7.7,14.9c0.3,0.2,0.4,0.5,0.4,0.8V47c0,0.6-0.4,1-1,1
	s-1-0.4-1-1V36.7c-5.1-3.9-8.1-9.9-8.1-16.3C1.5,9.2,10.7,0,22.1,0l0,0c15.6,0,19.5,12.3,23.3,24.2c0.3,1.1,0.7,2.1,1,3.2
	c0.1,0.2,0.1,0.4,0.1,0.6c0,1.1-0.9,2-2,2H40v5c0,3.9-3.2,7-7.1,7h-1.3v5C31.8,47.6,31.3,48,30.8,48z M14.6,29
	c-1.2,0-2.3-0.3-3.2-0.8c0,0,0,0-0.1,0c-0.2,0-0.4-0.1-0.5-0.3c-2.6-1.5-4.4-4.3-4.3-7.5c0-2.6,1.2-5.1,3.2-6.7
	c0.6-3.6,4-6.1,7.6-5.7c0.5,0.1,1.1,0.2,1.6,0.3c1.8-2.3,5-3.1,7.7-1.7c1,0.5,1.8,1.3,2.4,2.3c3.3,0.1,5.9,2.8,5.9,6
	c0,3.3-2.7,6-6.1,6c-0.4,0-0.8,0-1.1-0.1c-1.3,1.9-3.4,3.1-5.7,3.1C20.7,26.9,17.9,28.9,14.6,29z M12.7,26.6c0.6,0.2,1.3,0.4,2,0.4
	c2.6-0.1,4.9-1.8,5.7-4.3c0.1-0.4,0.6-0.7,1-0.7c0.1,0,0.2,0,0.2,0c0.1,0,0.1,0,0.2,0c1.8,0,3.4-0.9,4.3-2.4l-0.5-1.4
	c-0.4-1.1-1.2-2.1-2.2-2.7l-1.2-0.7c-0.5-0.3-0.7-0.9-0.4-1.4c0.3-0.5,0.9-0.7,1.4-0.4l1.2,0.7c1.5,0.8,2.6,2.2,3.1,3.8l0.4,1.3
	c0.3,0.1,0.6,0.1,0.8,0.1c2.2,0,4-1.8,4-4s-1.8-4-4.1-4c-0.2,0-0.3,0-0.4,0c-0.4,0-0.8-0.2-0.9-0.6c-0.4-0.8-1-1.5-1.8-2
	c-2-1-4.4-0.3-5.5,1.6c-0.3,0.5-0.8,0.7-1.3,0.4S17.6,9.9,17,9.8c-1.5-0.2-3,0.4-4,1.3c2.1,0.6,3.7,2.2,4.4,4.3
	c0.2,0.5-0.1,1.1-0.6,1.3c-0.5,0.2-1.1-0.1-1.3-0.6c-0.5-1.6-1.8-2.7-3.4-3.1l-0.3-0.1c-0.2,0.4-0.3,0.8-0.3,1.3
	c0,0.3-0.2,0.5-0.4,0.7c-1.7,1.3-2.7,3.3-2.7,5.4c-0.1,2.1,0.9,3.9,2.4,5.1c0.6-1.7,1.6-3.3,3-4.5c0.4-0.4,1-0.3,1.4,0.1
	s0.3,1-0.1,1.4C14,23.7,13.1,25.1,12.7,26.6z"/>
</svg>
