<?xml version="1.0" encoding="utf-8"?>
<!-- Generator: Adobe Illustrator 26.0.2, SVG Export Plug-In . SVG Version: 6.00 Build 0)  -->
<svg version="1.1" id="Layer_1" xmlns="http://www.w3.org/2000/svg" xmlns:xlink="http://www.w3.org/1999/xlink" x="0px" y="0px"
	 viewBox="0 0 48 48" style="enable-background:new 0 0 48 48;" xml:space="preserve">
<path d="M25,4V1c0-0.5-0.5-1-1-1s-1,0.5-1,1v3C10.6,4.5,1,14.9,1,28v1c0,0.5,0.4,1,0.9,1s1-0.4,1-0.9c0.2-1.9,2-3.3,3.9-3.1H7
	c2-0.2,3.7,1.2,3.9,3.1c0.1,0.5,0.5,0.9,1,0.9H12c0.5,0,0.9-0.5,0.9-1c0-1.6,2.3-3,5-3s5,1.4,5,3v15c0,2.2,1.8,4,4,4s4-1.8,4-4v-1
	c0-0.5-0.5-1-1-1s-1,0.5-1,1v1c0,1.1-0.9,2-2,2s-2-0.9-2-2V29c0-1.6,2.3-3,5-3s5,1.4,5,3c0,0.5,0.4,1,0.9,1s1-0.4,1-0.9
	c0.2-1.9,2-3.3,3.9-3.1h0.2c1.9-0.2,3.7,1.2,3.9,3.1c0.1,0.5,0.5,0.9,1,0.9h0.1c0.5,0,0.9-0.5,0.9-1v-1C47,14.9,37.4,4.5,25,4z
	 M41,24c-2.1-0.2-3.9,0.8-5,2.3c-1.2-1.4-3.4-2.3-6-2.3s-4.8,1-6,2.4C22.8,25,20.6,24,18,24c-2.5,0-4.8,0.9-6,2.3
	c-1.1-1.6-3-2.5-5-2.3c-1.4-0.1-2.8,0.3-3.8,1.1C4.4,14,13,6,24,6s19.6,8,20.8,19.1C43.8,24.3,42.4,23.9,41,24z"/>
</svg>
