<?xml version="1.0" encoding="utf-8"?>
<!-- Generator: Adobe Illustrator 26.0.2, SVG Export Plug-In . SVG Version: 6.00 Build 0)  -->
<svg version="1.1" id="Layer_1" xmlns="http://www.w3.org/2000/svg" xmlns:xlink="http://www.w3.org/1999/xlink" x="0px" y="0px"
	 viewBox="0 0 48 48" style="enable-background:new 0 0 48 48;" xml:space="preserve">
<path d="M46.6,36.1l-6.7-6.7c-0.5-0.4-1-0.8-1.5-1c-1.2-0.5-2.5-0.5-3.7,0c-0.6,0.2-1.1,0.6-1.5,1c-1,1-2.9,1-3.9,0L18.6,18.7
	c-0.2-0.3-0.5-0.6-0.6-0.9s-0.2-0.7-0.2-1.1s0.1-0.7,0.2-1.1c0.1-0.3,0.3-0.6,0.6-0.9c0.9-0.9,1.4-2.1,1.4-3.4s-0.5-2.5-1.4-3.4
	l-6.7-6.7C11,0.5,9.8,0,8.6,0C7.3,0,6.1,0.5,5.2,1.4L3.6,3c-2,2-3.2,4.6-3.5,7.4s0.4,5.6,1.9,8c7.4,11,16.7,20.3,27.7,27.7l0,0
	c2,1.3,4.3,1.9,6.6,1.9c0.4,0,0.9,0,1.3-0.1c2.8-0.3,5.4-1.6,7.4-3.5l1.6-1.6c0.9-0.9,1.4-2.1,1.4-3.4C48,38.2,47.5,37,46.6,36.1z
	 M45.2,41.4L43.6,43c-1.7,1.7-3.8,2.7-6.2,3c-2.3,0.2-4.7-0.3-6.7-1.6C20,37.1,10.9,28,3.6,17.2c-1.2-2-1.8-4.3-1.5-6.7
	C2.3,8.2,3.4,6,5,4.4l1.6-1.6c1-1,2.9-1,3.9,0l6.7,6.7c0.5,0.5,0.8,1.2,0.8,2s-0.3,1.4-0.8,2c-0.5,0.4-0.8,1-1,1.5
	c-0.2,0.6-0.4,1.2-0.4,1.8c0,0.6,0.1,1.2,0.4,1.8c0.2,0.6,0.6,1.1,1,1.5l10.7,10.7c0.9,0.9,2.1,1.4,3.4,1.4c1.3,0,2.5-0.5,3.4-1.4
	c0.3-0.3,0.6-0.5,0.9-0.6c0.7-0.3,1.5-0.3,2.1,0c0.3,0.1,0.6,0.3,0.9,0.6l6.7,6.7c0.5,0.5,0.8,1.2,0.8,2
	C46,40.2,45.7,40.9,45.2,41.4z"/>
</svg>
