<?xml version="1.0" encoding="utf-8"?>
<!-- Generator: Adobe Illustrator 26.0.2, SVG Export Plug-In . SVG Version: 6.00 Build 0)  -->
<svg version="1.1" id="Layer_1" xmlns="http://www.w3.org/2000/svg" xmlns:xlink="http://www.w3.org/1999/xlink" x="0px" y="0px"
	 viewBox="0 0 48 48" style="enable-background:new 0 0 48 48;" xml:space="preserve">
<path d="M29.8,14.3c-0.6-0.4-1.2-0.7-1.9-1c0.4-0.2,0.7-0.5,1-0.8c0.6-0.7,1.2-1.4,1.5-2.3C30.8,9.3,31,8.4,31,7.5s-0.2-1.8-0.5-2.7
	C30.1,4,29.6,3.2,29,2.5c-0.7-0.7-1.4-1.2-2.3-1.5C25,0.3,23,0.3,21.3,1c-0.9,0.4-1.6,0.9-2.3,1.5c-0.6,0.7-1.2,1.4-1.5,2.3
	S17,6.6,17,7.5s0.2,1.8,0.5,2.7c0.3,0.8,0.9,1.6,1.5,2.3c0.3,0.3,0.7,0.6,1,0.8c-0.7,0.2-1.3,0.6-1.9,1c-0.3,0.2-0.6,0.4-0.8,0.6
	c-0.4,0.3-0.5,1-0.2,1.4c0.2,0.2,0.5,0.4,0.8,0.4c0.2,0,0.4-0.1,0.6-0.2c0.2-0.2,0.4-0.4,0.7-0.5c2.8-1.9,6.5-1.9,9.4,0
	c0.2,0.1,0.5,0.3,0.7,0.5c0.4,0.3,1.1,0.3,1.4-0.2c0.3-0.4,0.3-1.1-0.2-1.4C30.4,14.7,30.1,14.5,29.8,14.3z M19.4,9.4
	C19.1,8.8,19,8.2,19,7.5s0.1-1.3,0.4-1.9C19.6,5,20,4.4,20.5,4c0.5-0.5,1-0.8,1.6-1.1c0.6-0.2,1.2-0.4,1.9-0.4s1.3,0.1,1.9,0.4
	c0.6,0.2,1.2,0.6,1.6,1.1c0.5,0.5,0.8,1,1.1,1.6C28.9,6.2,29,6.8,29,7.5s-0.1,1.3-0.4,1.9S28,10.6,27.5,11c-0.5,0.5-1,0.8-1.6,1.1
	c-1.2,0.5-2.6,0.5-3.8,0c-0.6-0.2-1.2-0.6-1.6-1.1C20,10.6,19.6,10,19.4,9.4z M33.9,46.1c-1-2-2.4-3.6-4.1-4.8
	c-0.6-0.4-1.2-0.7-1.9-1c0.4-0.2,0.7-0.5,1-0.8c0.6-0.7,1.2-1.4,1.5-2.3c0.4-0.9,0.5-1.8,0.5-2.7s-0.2-1.8-0.5-2.7
	c-0.3-0.9-0.9-1.6-1.5-2.3c-0.7-0.7-1.4-1.2-2.3-1.5c-1.7-0.7-3.6-0.7-5.4,0c-0.9,0.4-1.6,0.9-2.3,1.5c-0.6,0.7-1.2,1.4-1.5,2.3
	c-0.4,0.8-0.5,1.8-0.5,2.7s0.2,1.8,0.5,2.7c0.3,0.8,0.9,1.6,1.5,2.3c0.3,0.3,0.7,0.6,1,0.8c-0.7,0.2-1.3,0.6-1.9,1
	c-1.7,1.2-3.2,2.8-4.1,4.8c-0.2,0.5,0,1.1,0.5,1.3s1.1,0,1.3-0.5c0.8-1.7,2-3,3.4-4c2.8-1.9,6.5-1.9,9.4,0c1.4,0.9,2.6,2.3,3.4,4
	c0.2,0.4,0.5,0.6,0.9,0.6c0.2,0,0.3,0,0.4-0.1C33.9,47.2,34.1,46.6,33.9,46.1z M19.4,36.4c-0.2-0.6-0.4-1.2-0.4-1.9s0.1-1.3,0.4-1.9
	c0.2-0.6,0.6-1.2,1.1-1.6c0.5-0.5,1-0.8,1.6-1.1c0.6-0.2,1.2-0.4,1.9-0.4s1.3,0.1,1.9,0.4c0.6,0.2,1.2,0.6,1.6,1.1
	c0.5,0.5,0.8,1,1.1,1.6c0.2,0.6,0.4,1.2,0.4,1.9s-0.1,1.3-0.4,1.9S28,37.6,27.5,38c-0.5,0.5-1,0.8-1.6,1.1c-1.2,0.5-2.6,0.5-3.8,0
	c-0.6-0.2-1.2-0.6-1.6-1.1C20,37.6,19.6,37,19.4,36.4z M47.4,32.6c-0.8-1.6-1.9-3.1-3.3-4.2c-0.3-0.2-0.5-0.4-0.8-0.6
	c-0.6-0.4-1.2-0.7-1.9-1c0.4-0.2,0.7-0.5,1-0.8c0.6-0.7,1.2-1.4,1.5-2.3c0.4-0.9,0.5-1.8,0.5-2.7c0-0.9-0.2-1.8-0.5-2.7
	c-0.3-0.9-0.9-1.6-1.5-2.3c-0.7-0.7-1.4-1.2-2.3-1.5c-1.7-0.7-3.6-0.7-5.4,0c-0.9,0.4-1.6,0.9-2.3,1.5c-0.6,0.7-1.2,1.4-1.5,2.3
	c-0.4,0.8-0.5,1.8-0.5,2.7c0,0.9,0.2,1.8,0.5,2.7c0.3,0.8,0.9,1.6,1.5,2.3c0.3,0.3,0.7,0.6,1,0.8c-0.7,0.2-1.3,0.6-1.9,1
	c-0.3,0.2-0.6,0.4-0.8,0.6c-0.4,0.3-0.5,1-0.2,1.4c0.4,0.4,1,0.5,1.4,0.2c0.2-0.2,0.4-0.4,0.7-0.5c2.8-1.9,6.5-1.9,9.4,0
	c0.2,0.1,0.5,0.3,0.7,0.5c1.1,0.9,2.1,2.1,2.7,3.5c0.2,0.4,0.5,0.6,0.9,0.6c0.2,0,0.3,0,0.4-0.1C47.4,33.7,47.6,33.1,47.4,32.6z
	 M32.9,22.9c-0.2-0.6-0.4-1.2-0.4-1.9c0-0.7,0.1-1.3,0.4-1.9c0.2-0.6,0.6-1.2,1.1-1.6c0.5-0.5,1-0.8,1.6-1.1
	c0.6-0.2,1.2-0.4,1.9-0.4s1.3,0.1,1.9,0.4c0.6,0.2,1.2,0.6,1.6,1.1c0.5,0.5,0.8,1,1.1,1.6c0.2,0.6,0.4,1.2,0.4,1.9
	c0,0.7-0.1,1.3-0.4,1.9s-0.6,1.2-1.1,1.6c-0.5,0.5-1,0.8-1.6,1.1c-1.2,0.5-2.6,0.5-3.8,0C35,25.4,34.4,25,34,24.5
	C33.5,24.1,33.1,23.5,32.9,22.9z M16.3,27.8c-0.6-0.4-1.2-0.7-1.9-1c0.4-0.2,0.7-0.5,1-0.8c0.6-0.7,1.2-1.4,1.5-2.3
	c0.4-0.9,0.5-1.8,0.5-2.7c0-0.9-0.2-1.8-0.5-2.7c-0.3-0.9-0.9-1.6-1.5-2.3c-0.7-0.7-1.4-1.2-2.3-1.5c-1.7-0.7-3.6-0.7-5.4,0
	C7,14.9,6.2,15.4,5.5,16c-0.6,0.7-1.2,1.4-1.5,2.3c-0.4,0.8-0.5,1.8-0.5,2.7c0,0.9,0.2,1.8,0.5,2.7c0.3,0.8,0.9,1.6,1.5,2.3
	c0.3,0.3,0.7,0.6,1,0.8c-0.7,0.2-1.3,0.6-1.9,1C4.3,28,4,28.2,3.8,28.4c-1.3,1.1-2.5,2.5-3.3,4.2c-0.2,0.5,0,1.1,0.5,1.3
	C1.2,34,1.3,34,1.5,34c0.4,0,0.7-0.2,0.9-0.6C3.1,32.1,4,30.8,5.1,30c0.2-0.2,0.4-0.4,0.7-0.5c2.8-1.9,6.5-1.9,9.4,0
	c0.2,0.1,0.5,0.3,0.7,0.5c0.4,0.3,1.1,0.3,1.4-0.2c0.3-0.4,0.3-1.1-0.2-1.4C16.9,28.2,16.6,28,16.3,27.8z M5.9,22.9
	c-0.2-0.6-0.4-1.2-0.4-1.9c0-0.7,0.1-1.3,0.4-1.9c0.2-0.6,0.6-1.2,1.1-1.6c0.5-0.5,1-0.8,1.6-1.1c0.6-0.2,1.2-0.4,1.9-0.4
	s1.3,0.1,1.9,0.4c0.6,0.2,1.2,0.6,1.6,1.1c0.5,0.5,0.8,1,1.1,1.6c0.2,0.6,0.4,1.2,0.4,1.9c0,0.7-0.1,1.3-0.4,1.9s-0.6,1.2-1.1,1.6
	c-0.5,0.5-1,0.8-1.6,1.1c-1.2,0.5-2.6,0.5-3.8,0C8,25.4,7.4,25,7,24.5C6.5,24.1,6.1,23.5,5.9,22.9z"/>
</svg>
