<?xml version="1.0" encoding="utf-8"?>
<!-- Generator: Adobe Illustrator 26.0.2, SVG Export Plug-In . SVG Version: 6.00 Build 0)  -->
<svg version="1.1" id="Layer_1" xmlns="http://www.w3.org/2000/svg" xmlns:xlink="http://www.w3.org/1999/xlink" x="0px" y="0px"
	 viewBox="0 0 48 48" style="enable-background:new 0 0 48 48;" xml:space="preserve">
<path d="M38.8,21.4c-4.7,0-8.6,3.6-9.1,8.2c-1.3,0-2.4,0.3-3.5,1.2c0,0-0.1,0.1-0.2,0.1V15.6c0-1.2,0.5-2.3,1.3-3.1
	c0.6-0.6,1.5-1,2.3-1.2c0.5,4.5,4.4,8.1,9.1,8.1c5,0,9.2-4.1,9.2-9.2S43.9,1,38.8,1c-4.8,0-8.7,3.6-9.1,8.2C28.3,9.4,27,10,26,11
	c-1.2,1.2-2,2.8-2,4.5v20.6c0,1.2-0.5,2.3-1.3,3.1c-0.6,0.6-1.4,1-2.3,1.2V2.1c0-0.5-0.5-1-1-1H1c-0.5,0-1,0.5-1,1V46
	c0,0.6,0.5,1,1,1h18.4c0.5,0,1-0.4,1-1v-3.5c1.4-0.2,2.7-0.8,3.7-1.8c1.2-1.2,2-2.8,2-4.5v-1c0-1,0.5-2,1.4-2.8
	c0.7-0.6,1.3-0.7,2.2-0.8c0.5,4.6,4.4,8.2,9.1,8.2c5,0,9.2-4.1,9.2-9.2C48,25.5,43.9,21.4,38.8,21.4z M31.7,10.1
	c0-3.9,3.2-7.1,7.2-7.1s7.2,3.2,7.2,7.2s-3.2,7.2-7.2,7.2c-3.9,0-7.2-3.2-7.2-7.1V10.1z M18.4,45H2V3.1h16.4V45z M38.8,37.8
	c-4,0-7.2-3.2-7.2-7.2c0-3.9,3.2-7.2,7.2-7.2s7.2,3.2,7.2,7.2C46,34.5,42.8,37.8,38.8,37.8z M31.7,10.1
	C31.7,10.2,31.7,10.2,31.7,10.1L31.7,10.1L31.7,10.1z M15.3,23.5H5.1c-0.6,0-1-0.4-1-1V6.2c0-0.6,0.4-1,1-1h10.2c0.6,0,1,0.4,1,1
	v16.3C16.3,23.1,15.9,23.5,15.3,23.5z M6.1,21.5h8.2V7.2H6.1V21.5z M38.9,14.2c-2.2,0-4.1-1.8-4.1-4.1S36.6,6,38.9,6S43,7.9,43,10.2
	S41.2,14.2,38.9,14.2z M38.9,8.1c-1.1,0-2.1,0.9-2.1,2.1s0.9,2.1,2.1,2.1s2.1-0.9,2.1-2.1S40.1,8.1,38.9,8.1z M38.9,34.7
	c-2.2,0-4.1-1.8-4.1-4.1s1.8-4.1,4.1-4.1s4.1,1.8,4.1,4.1S41.2,34.7,38.9,34.7z M38.9,28.5c-1.1,0-2.1,0.9-2.1,2.1s0.9,2.1,2.1,2.1
	s2.1-0.9,2.1-2.1S40.1,28.5,38.9,28.5z M8.9,29c-0.1,0.3-0.2,0.7-0.5,0.9c-0.2,0.2-0.6,0.4-0.9,0.5c-0.1,0-0.2,0-0.3,0
	c-0.2,0-0.5,0-0.7-0.1c-0.3-0.1-0.6-0.4-0.8-0.7c-0.2-0.3-0.3-0.6-0.3-1c0-0.5,0.2-0.9,0.5-1.2c0.6-0.6,1.5-0.7,2.2-0.2
	c0.3,0.2,0.5,0.5,0.7,0.8C8.9,28.3,8.9,28.6,8.9,29z M8.9,35.1c-0.1,0.3-0.2,0.7-0.5,0.9c-0.2,0.2-0.6,0.4-0.9,0.5
	c-0.1,0-0.2,0-0.3,0c-0.2,0-0.5,0-0.7-0.1c-0.3-0.1-0.6-0.4-0.8-0.6c-0.2-0.3-0.3-0.6-0.3-1c0-0.5,0.2-0.9,0.5-1.2
	c0.6-0.6,1.5-0.7,2.2-0.2c0.3,0.2,0.5,0.5,0.7,0.8C8.9,34.4,8.9,34.8,8.9,35.1z M15,29c-0.1,0.3-0.2,0.7-0.5,0.9
	c-0.2,0.2-0.6,0.4-0.9,0.5c-0.1,0-0.2,0-0.3,0c-0.2,0-0.5,0-0.7-0.1c-0.3-0.1-0.6-0.4-0.8-0.7c-0.2-0.3-0.3-0.6-0.3-1
	c0-0.5,0.2-0.9,0.5-1.2c0.6-0.6,1.5-0.7,2.2-0.2c0.3,0.2,0.5,0.5,0.7,0.8C15,28.3,15.1,28.6,15,29z M15,35.1
	c-0.1,0.3-0.2,0.7-0.5,0.9c-0.2,0.2-0.6,0.4-0.9,0.5c-0.1,0-0.2,0-0.3,0c-0.2,0-0.5,0-0.7-0.1c-0.3-0.1-0.6-0.4-0.8-0.6
	c-0.2-0.3-0.3-0.6-0.3-1c0-0.5,0.2-0.9,0.5-1.2c0.6-0.6,1.5-0.7,2.2-0.2c0.3,0.2,0.5,0.5,0.7,0.8C15,34.4,15.1,34.8,15,35.1z"/>
</svg>
