<?xml version="1.0" encoding="utf-8"?>
<!-- Generator: Adobe Illustrator 26.0.2, SVG Export Plug-In . SVG Version: 6.00 Build 0)  -->
<svg version="1.1" id="Layer_1" xmlns="http://www.w3.org/2000/svg" xmlns:xlink="http://www.w3.org/1999/xlink" x="0px" y="0px"
	 viewBox="0 0 48 48" style="enable-background:new 0 0 48 48;" xml:space="preserve">
<path d="M33.2,48c-0.2,0-0.3,0-0.5-0.1C32.9,48,33,48,33.2,48z M24,48c-0.2,0-0.3,0-0.5-0.1C23.7,48,23.8,48,24,48z M42.7,0
	c-0.4-0.1-0.9,0.1-1.1,0.5c-0.4,0.7-0.9,1.2-1.6,1.6c-0.7,0.4-1.4,0.6-2.2,0.6s-1.5-0.2-2.1-0.6c-0.7-0.4-1.2-0.9-1.6-1.6
	C33.9,0.2,33.6,0,33.2,0c-0.4,0-0.7,0.2-0.9,0.5c-0.4,0.7-0.9,1.2-1.6,1.6s-1.4,0.6-2.2,0.6S27,2.5,26.4,2.1
	c-0.7-0.4-1.2-0.9-1.6-1.6C24.7,0.2,24.4,0,24,0c-0.3,0-0.7,0.2-0.9,0.5c-0.4,0.7-0.9,1.2-1.6,1.6c-0.6,0.4-1.4,0.6-2.1,0.6
	s-1.5-0.2-2.2-0.6S16,1.2,15.6,0.5C15.5,0.2,15.2,0,14.8,0s-0.7,0.2-0.9,0.5c-0.4,0.6-0.9,1.2-1.6,1.6c-0.6,0.4-1.4,0.6-2.1,0.6
	S8.7,2.4,8,2.1c-0.6-0.4-1.2-1-1.5-1.6C6.2,0.1,5.8-0.1,5.3,0C4.9,0.1,4.6,0.5,4.6,1v46c0,0.5,0.3,0.8,0.7,1
	c0.4,0.1,0.9-0.1,1.1-0.5c0.4-0.7,0.9-1.2,1.6-1.6c1.3-0.8,3-0.8,4.3,0c0.7,0.4,1.2,0.9,1.6,1.6c0.2,0.3,0.5,0.5,0.9,0.5
	s0.7-0.2,0.9-0.5c0.4-0.7,0.9-1.2,1.6-1.6c1.3-0.8,3-0.8,4.3,0c0.7,0.4,1.2,0.9,1.6,1.5l0,0c0.1,0.2,0.2,0.3,0.4,0.4
	C23.7,48,23.8,48,24,48s0.3,0,0.5-0.1c0.1,0,0.1-0.1,0.2-0.2c0.1-0.1,0.1-0.1,0.2-0.2l0,0c0.4-0.6,0.9-1.2,1.6-1.5
	c1.3-0.8,3-0.8,4.3,0c0.7,0.4,1.2,0.9,1.6,1.5l0,0c0.1,0.2,0.2,0.3,0.4,0.4C32.9,48,33,48,33.2,48c0.1,0,0.2,0,0.3,0
	s0.2-0.1,0.2-0.1l0,0c0.2-0.1,0.3-0.2,0.4-0.4c0.4-0.6,0.9-1.2,1.6-1.5c1.3-0.8,3-0.8,4.3,0c0.7,0.4,1.2,0.9,1.6,1.6l0,0
	c0,0.1,0.1,0.1,0.2,0.2s0.1,0.1,0.2,0.2l0,0c0,0,0.1,0,0.2,0.1c0.1,0,0.2,0,0.3,0s0.1,0,0.2,0c0.1,0,0.1,0,0.2-0.1
	c0,0,0.1,0,0.1-0.1c0.1,0,0.1-0.1,0.2-0.2c0-0.1,0.1-0.1,0.1-0.2l0,0c0,0,0-0.1,0.1-0.1c0-0.1,0.1-0.2,0.1-0.3V1
	C43.4,0.5,43.1,0.1,42.7,0z M34.7,44.2c-0.5,0.3-1,0.7-1.5,1.1c-0.4-0.5-0.9-0.8-1.5-1.1c-1.9-1.1-4.4-1.1-6.3,0
	c-0.5,0.3-1,0.7-1.5,1.1c-0.4-0.5-0.9-0.8-1.5-1.1c-1.9-1.1-4.4-1.1-6.3,0c-0.5,0.3-1,0.7-1.5,1.1c-0.4-0.4-0.9-0.8-1.5-1.1
	c-1.9-1.1-4.4-1.1-6.3,0c-0.1,0.1-0.3,0.2-0.5,0.3v-41C6.8,3.6,6.9,3.7,7,3.8c1,0.5,2,0.8,3.2,0.8c1.1,0,2.2-0.3,3.1-0.8
	c0.5-0.3,1-0.7,1.5-1.1c0.4,0.4,0.9,0.8,1.5,1.1c1,0.5,2,0.8,3.2,0.8c1.1,0,2.2-0.3,3.1-0.8c0.5-0.3,1-0.7,1.5-1.1
	c0.4,0.4,0.9,0.8,1.5,1.1c1,0.5,2,0.8,3.1,0.8s2.2-0.3,3.2-0.8c0.5-0.3,1-0.7,1.5-1.1c0.4,0.4,0.9,0.8,1.5,1.1c1,0.5,2,0.8,3.1,0.8
	s2.2-0.3,3.2-0.8c0.1-0.1,0.3-0.2,0.5-0.3v41c-0.1-0.1-0.3-0.2-0.5-0.3C39,43.1,36.6,43.1,34.7,44.2z M24,14.3H11.7
	c-0.6,0-1-0.4-1-1s0.4-1,1-1H24c0.6,0,1,0.4,1,1S24.6,14.3,24,14.3z M24,23.5H11.7c-0.6,0-1-0.4-1-1s0.4-1,1-1H24c0.6,0,1,0.4,1,1
	S24.6,23.5,24,23.5z M24,32.7H11.7c-0.6,0-1-0.4-1-1s0.4-1,1-1H24c0.6,0,1,0.4,1,1C25,32.3,24.6,32.7,24,32.7z M36.3,14.3h-3.1
	c-0.6,0-1-0.4-1-1s0.4-1,1-1h3.1c0.6,0,1,0.4,1,1S36.8,14.3,36.3,14.3z M36.3,23.5h-3.1c-0.6,0-1-0.4-1-1s0.4-1,1-1h3.1
	c0.6,0,1,0.4,1,1S36.8,23.5,36.3,23.5z M36.3,32.7h-3.1c-0.6,0-1-0.4-1-1s0.4-1,1-1h3.1c0.6,0,1,0.4,1,1
	C37.3,32.3,36.8,32.7,36.3,32.7z"/>
</svg>
