<?xml version="1.0" encoding="utf-8"?>
<!-- Generator: Adobe Illustrator 26.0.2, SVG Export Plug-In . SVG Version: 6.00 Build 0)  -->
<svg version="1.1" id="Layer_1" xmlns="http://www.w3.org/2000/svg" xmlns:xlink="http://www.w3.org/1999/xlink" x="0px" y="0px"
	 viewBox="0 0 48 48" style="enable-background:new 0 0 48 48;" xml:space="preserve">
<path d="M41,7c-4.5-4.5-10.6-7-17-7S11.6,2.5,7,7c-4.5,4.5-7,10.6-7,17s2.5,12.4,7,17c4.5,4.5,10.6,7,17,7s12.4-2.5,17-7
	c4.5-4.5,7-10.6,7-17S45.5,11.6,41,7z M39.6,39.6C35.4,43.7,29.9,46,24,46s-11.4-2.3-15.6-6.4C4.3,35.4,2,29.9,2,24
	S4.3,12.6,8.4,8.4C12.6,4.3,18.1,2,24,2s11.4,2.3,15.6,6.4C43.7,12.6,46,18.1,46,24S43.7,35.4,39.6,39.6z M34.2,24c0,0.5-0.5,1-1,1
	H25v8.2c0,0.5-0.5,1-1,1s-1-0.5-1-1V25h-8.2c-0.5,0-1-0.5-1-1s0.5-1,1-1H23v-8.2c0-0.5,0.5-1,1-1s1,0.5,1,1V23h8.2
	C33.8,23,34.2,23.5,34.2,24z"/>
</svg>
