<?xml version="1.0" encoding="utf-8"?>
<!-- Generator: Adobe Illustrator 26.0.2, SVG Export Plug-In . SVG Version: 6.00 Build 0)  -->
<svg version="1.1" id="Layer_1" xmlns="http://www.w3.org/2000/svg" xmlns:xlink="http://www.w3.org/1999/xlink" x="0px" y="0px"
	 viewBox="0 0 48 48" style="enable-background:new 0 0 48 48;" xml:space="preserve">
<path d="M36.9,38.5c-1.4-1.4-3.3-2.2-5.3-2.2h-7.3c-0.2-1.6-1-3.2-2.2-4.3c-1.4-1.4-3.4-2.2-5.3-2.2H3v-1.2c0-0.5-0.5-1-1-1
	c-0.6,0-1,0.5-1,1V46c0,0.6,0.4,1,1,1c0.5,0,1-0.4,1-1v-1.2h35.1c0.6,0,1-0.5,1-1C39.1,41.8,38.3,39.9,36.9,38.5z M3,42.8V31.7h13.8
	c1.5,0,2.9,0.6,3.9,1.6c0.8,0.8,1.3,1.8,1.5,2.9h-7.1c-0.5,0-1,0.5-1,1c0,0.6,0.5,1,1,1h16.4c1.5,0,2.9,0.6,3.9,1.6
	c0.8,0.8,1.3,1.8,1.5,2.9L3,42.8L3,42.8z M34,27c-7.2,0-13-5.8-13-13S26.8,1,34,1s13,5.8,13,13S41.2,27,34,27z M34,3
	c-6.1,0-11,4.9-11,11s4.9,11,11,11s11-4.9,11-11S40.1,3,34,3z M34,21.5c-0.6,0-1-0.4-1-1v-0.6h-1.4c-0.6,0-1-0.4-1-1s0.4-1,1-1h3.3
	c0.5,0,0.9-0.3,1.1-0.7c0.1-0.3,0.1-0.6,0-0.9s-0.3-0.5-0.6-0.6L32,14.4c-1.2-0.5-2-1.6-2-2.9c0-0.8,0.3-1.6,0.9-2.2
	c0.6-0.6,1.3-0.9,2.1-0.9V7.7c0-0.6,0.4-1,1-1s1,0.4,1,1v0.6h1.4c0.6,0,1,0.4,1,1s-0.4,1-1,1h-3.2c-0.3,0-0.6,0.1-0.8,0.3
	s-0.3,0.5-0.3,0.8c0,0.5,0.3,0.9,0.7,1.1l3.3,1.3c0.8,0.3,1.4,0.9,1.7,1.7s0.3,1.6,0,2.4c-0.5,1.2-1.5,1.9-2.8,2v0.6
	C35,21.1,34.6,21.5,34,21.5z"/>
</svg>
