<?xml version="1.0" encoding="utf-8"?>
<!-- Generator: Adobe Illustrator 26.0.2, SVG Export Plug-In . SVG Version: 6.00 Build 0)  -->
<svg version="1.1" id="Layer_1" xmlns="http://www.w3.org/2000/svg" xmlns:xlink="http://www.w3.org/1999/xlink" x="0px" y="0px"
	 viewBox="0 0 48 48" style="enable-background:new 0 0 48 48;" xml:space="preserve">
<path d="M11.9,48c-0.7,0-1.3-0.2-1.8-0.7c-0.5-0.4-0.9-1-1-1.7c-0.5-2.2-0.7-4.5-0.7-6.7c0-3.9,0.7-7.8,2.1-11.5
	c-3.3-3.6-5-8.6-5-14.8C5.5,5.6,10.1,0,16,0c1.8,0,3.5,0.5,5.1,1.3c1.1,0.6,2.1,1.5,3,2.4c0.8-1,1.8-1.8,3-2.4C28.5,0.5,30.3,0,32,0
	c5.9,0,10.5,5.6,10.5,12.7c0,6.2-1.7,11.2-5,14.8c1.4,3.7,2.1,7.5,2.1,11.5c0,2.2-0.2,4.5-0.7,6.7c-0.1,0.7-0.5,1.2-1,1.7
	c-0.5,0.4-1.2,0.7-1.8,0.7c-0.7,0-1.5-0.3-2-0.8s-0.9-1.2-1-1.9c-0.7-6.8-4.6-11.9-9.1-11.9c-4.4,0-8.3,5.1-9.1,11.9
	c-0.1,0.7-0.4,1.4-1,1.9C13.4,47.7,12.7,48,11.9,48z M16,2c-4.7,0-8.5,4.8-8.5,10.7s1.6,10.6,4.9,13.8c0.3,0.3,0.4,0.7,0.2,1.1
	c-1.5,3.6-2.2,7.4-2.2,11.3c0,2.1,0.2,4.2,0.6,6.3c0,0.2,0.2,0.4,0.3,0.5c0.3,0.3,0.9,0.3,1.2-0.1c0.2-0.2,0.3-0.4,0.3-0.6
	c0.9-7.9,5.5-13.7,11.1-13.7S34.1,37.1,35,45c0,0.2,0.1,0.5,0.3,0.6c0.3,0.3,0.9,0.3,1.2,0c0.2-0.1,0.3-0.3,0.3-0.5
	c0.4-2.1,0.6-4.2,0.6-6.3c0-3.9-0.7-7.7-2.2-11.3c-0.2-0.4-0.1-0.8,0.2-1.1c3.2-3.2,4.9-7.9,4.9-13.8C40.5,6.8,36.7,2,32,2
	c-1.4,0-2.8,0.4-4.1,1.1c-1.3,0.7-2.3,1.7-3.1,2.9c-0.4,0.6-1.3,0.6-1.7,0c-0.8-1.2-1.8-2.2-3.1-2.9C18.8,2.4,17.4,2,16,2z M25.7,28
	h-3.3c-0.5,0-1-0.2-1.3-0.5s-0.5-0.8-0.5-1.3V23h-3.2c-0.5,0-1-0.2-1.3-0.5s-0.5-0.8-0.5-1.3v-3.3c0-0.5,0.2-1,0.5-1.3
	c0.3-0.3,0.8-0.5,1.3-0.5h3.2v-3.2c0-0.5,0.2-1,0.5-1.3s0.8-0.5,1.3-0.5h3.3c0.5,0,0.9,0.2,1.3,0.5s0.5,0.8,0.5,1.3V16h3.2
	c0.5,0,0.9,0.2,1.3,0.5c0.4,0.3,0.5,0.8,0.5,1.3v3.3c0,0.5-0.2,1-0.5,1.3S31.2,23,30.7,23h-3.2v3.2c0,0.5-0.2,1-0.5,1.3
	S26.2,28,25.7,28z M22.5,26h3v-4c0-0.6,0.4-1,1-1h4v-3h-4c-0.6,0-1-0.4-1-1v-4h-3v4c0,0.6-0.4,1-1,1h-4v3h4c0.6,0,1,0.4,1,1V26z
	 M30.7,18L30.7,18L30.7,18z"/>
</svg>
