<?xml version="1.0" encoding="utf-8"?>
<!-- Generator: Adobe Illustrator 26.0.2, SVG Export Plug-In . SVG Version: 6.00 Build 0)  -->
<svg version="1.1" id="Layer_1" xmlns="http://www.w3.org/2000/svg" xmlns:xlink="http://www.w3.org/1999/xlink" x="0px" y="0px"
	 viewBox="0 0 48 48" style="enable-background:new 0 0 48 48;" xml:space="preserve">
<path d="M47,30.3h-2.1V19.8c0-1.1-0.9-2.1-2-2.1h-0.6v-2.2h1.6c0.6,0,1-0.4,1-1v-4.2c0-0.5-0.4-1-1-1H1c-0.5,0-1,0.5-1,1v4.2
	c0,0.6,0.5,1,1,1h1.6v2.2H2c-1.1,0-2,0.9-2,2.1v10.4c0,1.1,0.9,2.1,2,2.1h10.6c0.5,3.5,3.5,6.3,7.2,6.3s6.7-2.7,7.2-6.3h20
	c0.5,0,1-0.5,1-1S47.5,30.3,47,30.3z M2,13.6v-2.2h40.9v2.2H2z M40.2,15.6v2.2H4.6v-2.2C4.6,15.6,40.2,15.6,40.2,15.6z M19.8,36.6
	c-2.9,0-5.3-2.4-5.3-5.3s2.4-5.3,5.3-5.3s5.3,2.4,5.3,5.3C25.1,34.2,22.7,36.6,19.8,36.6z M42.8,30.3H27c-0.5-3.5-3.5-6.3-7.2-6.3
	s-6.7,2.7-7.2,6.3H2V19.8h1.6l39.2,0.1V30.3z"/>
</svg>
