<?xml version="1.0" encoding="utf-8"?>
<!-- Generator: Adobe Illustrator 26.0.2, SVG Export Plug-In . SVG Version: 6.00 Build 0)  -->
<svg version="1.1" id="Layer_1" xmlns="http://www.w3.org/2000/svg" xmlns:xlink="http://www.w3.org/1999/xlink" x="0px" y="0px"
	 viewBox="0 0 48 48" style="enable-background:new 0 0 48 48;" xml:space="preserve">
<path d="M42,5h-9.4c-0.9-1.4-2-2.7-3.4-3.5c-3.1-2-7.2-2-10.3,0c-1.4,0.9-2.6,2.1-3.4,3.5H6C5.5,5,5,5.5,5,6v41c0,0.5,0.5,1,1,1h36
	c0.5,0,1-0.5,1-1V6C43,5.5,42.5,5,42,5z M19.9,3.2c2.5-1.6,5.7-1.6,8.2,0c0.8,0.5,1.5,1.1,2,1.8H17.9C18.5,4.3,19.1,3.7,19.9,3.2z
	 M34,7v4H14V7H34z M41,46H7V7h5v4c0,1.1,0.9,2,2,2h20c1.1,0,2-0.9,2-2V7h5V46z M26,39h-4c-0.5,0-1-0.2-1.4-0.6S20,37.5,20,37v-4h-4
	c-0.5,0-1-0.2-1.4-0.6S14,31.5,14,31v-4c0-0.5,0.2-1,0.6-1.4S15.5,25,16,25h4v-4c0-0.5,0.2-1,0.6-1.4S21.5,19,22,19h4
	c0.5,0,1,0.2,1.4,0.6S28,20.5,28,21v4h4c0.5,0,1,0.2,1.4,0.6S34,26.5,34,27v4c0,0.5-0.2,1-0.6,1.4S32.5,33,32,33h-4v4
	c0,0.5-0.2,1-0.6,1.4S26.5,39,26,39z M16,27v4h5c0.6,0,1,0.4,1,1v5h4v-5c0-0.6,0.4-1,1-1h5v-4h-5c-0.6,0-1-0.4-1-1v-5h-4v5
	c0,0.6-0.4,1-1,1H16z"/>
</svg>
