<?xml version="1.0" encoding="utf-8"?>
<!-- Generator: Adobe Illustrator 26.0.3, SVG Export Plug-In . SVG Version: 6.00 Build 0)  -->
<svg version="1.1" id="Layer_1" xmlns="http://www.w3.org/2000/svg" xmlns:xlink="http://www.w3.org/1999/xlink" x="0px" y="0px"
	 viewBox="0 0 48 48" style="enable-background:new 0 0 48 48;" xml:space="preserve">
<style type="text/css">
	.st0{fill-rule:evenodd;clip-rule:evenodd;}
</style>
<path d="M20.7,33.6c-0.4-0.4-1-0.3-1.4,0.1c-0.4,0.4-0.3,1,0.1,1.4c1.3,1.1,2.9,1.8,4.7,1.8c1.7,0,3.4-0.6,4.7-1.8
	c0.4-0.4,0.4-1,0.1-1.4c-0.4-0.4-1-0.4-1.4-0.1c-0.9,0.8-2.1,1.3-3.3,1.3C22.8,34.9,21.6,34.4,20.7,33.6z"/>
<path d="M28.5,21.3c0.6,0,1,0.4,1,1c0,0.5,0.2,1,0.6,1.4c0.4,0.4,0.9,0.6,1.4,0.6c0.5,0,1-0.2,1.4-0.6c0.4-0.4,0.6-0.9,0.6-1.4
	c0-0.6,0.4-1,1-1s1,0.4,1,1c0,1.1-0.4,2.1-1.2,2.8c-0.8,0.8-1.8,1.2-2.8,1.2c-1.1,0-2.1-0.4-2.8-1.2c-0.8-0.8-1.2-1.8-1.2-2.8
	C27.5,21.8,27.9,21.3,28.5,21.3z"/>
<path d="M14.5,22.3c0-0.6-0.4-1-1-1c-0.6,0-1,0.4-1,1c0,1.1,0.4,2.1,1.2,2.8c0.8,0.8,1.8,1.2,2.8,1.2c1.1,0,2.1-0.4,2.8-1.2
	c0.8-0.8,1.2-1.8,1.2-2.8c0-0.6-0.4-1-1-1c-0.6,0-1,0.4-1,1c0,0.5-0.2,1-0.6,1.4c-0.4,0.4-0.9,0.6-1.4,0.6c-0.5,0-1-0.2-1.4-0.6
	C14.7,23.4,14.5,22.9,14.5,22.3z"/>
<path class="st0" d="M42.1,19.2C40.9,9.9,32.3,4,24,4h0C15.7,4,7.1,9.9,5.9,19.2c-1.3,0.2-2.6,0.8-3.5,1.8c-1.2,1.2-1.8,2.8-1.8,4.4
	s0.7,3.2,1.8,4.4c1,1,2.3,1.6,3.7,1.8c1.2,3.6,3.6,6.8,6.6,9.1C16,43,19.9,44.3,24,44.3s8-1.3,11.3-3.7c3.1-2.3,5.4-5.4,6.6-9.1
	c1.4-0.2,2.7-0.8,3.7-1.8c1.2-1.2,1.8-2.8,1.8-4.4s-0.7-3.2-1.8-4.4C44.7,20,43.4,19.4,42.1,19.2z M25.8,6.5C25.3,6.2,24.6,6,24,6h0
	C16.3,6,8.4,11.7,7.8,20.2c0,0.5-0.5,0.9-1,0.9c-1.1,0-2.2,0.4-3,1.2c-0.8,0.8-1.2,1.9-1.2,3s0.4,2.2,1.2,3c0.8,0.8,1.9,1.2,3,1.2
	c0.4,0,0.8,0.3,1,0.7c1.1,3.5,3.2,6.5,6.1,8.7c2.9,2.2,6.5,3.3,10.1,3.3c3.6,0,7.2-1.2,10.1-3.3c2.9-2.2,5.1-5.2,6.1-8.7
	c0.1-0.4,0.5-0.7,1-0.7c1.1,0,2.2-0.4,3-1.2c0.8-0.8,1.2-1.9,1.2-3s-0.4-2.2-1.2-3c-0.8-0.8-1.9-1.2-3-1.2h0c-0.5,0-0.9-0.4-1-0.9
	c-0.5-6.7-5.6-11.7-11.5-13.5c0.1,0.1,0.1,0.2,0.1,0.3c0.5,0.9,0.7,1.9,0.6,2.9c-0.1,1-0.4,2-1,2.8c-0.6,0.8-1.4,1.5-2.3,1.9
	c-0.9,0.4-1.9,0.5-2.9,0.4c-1-0.1-1.9-0.5-2.7-1.2c-0.8-0.6-1.4-1.5-1.7-2.4c-0.2-0.5,0.1-1.1,0.6-1.3c0.5-0.2,1.1,0.1,1.3,0.6
	c0.2,0.6,0.6,1.1,1.1,1.5c0.5,0.4,1.1,0.7,1.7,0.8c0.6,0.1,1.3,0,1.9-0.3c0.6-0.3,1.1-0.7,1.5-1.2c0.4-0.5,0.6-1.1,0.6-1.8
	c0-0.6-0.1-1.3-0.4-1.9C26.8,7.3,26.4,6.8,25.8,6.5z"/>
</svg>
