<?xml version="1.0" encoding="utf-8"?>
<!-- Generator: Adobe Illustrator 26.0.2, SVG Export Plug-In . SVG Version: 6.00 Build 0)  -->
<svg version="1.1" id="Layer_1" xmlns="http://www.w3.org/2000/svg" xmlns:xlink="http://www.w3.org/1999/xlink" x="0px" y="0px"
	 viewBox="0 0 48 48" style="enable-background:new 0 0 48 48;" xml:space="preserve">
<path d="M44.1,25.3c-2.5-2.5-5.8-3.9-9.4-3.9s-6.9,1.4-9.4,3.9s-3.9,5.9-3.9,9.4s1.4,6.9,3.9,9.4s5.9,3.9,9.4,3.9s6.9-1.4,9.4-3.9
	s3.9-5.8,3.9-9.4C48,31.1,46.6,27.8,44.1,25.3z M42.7,42.7c-2.1,2.1-5,3.3-8,3.3s-5.9-1.2-8-3.3s-3.3-5-3.3-8s1.2-5.9,3.3-8
	s5-3.3,8-3.3s5.9,1.2,8,3.3s3.3,5,3.3,8S44.8,40.6,42.7,42.7z M41.6,34.2c0,0.5-0.5,1-1,1h-4.4v5.4c0,0.6-0.4,1-1,1
	c-0.5,0-1-0.4-1-1v-5.4h-5.4c-0.5,0-1-0.5-1-1s0.5-1,1-1h5.4v-5.4c0-0.5,0.5-1,1-1c0.6,0,1,0.5,1,1v5.4h4.4
	C41.1,33.2,41.6,33.6,41.6,34.2z M16.3,34.1c-0.3,0-0.5-0.1-0.7-0.3L3.7,21.4c-1.9-1.9-3.1-4.2-3.5-6.9c-0.4-2.6,0-5.3,1.2-7.6
	c0.9-1.8,2.2-3.3,3.8-4.5s3.5-2,5.4-2.3c2-0.3,4-0.2,5.9,0.4s3.6,1.7,5,3.1L24,6.2l2.5-2.5c1.4-1.4,3.1-2.5,5-3.1
	c1.9-0.6,3.9-0.8,5.9-0.4c2,0.3,3.8,1.1,5.4,2.3c1.6,1.2,2.9,2.7,3.8,4.5c0.9,1.8,1.3,3.7,1.3,5.7s-0.5,3.9-1.4,5.7
	c-0.3,0.5-0.9,0.7-1.3,0.4c-0.5-0.3-0.7-0.9-0.4-1.3c0.8-1.5,1.2-3.1,1.2-4.8s-0.4-3.3-1.1-4.8C44.1,6.3,43,5,41.7,4.1
	c-1.3-1-2.9-1.6-4.6-1.9c-1.7-0.3-3.4-0.1-5,0.4C30.5,3.1,29,4,27.9,5.2l-3.2,3.2c-0.4,0.4-1,0.4-1.4,0l-3.2-3.2
	c-1.2-1.2-2.6-2.1-4.2-2.6s-3.3-0.6-5-0.4C9.2,2.4,7.7,3.1,6.3,4.1C5,5,3.9,6.3,3.1,7.8c-1,2-1.3,4.2-1,6.4c0.4,2.2,1.4,4.2,3,5.8
	L17,32.4c0.4,0.4,0.4,1,0,1.4C16.8,34,16.5,34.1,16.3,34.1z"/>
</svg>
