<?xml version="1.0" encoding="utf-8"?>
<!-- Generator: Adobe Illustrator 26.0.2, SVG Export Plug-In . SVG Version: 6.00 Build 0)  -->
<svg version="1.1" id="Layer_1" xmlns="http://www.w3.org/2000/svg" xmlns:xlink="http://www.w3.org/1999/xlink" x="0px" y="0px"
	 viewBox="0 0 48 48" style="enable-background:new 0 0 48 48;" xml:space="preserve">
<path d="M48,22.5V1c0-0.5-0.5-1-1-1H28.6c-0.5,0-1,0.5-1,1v14.3H14.9c-1.1,0-2.2,0.4-3.2,1c-0.9,0.7-1.6,1.6-2,2.6L6.3,28l-3.8,3.8
	c-0.7,0.7-1.2,1.5-1.6,2.3l0,0c0,0.1-0.1,0.2-0.1,0.3c-0.5,1-0.7,2.2-0.7,3.4c0,1.1,0.4,2.1,1.2,2.9c0.5,0.5,1.2,0.9,1.9,1.1V44
	c0,1.1,0.4,2.1,1.2,2.9C5,47.6,6,48,7.1,48s2.1-0.4,2.9-1.2s1.2-1.8,1.2-2.9v-2.1h25.6v2.1c0,1.1,0.4,2.1,1.2,2.9
	c0.8,0.8,1.8,1.2,2.9,1.2c1.1,0,2.1-0.4,2.9-1.2C44.6,46,45,45,45,43.9v-2.2c0.7-0.2,1.4-0.5,1.9-1.1c0.8-0.8,1.2-1.8,1.2-2.9
	c0-1.2-0.2-2.3-0.7-3.4c0-0.1-0.1-0.2-0.2-0.3c-0.4-0.8-0.9-1.6-1.6-2.3l-3.8-3.8L40,23.5h7C47.5,23.5,48,23,48,22.5z M11.5,19.7
	c0.3-0.7,0.7-1.3,1.3-1.7c0.6-0.4,1.3-0.6,2-0.6h12.7v5.1c0,0.5,0.5,1,1,1h9.3l1.5,4.1H8.6L11.5,19.7z M9.2,43.9
	c0,0.6-0.2,1.1-0.6,1.5c-0.8,0.8-2.1,0.8-2.9,0c-0.4-0.4-0.6-0.9-0.6-1.5v-2.1h4.1C9.2,41.8,9.2,43.9,9.2,43.9z M42.9,43.9
	c0,0.6-0.2,1.1-0.6,1.5c-0.8,0.8-2.2,0.8-2.9,0c-0.4-0.4-0.6-0.9-0.6-1.5v-2.1h4.1V43.9z M40.5,29.6l3.7,3.7
	c0.2,0.2,0.3,0.3,0.4,0.5h-6.7c-0.5,0-1,0.5-1,1c0,0.6,0.5,1,1,1h7.9c0.2,0.7,0.3,1.4,0.3,2.1c0,0.5-0.2,1.1-0.6,1.5
	C45.1,39.8,44.6,40,44,40H4.1c-0.6,0-1.1-0.2-1.5-0.6C2.2,38.9,2,38.3,2,37.8c0-0.7,0.1-1.4,0.3-2.1h7.9c0.5,0,1-0.4,1-1
	c0-0.5-0.5-1-1-1H3.5c0.1-0.2,0.3-0.3,0.4-0.5l3.7-3.7h32.9V29.6z M46,21.5H29.6V2H46V21.5z M36.3,15.8
	C36.2,15.8,36.2,15.8,36.3,15.8c-0.4,0-0.7-0.2-0.9-0.6l-1.5-3.1c-0.2-0.5,0-1.1,0.4-1.3c0.5-0.2,1.1,0,1.3,0.4l0.8,1.6L40,8
	c0.3-0.4,1-0.5,1.4-0.2s0.5,1,0.2,1.4L37,15.3C36.9,15.7,36.6,15.8,36.3,15.8z"/>
</svg>
