<?xml version="1.0" encoding="utf-8"?>
<!-- Generator: Adobe Illustrator 26.0.2, SVG Export Plug-In . SVG Version: 6.00 Build 0)  -->
<svg version="1.1" id="Layer_1" xmlns="http://www.w3.org/2000/svg" xmlns:xlink="http://www.w3.org/1999/xlink" x="0px" y="0px"
	 viewBox="0 0 48 48" style="enable-background:new 0 0 48 48;" xml:space="preserve">
<path d="M14.8,18.9c-2.5,0-4.9-1-6.7-2.8S5.4,12,5.4,9.4c0-2.5,1-4.9,2.8-6.7C9.9,1,12.3,0,14.8,0s4.9,1,6.7,2.8s2.8,4.2,2.8,6.7
	s-1,4.9-2.8,6.7S17.3,18.9,14.8,18.9z M14.8,2c-2,0-3.9,0.8-5.3,2.2S7.4,7.4,7.4,9.4s0.8,3.9,2.2,5.3s3.3,2.2,5.3,2.2
	s3.9-0.8,5.3-2.2s2.2-3.3,2.2-5.3s-0.8-3.9-2.2-5.3C18.7,2.8,16.8,2,14.8,2z M1,35.7c-0.6,0-1-0.4-1-1c0-4,1.5-7.7,4.3-10.5
	s6.5-4.3,10.5-4.3c0.6,0,1.1,0.1,1.7,0.1c0.5,0.1,0.9,0.6,0.9,1.1c-0.1,0.5-0.6,0.9-1.1,0.9c-0.5-0.1-0.9-0.1-1.4-0.1
	c-3.4,0-6.6,1.3-9,3.7S2,31.3,2,34.7C2,35.3,1.6,35.7,1,35.7z M28.6,48c-0.2,0-0.3,0-0.5-0.1c-0.3-0.2-0.5-0.5-0.5-0.9v-5.1h-2.1
	c-1.1,0-2.1-0.4-2.9-1.2s-1.2-1.8-1.2-2.9V25.5c0-1.1,0.4-2.1,1.2-2.9c0.8-0.8,1.8-1.2,2.9-1.2h18.4c1.1,0,2.1,0.4,2.9,1.2
	c0.8,0.8,1.2,1.8,1.2,2.9v12.3c0,1.1-0.4,2.1-1.2,2.9c-0.8,0.8-1.8,1.2-2.9,1.2h-5.8l-8.9,6C29,47.9,28.8,48,28.6,48z M25.5,23.5
	c-0.6,0-1.1,0.2-1.5,0.6s-0.6,0.9-0.6,1.5v12.3c0,0.6,0.2,1.1,0.6,1.5s0.9,0.6,1.5,0.6h3.1c0.6,0,1,0.4,1,1v4.3l7.6-5.1
	c0.2-0.1,0.4-0.2,0.6-0.2h6.1c0.6,0,1.1-0.2,1.5-0.6c0.4-0.4,0.6-0.9,0.6-1.5V25.5c0-0.5-0.2-1.1-0.6-1.5c-0.4-0.4-0.9-0.6-1.5-0.6
	H25.5V23.5z M40.9,29.6H28.6c-0.6,0-1-0.4-1-1s0.4-1,1-1h12.3c0.6,0,1,0.4,1,1S41.4,29.6,40.9,29.6z M40.9,35.7H28.6
	c-0.6,0-1-0.4-1-1s0.4-1,1-1h12.3c0.6,0,1,0.4,1,1S41.4,35.7,40.9,35.7z"/>
</svg>
