<?xml version="1.0" encoding="utf-8"?>
<!-- Generator: Adobe Illustrator 26.0.2, SVG Export Plug-In . SVG Version: 6.00 Build 0)  -->
<svg version="1.1" id="Layer_1" xmlns="http://www.w3.org/2000/svg" xmlns:xlink="http://www.w3.org/1999/xlink" x="0px" y="0px"
	 viewBox="0 0 48 48" style="enable-background:new 0 0 48 48;" xml:space="preserve">
<path d="M16.9,44H12c-0.5,0-0.9-0.4-1-0.9L9.8,34H7c-0.6,0-1-0.4-1-1v-5.5c0-2,0.9-4,2.5-5.4s3.7-2.2,5.9-2.2s4.3,0.8,5.9,2.2
	c1.6,1.4,2.5,3.4,2.5,5.4V33c0,0.6-0.4,1-1,1H19l-1.1,9.1C17.8,43.6,17.4,44,16.9,44z M12.8,42H16l1.1-9.1c0.1-0.5,0.5-0.9,1-0.9
	h2.7v-4.5c0-1.5-0.7-2.9-1.8-4c-1.2-1.1-2.9-1.7-4.6-1.7s-3.4,0.6-4.6,1.7C8.7,24.6,8,26,8,27.5V32h2.7c0.5,0,0.9,0.4,1,0.9L12.8,42
	z M14.4,18.8c-0.9,0-1.8-0.2-2.6-0.5s-1.6-0.9-2.2-1.5S8.4,15.4,8,14.5c-0.3-0.8-0.5-1.7-0.5-2.6c0-0.9,0.2-1.8,0.5-2.6
	C8.4,8.4,8.9,7.7,9.5,7c0.6-0.6,1.4-1.1,2.2-1.5c1.7-0.7,3.6-0.7,5.3,0c0.8,0.3,1.6,0.9,2.2,1.5s1.1,1.4,1.5,2.2s0.5,1.7,0.5,2.6
	s-0.2,1.8-0.5,2.6s-0.9,1.6-1.5,2.2s-1.4,1.1-2.2,1.5C16.2,18.6,15.3,18.8,14.4,18.8z M14.4,7c-0.6,0-1.3,0.1-1.9,0.4
	c-0.6,0.2-1.1,0.6-1.6,1.1s-0.8,1-1.1,1.6c-0.2,0.6-0.4,1.2-0.4,1.9c0,0.6,0.1,1.3,0.4,1.9c0.2,0.6,0.6,1.1,1.1,1.6s1,0.8,1.6,1.1
	c1.2,0.5,2.6,0.5,3.8,0c0.6-0.2,1.1-0.6,1.6-1.1s0.8-1,1.1-1.6c0.2-0.6,0.4-1.2,0.4-1.9c0-0.6-0.1-1.3-0.4-1.9
	c-0.2-0.6-0.6-1.1-1.1-1.6s-1-0.8-1.6-1.1C15.7,7.1,15,7,14.4,7z M36.4,44.1h-4.7c-0.5,0-0.9-0.4-1-0.8l-1-6.5H27c-0.6,0-1-0.4-1-1
	v-4.1c0-1.6,0.9-3.2,2.5-4.3c1.5-1,3.5-1.6,5.6-1.6s4.1,0.6,5.6,1.6c1.6,1.1,2.5,2.7,2.5,4.3v4.1c0,0.6-0.4,1-1,1h-2.7l-1,6.5
	C37.3,43.7,36.9,44.1,36.4,44.1z M32.5,42.1h3l1-6.5c0.1-0.5,0.5-0.8,1-0.8H40v-3.1c0-1-0.6-1.9-1.6-2.7c-1.1-0.8-2.8-1.3-4.4-1.3
	s-3.3,0.5-4.4,1.3c-1.1,0.7-1.6,1.7-1.6,2.7v3.1h2.5c0.5,0,0.9,0.4,1,0.8L32.5,42.1z M34,25.4c-0.8,0-1.5-0.1-2.2-0.4
	s-1.3-0.7-1.8-1.2s-0.9-1.1-1.2-1.8c-0.3-0.7-0.4-1.4-0.4-2.2s0.1-1.5,0.4-2.2s0.7-1.3,1.2-1.8s1.2-0.9,1.8-1.2c1.4-0.6,3-0.6,4.4,0
	c0.7,0.3,1.3,0.7,1.8,1.2c0.5,0.5,0.9,1.2,1.2,1.8c0.3,0.7,0.4,1.4,0.4,2.2s-0.1,1.5-0.4,2.2c-0.3,0.7-0.7,1.3-1.2,1.8
	s-1.2,0.9-1.8,1.2C35.5,25.2,34.8,25.4,34,25.4z M34,16c-0.5,0-1,0.1-1.4,0.3c-0.5,0.2-0.9,0.5-1.2,0.8c-0.3,0.3-0.6,0.7-0.8,1.2
	c-0.2,0.5-0.3,0.9-0.3,1.4s0.1,1,0.3,1.4c0.2,0.4,0.5,0.9,0.8,1.2c0.3,0.3,0.7,0.6,1.2,0.8c0.9,0.4,1.9,0.4,2.8,0
	c0.5-0.2,0.9-0.5,1.2-0.8s0.6-0.7,0.8-1.2c0.2-0.4,0.3-0.9,0.3-1.4s-0.1-1-0.3-1.4s-0.5-0.8-0.8-1.2c-0.3-0.3-0.7-0.6-1.2-0.8
	C35,16.1,34.5,16,34,16z"/>
</svg>
