<?xml version="1.0" encoding="utf-8"?>
<!-- Generator: Adobe Illustrator 26.0.2, SVG Export Plug-In . SVG Version: 6.00 Build 0)  -->
<svg version="1.1" id="Layer_1" xmlns="http://www.w3.org/2000/svg" xmlns:xlink="http://www.w3.org/1999/xlink" x="0px" y="0px"
	 viewBox="0 0 48 48" style="enable-background:new 0 0 48 48;" xml:space="preserve">
<path d="M44.5,35.4c-2.2-3.3-5.2-5.8-8.8-7.4v-2.4c0-0.5-0.4-1-1-1c-0.5,0-1,0.5-1,1v4.6c0,1.8-0.7,3.5-1.9,4.7
	c-1.3,1.3-2.9,2-4.7,2s-3.5-0.7-4.7-2c-1.3-1.3-1.9-2.9-1.9-4.7v-4.6c0-0.5-0.5-1-1-1c-0.6,0-1,0.5-1,1v4.6c0,2.3,0.9,4.5,2.5,6.1
	c1.4,1.4,3.2,2.3,5.1,2.5v3.7c0,1-0.4,1.9-1.1,2.6c-0.7,0.7-1.6,1-2.5,1h-4.6c-1,0-1.9-0.4-2.5-1c-0.7-0.7-1-1.6-1-2.6v-17
	c0-1.9-0.8-3.7-2.1-5c-1.1-1.1-2.6-1.8-4.2-2c-0.2-0.7-0.5-1.4-1.1-1.9c-0.8-0.8-1.8-1.2-2.9-1.2S2,15.8,1.2,16.6
	C0.4,17.3,0,18.3,0,19.4s0.4,2.1,1.2,2.9C2,23,3,23.5,4.1,23.5s2.1-0.4,2.9-1.2c0.5-0.5,0.9-1.1,1-1.8c1.1,0.2,2,0.7,2.8,1.4
	c1,1,1.5,2.3,1.5,3.6v6.7c-1.9,1.9-3.4,4.1-4.5,6.6c-1.1,2.6-1.7,5.4-1.7,8.2c0,0.5,0.5,1,1,1c0.6,0,1-0.5,1-1
	c0-2.6,0.5-5.1,1.5-7.4c0.7-1.6,1.5-3.1,2.6-4.4v7.2c0,1.5,0.6,2.9,1.6,4c1.1,1.1,2.5,1.6,4,1.6h4.6c1.5,0,2.9-0.6,4-1.6
	c1-1.1,1.6-2.5,1.6-4v-3.7c1.9-0.2,3.7-1.1,5.1-2.5c1.6-1.6,2.5-3.8,2.5-6.1c2.9,1.5,5.3,3.6,7.1,6.3C44.9,39.6,46,43.2,46,47
	c0,0.6,0.5,1,1,1s1-0.4,1-1C48,42.8,46.8,38.8,44.5,35.4z M5.5,20.9c-0.8,0.8-2.2,0.8-2.9,0c-0.4-0.4-0.6-1-0.6-1.5s0.2-1.1,0.6-1.5
	s0.9-0.6,1.5-0.6c0.5,0,1.1,0.2,1.5,0.6s0.6,0.9,0.6,1.5C6.1,19.9,5.9,20.5,5.5,20.9z M38.7,10.3c0-0.1,0-0.1,0-0.2
	c-0.1-1-0.4-1.9-0.8-2.8c-0.6-1.4-1.4-2.7-2.5-3.8S33,1.5,31.6,1c-2.9-1.2-6.1-1.2-9,0c-1.4,0.6-2.7,1.4-3.8,2.5
	C18.1,4.2,17.5,5,17,5.8c-0.3,0.5-0.5,1-0.8,1.5c-0.6,1.4-0.9,2.9-0.9,4.5s0.3,3.1,0.9,4.5c0.6,1.4,1.5,2.7,2.5,3.8
	c1.1,1.1,2.4,2,3.8,2.5c1.4,0.6,2.9,0.9,4.5,0.9s3.1-0.3,4.5-0.9c1.4-0.6,2.7-1.4,3.8-2.5s2-2.4,2.5-3.8c0.6-1.4,0.9-2.9,0.9-4.5
	C38.8,11.2,38.8,10.8,38.7,10.3z M20.2,4.8c0.9-0.9,2-1.6,3.2-2.1C24.5,2.2,25.8,2,27.1,2c1.3,0,2.5,0.2,3.7,0.7
	C32,3.2,33,3.9,34,4.8c0.9,0.9,1.6,2,2.1,3.2c0.2,0.5,0.4,1.1,0.5,1.6c-1.9,0.7-3.9,1.1-5.9,1.1l0,0c-2.3,0-4.5-0.5-6.6-1.3
	c-1.9-0.8-3.5-1.9-5-3.2C19.4,5.7,19.8,5.2,20.2,4.8z M36.8,11.7c0,1.3-0.2,2.5-0.7,3.7s-1.2,2.2-2.1,3.2c-0.9,0.9-2,1.6-3.2,2.1
	c-2.4,1-5.1,1-7.4,0c-1.2-0.5-2.2-1.2-3.2-2.1c-0.9-0.9-1.6-2-2.1-3.2s-0.7-2.4-0.7-3.7s0.2-2.5,0.7-3.7V7.9
	c1.5,1.4,3.3,2.5,5.2,3.3c2.3,1,4.8,1.5,7.4,1.5l0,0C32.8,12.7,34.8,12.4,36.8,11.7L36.8,11.7z"/>
</svg>
