<?xml version="1.0" encoding="utf-8"?>
<!-- Generator: Adobe Illustrator 26.0.2, SVG Export Plug-In . SVG Version: 6.00 Build 0)  -->
<svg version="1.1" id="Layer_1" xmlns="http://www.w3.org/2000/svg" xmlns:xlink="http://www.w3.org/1999/xlink" x="0px" y="0px"
	 viewBox="0 0 48 48" style="enable-background:new 0 0 48 48;" xml:space="preserve">
<path d="M44.1,25.3c-2.5-2.5-5.8-3.9-9.4-3.9c-3.5,0-6.9,1.4-9.4,3.9s-3.9,5.8-3.9,9.4c0,3.5,1.4,6.9,3.9,9.4s5.8,3.9,9.4,3.9
	s6.9-1.4,9.4-3.9s3.9-5.8,3.9-9.4C48,31.2,46.6,27.9,44.1,25.3z M42.7,42.7c-2.1,2.1-5,3.3-8,3.3s-5.8-1.2-8-3.3
	c-2.1-2.1-3.3-5-3.3-8s1.2-5.8,3.3-8c2.1-2.1,4.9-3.3,8-3.3s5.8,1.2,8,3.3c2.1,2.1,3.3,5,3.3,8S44.8,40.6,42.7,42.7z M41.9,34.7
	c0,0.6-0.5,1-1,1h-5.1v5.1c0,0.5-0.4,1-1,1c-0.5,0-1-0.5-1-1v-5.1h-5.1c-0.5,0-1-0.4-1-1c0-0.5,0.5-1,1-1h5.1v-5.1c0-0.5,0.5-1,1-1
	c0.6,0,1,0.5,1,1v5.1h5.1C41.4,33.7,41.9,34.2,41.9,34.7z M1,35.7L1,35.7c-0.6,0-1-0.4-1-1c0-2.4,0.6-4.9,1.8-7s2.8-4,4.9-5.3
	c2-1.3,4.4-2.2,6.8-2.4c2.4-0.2,4.9,0.2,7.1,1.1c0.5,0.2,0.7,0.8,0.5,1.3s-0.8,0.7-1.3,0.5c-1.9-0.8-4.1-1.2-6.2-1S9.5,22.8,7.7,24
	s-3.2,2.8-4.2,4.6c-1,1.9-1.5,4-1.5,6.1C2,35.3,1.6,35.7,1,35.7z M14.8,18.9c-2.5,0-4.9-1-6.7-2.8S5.4,12,5.4,9.4
	c0-2.5,1-4.9,2.8-6.7C9.9,1,12.3,0,14.8,0s4.9,1,6.7,2.8s2.8,4.2,2.8,6.7s-1,4.9-2.8,6.7C19.7,17.9,17.3,18.9,14.8,18.9z M14.8,2
	c-2,0-3.9,0.8-5.3,2.2S7.4,7.4,7.4,9.4s0.8,3.9,2.2,5.3s3.3,2.2,5.3,2.2s3.9-0.8,5.3-2.2s2.2-3.3,2.2-5.3s-0.8-3.9-2.2-5.3
	C18.7,2.8,16.8,2,14.8,2z"/>
</svg>
