<?xml version="1.0" encoding="utf-8"?>
<!-- Generator: Adobe Illustrator 26.0.2, SVG Export Plug-In . SVG Version: 6.00 Build 0)  -->
<svg version="1.1" id="Layer_1" xmlns="http://www.w3.org/2000/svg" xmlns:xlink="http://www.w3.org/1999/xlink" x="0px" y="0px"
	 viewBox="0 0 48 48" style="enable-background:new 0 0 48 48;" xml:space="preserve">
<path d="M34.7,0H10.2c-0.5,0-1,0.5-1,1s0.5,1,1,1h3.6v37.3c0,2.3,0.9,4.5,2.5,6.1s3.8,2.5,6.1,2.5s4.5-0.9,6.1-2.5s2.5-3.8,2.5-6.1
	V2h3.6c0.6,0,1-0.5,1-1S35.3,0,34.7,0z M29.1,39.3c0,1.8-0.7,3.5-2,4.7c-1.2,1.3-2.9,2-4.7,2s-3.4-0.7-4.7-2c-1.2-1.3-2-2.9-2-4.7
	V11.2H29v28.1H29.1z M29.1,9.2H15.8V2h13.3V9.2z M26.5,17.1c0,0.1,0,0.1,0,0.2c0,0.4-0.2,0.8-0.5,1c-0.3,0.3-0.7,0.5-1,0.5
	c-0.1,0-0.1,0-0.2,0s-0.1,0-0.2,0c-0.4,0-0.8-0.2-1.1-0.5c-0.3-0.3-0.5-0.6-0.5-1c0-0.1,0-0.1,0-0.2s0-0.1,0-0.2
	c0-0.4,0.2-0.8,0.5-1c0.3-0.3,0.7-0.5,1.1-0.5c0.1,0,0.1,0,0.2,0s0.1,0,0.2,0c0.4,0,0.8,0.2,1,0.5c0.3,0.3,0.5,0.7,0.5,1
	C26.5,17,26.5,17,26.5,17.1z M21.9,26.3c0,0.1,0,0.1,0,0.2c0,0.4-0.2,0.8-0.5,1c-0.3,0.3-0.6,0.5-1,0.5c-0.1,0-0.1,0-0.2,0
	s-0.1,0-0.2,0c-0.4,0-0.8-0.2-1-0.5c-0.3-0.3-0.5-0.7-0.5-1c0-0.1,0-0.1,0-0.2s0-0.1,0-0.2c0-0.4,0.2-0.8,0.5-1
	c0.3-0.3,0.7-0.5,1-0.5c0.1,0,0.1,0,0.2,0s0.1,0,0.2,0c0.4,0,0.8,0.2,1,0.5c0.3,0.3,0.5,0.7,0.5,1C21.9,26.2,21.9,26.2,21.9,26.3z
	 M25,35.5c0,0.1,0,0.1,0,0.2c0,0.4-0.2,0.8-0.5,1c-0.3,0.3-0.6,0.5-1,0.5c-0.1,0-0.1,0-0.2,0s-0.1,0-0.2,0c-0.4,0-0.8-0.2-1-0.5
	c-0.3-0.3-0.5-0.7-0.5-1c0-0.1,0-0.1,0-0.2s0-0.1,0-0.2c0-0.4,0.2-0.8,0.5-1c0.3-0.3,0.7-0.5,1-0.5c0.1,0,0.1,0,0.2,0s0.1,0,0.2,0
	c0.4,0,0.8,0.2,1,0.5c0.3,0.3,0.5,0.7,0.5,1C25,35.4,25,35.4,25,35.5z M9.7,25.5c0,0.6-0.5,1-1,1H6.6v2.1c0,0.5-0.5,1-1,1
	s-1-0.5-1-1v-2.1h-2c-0.5,0-1-0.4-1-1c0-0.5,0.5-1,1-1h2.1v-2.1c0-0.6,0.5-1,1-1s1,0.4,1,1v2.1h2.1C9.2,24.5,9.7,25,9.7,25.5z
	 M42.4,14.3c-1.1,0-2.1-0.4-2.9-1.2c-0.8-0.8-1.2-1.8-1.2-2.9s0.4-2.1,1.2-2.9s1.8-1.2,2.9-1.2s2.1,0.4,2.9,1.2
	c0.8,0.8,1.2,1.8,1.2,2.9s-0.4,2.1-1.2,2.9C44.5,13.8,43.5,14.3,42.4,14.3z M42.4,8.1c-0.6,0-1.1,0.2-1.5,0.6
	c-0.4,0.4-0.6,0.9-0.6,1.5s0.2,1.1,0.6,1.5c0.8,0.8,2.1,0.8,2.9,0c0.4-0.4,0.6-0.9,0.6-1.5s-0.2-1.1-0.6-1.5
	C43.4,8.3,42.9,8.1,42.4,8.1z"/>
</svg>
