<?xml version="1.0" encoding="utf-8"?>
<!-- Generator: Adobe Illustrator 26.0.2, SVG Export Plug-In . SVG Version: 6.00 Build 0)  -->
<svg version="1.1" id="Layer_1" xmlns="http://www.w3.org/2000/svg" xmlns:xlink="http://www.w3.org/1999/xlink" x="0px" y="0px"
	 viewBox="0 0 48 48" style="enable-background:new 0 0 48 48;" xml:space="preserve">
<path d="M10.2,48c-0.3,0-0.7,0-1-0.1c-2.5-0.3-4.8-1.4-6.5-3.3C0.9,42.8,0,40.3,0,37.8c0-0.6,0.4-1,1-1l0,0c0.6,0,1,0.4,1,1
	c0,2,0.8,4,2.1,5.5s3.2,2.4,5.2,2.7c2,0.2,4-0.3,5.7-1.5c1.6-1.2,2.8-3,3.2-4.9c0.2-1.5,0.2-3.1,0.1-4.6c-0.2-1.8,0.1-3.6,1-5.2
	c0.3-0.5,0.9-0.6,1.4-0.4c0.5,0.3,0.6,0.9,0.4,1.4c-0.7,1.2-1,2.6-0.8,4c0.2,1.8,0.1,3.5-0.1,5.2c-0.5,2.5-1.9,4.7-4,6.2
	C14.5,47.3,12.4,48,10.2,48z M1,12.7c-0.1,0-0.1,0-0.2,0c-0.5-0.1-0.9-0.6-0.8-1.2c0.6-2.8,2-5.4,4.1-7.4s4.7-3.3,7.6-3.8
	c2.9-0.6,5.9-0.4,8.7,0.7s5.1,3,6.8,5.5C27.4,7,27.3,7.7,26.8,8s-1.1,0.2-1.4-0.3C24,5.5,22,3.9,19.6,2.9s-5-1.2-7.5-0.6
	C9.5,2.7,7.3,3.8,5.5,5.6C3.7,7.3,2.5,9.5,2,12C1.9,12.4,1.5,12.7,1,12.7z M7.5,16.2L7.5,16.2c-0.6-0.1-1-0.6-1-1.1
	C6.6,14,7.1,12.9,7.8,12c0.7-0.9,1.6-1.6,2.6-2.1s2.2-0.6,3.3-0.5s2.2,0.5,3.2,1.2c0.5,0.3,0.6,0.9,0.2,1.4
	c-0.3,0.5-0.9,0.6-1.4,0.2c-0.7-0.5-1.4-0.7-2.2-0.8s-1.6,0.1-2.3,0.4c-0.7,0.3-1.4,0.8-1.8,1.5c-0.5,0.6-0.8,1.4-0.9,2.2
	C8.5,15.8,8,16.2,7.5,16.2z M45,26.5c0.8,0,1.6-0.3,2.1-0.9c0.6-0.6,0.9-1.3,0.9-2.2v-8.2c0-0.8-0.3-1.6-0.9-2.2
	c-0.6-0.6-1.3-0.9-2.1-0.9H31.7c-0.1,0-0.1,0-0.2,0s-0.1,0-0.1,0h-0.1c0,0-0.1,0-0.1,0.1c-3.6,2-7.6,3-11.7,2.9
	c-0.3,0-0.5,0.1-0.7,0.3s-0.3,0.5-0.3,0.7v6.1c0,0.3,0.1,0.5,0.3,0.7c0.2,0.2,0.5,0.3,0.7,0.3c4.1-0.1,8.1,0.9,11.7,2.9
	c0,0,0,0,0.1,0c0,0,0,0,0.1,0c0.1,0.1,0.3,0.1,0.4,0.1h6.7v13.3h-3.6c-1.1,0-2.1,0.4-2.9,1.2c-0.8,0.8-1.2,1.8-1.2,2.9V47
	c0,0.5,0.4,1,1,1c0.5,0,1-0.5,1-1v-3.1c0-0.5,0.2-1.1,0.6-1.5c0.4-0.4,0.9-0.6,1.5-0.6h9.2c0.5,0,1.1,0.2,1.5,0.6
	c0.4,0.4,0.6,0.9,0.6,1.5V47c0,0.5,0.5,1,1,1s1-0.5,1-1v-3.1c0-1.1-0.4-2.1-1.2-2.9s-1.8-1.2-2.9-1.2h-3.6V26.5H45z M30.7,23.9
	c-3.2-1.5-6.7-2.4-10.3-2.4v-4.1c3.6-0.1,7.1-0.9,10.3-2.4V23.9z M32.7,24.5V14.3H45c0.3,0,0.5,0.1,0.7,0.3s0.3,0.5,0.3,0.7v8.2
	c0,0.3-0.1,0.5-0.3,0.7s-0.5,0.3-0.7,0.3H32.7z M31.2,12.4C31.2,12.4,31.1,12.4,31.2,12.4L31.2,12.4L31.2,12.4z"/>
</svg>
