<?xml version="1.0" encoding="utf-8"?>
<!-- Generator: Adobe Illustrator 26.0.2, SVG Export Plug-In . SVG Version: 6.00 Build 0)  -->
<svg version="1.1" id="Layer_1" xmlns="http://www.w3.org/2000/svg" xmlns:xlink="http://www.w3.org/1999/xlink" x="0px" y="0px"
	 viewBox="0 0 48 48" style="enable-background:new 0 0 48 48;" xml:space="preserve">
<path d="M47.7,15.9L43.2,4.7V4.6c0,0,0-0.1-0.1-0.1c-0.3-0.8-0.8-1.6-1.4-2.2C41,1.5,40.2,1,39.3,0.6C38.5,0.2,37.5,0,36.6,0
	s-1.9,0.2-2.8,0.5C33,0.9,32.2,1.4,31.5,2c-0.7,0.7-1.2,1.5-1.6,2.3c-0.4,0.9-0.5,1.8-0.6,2.8c0,1,0.2,1.9,0.6,2.7l0.8,1.9l-6.5,2.6
	L23.5,1c0-0.5-0.5-1-1-1c-0.6,0-1,0.5-1,1.1l1.4,27.7l0,0v0.8c0,0.4-0.1,0.8-0.3,1.2c-0.2,0.4-0.6,0.6-0.9,0.8l-4.3,1.8
	c-0.3,0.1-0.7,0.2-1,0.2c-0.4,0-0.7-0.2-1-0.4s-0.5-0.5-0.7-0.8c-0.1-0.2-0.2-0.4-0.2-0.7c0-0.1,0-0.2,0-0.3L15.8,1c0-0.5-0.4-1-1-1
	c-0.5,0-1,0.4-1,1L13,19.8L0.8,23c-0.5,0.1-0.9,0.7-0.7,1.2C0.2,24.7,0.6,25,1,25c0.1,0,0.2,0,0.2,0l11.6-3.1l-0.4,9.3L0.6,36.9
	c-0.5,0.2-0.7,0.8-0.5,1.3c0.2,0.4,0.5,0.6,0.9,0.6c0.1,0,0.3,0,0.4-0.1l11.5-5.4l0,0c0.3,0.6,0.8,1.2,1.3,1.5
	c0.6,0.4,1.2,0.6,1.9,0.7c0.1,0,0.3,0,0.4,0c0.6,0,1.1-0.1,1.6-0.3l4.3-1.8c0.8-0.3,1.4-0.9,1.8-1.6c0.4-0.7,0.7-1.5,0.6-2.3l0,0
	l9.2-3.7l8.5-3.4l2.8-1.1c0.5-0.2,0.9-0.5,1.3-0.9c0.4-0.4,0.7-0.8,0.9-1.3s0.3-1,0.3-1.5S47.9,16.4,47.7,15.9z M31.8,5.1
	C32,4.5,32.4,4,32.9,3.5s1-0.8,1.7-1.1c0.6-0.3,1.3-0.4,2-0.4s1.3,0.1,2,0.4c0.6,0.3,1.2,0.7,1.7,1.1c0.4,0.4,0.7,0.8,0.9,1.3l0,0
	L36,14.4l-3.1-2.7L31.8,9c-0.3-0.6-0.4-1.3-0.4-2C31.4,6.4,31.5,5.8,31.8,5.1z M24.8,27.3l-0.5-9.5l7.5,6.6L24.8,27.3z M33.9,23.7
	L33.9,23.7l-8.6-7.6l6.4-2.6l0,0l3.7,3.3l0.1,0.1l4.8,4.2L33.9,23.7z M45.8,18.3c-0.1,0.2-0.3,0.5-0.5,0.7s-0.4,0.3-0.7,0.4
	l-2.3,0.9l-5-4.4l4.6-8.6l3.8,9.4c0.1,0.3,0.2,0.5,0.2,0.8C46,17.7,45.9,18,45.8,18.3z M43.9,48H1c-0.6,0-1-0.4-1-1s0.4-1,1-1h42.9
	c0.5,0,1.1-0.2,1.5-0.6c0.4-0.4,0.6-0.9,0.6-1.5V33.1c0-0.4-0.1-0.8-0.4-1.2c-0.3-0.3-0.6-0.6-1-0.7s-0.8-0.1-1.2,0.1
	s-0.7,0.4-0.9,0.8l-2.9,4.8c-0.4,0.6-0.9,1.1-1.5,1.4c-0.6,0.3-1.3,0.5-2,0.5H22.5c-0.6,0-1-0.4-1-1s0.4-1,1-1h13.6
	c0.4,0,0.7-0.1,1-0.3s0.6-0.4,0.8-0.7l2.9-4.7c0.4-0.7,1.1-1.3,1.9-1.6c0.8-0.3,1.7-0.4,2.5-0.1c0.8,0.2,1.6,0.7,2.1,1.4
	c0.5,0.7,0.8,1.5,0.8,2.4v10.9c0,1.1-0.4,2.1-1.2,2.9C46,47.6,45,48,43.9,48z"/>
</svg>
