<?xml version="1.0" encoding="utf-8"?>
<!-- Generator: Adobe Illustrator 26.0.2, SVG Export Plug-In . SVG Version: 6.00 Build 0)  -->
<svg version="1.1" id="Layer_1" xmlns="http://www.w3.org/2000/svg" xmlns:xlink="http://www.w3.org/1999/xlink" x="0px" y="0px"
	 viewBox="0 0 48 48" style="enable-background:new 0 0 48 48;" xml:space="preserve">
<path d="M45.5,27.1c0.8-0.8,1.4-1.8,1.9-2.8c0.6-1.4,0.8-3,0.6-4.5s-0.9-3-1.8-4.2c-0.7-0.9-1.6-1.6-2.5-2.1c0.5-0.7,0.8-1.5,1-2.2
	c0.4-1.2,0.4-2.5,0.2-3.8C44.7,6.3,44.2,5,43.5,4s-1.7-1.9-2.7-2.6c-1.1-0.7-2.3-1.1-3.6-1.2c-1.2-0.1-2.5,0-3.7,0.5s-2.3,1.1-3.2,2
	c-0.6,0.6-1.1,1.2-1.5,2c-2.8-1.8-6.6-1.8-9.4,0c-0.4-0.7-0.9-1.4-1.5-2c-0.9-0.9-2-1.6-3.2-2S12.1-0.1,10.9,0
	C9.6,0.2,8.4,0.6,7.3,1.2c-1.1,0.7-2,1.5-2.7,2.6C3.8,4.9,3.4,6.1,3.2,7.3C3,8.6,3.1,9.9,3.4,11.1c0.2,0.8,0.6,1.5,1,2.2
	c-1,0.5-1.8,1.3-2.5,2.1c-1,1.2-1.6,2.7-1.8,4.2c-0.2,1.5,0,3.1,0.6,4.5c0.4,1.1,1.1,2,1.9,2.8c-1,1-1.7,2.2-2.1,3.6
	c-0.6,1.7-0.5,3.6,0,5.3s1.7,3.2,3.1,4.3c1.2,0.9,2.6,1.4,4.1,1.5V47c0,0.5,0.5,1,1,1c0.6,0,1-0.5,1-1v-5.2c1.5-0.2,2.9-0.7,4.1-1.5
	c1.5-1.1,2.6-2.5,3.2-4.3c0.6-1.7,0.6-3.6,0-5.3c-0.4-1.4-1.2-2.6-2.2-3.5c0.6-0.6,1-1.2,1.4-1.9c0.6-1.1,1-2.2,1.1-3.4
	s0-2.4-0.4-3.5c-0.2-0.7-0.6-1.4-1-2c0.2-0.1,0.3-0.2,0.5-0.3c0.6,1.1,1.5,2.1,2.6,2.9c2.9,2,7,2,9.9,0c1.1-0.8,2-1.8,2.6-2.9
	c0.2,0.1,0.3,0.2,0.5,0.3c-0.4,0.6-0.7,1.3-1,2c-0.4,1.1-0.5,2.3-0.4,3.5s0.5,2.3,1.1,3.4c0.4,0.7,0.9,1.3,1.4,1.9
	c-1.1,1.1-1.9,2.4-2.2,3.9c-1.3,0.4-2.5,1-3.5,1.9c-1.2,1-2,2.4-2.5,3.9s-0.5,3.1-0.1,4.6c-4.2,1.4-6.4,3.3-6.4,5.6c0,0.5,0.4,1,1,1
	c0.5,0,1-0.5,1-1c0-1.3,1.8-2.6,5.1-3.7c0.4,0.8,0.9,1.5,1.6,2.2c1.1,1.1,2.5,1.9,4,2.3c0.7,0.2,1.4,0.2,2.1,0.2
	c0.9,0,1.7-0.1,2.6-0.4c1.5-0.5,2.9-1.3,3.9-2.5c0.9-1,1.5-2.2,1.9-3.5c1.4-0.4,2.7-1.1,3.8-2.1c1.2-1.2,2.1-2.6,2.5-4.3
	c0.4-1.6,0.3-3.3-0.3-4.9C47,29,46.3,28,45.5,27.1z M45.8,34.7c-0.3,1.3-1,2.4-1.9,3.3c-0.9,0.9-2.1,1.5-3.4,1.7
	c-0.4,0.1-0.7,0.4-0.8,0.8c-0.2,1.2-0.8,2.3-1.6,3.2s-1.8,1.6-3,1.9c-1.2,0.4-2.4,0.4-3.6,0.1c-1.2-0.3-2.3-0.9-3.1-1.8
	c-0.6-0.7-1.1-1.4-1.5-2.3l0,0c-0.1-0.3-0.2-0.5-0.3-0.8c-0.3-1.2-0.3-2.4,0.1-3.6c0.4-1.2,1-2.2,1.9-3s2-1.3,3.2-1.6
	c0.4-0.1,0.7-0.4,0.8-0.8c0.3-1.7,1.2-3.1,2.5-4.1c0.2-0.2,0.4-0.5,0.4-0.8s-0.1-0.6-0.4-0.8c-0.7-0.6-1.4-1.2-1.8-2.1
	c-0.5-0.8-0.7-1.7-0.8-2.6s0-1.8,0.3-2.7c0.3-0.9,0.7-1.7,1.4-2.4c0.2-0.2,0.3-0.6,0.2-0.9s-0.3-0.6-0.6-0.7
	c-0.8-0.3-1.5-0.7-2.1-1.2c-0.2-0.2-0.4-0.2-0.7-0.2c-0.1,0-0.2,0-0.2,0c-0.3,0.1-0.6,0.3-0.7,0.6c-0.5,1.3-1.3,2.4-2.5,3.1
	c-2.2,1.6-5.4,1.6-7.6,0c-1.1-0.8-2-1.9-2.5-3.1c-0.1-0.3-0.4-0.5-0.7-0.6c-0.3-0.1-0.7,0-0.9,0.2c-0.6,0.5-1.3,1-2.1,1.2
	c-0.3,0.1-0.5,0.4-0.6,0.7s0,0.7,0.2,0.9c0.6,0.7,1.1,1.5,1.4,2.4c0.3,0.9,0.4,1.8,0.3,2.7c-0.1,0.9-0.4,1.8-0.8,2.6
	c-0.4,0.8-1.1,1.5-1.8,2.1c-0.2,0.2-0.4,0.5-0.4,0.8s0.1,0.6,0.4,0.8c1.1,0.8,1.9,2,2.4,3.3c0.4,1.3,0.4,2.8,0,4.1s-1.3,2.5-2.4,3.3
	C10.2,40,7,40,4.7,38.4c-1.1-0.8-2-2-2.4-3.3s-0.5-2.8,0-4.1c0.4-1.3,1.2-2.5,2.4-3.3c0.2-0.2,0.4-0.5,0.4-0.8s-0.2-0.6-0.4-0.8
	c-1-0.7-1.7-1.7-2.2-2.8C2,22.4,1.9,21.2,2.1,20s0.7-2.3,1.4-3.2s1.7-1.6,2.9-2.1C6.7,14.6,6.9,14.3,7,14s0-0.7-0.2-0.9
	c-0.6-0.7-1.1-1.6-1.4-2.5c-0.3-1-0.4-2-0.2-3c0.1-1,0.5-1.9,1-2.7s1.3-1.5,2.1-2c0.8-0.5,1.8-0.8,2.8-0.9s2,0,2.9,0.3
	c0.9,0.3,1.8,0.8,2.5,1.5c0.7,0.7,1.2,1.5,1.6,2.4c0.1,0.3,0.4,0.5,0.7,0.6C19,7,19.3,7,19.6,6.7C20.8,5.6,22.4,5,24,5
	s3.2,0.6,4.4,1.7C28.7,7,29,7,29.3,7c0.3-0.1,0.6-0.3,0.7-0.6c0.3-0.9,0.9-1.8,1.6-2.4c0.7-0.7,1.5-1.2,2.5-1.5C35,2,36,1.9,36.9,2
	c1,0.1,1.9,0.4,2.8,0.9c0.8,0.5,1.6,1.2,2.1,2s0.9,1.7,1,2.7c0.2,1,0.1,2-0.2,2.9s-0.8,1.8-1.4,2.5C41,13.3,41,13.7,41,14
	c0.1,0.3,0.3,0.6,0.6,0.7c1.1,0.4,2.1,1.1,2.9,2.1c0.8,0.9,1.2,2,1.4,3.2s0,2.4-0.4,3.5c-0.5,1.1-1.2,2.1-2.2,2.8
	c-0.2,0.2-0.4,0.5-0.4,0.8s0.2,0.6,0.4,0.8c1,0.8,1.8,1.8,2.3,3C46,32.1,46.1,33.5,45.8,34.7z"/>
</svg>
