<?xml version="1.0" encoding="utf-8"?>
<!-- Generator: Adobe Illustrator 26.0.2, SVG Export Plug-In . SVG Version: 6.00 Build 0)  -->
<svg version="1.1" id="Layer_1" xmlns="http://www.w3.org/2000/svg" xmlns:xlink="http://www.w3.org/1999/xlink" x="0px" y="0px"
	 viewBox="0 0 48 48" style="enable-background:new 0 0 48 48;" xml:space="preserve">
<path d="M48,22.2c0-0.1,0-0.1-0.1-0.2l0,0l-0.1-0.1l-5.2-10.5c-0.3-0.7-0.9-1.2-1.5-1.6c-0.6-0.4-1.4-0.6-2.1-0.6l0,0h-3.2V1
	c0-0.5-0.4-1-1-1H13.3c-0.6,0-1,0.5-1,1v8.2H9c-0.8,0-1.5,0.2-2.1,0.6c-0.6,0.4-1.2,1-1.5,1.6L0.2,21.9L0.1,22l0,0
	c0,0.1-0.1,0.1-0.1,0.2s0,0.2,0,0.2v12.3c0,1.1,0.4,2.1,1.2,2.9s1.8,1.2,2.9,1.2h6.8l-1.6,8c-0.1,0.3,0,0.6,0.2,0.8S10,48,10.3,48
	h27.6c0.3,0,0.6-0.1,0.8-0.4c0.2-0.2,0.3-0.5,0.2-0.8l-1.6-8h6.8c1.1,0,2.1-0.4,2.9-1.2s1.2-1.8,1.2-2.9V22.5
	C48,22.4,48,22.3,48,22.2z M14.3,2h19.5v13.3H14.3V2z M7.2,12.3C7.4,12,7.6,11.7,8,11.5c0.3-0.2,0.7-0.3,1.1-0.3h3.2v5.1
	c0,0.6,0.4,1,1,1h21.5c0.6,0,1-0.4,1-1v-5.1H39c0.4,0,0.8,0.1,1.1,0.3s0.6,0.5,0.8,0.8l4.6,9.1H2.6L7.2,12.3z M11.4,46l1.6-8
	l1.1-5.3h19.8L35,38l1.6,8H11.4z M46,34.7c0,0.5-0.2,1.1-0.6,1.5c-0.4,0.4-0.9,0.6-1.5,0.6h-7.1l-1.1-5.3c-0.1-0.5-0.5-0.8-1-0.8
	H13.3c-0.5,0-0.9,0.3-1,0.8l-1.1,5.3H4.1c-0.6,0-1.1-0.2-1.5-0.6C2.2,35.8,2,35.3,2,34.7V23.5h44V34.7z M40.9,32.2
	c-0.2,0-0.4,0-0.6-0.1c-0.6-0.1-1.1-0.4-1.6-0.8c-0.4-0.4-0.7-1-0.8-1.6s-0.1-1.2,0.2-1.8c0.2-0.6,0.6-1,1.1-1.4
	C40.4,25.8,42,26,43,27c0.6,0.6,0.9,1.3,0.9,2.2c0,0.6-0.2,1.2-0.5,1.7S42.6,31.8,42,32C41.7,32.1,41.3,32.2,40.9,32.2z M40.9,28.1
	c-0.2,0-0.4,0.1-0.6,0.2c-0.2,0.1-0.3,0.3-0.4,0.5c-0.1,0.2-0.1,0.4-0.1,0.6s0.1,0.4,0.3,0.5c0.1,0.1,0.3,0.2,0.5,0.3
	c0.2,0,0.4,0,0.6-0.1c0.2-0.1,0.4-0.2,0.5-0.4s0.2-0.4,0.2-0.6c0-0.3-0.1-0.5-0.3-0.7C41.4,28.2,41.1,28.1,40.9,28.1z M28.6,41.9
	h-9.2c-0.6,0-1-0.4-1-1s0.4-1,1-1h9.2c0.6,0,1,0.4,1,1S29.2,41.9,28.6,41.9z"/>
</svg>
