<?xml version="1.0" encoding="utf-8"?>
<!-- Generator: Adobe Illustrator 26.0.2, SVG Export Plug-In . SVG Version: 6.00 Build 0)  -->
<svg version="1.1" id="Layer_1" xmlns="http://www.w3.org/2000/svg" xmlns:xlink="http://www.w3.org/1999/xlink" x="0px" y="0px"
	 viewBox="0 0 48 48" style="enable-background:new 0 0 48 48;" xml:space="preserve">
<path d="M36.5,24.3h-9c-0.6,0-1-0.4-1-1v-6c0-0.6,0.4-1,1-1h9c0.6,0,1,0.4,1,1v6C37.5,23.9,37.1,24.3,36.5,24.3z M28.5,22.3h7v-4h-7
	V22.3z M23.5,24.3h-9c-0.6,0-1-0.4-1-1v-6c0-0.6,0.4-1,1-1h9c0.6,0,1,0.4,1,1v6C24.5,23.9,24.1,24.3,23.5,24.3z M15.5,22.3h7v-4h-7
	V22.3z M45.5,35.3h-2v-23c0-1.1-0.9-2-2-2H36l-1.3-3.5L36.8,6c0.5-0.2,0.8-0.8,0.6-1.3s-0.8-0.8-1.3-0.6l-16.9,6.2
	c0,0-0.1,0-0.1,0.1H6.5c-1.1,0-2,0.9-2,2v8h-2c-1.1,0-2,0.9-2,2v9c0,1.1,0.9,2,2,2h2v2c0,1.1,0.9,2,2,2h6.1c0.5,3.4,3.4,6,6.9,6
	s6.4-2.6,6.9-6h19.1c0.5,0,1-0.4,1-1C46.5,35.8,46,35.3,45.5,35.3z M4.5,31.3h-2v-9h2V31.3z M32.8,7.5l1,2.9h-8.9L32.8,7.5z
	 M19.5,41.3c-2.8,0-5-2.2-5-5s2.2-5,5-5s5,2.2,5,5S22.3,41.3,19.5,41.3z M41.5,35.3H26.4c-0.5-3.4-3.4-6-6.9-6s-6.4,2.6-6.9,6H6.5
	v-23h35V35.3z"/>
</svg>
