<?xml version="1.0" encoding="utf-8"?>
<!-- Generator: Adobe Illustrator 26.0.2, SVG Export Plug-In . SVG Version: 6.00 Build 0)  -->
<svg version="1.1" id="Layer_1" xmlns="http://www.w3.org/2000/svg" xmlns:xlink="http://www.w3.org/1999/xlink" x="0px" y="0px"
	 viewBox="0 0 48 48" style="enable-background:new 0 0 48 48;" xml:space="preserve">
<path d="M24.1,44.9c-0.9,0-1.8-0.4-2.5-1.1l-17.9-19C-0.1,20.9-1.1,15,1.3,10c1.9-3.7,5.4-6.2,9.5-6.9c4-0.6,8,0.6,10.8,3.5l2.5,2.5
	l2.5-2.5c2.8-2.9,6.9-4.2,10.8-3.5c3.8,0.7,7.3,3.2,9.3,6.8c2.4,5,1.5,10.9-2.3,14.8l-17.8,19l0,0C25.9,44.5,25,44.9,24.1,44.9z
	 M25.9,43.1L25.9,43.1L25.9,43.1z M12.8,5c-0.6,0-1.1,0-1.7,0.1c-3.5,0.6-6.4,2.6-8,5.8c-2,4.1-1.2,9.2,2,12.5l17.9,19
	c0.4,0.4,0.8,0.5,1.1,0.5c0.4,0,0.7-0.2,1.1-0.5l17.7-18.9c3.3-3.3,4.1-8.4,2-12.5c-1.7-3-4.6-5.2-7.8-5.8c-3.3-0.6-6.7,0.6-9.1,3
	l-3.2,3.3c-0.4,0.4-1.1,0.4-1.4,0l-3.2-3.3C18.2,6.1,15.6,5,12.8,5z"/>
</svg>
