<?xml version="1.0" encoding="utf-8"?>
<!-- Generator: Adobe Illustrator 26.0.2, SVG Export Plug-In . SVG Version: 6.00 Build 0)  -->
<svg version="1.1" id="Layer_1" xmlns="http://www.w3.org/2000/svg" xmlns:xlink="http://www.w3.org/1999/xlink" x="0px" y="0px"
	 viewBox="0 0 48 48" style="enable-background:new 0 0 48 48;" xml:space="preserve">
<path d="M40.8,26.8c2.7-3.6,3.9-8.1,4.2-10.2c0.2-1.1-0.5-2.1-1.6-2.3c-1.9-0.4-3.9-0.5-5.9-0.3c0-2.8-0.6-5.2-0.9-6.5
	c0-0.1-0.1-0.2-0.1-0.2c-0.4-1-1.6-1.5-2.6-1.1c-1.8,0.7-3.5,1.6-5.1,2.7c-0.9-1.8-2-3.6-3.4-5.1c-0.1-0.1-0.2-0.2-0.3-0.3
	c-0.8-0.7-2.1-0.6-2.8,0.2C21.1,5.2,20,7,19.1,8.8c-1.6-1.1-3.3-2-5.2-2.7c-1-0.4-2.2,0.1-2.6,1.1c0,0.1-0.1,0.2-0.1,0.2
	c-0.3,1.4-0.9,3.8-0.9,6.5c-2-0.2-3.9-0.1-5.9,0.3c-1.1,0.2-1.8,1.2-1.6,2.3c0.4,2.1,1.5,6.7,4.2,10.2c-4.6,2-7.2,4.7-7.2,7.7
	c0,6,10.5,10.7,24,10.7c2.6,0,5.1-0.2,7.7-0.5c0.2,0,0.4-0.1,0.5-0.1c0.5-0.2,0.9-0.6,1.1-1.1s0.2-1-0.1-1.5l-1.3-2.7l7.8,2.9
	c0.5,0.2,1.1,0.2,1.5,0c4.3-2,6.7-4.6,6.7-7.5C48,31.5,45.5,28.8,40.8,26.8z M37.6,16c1.8-0.2,3.7-0.1,5.5,0.2
	c-0.4,1.9-1.9,8.5-6.2,11.7c-2.9,2.2-6.5,2.5-9.2,2.3c2.7-1.4,6.3-3.9,8.3-8C37,20.3,37.4,18.1,37.6,16z M34.8,8
	c0.4,1.4,0.9,4.1,0.8,7.1v0.1c0,2.1-0.4,4.3-1.4,6.3c-1.6,3.4-4.6,5.5-7,6.8C29,25.7,31,21.7,31,17.1c-0.1-2.2-0.6-4.3-1.4-6.4
	C31.3,9.5,33,8.6,34.8,8z M20.2,11.2c0.1-0.3,0.2-0.6,0.3-0.8c0.8-1.9,2-3.7,3.5-5.3c3,3.4,4.8,7.7,5.1,12.1
	c0,5.5-3.5,10.3-5.1,12.1c-1.5-1.8-5.1-6.6-5.1-12.1C19,15.1,19.5,13.1,20.2,11.2z M13.2,8c1.8,0.7,3.5,1.6,5,2.7
	c-0.8,2-1.2,4.2-1.4,6.4c0,4.6,2.1,8.6,3.9,11.2c-2.4-1.3-5.4-3.4-7-6.8c-0.9-1.9-1.3-4-1.4-6c0-0.2,0-0.5,0-0.7
	C12.3,11.9,12.9,9.3,13.2,8z M4.9,16.3c1.8-0.3,3.7-0.4,5.5-0.3c0.1,2.1,0.6,4.3,1.5,6.3c2,4.1,5.6,6.6,8.3,8
	c-2.6,0.2-6.3-0.1-9.2-2.3c-0.5-0.4-1-0.8-1.5-1.3l0,0C6.5,23.3,5.3,18.4,4.9,16.3z M40.4,40.2l-7.8-2.9c-1-0.4-2.2,0.1-2.6,1.1
	c-0.2,0.5-0.2,1,0,1.5l1.3,2.7c-2.4,0.4-4.9,0.5-7.4,0.5c-13.2,0-22-4.5-22-8.7c0-2.2,2.4-4.5,6.6-6.1c0.4,0.4,0.8,0.8,1.3,1.1
	c2.9,2.2,6.4,2.8,9.2,2.8c2.3,0,4.2-0.4,4.9-0.6c0.7,0.2,2.6,0.6,4.9,0.6c2.8,0,6.3-0.6,9.2-2.8c0.5-0.4,0.9-0.7,1.3-1.1
	c4.2,1.7,6.6,3.9,6.6,6.1C46,36.6,44,38.6,40.4,40.2z"/>
</svg>
