<?xml version="1.0" encoding="utf-8"?>
<!-- Generator: Adobe Illustrator 26.0.2, SVG Export Plug-In . SVG Version: 6.00 Build 0)  -->
<svg version="1.1" id="Layer_1" xmlns="http://www.w3.org/2000/svg" xmlns:xlink="http://www.w3.org/1999/xlink" x="0px" y="0px"
	 viewBox="0 0 48 48" style="enable-background:new 0 0 48 48;" xml:space="preserve">
<path d="M24,48c-0.9,0-1.8-0.2-2.6-0.5l-2.2-0.8C9.2,42.9,2.7,33.6,2.7,23V7.5c0-1.6,0.9-3,2.4-3.7C11.1,1.2,17.6-0.1,24,0
	c6.4-0.1,12.9,1.2,18.9,3.8c1.5,0.7,2.4,2.1,2.4,3.7V23c0,10.4-6.6,19.9-16.5,23.7l-2.2,0.8C25.8,47.8,24.9,48,24,48z M23.6,2
	c-6,0-12.1,1.2-17.7,3.6C5.2,5.9,4.7,6.7,4.7,7.5V23c0,9.7,6,18.3,15.2,21.8l2.2,0.8c1.2,0.5,2.6,0.5,3.8,0l2.2-0.8
	c9.1-3.4,15.2-12.2,15.2-21.8V7.5c0-0.8-0.5-1.5-1.2-1.9C36.4,3.2,30.1,1.9,24,2C23.9,2,23.7,2,23.6,2z M26.4,35h-5.3
	c-0.6,0-1.2-0.2-1.6-0.7s-0.7-1-0.7-1.6V27h-5.7c-0.6,0-1.2-0.2-1.6-0.7s-0.7-1-0.7-1.6v-5.3c0-0.6,0.2-1.2,0.7-1.6s1-0.7,1.6-0.7
	h5.7v-5.7c0-0.6,0.2-1.2,0.7-1.6s1-0.7,1.6-0.7h5.3C27,9,27.6,9.2,28,9.7s0.7,1,0.7,1.6V17h5.7c0.6,0,1.2,0.2,1.6,0.7s0.7,1,0.7,1.6
	v5.3c0,0.6-0.2,1.2-0.7,1.6S35,27,34.4,27h-5.7v5.7c0,0.6-0.2,1.2-0.7,1.6S27,35,26.4,35z M13.1,19c-0.1,0-0.2,0-0.2,0.1
	s-0.1,0.1-0.1,0.2v5.3c0,0.1,0,0.2,0.1,0.2S13,25,13.1,25h6.7c0.6,0,1,0.4,1,1v6.7c0,0.1,0,0.2,0.1,0.2S21,33,21.1,33h5.3
	c0.1,0,0.2,0,0.2-0.1s0.1-0.1,0.1-0.2V26c0-0.6,0.4-1,1-1h6.7c0.1,0,0.2,0,0.2-0.1s0.1-0.1,0.1-0.2v-5.3c0-0.1,0-0.2-0.1-0.2
	S34.5,19,34.4,19h-6.7c-0.6,0-1-0.4-1-1v-6.7c0-0.1,0-0.2-0.1-0.2S26.5,11,26.4,11h-5.3c-0.1,0-0.2,0-0.2,0.1s-0.1,0.1-0.1,0.2V18
	c0,0.6-0.4,1-1,1H13.1z"/>
</svg>
