<?xml version="1.0" encoding="utf-8"?>
<!-- Generator: Adobe Illustrator 26.0.2, SVG Export Plug-In . SVG Version: 6.00 Build 0)  -->
<svg version="1.1" id="Layer_1" xmlns="http://www.w3.org/2000/svg" xmlns:xlink="http://www.w3.org/1999/xlink" x="0px" y="0px"
	 viewBox="0 0 48 48" style="enable-background:new 0 0 48 48;" xml:space="preserve">
<path d="M35,22c-7.2,0-13,5.8-13,13s5.8,13,13,13s13-5.8,13-13S42.2,22,35,22z M35,46c-6.1,0-11-4.9-11-11s4.9-11,11-11
	s11,4.9,11,11S41.1,46,35,46z M40.7,36.7l-5,5c-0.1,0.1-0.2,0.2-0.3,0.2h-0.1c-0.1,0-0.2,0-0.2,0h-0.2h-0.1c-0.1,0-0.2-0.1-0.3-0.2
	l-5-5c-0.4-0.4-0.4-1,0-1.4s1-0.4,1.4,0l3.3,3.3V29c0-0.5,0.5-1,1-1s1,0.5,1,1v9.6l3.3-3.3c0.4-0.4,1-0.4,1.4,0
	C41.1,35.7,41.1,36.3,40.7,36.7z M16,14H7c-0.6,0-1-0.4-1-1s0.4-1,1-1h9c0.6,0,1,0.4,1,1S16.6,14,16,14z M23,20H7c-0.6,0-1-0.4-1-1
	s0.4-1,1-1h16c0.6,0,1,0.4,1,1S23.6,20,23,20z M19,26H7c-0.6,0-1-0.4-1-1s0.4-1,1-1h12c0.6,0,1,0.4,1,1S19.6,26,19,26z M17,32H7
	c-0.6,0-1-0.4-1-1s0.4-1,1-1h10c0.6,0,1,0.4,1,1S17.6,32,17,32z M33.7,10.3l-10-10C23.5,0.1,23.3,0,23,0H1C0.5,0,0,0.5,0,1v42
	c0,0.5,0.5,1,1,1h20c0.5,0,1-0.5,1-1s-0.5-1-1-1H2V2h20v9c0,0.5,0.5,1,1,1h9v7c0,0.5,0.5,1,1,1s1-0.5,1-1v-8
	C34,10.7,33.9,10.5,33.7,10.3z M24,10V3.4l6.6,6.6H24z"/>
</svg>
