<?xml version="1.0" encoding="utf-8"?>
<!-- Generator: Adobe Illustrator 26.0.2, SVG Export Plug-In . SVG Version: 6.00 Build 0)  -->
<svg version="1.1" id="Layer_1" xmlns="http://www.w3.org/2000/svg" xmlns:xlink="http://www.w3.org/1999/xlink" x="0px" y="0px"
	 viewBox="0 0 48 48" style="enable-background:new 0 0 48 48;" xml:space="preserve">
<path d="M33,22c-1.9,0-3.8-1-4.9-2.7c-0.3-0.5-0.2-1.1,0.3-1.4s1.1-0.2,1.4,0.3c1.1,1.7,3.4,2.3,5.1,1.2c0.5-0.3,0.9-0.7,1.2-1.2
	s0.9-0.6,1.4-0.3c0.5,0.3,0.6,0.9,0.3,1.4c-0.5,0.7-1.1,1.4-1.8,1.8C35.1,21.7,34,22,33,22z M15,22c-1,0-2.1-0.3-3-0.9
	c-0.7-0.5-1.4-1.1-1.8-1.8c-0.3-0.5-0.2-1.1,0.3-1.4s1.1-0.2,1.4,0.3c0.3,0.5,0.7,0.9,1.2,1.2c1.7,1.1,4,0.6,5.1-1.2
	c0.3-0.5,0.9-0.6,1.4-0.3c0.5,0.3,0.6,0.9,0.3,1.4C18.8,21,16.9,22,15,22z M24,40c-5.5,0-10.7-3.2-12.9-8.6c-0.2-0.5,0-1.1,0.5-1.3
	c0.5-0.2,1.1,0,1.3,0.5c2.5,6.1,9.6,9,15.7,6.5c2.9-1.2,5.2-3.5,6.5-6.5c0.2-0.5,0.8-0.8,1.3-0.5c0.5,0.2,0.8,0.8,0.5,1.3
	c-1.4,3.4-4.1,6.1-7.5,7.5C27.6,39.7,25.8,40,24,40z M24,48C10.8,48,0,37.2,0,24S10.8,0,24,0s24,10.8,24,24S37.2,48,24,48z M24,2
	C11.9,2,2,11.9,2,24s9.9,22,22,22s22-9.9,22-22S36.1,2,24,2z"/>
</svg>
