<?xml version="1.0" encoding="utf-8"?>
<!-- Generator: Adobe Illustrator 26.0.2, SVG Export Plug-In . SVG Version: 6.00 Build 0)  -->
<svg version="1.1" id="Layer_1" xmlns="http://www.w3.org/2000/svg" xmlns:xlink="http://www.w3.org/1999/xlink" x="0px" y="0px"
	 viewBox="0 0 48 48" style="enable-background:new 0 0 48 48;" xml:space="preserve">
<path d="M46.2,4.8C45.1,3.6,43.6,3,42,3c-0.5,0-1,0.5-1,1s0.5,1,1,1c1.1,0,2.1,0.4,2.8,1.2C45.6,6.9,46,8,46,9v19.1
	c-0.8-0.6-1.9-1-3-1H33c-2,0-3.8,1.2-4.6,3c-0.1-0.1-0.1-0.1-0.2-0.2c-1.1-1.1-2.7-1.8-4.2-1.8s-3.1,0.7-4.2,1.8
	c-0.1,0.1-0.1,0.1-0.2,0.2c-0.8-1.8-2.5-3-4.6-3H5c-1.1,0-2.2,0.4-3,1V9c0-1,0.4-2.1,1.2-2.8C3.9,5.4,4.9,5,6,5c0.5,0,1-0.5,1-1
	S6.5,3,6,3C4.4,3,2.9,3.6,1.8,4.8C0.6,5.9,0,7.4,0,9v31.2c0,2.8,2.2,5,5,5h10c2.8,0,5-2.2,5-5v-6c0-1.1,0.4-2.1,1.2-2.9
	c0.8-0.8,1.8-1.2,2.8-1.2s2.1,0.4,2.8,1.2c0.8,0.8,1.2,1.8,1.2,2.9v6c0,2.8,2.2,5,5,5h10c2.8,0,5-2.2,5-5V9
	C48,7.4,47.4,5.9,46.2,4.8z M18,40.2c0,1.7-1.3,3-3,3H5c-1.7,0-3-1.4-3-3v-8.1c0-1.7,1.3-3,3-3h10c1.7,0,3,1.4,3,3V40.2z M46,40.2
	c0,1.7-1.3,3-3,3H33c-1.7,0-3-1.4-3-3v-8.1c0-1.7,1.3-3,3-3h10c1.7,0,3,1.4,3,3V40.2z"/>
</svg>
