<?xml version="1.0" encoding="utf-8"?>
<!-- Generator: Adobe Illustrator 26.0.2, SVG Export Plug-In . SVG Version: 6.00 Build 0)  -->
<svg version="1.1" id="Layer_1" xmlns="http://www.w3.org/2000/svg" xmlns:xlink="http://www.w3.org/1999/xlink" x="0px" y="0px"
	 viewBox="0 0 48 48" style="enable-background:new 0 0 48 48;" xml:space="preserve">
<path d="M46.7,1.2c-0.8-0.8-1.9-1.2-3-1.2c-1.2,0-2.2,0.4-3,1.2L25,16.7c-0.2,0.2-0.4,0.4-0.5,0.7c-0.1,0.3-0.2,0.5-0.2,0.8
	s0,0.5,0.2,0.8c0.1,0.2,0.3,0.5,0.5,0.7l0.1,0.1L21.9,23l-8.6,8.5c-0.2,0.2-0.3,0.4-0.3,0.7s0.1,0.5,0.3,0.7
	c1.3,1.1,2.9,1.8,4.6,1.8c0.1,0,0.2,0,0.3,0c1.8-0.1,3.5-0.9,4.7-2.1c1.3-1.2,2.1-2.9,2.2-4.7c0.1-1.5-0.3-2.9-1.2-4.1l2.6-2.5
	l1.6,1.6c0.4,0.4,0.9,0.6,1.5,0.6s1.1-0.2,1.5-0.6L46.7,7.3c0.8-0.8,1.3-1.9,1.3-3C48,3.1,47.5,2.1,46.7,1.2z M21.5,31.1
	c-0.9,0.9-2.1,1.5-3.3,1.6c-0.9,0-1.8-0.2-2.6-0.6l6.9-6.9c0.5,0.8,0.7,1.7,0.6,2.6C23,29,22.5,30.2,21.5,31.1z M45.3,5.9L29.7,21.4
	h-0.2l-2.3-2.3l0,0l0,0l-0.8-0.8v-0.1L42,2.7C42.4,2.3,43,2,43.7,2s1.2,0.2,1.6,0.7c0.4,0.4,0.7,1,0.7,1.6S45.8,5.5,45.3,5.9z
	 M22.1,48c-0.3,0-0.5-0.1-0.7-0.3l-2-2c-0.4-0.4-0.4-1,0-1.4s1-0.4,1.4,0l2,2c0.4,0.4,0.4,1,0,1.4C22.6,47.9,22.3,48,22.1,48z
	 M16.4,42.4c-0.3,0-0.5-0.1-0.7-0.3L13,39.4c-0.4-0.4-0.4-1,0-1.4s1-0.4,1.4,0l2.7,2.7c0.4,0.4,0.4,1,0,1.4
	C16.9,42.3,16.7,42.4,16.4,42.4z M10.1,36.1c-0.3,0-0.5-0.1-0.7-0.3l-2.7-2.7c-0.4-0.4-0.4-1,0-1.4s1-0.4,1.4,0l2.7,2.7
	c0.4,0.4,0.4,1,0,1.4C10.6,36,10.3,36.1,10.1,36.1z M3.7,29.9c-0.3,0-0.5-0.1-0.7-0.3l-2.7-2.7c-0.4-0.4-0.4-1,0-1.4s1-0.4,1.4,0
	l2.7,2.7c0.4,0.4,0.4,1,0,1.4C4.2,29.8,4,29.9,3.7,29.9z"/>
</svg>
