<?xml version="1.0" encoding="utf-8"?>
<!-- Generator: Adobe Illustrator 26.0.2, SVG Export Plug-In . SVG Version: 6.00 Build 0)  -->
<svg version="1.1" id="Layer_1" xmlns="http://www.w3.org/2000/svg" xmlns:xlink="http://www.w3.org/1999/xlink" x="0px" y="0px"
	 viewBox="0 0 48 48" style="enable-background:new 0 0 48 48;" xml:space="preserve">
<path d="M32.8,15.7c-0.1,0-0.2,0-0.3-0.1l-4.1-1.5c-0.5-0.2-0.8-0.8-0.6-1.3l1.5-4.1C29.4,8.3,30,8,30.5,8.2s0.8,0.8,0.6,1.3
	L30,12.7l3.1,1.1c0.5,0.2,0.8,0.8,0.6,1.3C33.6,15.5,33.2,15.7,32.8,15.7z M38.3,13.1c-0.1,0-0.2,0-0.3-0.1
	c-0.5-0.2-0.8-0.8-0.6-1.3l1.1-3.1l-3.1-1.1c-0.5-0.2-0.8-0.8-0.6-1.3s0.8-0.8,1.3-0.6l4,1.4c0.2,0.1,0.5,0.3,0.6,0.5s0.1,0.5,0,0.8
	l-1.5,4.1C39.1,12.8,38.7,13.1,38.3,13.1z M46.2,4.9c-1-2.1-2.7-3.7-4.9-4.4c-2.2-0.8-4.5-0.7-6.6,0.3L21.8,7
	c-0.5,0.2-0.9,0.5-1.3,0.9s-0.6,0.9-0.8,1.4c-0.2,0.5-0.3,1-0.2,1.6c0,0.5,0.2,1.1,0.4,1.5l1.5,3.2l-5,2.4c-0.5,0.2-0.7,0.8-0.5,1.3
	c0.2,0.4,0.5,0.6,0.9,0.6c0.1,0,0.3,0,0.4-0.1l5-2.4l1.5,3.3c0.2,0.5,0.5,0.9,1,1.3c0.4,0.4,0.9,0.6,1.4,0.8C26.5,23,27,23,27.5,23
	c0.1,0,0.1,0,0.2,0c0.5,0,1.1-0.2,1.5-0.4l12.9-6.1l0,0c2.1-1,3.6-2.8,4.4-4.9C47.3,9.4,47.2,7,46.2,4.9z M44.6,10.9
	c-0.6,1.7-1.8,3-3.4,3.8l-12.9,6.1c-0.2,0.1-0.5,0.2-0.8,0.2s-0.5,0-0.8-0.1c-0.2-0.1-0.5-0.2-0.7-0.4c-0.2-0.2-0.4-0.4-0.5-0.6
	l-2-4.1l0,0l0,0l-2-4.1c-0.1-0.2-0.2-0.5-0.2-0.8s0-0.5,0.1-0.8s0.2-0.5,0.4-0.7C22,9.2,22.2,9,22.5,8.9l12.9-6.1
	c1-0.6,2-0.8,2.9-0.8c0.8,0,1.5,0.1,2.3,0.4c1.7,0.6,3,1.8,3.8,3.4S45.2,9.2,44.6,10.9z M9.2,48c-0.2,0-0.4-0.1-0.6-0.2l-6-4.8
	c-0.7-0.5-1.1-1.2-1.4-2s-0.3-1.6-0.1-2.4C1.3,38,1.6,37.4,2,36.9s0.9-0.9,1.5-1.2s1.2-0.4,1.9-0.4c0.6,0,1.3,0.2,1.9,0.5l1,0.5
	v-9.1c0-1.1,0.4-2.1,1.2-2.9s1.8-1.2,2.9-1.2s2.1,0.4,2.9,1.2c0.8,0.8,1.2,1.8,1.2,2.9v5.3l3.2,0.5c1.7,0.3,3.2,1.1,4.3,2.4
	c1.1,1.3,1.7,2.9,1.7,4.6v7c0,0.6-0.4,1-1,1s-1-0.4-1-1v-7.1c0-1.2-0.4-2.4-1.2-3.3c-0.8-0.9-1.9-1.5-3.1-1.7l-4.1-0.7
	c-0.5-0.1-0.8-0.5-0.8-1v-6.1c0-0.6-0.2-1.1-0.6-1.5c-0.8-0.8-2.1-0.8-2.9,0c-0.4,0.4-0.6,0.9-0.6,1.5v10.7c0,0.3-0.2,0.7-0.5,0.9
	s-0.7,0.2-1,0l-2.4-1.2c-0.3-0.2-0.7-0.2-1-0.2c-0.4,0-0.7,0.1-1,0.2c-0.3,0.1-0.6,0.4-0.8,0.6c-0.2,0.3-0.4,0.6-0.5,0.9
	C3,39.5,3,39.9,3.1,40.3c0.1,0.4,0.4,0.8,0.8,1.1l6,4.8c0.4,0.3,0.5,1,0.2,1.4C9.8,47.9,9.5,48,9.2,48z"/>
</svg>
