<?xml version="1.0" encoding="utf-8"?>
<!-- Generator: Adobe Illustrator 26.0.2, SVG Export Plug-In . SVG Version: 6.00 Build 0)  -->
<svg version="1.1" id="Layer_1" xmlns="http://www.w3.org/2000/svg" xmlns:xlink="http://www.w3.org/1999/xlink" x="0px" y="0px"
	 viewBox="0 0 48 48" style="enable-background:new 0 0 48 48;" xml:space="preserve">
<path d="M37.7,34.7c0,0.5-0.4,1-1,1c-1.3,0-2.5,0.5-3.4,1.4c-0.9,0.9-1.4,2.1-1.4,3.4c0,0.5-0.5,1-1,1c-0.6,0-1-0.5-1-1
	c0-1.8,0.7-3.5,2-4.8c0.6-0.6,1.3-1.1,2.1-1.5c0-0.1,0-0.2,0-0.3c0-1.3-0.5-2.5-1.4-3.4c-0.9-0.9-2.1-1.4-3.3-1.4c-0.6,0-1-0.4-1-1
	c0-0.6,0.4-1,1-1c1.8,0,3.5,0.7,4.8,2c1.2,1.2,1.9,2.8,2,4.6c0.2,0,0.4,0,0.6,0C37.2,33.7,37.7,34.1,37.7,34.7z M45.3,32.2
	c-0.2,1-0.7,2-1.4,2.8c-0.5,0.6-1.1,1.1-1.7,1.5c0.2,1.7-0.2,3.4-1.1,4.9c-1,1.6-2.4,2.7-4.2,3.2v0c-0.6,0.9-1.4,1.7-2.3,2.3
	c-1,0.7-2.2,1.1-3.5,1.2c-0.2,0-0.4,0-0.6,0c-1,0-2.1-0.2-3-0.6c-1.1-0.5-2.1-1.3-2.9-2.2c-0.2-0.3-0.5-0.6-0.7-1
	c-0.2,0.3-0.4,0.7-0.6,1c-0.8,1-1.8,1.7-2.9,2.2c-1,0.4-2,0.6-3,0.6c-0.2,0-0.4,0-0.6,0c-1.2-0.1-2.4-0.5-3.5-1.2
	c-0.9-0.6-1.7-1.4-2.3-2.3c-1.7-0.6-3.2-1.7-4.2-3.2c-0.9-1.5-1.3-3.2-1.1-4.9c-0.7-0.4-1.3-0.9-1.7-1.5c-0.7-0.8-1.2-1.8-1.4-2.8
	c-0.3-1-0.3-2.1,0-3.1c0.2-0.8,0.5-1.5,0.9-2.1c-0.3-0.4-0.5-0.9-0.7-1.5c-0.5-1.3-0.5-2.7-0.1-4.1c0.3-1.1,0.9-2.1,1.7-2.9
	c-0.2-0.7-0.3-1.5-0.3-2.2c0-1,0.3-2,0.8-2.8c0.5-0.9,1.1-1.6,1.9-2.2c0.7-0.5,1.6-0.9,2.5-1.1C9.3,9.8,9.2,9.5,9.1,9.1
	c-0.1-0.7-0.1-1.3,0.1-2c0.2-0.7,0.5-1.3,0.9-1.8c0.4-0.5,0.9-1,1.5-1.3c0.5-0.3,1.1-0.5,1.7-0.6c2.8-2.9,6-3.3,7.1-3.4
	c0.1,0,0.1,0,0.2,0c0.1,0,0.2,0,0.2,0c0,0,0,0,0,0c0,0,0,0,0,0c1.1,0,2.2,0.5,3,1.3c0.1,0.1,0.2,0.2,0.3,0.3
	c0.1-0.1,0.2-0.2,0.3-0.3c0.8-0.8,1.9-1.3,3-1.3c0,0,0,0,0,0c0,0,0,0,0,0c0,0,0.1,0,0.2,0h0.1c1.1,0.1,4.3,0.5,7.1,3.4
	c0.6,0.1,1.1,0.3,1.7,0.6c0.6,0.3,1.1,0.8,1.5,1.3c0.4,0.5,0.7,1.1,0.9,1.8c0.2,0.7,0.2,1.3,0.1,2c0,0.3-0.1,0.6-0.2,0.9
	c0.9,0.2,1.7,0.6,2.5,1.1c0.8,0.6,1.5,1.4,1.9,2.2c0.5,0.9,0.7,1.8,0.8,2.8c0,0.7-0.1,1.5-0.3,2.2c0.8,0.8,1.4,1.8,1.7,2.9
	c0.4,1.3,0.4,2.8-0.1,4.1c-0.2,0.5-0.4,1-0.7,1.5v0c0.4,0.7,0.7,1.4,0.9,2.1C45.6,30.1,45.6,31.1,45.3,32.2z M23,4.3
	c0-0.6-0.2-1.2-0.7-1.6c-0.4-0.4-1-0.7-1.6-0.7c0,0,0,0,0,0h-0.1C20,2,18,2.2,16,3.7c0.4,0.2,0.9,0.4,1.3,0.7c0.5,0.4,1,0.9,1.3,1.5
	c0.3,0.5,0.1,1.1-0.4,1.4c-0.5,0.3-1.1,0.1-1.4-0.4C16.6,6.5,16.4,6.2,16,6c-0.3-0.2-0.7-0.4-1.1-0.5c-0.4-0.1-0.8-0.1-1.2-0.1
	c-0.4,0.1-0.8,0.2-1.1,0.4C12.3,6,12,6.2,11.7,6.5c-0.2,0.3-0.4,0.7-0.5,1.1c-0.1,0.4-0.1,0.8-0.1,1.2c0,0.4,0.2,0.7,0.4,1
	c0.4,0,0.7,0.1,1,0.2c1,0.2,1.9,0.7,2.6,1.3c0.8,0.6,1.4,1.4,1.8,2.3c0.4,0.9,0.6,1.9,0.6,2.9c0,0.6-0.4,1-1,1c-0.6,0-1-0.4-1-1
	c0-0.7-0.2-1.4-0.5-2c-0.3-0.6-0.7-1.2-1.3-1.6c-0.5-0.4-1.2-0.8-1.8-0.9c-0.7-0.2-1.4-0.2-2.1,0c-0.7,0.1-1.3,0.4-1.9,0.8
	c-0.6,0.4-1,1-1.3,1.6c-0.3,0.6-0.5,1.3-0.5,2c0,0.7,0.1,1.4,0.4,2c0,0.1,0,0.1,0.1,0.2c0,0.1,0,0.1,0,0.2c0,0.1,0,0.2,0,0.2
	c0,0.1,0,0.1-0.1,0.2v0c-0.1,0.1-0.2,0.3-0.3,0.3c0,0-0.1,0.1-0.1,0.1c-0.7,0.6-1.2,1.4-1.5,2.3c-0.3,0.9-0.2,1.9,0.1,2.9
	c0.2,0.6,0.5,1.1,0.9,1.5c0.3,0.3,0.5,0.5,0.9,0.8c0.8,0.6,1.7,0.9,2.7,0.9c0.6,0,1,0.4,1,1c0,0.5-0.5,1-1,1c-1.4,0-2.7-0.4-3.9-1.2
	c-0.1-0.1-0.2-0.2-0.3-0.2c-0.2,0.3-0.3,0.7-0.4,1c-0.2,0.7-0.2,1.5,0,2.2c0.2,0.7,0.5,1.4,1,2C6,34.1,6.5,34.5,7,34.7L7.4,35l0,0
	c0.3,0.2,0.5,0.6,0.4,1c0,0.1,0,0.2,0,0.3v0c-0.2,1.3,0.1,2.7,0.8,3.9c0.8,1.2,2,2.1,3.4,2.5c0.1,0,0.2,0.1,0.3,0.1
	c0.1,0,0.1,0.1,0.2,0.1c0,0,0,0,0,0c0,0,0,0,0,0c0.1,0,0.1,0.1,0.1,0.2c0,0,0,0,0,0c0,0,0,0,0,0c0.5,0.8,1.1,1.4,1.8,1.9
	c0.8,0.5,1.7,0.8,2.6,0.8c0.9,0.1,1.8-0.1,2.6-0.4c0.8-0.4,1.6-0.9,2.1-1.6c0.6-0.7,1-1.6,1.1-2.5c0.1-0.3,0.1-0.7,0.1-1
	c0-0.6-0.1-1.1-0.3-1.7c-0.3-0.9-0.8-1.7-1.4-2.3c-0.6-0.6-1.4-1.1-2.3-1.4c-0.5-0.2-0.8-0.7-0.7-1.2c0.2-0.5,0.7-0.8,1.2-0.7
	c1.2,0.4,2.3,1,3.2,1.9c0.1,0.1,0.2,0.2,0.3,0.3V17.5c0-0.6-0.2-1.2-0.7-1.6c-0.4-0.4-1-0.7-1.6-0.7c-0.6,0-1-0.5-1-1
	c0-0.6,0.5-1,1-1c0.8,0,1.6,0.2,2.3,0.7V4.3z M43.4,29.5c-0.1-0.4-0.2-0.7-0.4-1c-0.1,0.1-0.2,0.2-0.3,0.2c-1.1,0.8-2.5,1.2-3.9,1.2
	c-0.6,0-1-0.5-1-1s0.5-1,1-1c1,0,1.9-0.3,2.7-0.9c0.8-0.6,1.4-1.4,1.7-2.3c0.3-0.9,0.4-1.9,0.1-2.9c-0.3-0.9-0.8-1.8-1.6-2.4
	c0,0,0,0,0,0c-0.2-0.1-0.3-0.3-0.3-0.5c0,0,0-0.1,0-0.1c0-0.1,0-0.1,0-0.2c0,0,0,0,0,0c0,0,0-0.1,0-0.2c0-0.1,0-0.1,0-0.2
	c0.3-0.6,0.4-1.3,0.4-2c0-0.7-0.2-1.4-0.6-2c-0.3-0.6-0.8-1.2-1.3-1.6c-0.6-0.4-1.2-0.7-1.9-0.8c-0.7-0.1-1.4-0.1-2,0.1
	c-0.7,0.2-1.3,0.5-1.8,0.9c-0.5,0.4-1,1-1.3,1.6c-0.3,0.6-0.5,1.3-0.5,2c0,0.6-0.5,1-1,1c-0.6,0-1-0.4-1-1c0-1,0.2-2,0.6-2.9
	c0.4-0.9,1-1.7,1.8-2.3c0.8-0.6,1.7-1.1,2.6-1.3c0.3-0.1,0.7-0.1,1-0.2c0.2-0.3,0.3-0.7,0.4-1c0.1-0.4,0-0.8-0.1-1.2
	c-0.1-0.4-0.3-0.8-0.5-1.1C36,6.2,35.7,6,35.4,5.7c-0.3-0.2-0.7-0.3-1.1-0.4c-0.4-0.1-0.8,0-1.2,0.1C32.6,5.5,32.3,5.7,32,6
	c-0.3,0.2-0.6,0.6-0.8,0.9c-0.3,0.5-0.9,0.6-1.4,0.4c-0.5-0.3-0.6-0.9-0.4-1.4c0.3-0.6,0.8-1.1,1.3-1.5c0.4-0.3,0.8-0.5,1.2-0.7
	C29.7,2,27.5,2,27.4,2c0,0,0,0,0,0h-0.1c-0.6,0-1.2,0.3-1.6,0.7c-0.4,0.4-0.7,1-0.7,1.6v6.2c0.7-0.5,1.5-0.7,2.3-0.7
	c0.6,0,1,0.4,1,1c0,0.5-0.5,1-1,1c-0.6,0-1.2,0.2-1.6,0.7c-0.4,0.4-0.7,1-0.7,1.7v21.1c0.1-0.1,0.2-0.2,0.3-0.3
	c0.9-0.9,2-1.5,3.1-1.9c0.5-0.2,1.1,0.1,1.3,0.7c0.1,0.5-0.2,1.1-0.7,1.2c-0.9,0.2-1.7,0.7-2.3,1.4c-0.6,0.6-1.1,1.4-1.4,2.3
	c-0.3,0.9-0.3,1.8-0.2,2.7c0.2,0.9,0.6,1.7,1.1,2.5c0.6,0.7,1.3,1.3,2.1,1.6c0.8,0.4,1.8,0.5,2.7,0.4c0.9-0.1,1.8-0.4,2.5-0.8
	c0.8-0.5,1.4-1.2,1.8-1.9c0,0,0,0,0,0c0,0,0,0,0,0c0-0.1,0.1-0.1,0.1-0.2c0,0,0,0,0,0c0,0,0,0,0,0c0,0,0.1,0,0.1-0.1
	c0,0,0.1,0,0.1-0.1c0.1,0,0.1,0,0.2-0.1c1.4-0.4,2.6-1.2,3.4-2.5c0.7-1.2,1-2.5,0.8-3.9l0,0c0-0.1,0-0.2,0-0.3
	c-0.1-0.4,0.1-0.7,0.3-1c0,0,0.1-0.1,0.1-0.1c0.2-0.1,0.4-0.2,0.4-0.2c0.5-0.3,1-0.7,1.4-1.1c0.5-0.6,0.8-1.2,1-2
	C43.5,31,43.5,30.2,43.4,29.5z M18.3,28.8c-1.8,0-3.5,0.7-4.8,2c-1.2,1.2-1.9,2.8-2,4.6c-0.2,0-0.4,0-0.6,0c-0.6,0-1,0.4-1,1
	c0,0.5,0.5,1,1,1c0.5,0,0.9,0.1,1.4,0.2c0,0,0,0,0,0c0.7,0.2,1.4,0.6,2,1.2c0.9,0.9,1.4,2.1,1.4,3.4c0,0.6,0.4,1,1,1
	c0.6,0,1-0.4,1-1c0-1.8-0.7-3.5-2-4.8c-0.6-0.6-1.4-1.1-2.1-1.4c0-0.1,0-0.2,0-0.3c0-1.3,0.5-2.5,1.4-3.4c0.9-0.9,2.1-1.4,3.3-1.4
	c0.6,0,1-0.4,1-1C19.3,29.3,18.8,28.8,18.3,28.8z M38.6,19.6c0.7-1.1,1.1-2.4,1.1-3.7c0-0.6-0.4-1-1-1c-0.6,0-1,0.4-1,1
	c0,0.9-0.3,1.8-0.8,2.6c-0.5,0.8-1.2,1.4-2.1,1.7c-0.6,0.2-1.2,0.4-1.8,0.4H33c-0.3,0-0.5,0-0.8-0.1c-0.9-0.2-1.7-0.6-2.4-1.3
	c-0.4-0.4-1-0.4-1.4,0c-0.4,0.4-0.4,1,0,1.4c0.9,0.9,2.1,1.5,3.4,1.8c0.1,0,0.2,0,0.3,0c0.2,1,0.7,2,1.5,2.7c1,1,2.3,1.5,3.6,1.5
	c0.6,0,1-0.5,1-1c0-0.6-0.5-1-1-1c-0.8,0-1.6-0.3-2.2-0.9c-0.4-0.4-0.6-0.8-0.8-1.3c0.5-0.1,1-0.2,1.5-0.4
	C36.8,21.6,37.9,20.7,38.6,19.6z M21.3,20.1c-0.4-0.4-1-0.4-1.4,0c-0.7,0.7-1.5,1.1-2.4,1.3c-0.3,0-0.5,0.1-0.8,0.1h-0.1
	c-0.6,0-1.2-0.1-1.8-0.4c-0.9-0.4-1.6-1-2.1-1.7c-0.5-0.8-0.8-1.7-0.8-2.6c0-0.5-0.4-1-1-1c-0.6,0-1,0.5-1,1c0,1.3,0.4,2.6,1.1,3.7
	c0.7,1.1,1.8,2,3,2.5c0.5,0.2,1,0.4,1.5,0.4c-0.2,0.5-0.4,0.9-0.8,1.3c-0.6,0.6-1.4,0.9-2.2,0.9c-0.6,0-1,0.5-1,1s0.4,1,1,1
	c1.4,0,2.6-0.5,3.6-1.5c0.8-0.7,1.3-1.7,1.5-2.7c0.1,0,0.2,0,0.3,0c1.3-0.2,2.5-0.9,3.4-1.8C21.7,21.1,21.7,20.5,21.3,20.1z"/>
</svg>
