<?xml version="1.0" encoding="utf-8"?>
<!-- Generator: Adobe Illustrator 26.0.2, SVG Export Plug-In . SVG Version: 6.00 Build 0)  -->
<svg version="1.1" id="Layer_1" xmlns="http://www.w3.org/2000/svg" xmlns:xlink="http://www.w3.org/1999/xlink" x="0px" y="0px"
	 viewBox="0 0 48 48" style="enable-background:new 0 0 48 48;" xml:space="preserve">
<path d="M45,2H11c-0.5,0-1,0.5-1,1v5H4V1c0-0.5-0.5-1-1-1S2,0.5,2,1v46c0,0.5,0.5,1,1,1s1-0.5,1-1V32h6v5c0,0.5,0.5,1,1,1h34
	c0.5,0,1-0.5,1-1V3C46,2.5,45.5,2,45,2z M10,30H4V10h6V30z M44,36H12V4h32V36z M30.4,32h-4.9c-0.6,0-1.2-0.2-1.6-0.7
	c-0.4-0.4-0.6-1-0.6-1.6v-5.1h-5.1c-0.6,0-1.2-0.2-1.6-0.6s-0.7-1-0.7-1.6v-4.9c0-0.6,0.2-1.2,0.6-1.6s1-0.7,1.6-0.7h5.1v-5.1
	c0-0.6,0.2-1.2,0.7-1.6C24.4,8.2,25,8,25.6,8h4.9C31,8,31.6,8.2,32,8.7c0.4,0.4,0.6,1,0.6,1.6v5.1h5.1c0.6,0,1.2,0.2,1.6,0.6
	c0.4,0.4,0.7,1,0.7,1.6v4.9c0,0.6-0.2,1.2-0.6,1.6c-0.4,0.4-1,0.7-1.6,0.7h-5.1v5.1c0,0.6-0.2,1.2-0.7,1.6C31.6,31.8,31,32,30.4,32z
	 M18.2,17.3c-0.1,0-0.1,0-0.2,0.1c0,0-0.1,0.1-0.1,0.2v4.9c0,0.1,0,0.1,0.1,0.2c0,0,0.1,0.1,0.2,0.1h6.1c0.6,0,1,0.4,1,1v6.1
	c0,0.1,0,0.1,0.1,0.2c0,0,0.1,0.1,0.2,0.1h4.9c0.1,0,0.1,0,0.2-0.1c0,0,0.1-0.1,0.1-0.2v-6.1c0-0.6,0.4-1,1-1h6.1
	c0.1,0,0.1,0,0.2-0.1c0,0,0.1-0.1,0.1-0.2v-4.9c0-0.1,0-0.1-0.1-0.2c0,0-0.1-0.1-0.2-0.1h-6.1c-0.6,0-1-0.4-1-1v-6.1
	c0-0.1,0-0.1-0.1-0.2c0,0-0.1-0.1-0.2-0.1h-4.9c-0.1,0-0.1,0-0.2,0.1c0,0-0.1,0.1-0.1,0.2v6.1c0,0.6-0.4,1-1,1H18.2z"/>
</svg>
