<?xml version="1.0" encoding="utf-8"?>
<!-- Generator: Adobe Illustrator 26.0.2, SVG Export Plug-In . SVG Version: 6.00 Build 0)  -->
<svg version="1.1" id="Layer_1" xmlns="http://www.w3.org/2000/svg" xmlns:xlink="http://www.w3.org/1999/xlink" x="0px" y="0px"
	 viewBox="0 0 48 48" style="enable-background:new 0 0 48 48;" xml:space="preserve">
<path d="M37.1,48c-6,0-10.9-4.9-10.9-11c0-4.4-1.8-6.5-4-8.8c-2.2-2.5-4.8-5.4-4.8-11.2c0-8.5,6.8-15.5,15.2-15.5S48,8.4,48,16.9
	c0,0.6-0.4,1-1,1s-1-0.4-1-1c0-7.4-5.9-13.5-13.2-13.5S19.6,9.5,19.6,16.9c0,5.1,2.1,7.4,4.3,9.9s4.5,5,4.5,10.2c0,5,4,9,8.9,9
	s8.9-4.1,8.9-9c0-0.6,0.4-1,1-1s1,0.4,1,1C48,43.1,43.1,48,37.1,48z M8.4,38.3c-0.3,0-0.5-0.1-0.7-0.3C-2.5,27.6-2.5,10.7,7.7,0.3
	c0.4-0.4,1-0.4,1.4,0s0.4,1,0,1.4c-9.4,9.6-9.4,25.2,0,34.9c0.4,0.4,0.4,1,0,1.4C8.9,38.2,8.6,38.3,8.4,38.3z M14.6,32
	c-0.3,0-0.5-0.1-0.7-0.3c-6.8-6.9-6.8-18.1,0-25c0.4-0.4,1-0.4,1.4,0s0.4,1,0,1.4c-6,6.1-6,16.1,0,22.2c0.4,0.4,0.4,1,0,1.4
	C15.1,31.9,14.8,32,14.6,32z M35,31.3c-3,0-5.4-2.4-5.4-5.5c0-1.5-0.7-2.2-1.7-3.1c-1.2-1.2-2.7-2.6-2.7-5.8c0-4.2,3.4-7.7,7.6-7.7
	s7.6,3.4,7.6,7.7c0,0.6-0.4,1-1,1s-1-0.4-1-1c0-3.1-2.5-5.7-5.6-5.7s-5.6,2.6-5.6,5.7c0,2.4,1,3.3,2.1,4.4c1.1,1,2.3,2.2,2.3,4.5
	c0,1.9,1.5,3.5,3.4,3.5s3.4-1.6,3.4-3.5c0-0.6,0.4-1,1-1s1,0.4,1,1C40.3,28.8,37.9,31.3,35,31.3z"/>
</svg>
