<?xml version="1.0" encoding="utf-8"?>
<!-- Generator: Adobe Illustrator 26.0.2, SVG Export Plug-In . SVG Version: 6.00 Build 0)  -->
<svg version="1.1" id="Layer_1" xmlns="http://www.w3.org/2000/svg" xmlns:xlink="http://www.w3.org/1999/xlink" x="0px" y="0px"
	 viewBox="0 0 48 48" style="enable-background:new 0 0 48 48;" xml:space="preserve">
<path d="M37,36c-0.3-0.3-0.8-0.5-1.2-0.5c-0.3,0-0.7,0.1-1,0.3c-0.3,0.2-0.5,0.5-0.7,0.8c-0.1,0.3-0.2,0.7-0.1,1
	c0.1,0.3,0.2,0.7,0.5,0.9c0.2,0.2,0.6,0.4,0.9,0.5c0.3,0.1,0.7,0,1-0.1c0.3-0.1,0.6-0.4,0.8-0.7c0.2-0.3,0.3-0.6,0.3-1
	C37.5,36.8,37.3,36.3,37,36z M25,36c-0.3-0.3-0.8-0.5-1.2-0.5c-0.3,0-0.7,0.1-1,0.3c-0.3,0.2-0.5,0.5-0.7,0.8
	c-0.1,0.3-0.2,0.7-0.1,1c0.1,0.3,0.2,0.7,0.5,0.9c0.2,0.2,0.6,0.4,0.9,0.5c0.3,0.1,0.7,0,1-0.1c0.3-0.1,0.6-0.4,0.8-0.7
	c0.2-0.3,0.3-0.6,0.3-1C25.5,36.8,25.3,36.3,25,36z M13,36c-0.3-0.3-0.8-0.5-1.2-0.5c-0.3,0-0.7,0.1-1,0.3c-0.3,0.2-0.5,0.5-0.7,0.8
	c-0.1,0.3-0.2,0.7-0.1,1c0.1,0.3,0.2,0.7,0.5,0.9c0.2,0.2,0.6,0.4,0.9,0.5c0.3,0.1,0.7,0,1-0.1c0.3-0.1,0.6-0.4,0.8-0.7
	c0.2-0.3,0.3-0.6,0.3-1C13.5,36.8,13.3,36.3,13,36z M37,25c-0.3-0.3-0.8-0.5-1.2-0.5c-0.3,0-0.7,0.1-1,0.3c-0.3,0.2-0.5,0.5-0.7,0.8
	c-0.1,0.3-0.2,0.7-0.1,1c0.1,0.3,0.2,0.6,0.5,0.9c0.2,0.2,0.6,0.4,0.9,0.5c0.3,0.1,0.7,0,1-0.1c0.3-0.1,0.6-0.4,0.8-0.7
	c0.2-0.3,0.3-0.6,0.3-1C37.5,25.8,37.3,25.3,37,25z M25,25c-0.3-0.3-0.8-0.5-1.2-0.5c-0.3,0-0.7,0.1-1,0.3c-0.3,0.2-0.5,0.5-0.7,0.8
	c-0.1,0.3-0.2,0.7-0.1,1c0.1,0.3,0.2,0.6,0.5,0.9c0.2,0.2,0.6,0.4,0.9,0.5c0.3,0.1,0.7,0,1-0.1c0.3-0.1,0.6-0.4,0.8-0.7
	c0.2-0.3,0.3-0.6,0.3-1C25.5,25.8,25.3,25.3,25,25z M13,25c-0.3-0.3-0.8-0.5-1.2-0.5c-0.3,0-0.7,0.1-1,0.3c-0.3,0.2-0.5,0.5-0.7,0.8
	c-0.1,0.3-0.2,0.7-0.1,1c0.1,0.3,0.2,0.6,0.5,0.9c0.2,0.2,0.6,0.4,0.9,0.5c0.3,0.1,0.7,0,1-0.1c0.3-0.1,0.6-0.4,0.8-0.7
	c0.2-0.3,0.3-0.6,0.3-1C13.5,25.8,13.3,25.3,13,25z M34.5,27.5c0.2,0.2,0.6,0.4,0.9,0.5c0.3,0.1,0.7,0,1-0.1
	c0.3-0.1,0.6-0.4,0.8-0.7c0.2-0.3,0.3-0.6,0.3-1c0-0.5-0.2-0.9-0.5-1.2s-0.8-0.5-1.2-0.5c-0.3,0-0.7,0.1-1,0.3
	c-0.3,0.2-0.5,0.5-0.7,0.8c-0.1,0.3-0.2,0.7-0.1,1C34.1,26.9,34.3,27.2,34.5,27.5z M35.8,35.5c-0.3,0-0.7,0.1-1,0.3
	c-0.3,0.2-0.5,0.5-0.7,0.8c-0.1,0.3-0.2,0.7-0.1,1c0.1,0.3,0.2,0.7,0.5,0.9c0.2,0.2,0.6,0.4,0.9,0.5c0.3,0.1,0.7,0,1-0.1
	c0.3-0.1,0.6-0.4,0.8-0.7c0.2-0.3,0.3-0.6,0.3-1c0-0.5-0.2-0.9-0.5-1.2C36.7,35.7,36.2,35.5,35.8,35.5z M23.8,24.5
	c-0.3,0-0.7,0.1-1,0.3c-0.3,0.2-0.5,0.5-0.7,0.8c-0.1,0.3-0.2,0.7-0.1,1c0.1,0.3,0.2,0.6,0.5,0.9c0.2,0.2,0.6,0.4,0.9,0.5
	c0.3,0.1,0.7,0,1-0.1c0.3-0.1,0.6-0.4,0.8-0.7c0.2-0.3,0.3-0.6,0.3-1c0-0.5-0.2-0.9-0.5-1.2S24.2,24.5,23.8,24.5z M23.8,35.5
	c-0.3,0-0.7,0.1-1,0.3c-0.3,0.2-0.5,0.5-0.7,0.8c-0.1,0.3-0.2,0.7-0.1,1c0.1,0.3,0.2,0.7,0.5,0.9c0.2,0.2,0.6,0.4,0.9,0.5
	c0.3,0.1,0.7,0,1-0.1c0.3-0.1,0.6-0.4,0.8-0.7c0.2-0.3,0.3-0.6,0.3-1c0-0.5-0.2-0.9-0.5-1.2C24.7,35.7,24.2,35.5,23.8,35.5z
	 M11.8,24.5c-0.3,0-0.7,0.1-1,0.3c-0.3,0.2-0.5,0.5-0.7,0.8c-0.1,0.3-0.2,0.7-0.1,1c0.1,0.3,0.2,0.6,0.5,0.9
	c0.2,0.2,0.6,0.4,0.9,0.5c0.3,0.1,0.7,0,1-0.1c0.3-0.1,0.6-0.4,0.8-0.7c0.2-0.3,0.3-0.6,0.3-1c0-0.5-0.2-0.9-0.5-1.2
	S12.2,24.5,11.8,24.5z M11.8,35.5c-0.3,0-0.7,0.1-1,0.3c-0.3,0.2-0.5,0.5-0.7,0.8c-0.1,0.3-0.2,0.7-0.1,1c0.1,0.3,0.2,0.7,0.5,0.9
	c0.2,0.2,0.6,0.4,0.9,0.5c0.3,0.1,0.7,0,1-0.1c0.3-0.1,0.6-0.4,0.8-0.7c0.2-0.3,0.3-0.6,0.3-1c0-0.5-0.2-0.9-0.5-1.2
	C12.7,35.7,12.2,35.5,11.8,35.5z M44.5,6.5H36v-4c0-0.5-0.5-1-1-1s-1,0.5-1,1v4H14v-4c0-0.5-0.5-1-1-1s-1,0.5-1,1v4H3.5
	C1.6,6.5,0,8.1,0,10v33c0,1.9,1.6,3.5,3.5,3.5h41c1.9,0,3.5-1.6,3.5-3.5V10C48,8.1,46.4,6.5,44.5,6.5z M2,10c0-0.8,0.7-1.5,1.5-1.5
	H12v4c0,0.5,0.5,1,1,1s1-0.5,1-1v-4h20v4c0,0.5,0.5,1,1,1s1-0.5,1-1v-4h8.5c0.8,0,1.5,0.7,1.5,1.5v6.9H2V10z M46,43
	c0,0.8-0.7,1.5-1.5,1.5h-41C2.7,44.5,2,43.8,2,43V18.9h44V43z"/>
</svg>
