<?xml version="1.0" encoding="utf-8"?>
<!-- Generator: Adobe Illustrator 26.0.2, SVG Export Plug-In . SVG Version: 6.00 Build 0)  -->
<svg version="1.1" id="Layer_1" xmlns="http://www.w3.org/2000/svg" xmlns:xlink="http://www.w3.org/1999/xlink" x="0px" y="0px"
	 viewBox="0 0 48 48" style="enable-background:new 0 0 48 48;" xml:space="preserve">
<path d="M47.4,7.9c-0.4-0.7-1-1.2-1.8-1.5C44.9,6,44.1,5.9,43.3,6L3.5,12c-0.9,0.1-1.7,0.6-2.3,1.2c-0.6,0.6-1,1.5-1.1,2.3
	c-0.1,0.9,0.1,1.8,0.5,2.6c0.4,0.8,1.1,1.4,1.9,1.7l9,3.9L8,31.5c-0.3,0.7-0.4,1.4-0.3,2.2c0.1,0.7,0.4,1.4,0.8,2
	c0.5,0.6,1.1,1,1.8,1.3c0.4,0.2,0.9,0.2,1.4,0.2c0.2,0,0.5,0,0.8-0.1l6-1.2l1.1,4.9c0.2,0.8,0.6,1.5,1.1,2c0.6,0.5,1.3,0.9,2.1,1
	c0.2,0,0.5,0.1,0.7,0.1c0.5,0,1.1-0.1,1.6-0.3c0.7-0.3,1.3-0.8,1.8-1.5l20.4-29.9c0.4-0.7,0.7-1.4,0.7-2.2C48,9.3,47.8,8.5,47.4,7.9
	z M3.2,18c-0.4-0.2-0.8-0.5-1-0.9S2,16.2,2,15.8c0.1-0.4,0.3-0.9,0.6-1.2s0.7-0.5,1.2-0.6l39.9-6c0.4-0.1,0.8,0,1.2,0.2
	c0,0,0.1,0,0.1,0.1L17,23.9h-0.1l-4-1.8L3.2,18z M18,34.1l-5.9,1.1c-0.4,0.1-0.8,0-1.1-0.1c-0.4-0.1-0.7-0.4-0.9-0.7s-0.4-0.6-0.4-1
	s0-0.8,0.2-1.1l3.4-7.8l0,0l2.8,1.2L18,34.1L18,34.1z M45.6,11.2L25.3,41.1c-0.2,0.3-0.5,0.6-0.9,0.8C24,42,23.6,42.1,23.2,42
	s-0.8-0.2-1-0.5c-0.3-0.3-0.5-0.6-0.6-1l-1.3-5.6l0,0l-2.1-9.3l0,0L46,9.9c0,0,0,0.1,0,0.2C46,10.5,45.9,10.9,45.6,11.2z"/>
</svg>
