<?xml version="1.0" encoding="utf-8"?>
<!-- Generator: Adobe Illustrator 26.0.2, SVG Export Plug-In . SVG Version: 6.00 Build 0)  -->
<svg version="1.1" id="Layer_1" xmlns="http://www.w3.org/2000/svg" xmlns:xlink="http://www.w3.org/1999/xlink" x="0px" y="0px"
	 viewBox="0 0 48 48" style="enable-background:new 0 0 48 48;" xml:space="preserve">
<path d="M45.8,18.1c-0.1-0.3-0.3-0.5-0.6-0.6s-0.6-0.1-0.8,0c-0.9,0.5-1.9,0.7-2.9,0.7c-0.8,0-1.6-0.2-2.4-0.5
	c-0.8-0.3-1.5-0.8-2.1-1.4s-1-1.3-1.4-2.1c-0.3-0.8-0.5-1.6-0.5-2.4c0-0.4-0.2-0.7-0.6-0.9c-0.3-0.2-0.8-0.1-1,0.1
	c-1.1,0.8-2.4,1.3-3.8,1.3c-1,0-2.1-0.3-3-0.8s-1.7-1.2-2.3-2.1c-0.6-0.9-0.9-1.9-1-2.9s0.1-2.1,0.5-3c0.1-0.3,0.1-0.7-0.1-1
	s-0.5-0.4-0.9-0.4C18.2,2.3,13.7,4,9.9,7S3.3,14,2,18.6s-1.2,9.5,0.4,14C4,37.2,6.9,41,10.9,43.8C14.7,46.6,19.3,48,24,48h0.3
	c4.8-0.1,9.4-1.6,13.3-4.5s6.7-6.8,8.2-11.4S47.3,22.7,45.8,18.1z M43.9,31.5c-1.4,4.2-4,7.8-7.5,10.4c-3.5,2.6-7.8,4-12.2,4.1
	s-8.6-1.2-12.2-3.8c-3.6-2.5-6.3-6-7.8-10.2s-1.6-8.6-0.3-12.8c1.2-4.2,3.7-7.9,7.2-10.6c3.1-2.4,6.7-3.9,10.6-4.3
	c-0.2,0.8-0.2,1.7-0.2,2.5c0.1,1.4,0.6,2.7,1.3,3.8c0.8,1.1,1.8,2.1,3,2.8c1.2,0.6,2.6,1,3.9,1l0,0c1.2,0,2.4-0.3,3.5-0.8
	c0.1,0.5,0.3,1,0.5,1.5c0.4,1,1,1.9,1.8,2.7c0.8,0.8,1.7,1.4,2.7,1.8s2.1,0.6,3.2,0.6l0,0c0.9,0,1.8-0.2,2.7-0.5
	C45.3,23.6,45.2,27.7,43.9,31.5z M15.2,27.5c-0.7,0-1.4-0.1-2.1-0.4s-1.2-0.7-1.7-1.2s-0.9-1.1-1.2-1.7s-0.4-1.4-0.4-2.1
	s0.1-1.4,0.4-2.1s0.7-1.2,1.2-1.7s1.1-0.9,1.8-1.2c1.3-0.5,2.8-0.5,4.1,0c0.7,0.3,1.2,0.7,1.7,1.2s0.9,1.1,1.2,1.7
	c0.3,0.7,0.4,1.4,0.4,2.1s-0.1,1.4-0.4,2.1s-0.7,1.2-1.2,1.7s-1.1,0.9-1.8,1.2C16.6,27.4,15.9,27.5,15.2,27.5z M15.2,18.8
	c-0.4,0-0.9,0.1-1.3,0.3c-0.4,0.2-0.8,0.4-1.1,0.7c-0.3,0.3-0.6,0.7-0.7,1.1c-0.2,0.4-0.3,0.8-0.3,1.3c0,0.4,0.1,0.9,0.3,1.3
	s0.4,0.8,0.7,1.1c0.3,0.3,0.7,0.6,1.1,0.7c0.8,0.3,1.8,0.3,2.6,0c0.4-0.2,0.8-0.4,1.1-0.7c0.3-0.3,0.6-0.7,0.7-1.1
	c0.2-0.4,0.3-0.9,0.3-1.3s-0.1-0.9-0.3-1.3c-0.2-0.4-0.4-0.8-0.7-1.1c-0.3-0.3-0.7-0.6-1.1-0.7C16.1,18.8,15.6,18.8,15.2,18.8z
	 M28.4,39.2c-1,0-2-0.4-2.8-1.2c-0.7-0.7-1.2-1.7-1.2-2.8s0.4-2,1.2-2.8c0.7-0.7,1.7-1.2,2.8-1.2c1,0,2,0.4,2.8,1.2
	c0.7,0.7,1.2,1.7,1.2,2.8s-0.4,2-1.2,2.8C30.4,38.8,29.4,39.2,28.4,39.2z M28.4,33.4c-0.5,0-1,0.2-1.4,0.6c-0.4,0.4-0.6,0.8-0.6,1.4
	s0.2,1,0.6,1.4c0.7,0.7,2,0.7,2.7,0c0.4-0.4,0.6-0.8,0.6-1.4s-0.2-1-0.6-1.4C29.4,33.6,28.9,33.4,28.4,33.4z M15.8,34.7
	c-0.1,0.3-0.2,0.6-0.4,0.8s-0.5,0.4-0.8,0.4c-0.1,0-0.2,0-0.3,0c-0.2,0-0.4,0-0.6-0.1c-0.3-0.1-0.5-0.3-0.7-0.6s-0.3-0.6-0.3-0.9
	c0-0.4,0.2-0.8,0.5-1.1c0.5-0.5,1.4-0.6,2-0.2c0.3,0.2,0.5,0.4,0.6,0.7C15.9,34.1,15.9,34.4,15.8,34.7z M27.6,21.3
	c0,0.3-0.1,0.6-0.3,0.9c-0.2,0.2-0.4,0.4-0.7,0.5c-0.2,0.1-0.4,0.1-0.5,0.1s-0.2,0-0.4,0c-0.3-0.1-0.6-0.2-0.8-0.5
	c-0.2-0.2-0.3-0.5-0.4-0.8c0-0.2,0-0.4,0-0.6s0.1-0.4,0.2-0.6s0.3-0.3,0.4-0.4c0.2-0.1,0.4-0.2,0.6-0.2c0.3-0.1,0.6,0,0.9,0.1
	s0.5,0.3,0.7,0.6C27.5,20.7,27.6,21,27.6,21.3z M43,1.6c0,0.3-0.1,0.6-0.3,0.8S42.3,2.8,42,2.9C41.8,3,41.7,3,41.5,3
	c-0.1,0-0.2,0-0.4-0.1c-0.3-0.1-0.6-0.2-0.8-0.4S39.9,2,39.9,1.7c-0.1-0.4,0-0.8,0.3-1.2c0.2-0.3,0.6-0.6,1-0.6c0.3,0,0.6,0,0.9,0.1
	c0.3,0.1,0.5,0.3,0.7,0.6C42.9,1,43,1.3,43,1.6z M46.3,10.8c0,0.3-0.1,0.6-0.3,0.9c-0.2,0.3-0.4,0.4-0.7,0.5
	c-0.2,0.1-0.4,0.1-0.5,0.1s-0.2,0-0.4,0c-0.3-0.1-0.6-0.2-0.8-0.5c-0.2-0.2-0.3-0.5-0.4-0.8c-0.1-0.4,0-0.8,0.3-1.2s0.6-0.6,1-0.6
	c0.1,0,0.2,0,0.2,0c0.2,0,0.4,0,0.7,0.2c0.3,0.1,0.5,0.3,0.7,0.6C46.3,10.2,46.3,10.5,46.3,10.8z M39.7,27.7c0,0.3-0.1,0.6-0.3,0.9
	c-0.2,0.2-0.4,0.4-0.7,0.5c-0.2,0.1-0.3,0.1-0.5,0.1c-0.1,0-0.2,0-0.4-0.1c-0.3-0.1-0.6-0.2-0.8-0.4c-0.2-0.2-0.3-0.5-0.4-0.8
	c-0.1-0.4,0-0.8,0.3-1.2c0.2-0.3,0.6-0.6,1-0.6c0.3,0,0.6,0,0.9,0.1c0.3,0.1,0.5,0.3,0.7,0.6C39.6,27.1,39.7,27.4,39.7,27.7z
	 M30.7,7.4c0,0.3-0.1,0.6-0.3,0.9c-0.2,0.3-0.4,0.5-0.7,0.6C29.5,9,29.3,9,29.1,9c-0.1,0-0.2,0-0.3,0c-0.3-0.1-0.6-0.2-0.8-0.5
	c-0.2-0.2-0.4-0.5-0.4-0.8c-0.1-0.4,0-0.8,0.3-1.2c0.2-0.3,0.6-0.6,1-0.6c0.3,0,0.6,0,0.9,0.1c0.2,0,0.5,0.3,0.6,0.5
	C30.6,6.8,30.7,7.1,30.7,7.4z"/>
</svg>
