<?xml version="1.0" encoding="utf-8"?>
<!-- Generator: Adobe Illustrator 26.0.2, SVG Export Plug-In . SVG Version: 6.00 Build 0)  -->
<svg version="1.1" id="Layer_1" xmlns="http://www.w3.org/2000/svg" xmlns:xlink="http://www.w3.org/1999/xlink" x="0px" y="0px"
	 viewBox="0 0 48 48" style="enable-background:new 0 0 48 48;" xml:space="preserve">
<path d="M34.3,31.4c-0.1,0-0.2,0-0.3-0.1c-0.5-0.2-0.8-0.8-0.6-1.3c0.2-0.4,0.2-0.9,0.1-1.4c-0.1-0.5-0.2-0.9-0.5-1.3
	s-0.6-0.7-1-0.9c-0.4-0.2-0.9-0.3-1.3-0.3c-0.6,0-1-0.4-1-1s0.4-1,1-1c0.8,0,1.6,0.2,2.3,0.5c0.7,0.4,1.3,0.9,1.8,1.5
	s0.8,1.4,0.9,2.2c0.1,0.8,0,1.6-0.2,2.3C35.1,31.2,34.7,31.4,34.3,31.4z M47.8,9.2c-0.2-0.6-0.9-1.5-2.6-1.5H30.4
	c0.1-0.4,0.1-0.8,0.1-1.2c0-1.7-0.7-3.4-1.9-4.6C27.4,0.7,25.7,0,24,0s-3.4,0.7-4.6,1.9s-1.9,2.9-1.9,4.6c0,0.4,0,0.8,0.1,1.2H2.8
	c-1.7,0-2.3,0.9-2.6,1.5c-0.7,1.6,0.2,4,2.3,6.1c2.1,2.2,5.5,4,9.5,4c1.6,0,3.2-0.3,5-1c0.5-0.2,0.8-0.8,0.6-1.3
	c-0.2-0.5-0.8-0.8-1.3-0.6C9.7,19.1,5.2,15.2,4,13.9c-1.7-1.8-2.2-3.4-1.9-4c0-0.1,0.1-0.3,0.7-0.3h15.6c0.3,0.5,0.6,1,1.1,1.4
	c1,1,2.2,1.6,3.6,1.8V32h-5.5c-0.8,0-1.5-0.4-2.1-0.9c-0.6-0.6-0.9-1.3-0.9-2.1c0-0.8,0.3-1.5,0.9-2c0.5-0.5,1.3-0.8,2-0.8l0,0
	c0.5,0,1-0.4,1-1s-0.4-1-1-1l0,0c-1.3,0-2.5,0.5-3.4,1.4s-1.4,2.1-1.5,3.5c0,1.3,0.5,2.5,1.4,3.5c0.9,1,2.1,1.5,3.5,1.5H23V40h-2.3
	c-1.2,0-2.3,0.5-3,1.4c-0.8,0.8-1.2,1.9-1.2,3.1c0,0.6,0.1,1.2,0.4,1.8c0.2,0.6,0.6,1.1,1,1.5c0.2,0.2,0.4,0.3,0.7,0.3
	c0.3,0,0.5-0.1,0.7-0.3c0.4-0.4,0.4-1,0-1.4c-0.2-0.2-0.4-0.5-0.6-0.8c-0.1-0.3-0.2-0.7-0.2-1c0-0.6,0.2-1.2,0.7-1.7
	c0.4-0.5,1-0.7,1.6-0.7H23v5c0,0.5,0.5,1,1,1s1-0.5,1-1v-5h2.9c1.3,0,2.6-0.5,3.5-1.4s1.5-2.2,1.5-3.5s-0.5-2.5-1.5-3.5
	s-2.2-1.4-3.5-1.4H25V12.9c1.3-0.2,2.6-0.8,3.6-1.8c0.4-0.4,0.8-0.9,1.1-1.4h15.6c0.6,0,0.7,0.2,0.7,0.3c0.2,0.5-0.2,2.2-1.9,4
	c-1.2,1.2-5.7,5.2-12.3,2.6c-0.5-0.2-1.1,0.1-1.3,0.6c-0.2,0.5,0.1,1.1,0.6,1.3c1.7,0.7,3.4,1,5,1c4,0,7.4-1.9,9.5-4
	C47.5,13.1,48.5,10.7,47.8,9.2z M27.9,34.1c0.8,0,1.5,0.3,2.1,0.8c0.5,0.6,0.9,1.3,0.9,2.1s-0.3,1.5-0.9,2.1S28.7,40,27.9,40H25
	v-5.8h2.9V34.1z M28.1,8.3c-0.2,0.5-0.5,1-0.9,1.4c-0.8,0.8-2,1.3-3.2,1.3s-2.3-0.5-3.2-1.3c-0.4-0.4-0.7-0.9-1-1.4
	c-0.2-0.6-0.4-1.2-0.4-1.8c0-1.2,0.5-2.3,1.3-3.2C21.7,2.5,22.8,2,24,2s2.3,0.5,3.2,1.3c0.8,0.8,1.3,2,1.3,3.2
	C28.5,7.1,28.4,7.7,28.1,8.3z"/>
</svg>
