<?xml version="1.0" encoding="utf-8"?>
<!-- Generator: Adobe Illustrator 26.0.2, SVG Export Plug-In . SVG Version: 6.00 Build 0)  -->
<svg version="1.1" id="Layer_1" xmlns="http://www.w3.org/2000/svg" xmlns:xlink="http://www.w3.org/1999/xlink" x="0px" y="0px"
	 viewBox="0 0 48 48" style="enable-background:new 0 0 48 48;" xml:space="preserve">
<path d="M23.5,44.7c-0.3,0-0.7-0.1-1-0.2c-0.3-0.1-0.6-0.3-0.8-0.6l-9-9.4c-0.4-0.4-0.4-1,0-1.4s1-0.4,1.4,0l9,9.4
	c0,0,0.1,0.1,0.2,0.1c0.1,0.1,0.3,0.1,0.4,0c0.1,0,0.1-0.1,0.2-0.1l9-9.4c0.4-0.4,1-0.4,1.4,0s0.4,1,0,1.4l-9,9.4
	c-0.2,0.2-0.5,0.4-0.8,0.6C24.2,44.6,23.8,44.7,23.5,44.7z M2.4,22.9c-0.4,0-0.7-0.2-0.9-0.5c-1-1.7-1.5-3.7-1.6-5.7
	c0-2,0.4-4,1.3-5.8c1-1.8,2.3-3.3,3.8-4.5c1.6-1.2,3.4-1.9,5.3-2.2s3.9-0.2,5.8,0.4s3.6,1.6,4.9,3l2.4,2.4l2.4-2.4
	c1.4-1.4,3.1-2.4,4.9-3c1.9-0.6,3.8-0.7,5.8-0.4c1.9,0.3,3.8,1.1,5.3,2.2c1.6,1.2,2.9,2.7,3.7,4.4c0.9,1.8,1.3,3.8,1.3,5.8
	s-0.6,4-1.6,5.7c-0.3,0.5-0.9,0.7-1.4,0.4c-0.5-0.3-0.7-0.9-0.4-1.4c0.8-1.5,1.3-3.1,1.3-4.8s-0.3-3.4-1.1-4.9
	C43.2,10.3,42.1,9,40.8,8s-2.9-1.6-4.5-1.9C34.7,5.9,33,6,31.5,6.5c-1.6,0.5-3,1.4-4.1,2.5l-3.1,3.1c-0.4,0.4-1,0.4-1.4,0L19.7,9
	c-1.2-1.2-2.6-2-4.1-2.5C14,6,12.3,5.9,10.7,6.1C9.1,6.4,7.5,7.1,6.2,8c-1.3,1-2.4,2.2-3.1,3.7C2.3,13.2,2,14.9,2,16.6
	s0.5,3.3,1.3,4.8c0.3,0.5,0.1,1.1-0.4,1.4C2.8,22.8,2.6,22.9,2.4,22.9z M23.6,33.4L23.6,33.4c-0.5,0-0.8-0.1-1.1-0.4
	c-0.3-0.2-0.5-0.5-0.6-0.8l-3.2-10.6l-3.2,6.3c-0.1,0.3-0.4,0.5-0.6,0.7c-0.3,0.2-0.6,0.3-0.9,0.3H1c-0.6,0-1-0.4-1-1s0.4-1,1-1
	h12.9l3.4-6.8c0.1-0.3,0.4-0.6,0.7-0.7c0.3-0.2,0.7-0.3,1-0.2c0.4,0,0.7,0.2,1,0.4c0.3,0.2,0.5,0.5,0.6,0.9L23.8,31l2.9-6.7
	c0.1-0.3,0.3-0.5,0.6-0.7c0.3-0.2,0.6-0.3,0.9-0.3s0.6,0,0.9,0.2c0.3,0.1,0.5,0.3,0.7,0.6l1.9,2.9H46c0.6,0,1,0.4,1,1s-0.4,1-1,1H31
	c-0.3,0-0.6-0.2-0.8-0.4l-2-3l-3,6.9c-0.2,0.3-0.4,0.6-0.7,0.8C24.3,33.3,24,33.4,23.6,33.4z M19.1,21L19.1,21L19.1,21z M18.6,21
	L18.6,21L18.6,21z"/>
</svg>
