<?xml version="1.0" encoding="utf-8"?>
<!-- Generator: Adobe Illustrator 26.0.2, SVG Export Plug-In . SVG Version: 6.00 Build 0)  -->
<svg version="1.1" id="Layer_1" xmlns="http://www.w3.org/2000/svg" xmlns:xlink="http://www.w3.org/1999/xlink" x="0px" y="0px"
	 viewBox="0 0 48 48" style="enable-background:new 0 0 48 48;" xml:space="preserve">
<path d="M41.9,17.9c0-4.8-1.9-9.3-5.2-12.6C33.3,1.9,28.8,0,24,0s-9.3,1.9-12.6,5.2C8,8.6,6.1,13.1,6.1,17.9s1.9,9.3,5.2,12.6
	c1.2,1.2,2.5,2.1,3.8,2.9l-2.9,13.4c-0.1,0.4,0.1,0.8,0.4,1c0.3,0.2,0.8,0.2,1.1,0.1L24,42l10.2,5.9c0.2,0.1,0.3,0.1,0.5,0.1
	s0.4-0.1,0.6-0.2c0.3-0.2,0.5-0.6,0.4-1l-2.9-13.4c1.4-0.8,2.7-1.8,3.8-2.9C40,27.1,41.9,22.6,41.9,17.9z M33.3,45l-8.8-5
	c-0.3-0.2-0.7-0.2-1,0l-8.8,5L17,34.3c2.2,0.9,4.5,1.4,7,1.4s4.8-0.5,7-1.4L33.3,45z M31.3,32c-0.1,0-0.1,0.1-0.2,0.1
	c-2.2,1.1-4.6,1.7-7.1,1.7s-5-0.6-7.1-1.7c0,0-0.1-0.1-0.2-0.1c-1.4-0.7-2.8-1.7-3.9-2.9c-3-3-4.7-7-4.7-11.2s1.7-8.2,4.7-11.2
	s7-4.6,11.2-4.6s8.2,1.6,11.2,4.6s4.7,7,4.7,11.2s-1.7,8.2-4.7,11.2C34,30.2,32.7,31.2,31.3,32z M18.1,27c-0.1,0-0.1,0-0.2,0
	c-0.5,0-0.9-0.2-1.2-0.5c-0.3-0.3-0.6-0.7-0.7-1.2s-0.1-0.9,0.1-1.3l1.9-4.5L14.5,16c-0.3-0.3-0.5-0.7-0.6-1.1
	c-0.1-0.4,0-0.9,0.1-1.3c0.2-0.4,0.5-0.8,0.8-1c0.4-0.2,0.8-0.3,1.2-0.4h3.7L22,7.8c0.2-0.4,0.5-0.7,0.8-0.9c0.7-0.4,1.6-0.4,2.3,0
	c0.3,0.2,0.6,0.5,0.8,0.9l0,0l2.3,4.5H32c0.4,0,0.8,0.1,1.2,0.4c0.4,0.2,0.7,0.6,0.8,1c0.2,0.4,0.2,0.8,0.1,1.3
	c-0.1,0.4-0.3,0.8-0.6,1.1L30,19.5l1.9,4.5c0.2,0.4,0.2,0.9,0.1,1.4s-0.3,0.9-0.7,1.2c-0.3,0.3-0.8,0.5-1.2,0.5
	c-0.5,0-0.9-0.1-1.3-0.3L24,24l-4.9,2.7C18.8,26.9,18.4,27,18.1,27z M16,14.3c-0.1,0-0.1,0-0.1,0s-0.1,0-0.1,0.1v0.1
	c0,0,0,0.1,0.1,0.1l4,3.9c0.3,0.3,0.4,0.7,0.2,1.1l-2.2,5.1v0.1c0,0,0,0.1,0.1,0.1c0,0,0.1,0,0.1,0.1h0.1l5.4-3c0.3-0.2,0.7-0.2,1,0
	l5.3,3H30h0.1l0.1-0.1v-0.1L28,19.7c-0.2-0.4-0.1-0.8,0.2-1.1l4-3.9l0.1-0.1v-0.1c0,0,0-0.1-0.1-0.1h-0.1h-4.4
	c-0.4,0-0.7-0.2-0.9-0.5l-2.5-5c0,0,0-0.1-0.1-0.1s-0.2,0-0.2,0l-0.1,0.1l-2.5,5c-0.2,0.3-0.5,0.5-0.9,0.5H16
	C16,14.3,16,14.3,16,14.3z"/>
</svg>
