<?xml version="1.0" encoding="utf-8"?>
<!-- Generator: Adobe Illustrator 26.0.2, SVG Export Plug-In . SVG Version: 6.00 Build 0)  -->
<svg version="1.1" id="Layer_1" xmlns="http://www.w3.org/2000/svg" xmlns:xlink="http://www.w3.org/1999/xlink" x="0px" y="0px"
	 viewBox="0 0 48 48" style="enable-background:new 0 0 48 48;" xml:space="preserve">
<path d="M30,48H4c-0.4,0-0.8-0.3-0.9-0.7c-0.1-0.4,0-0.9,0.3-1.1L3.6,46C5.7,44.4,7,41.9,7,39.3V6c0-3.3,2.7-6,6-6h26h0.1
	c3,0.1,5.6,2.3,5.9,5.4c0,0.2,0,0.4,0,0.6v7c0,1.7-1.3,3-3,3h-7v23.3c0,3.3-1.6,6.4-4.2,8.4l-0.2,0.2C30.4,47.9,30.2,48,30,48z
	 M6.5,46h23.1c2.1-1.6,3.3-4.1,3.3-6.7v-33c0-1.6,0.6-3.1,1.6-4.3H13c-2.2,0-4,1.8-4,4v33.3C9,41.7,8.1,44.1,6.5,46z M35,14h7
	c0.6,0,1-0.4,1-1V6c0-0.1,0-0.3,0-0.4C42.8,3.5,41,2,39,2l0,0h-0.1c-0.1,0-0.2,0-0.3,0C36.5,2.3,35,4.1,35,6.3V14z M18,10h-5
	c-0.6,0-1-0.4-1-1s0.4-1,1-1h5c0.6,0,1,0.4,1,1S18.6,10,18,10z M28,16H17c-0.6,0-1-0.4-1-1s0.4-1,1-1h11c0.6,0,1,0.4,1,1
	S28.6,16,28,16z M28,22H13c-0.6,0-1-0.4-1-1s0.4-1,1-1h15c0.6,0,1,0.4,1,1S28.6,22,28,22z M28,28H13c-0.6,0-1-0.4-1-1s0.4-1,1-1h15
	c0.6,0,1,0.4,1,1S28.6,28,28,28z M28,34H13c-0.6,0-1-0.4-1-1s0.4-1,1-1h15c0.6,0,1,0.4,1,1S28.6,34,28,34z M22,40h-9
	c-0.6,0-1-0.4-1-1s0.4-1,1-1h9c0.6,0,1,0.4,1,1S22.6,40,22,40z"/>
</svg>
