<?xml version="1.0" encoding="utf-8"?>
<!-- Generator: Adobe Illustrator 26.0.2, SVG Export Plug-In . SVG Version: 6.00 Build 0)  -->
<svg version="1.1" id="Layer_1" xmlns="http://www.w3.org/2000/svg" xmlns:xlink="http://www.w3.org/1999/xlink" x="0px" y="0px"
	 viewBox="0 0 48 48" style="enable-background:new 0 0 48 48;" xml:space="preserve">
<path d="M24,0C10.8,0,0,10.8,0,24s10.8,24,24,24s24-10.8,24-24S37.2,0,24,0z M24,46C11.9,46,2,36.1,2,24S11.9,2,24,2s22,9.9,22,22
	S36.1,46,24,46z M37.2,39.2c-0.1,0.1-0.3,0.1-0.4,0.1c-0.4,0-0.7-0.2-0.9-0.6c-3.1-6.6-11-9.4-17.7-6.3c-2.8,1.3-5,3.5-6.3,6.3
	c-0.2,0.5-0.8,0.7-1.3,0.5s-0.7-0.8-0.5-1.3c1.5-3.2,4.1-5.8,7.3-7.3c7.6-3.6,16.7-0.3,20.3,7.3C37.9,38.4,37.7,39,37.2,39.2z
	 M23.9,8c-5.3,0-9.7,4.3-9.7,9.7c0,5.3,4.3,9.7,9.7,9.7c5.3,0,9.7-4.3,9.7-9.7S29.2,8,23.9,8z M23.9,25.3c-4.2,0-7.7-3.4-7.7-7.7
	s3.4-7.7,7.7-7.7c4.2,0,7.7,3.4,7.7,7.7S28.1,25.3,23.9,25.3z"/>
</svg>
