<?xml version="1.0" encoding="utf-8"?>
<!-- Generator: Adobe Illustrator 26.0.2, SVG Export Plug-In . SVG Version: 6.00 Build 0)  -->
<svg version="1.1" id="Layer_1" xmlns="http://www.w3.org/2000/svg" xmlns:xlink="http://www.w3.org/1999/xlink" x="0px" y="0px"
	 viewBox="0 0 48 48" style="enable-background:new 0 0 48 48;" xml:space="preserve">
<path d="M47.9,22.3L47.9,22.3c0,0,0,0.1,0,0.2C47.9,22.4,47.9,22.3,47.9,22.3z M48,22.5C48,22.5,47.9,22.5,48,22.5
	c0-0.1,0-0.2,0-0.2l0,0C47.9,22.3,48,22.4,48,22.5z M48,22.5C48,22.5,47.9,22.5,48,22.5c0-0.1,0-0.2,0-0.2l0,0
	C47.9,22.3,48,22.4,48,22.5z M48,22.5L48,22.5C48,22.5,47.9,22.5,48,22.5c0-0.1,0-0.2,0-0.2l0,0c-0.2-3.1-1-6.2-2.5-9
	c-2.2-4.4-5.7-8-10-10.3c-4.3-2.4-9.2-3.3-14.1-2.8C16.5,0.7,12,2.6,8.3,5.9C4.6,9.1,2,13.3,0.7,18.1c-1.2,4.8-0.9,9.7,0.8,14.3
	s4.8,8.5,8.8,11.3c2.4,1.7,5,2.9,7.8,3.6h0.1C20.1,47.8,22,48,24,48l0,0c1.1,0,2.3-0.1,3.4-0.2c0.5-0.1,0.9-0.6,0.9-1.1
	c-0.1-0.6-0.6-0.9-1.1-0.9c-1,0.1-2.1,0.2-3.1,0.2l0,0c-1.7,0-3.3-0.2-4.9-0.6c-1.6-2.4-2.8-5.8-3.6-9.7H21c0.5,0,1-0.5,1-1
	s-0.5-1-1-1h-5.9c-0.5-3-0.8-6.3-0.8-9.7c0-0.2,0-0.4,0-0.5h8.2c0.6,0,1-0.5,1-1s-0.4-1-1-1h-8.1c0.1-3.7,0.6-7.2,1.4-10.3h16.6
	c0.7,2.9,1.2,6.2,1.3,9.7c0,0.2,0,0.4,0,0.6h-0.5c-0.5,0-1,0.5-1,1s0.5,1,1,1h1.5l0,0H46c0,1.2,0,2.4-0.2,3.6
	c-0.1,0.5,0.3,1.1,0.8,1.1c0.5,0.1,1.1-0.3,1.1-0.9C48,25.8,48,24.1,48,22.5z M2.7,18.6c0.7-2.7,1.8-5.2,3.4-7.4h7.5
	c-0.7,3.1-1.2,6.6-1.3,10.3H2.1C2.2,20.5,2.4,19.5,2.7,18.6z M3.4,31.7c-1-2.7-1.5-5.4-1.4-8.2h10.3c0,0.2,0,0.3,0,0.5
	c0,3.4,0.3,6.7,0.8,9.7H4.3C4,33.1,3.7,32.4,3.4,31.7z M16.3,44.6c-1.7-0.6-3.3-1.5-4.9-2.5c-2.4-1.7-4.4-3.9-6-6.4h8
	C14.1,39.1,15.1,42.2,16.3,44.6z M14.1,9.2H7.7C8.3,8.6,8.9,8,9.6,7.4c2-1.7,4.3-3.1,6.8-4C15.5,5.1,14.7,7,14.1,9.2z M16.2,9.2
	C17,6.6,18,4.3,19.1,2.5c0.8-0.2,1.7-0.3,2.5-0.4c2.5-0.3,4.9-0.1,7.3,0.4c1.1,1.8,2.1,4,2.9,6.7H16.2z M31.7,3.4
	c1,0.4,1.9,0.8,2.9,1.3c2.2,1.2,4.1,2.7,5.8,4.5H34C33.3,7,32.5,5.1,31.7,3.4z M35.7,21.5c0-0.2,0-0.5,0-0.7
	c-0.2-3.4-0.6-6.6-1.3-9.5h7.5c0.7,0.9,1.2,1.9,1.8,2.9c1.2,2.3,1.9,4.8,2.2,7.3H35.7z M41.8,48c-0.6,0-1.2-0.2-1.7-0.7L35,42.2
	l-1.5,1.5c-0.3,0.3-0.6,0.5-1,0.6s-0.8,0.1-1.2,0c-0.4-0.1-0.8-0.3-1.1-0.6c-0.3-0.3-0.5-0.6-0.6-1L25.2,28c-0.1-0.4-0.1-0.8,0-1.3
	c0.1-0.4,0.3-0.8,0.6-1.1c0.3-0.3,0.7-0.5,1.1-0.6s0.8-0.1,1.3,0l14.7,4.4c0.4,0.1,0.7,0.3,1,0.6c0.3,0.3,0.5,0.7,0.6,1.1
	s0.1,0.8,0,1.2c-0.1,0.4-0.3,0.8-0.6,1L42.2,35l5.1,5.1c0.2,0.2,0.4,0.5,0.5,0.8s0.2,0.6,0.2,0.9s-0.1,0.6-0.2,0.9
	c-0.1,0.3-0.3,0.5-0.5,0.8l-3.9,3.9C43,47.8,42.4,48,41.8,48z M35,39.8L35,39.8c0.3,0,0.5,0.1,0.7,0.3l5.8,5.8
	c0.1,0.1,0.4,0.1,0.5,0l3.9-3.9l0.1-0.1v-0.1v-0.1c0,0,0-0.1-0.1-0.1l-5.8-5.8c-0.4-0.4-0.4-1,0-1.4l2.2-2.2c0,0,0.1-0.1,0.1-0.2
	c0-0.1,0-0.1,0-0.2s0-0.1-0.1-0.2c0,0-0.1-0.1-0.2-0.1L27.5,27c-0.1,0-0.1,0-0.2,0s-0.1,0-0.2,0.1S27,27.2,27,27.3
	c0,0.1,0,0.1,0,0.2l0,0l4.4,14.7c0,0.1,0.1,0.1,0.1,0.2c0,0,0.1,0.1,0.2,0.1s0.1,0,0.2,0c0.1,0,0.1,0,0.2-0.1l2.2-2.2
	C34.5,39.9,34.7,39.8,35,39.8z"/>
</svg>
