<?xml version="1.0" encoding="utf-8"?>
<!-- Generator: Adobe Illustrator 26.0.2, SVG Export Plug-In . SVG Version: 6.00 Build 0)  -->
<svg version="1.1" id="Layer_1" xmlns="http://www.w3.org/2000/svg" xmlns:xlink="http://www.w3.org/1999/xlink" x="0px" y="0px"
	 viewBox="0 0 48 48" style="enable-background:new 0 0 48 48;" xml:space="preserve">
<path d="M24,48c-6.4,0-12.4-2.5-17-7c-4.5-4.5-7-10.6-7-17S2.5,11.6,7,7c4.5-4.5,10.6-7,17-7s12.4,2.5,17,7c4.5,4.5,7,10.6,7,17
	s-2.5,12.4-7,17C36.4,45.5,30.4,48,24,48z M24,2C18.1,2,12.6,4.3,8.4,8.4S2,18.1,2,24s2.3,11.4,6.4,15.6S18.1,46,24,46
	s11.4-2.3,15.6-6.4S46,29.9,46,24s-2.3-11.4-6.4-15.6S29.9,2,24,2z M15.9,36.1c-0.1,0-0.2,0-0.3,0c-0.6-0.1-1.1-0.3-1.5-0.6
	c-0.4-0.4-0.7-0.9-0.8-1.4s-0.1-1.1,0.1-1.6l2.7-6.3l-5-4.9c-0.4-0.4-0.6-0.8-0.7-1.4c-0.1-0.5-0.1-1.1,0.1-1.5
	c0.2-0.5,0.5-0.9,1-1.2c0.4-0.3,1-0.4,1.5-0.4h5.3l3.2-6.3c0.2-0.4,0.6-0.8,1-1.1c0.8-0.5,1.9-0.5,2.8,0c0.4,0.2,0.8,0.6,1,1l0,0
	l3.2,6.3h5.3c0.5,0,1,0.1,1.5,0.4c0.4,0.3,0.8,0.7,1,1.2s0.3,1,0.2,1.5s-0.4,1-0.7,1.4l-4.9,4.9l2.7,6.3c0.2,0.5,0.3,1.1,0.1,1.6
	s-0.4,1-0.8,1.4C33.5,35.8,33,36,32.4,36c-0.6,0.1-1.1-0.1-1.6-0.3L24,31.9l-6.8,3.8C16.8,35.9,16.4,36.1,15.9,36.1z M24,29.7
	c0.2,0,0.3,0,0.5,0.1l7.3,4.1c0.1,0.1,0.3,0.1,0.4,0.1c0.1,0,0.3-0.1,0.4-0.2c0.1-0.1,0.2-0.2,0.2-0.3s0-0.3,0-0.4l-3-6.9
	c-0.2-0.4-0.1-0.8,0.2-1.1l5.4-5.3c0.1-0.1,0.2-0.2,0.2-0.3c0-0.1,0-0.2,0-0.4c0-0.1-0.1-0.2-0.2-0.3c-0.1-0.1-0.2-0.1-0.4-0.1h-6
	c-0.4,0-0.7-0.2-0.9-0.5l-3.5-6.8c-0.1-0.1-0.1-0.2-0.2-0.3c-0.2-0.1-0.5-0.1-0.7,0c-0.1,0.1-0.2,0.2-0.2,0.3L20,18.2
	c-0.2,0.3-0.5,0.5-0.9,0.5h-5.9c-0.1,0-0.3,0-0.4,0.1s-0.2,0.2-0.2,0.3c0,0.1-0.1,0.2,0,0.4c0,0.1,0.1,0.2,0.2,0.3l5.4,5.4
	c0.3,0.3,0.4,0.7,0.2,1.1l-3,6.9c0,0.1-0.1,0.2,0,0.4c0,0.1,0.1,0.3,0.2,0.3c0.1,0.1,0.2,0.1,0.4,0.2c0.1,0,0.3,0,0.4-0.1l7.3-4.1
	C23.7,29.8,23.8,29.7,24,29.7z"/>
</svg>
