<?xml version="1.0" encoding="utf-8"?>
<!-- Generator: Adobe Illustrator 26.0.2, SVG Export Plug-In . SVG Version: 6.00 Build 0)  -->
<svg version="1.1" id="Layer_1" xmlns="http://www.w3.org/2000/svg" xmlns:xlink="http://www.w3.org/1999/xlink" x="0px" y="0px"
	 viewBox="0 0 48 48" style="enable-background:new 0 0 48 48;" xml:space="preserve">
<path d="M24,48c-0.6,0-1-0.4-1-1V37c0-0.6,0.4-1,1-1s1,0.4,1,1v10C25,47.6,24.6,48,24,48z M30,44.8c-0.1,0.3-0.2,0.6-0.4,0.8
	c-0.2,0.2-0.5,0.3-0.8,0.4c-0.1,0-0.2,0-0.3,0c-0.2,0-0.4,0-0.6-0.1c-0.3-0.1-0.5-0.3-0.7-0.5c-0.2-0.3-0.3-0.5-0.3-0.8
	c0-0.4,0.2-0.8,0.4-1.1c0.5-0.5,1.3-0.6,1.9-0.2c0.2,0.2,0.4,0.4,0.5,0.7C30,44.2,30,44.5,30,44.8z M30,38.8
	c-0.1,0.3-0.2,0.6-0.4,0.8c-0.2,0.2-0.5,0.3-0.8,0.4c-0.1,0-0.2,0-0.3,0c-0.2,0-0.4,0-0.6-0.1c-0.3-0.1-0.5-0.3-0.7-0.5
	c-0.2-0.3-0.3-0.5-0.3-0.8c0-0.4,0.2-0.8,0.4-1.1c0.5-0.5,1.3-0.6,1.9-0.2c0.2,0.2,0.4,0.4,0.5,0.7C30,38.2,30,38.5,30,38.8z M27,7
	c0,0.5-0.5,1-1,1h-1v1c0,0.5-0.5,1-1,1s-1-0.5-1-1V8h-1c-0.5,0-1-0.5-1-1s0.5-1,1-1h1V5c0-0.5,0.5-1,1-1s1,0.5,1,1v1h1
	C26.5,6,27,6.5,27,7z M47,48c-0.6,0-1-0.4-1-1v-2c0-1.4-0.4-2.8-1.2-4s-2-2.1-3.3-2.6l-9.8-3.3c-0.5-0.2-0.8-0.7-0.6-1.3
	c0.2-0.5,0.7-0.8,1.3-0.6l9.8,3.3c1.8,0.7,3.2,1.8,4.3,3.3s1.6,3.3,1.6,5.1v2C48,47.6,47.6,48,47,48z M1,48c-0.6,0-1-0.4-1-1v-2
	c0-1.8,0.6-3.6,1.6-5.1s2.5-2.7,4.2-3.3l9.8-3.3c0.5-0.2,1.1,0.1,1.3,0.6c0.2,0.5-0.1,1.1-0.6,1.3l-9.8,3.3C5.2,39,4.1,39.8,3.2,41
	C2.4,42.2,2,43.6,2,45v2C2,47.6,1.6,48,1,48z M24,28.2c-1.4,0-2.7-0.5-3.7-1.5c-0.4-0.4-0.4-1,0-1.4s1-0.4,1.4,0
	c1.3,1.2,3.4,1.2,4.6,0c0.4-0.4,1-0.4,1.4,0s0.4,1,0,1.4C26.7,27.7,25.4,28.2,24,28.2z M22,19c-0.3,0-0.7-0.2-0.8-0.5
	c-0.1-0.2-0.3-0.3-0.5-0.4S20.3,18,20.1,18c0,0-0.1,0-0.2,0c-0.2,0-0.4,0-0.6,0.1s-0.4,0.2-0.5,0.4c-0.3,0.5-0.9,0.6-1.4,0.3
	c-0.5-0.3-0.6-0.9-0.3-1.4c0.3-0.5,0.7-0.9,1.3-1.1c0.5-0.2,1-0.4,1.6-0.3c0.5,0,1.1,0.1,1.6,0.3c0.5,0.3,0.9,0.6,1.3,1.1
	c0.3,0.5,0.2,1.1-0.3,1.4C22.4,19,22.2,19,22,19z M30,19c-0.3,0-0.7-0.2-0.8-0.5c-0.1-0.2-0.3-0.3-0.5-0.4S28.3,18,28.1,18
	c0,0-0.1,0-0.2,0c-0.2,0-0.4,0-0.6,0.1s-0.4,0.2-0.5,0.4c-0.3,0.5-0.9,0.6-1.4,0.3c-0.5-0.3-0.6-0.9-0.3-1.4
	c0.3-0.5,0.7-0.9,1.3-1.1c0.5-0.2,1-0.4,1.6-0.3c0.5,0,1.1,0.1,1.6,0.3c0.5,0.3,0.9,0.6,1.3,1.1c0.3,0.5,0.2,1.1-0.3,1.4
	C30.4,19,30.2,19,30,19z M37,16.5V6.2c0-1.1-0.3-2.1-1-3c-0.6-0.9-1.5-1.5-2.5-1.8c-6.2-1.9-12.8-1.9-19,0c-1,0.3-1.9,0.9-2.6,1.8
	c-0.6,0.8-1,1.9-1,3v10.3c-0.7,0.6-1,1.6-1,2.8c0,1.6,0.9,3.6,2.6,4.3c0.1,0.1,0.3,0.2,0.4,0.3c0.1,0.1,0.2,0.3,0.2,0.4
	c1,5.8,7.7,9.6,10.8,9.6s9.9-3.7,10.8-9.6c0-0.2,0.1-0.3,0.2-0.4c0.1-0.1,0.2-0.2,0.4-0.3c1.7-0.8,2.5-2.7,2.6-4.3
	C38,18.2,37.7,17.1,37,16.5z M13,6.2c0-0.6,0.2-1.3,0.6-1.8c0.4-0.5,0.9-0.9,1.5-1.1C18,2.5,21,2,24,2s6,0.5,8.9,1.4
	C33.5,3.6,34,4,34.4,4.5C34.8,5,35,5.6,35,6.2v7.3c-3.5-1.3-7.2-2-11-2s-7.5,0.7-11,2V6.2z M34.6,21.9c-0.5,0.2-0.8,0.5-1.1,0.9
	s-0.5,0.9-0.6,1.3C32.1,28.9,26.2,32,24,32s-8.1-3.1-8.9-7.9c-0.1-0.5-0.3-1-0.6-1.3c-0.3-0.4-0.7-0.7-1.1-0.9
	c-0.9-0.4-1.4-1.6-1.4-2.6c0-0.7,0.2-1.2,0.5-1.4c0.3-0.2,0.5-0.5,0.5-0.9v-1.3c3.5-1.4,7.2-2.1,11-2.1s7.5,0.7,11,2.1V17
	c0,0.4,0.2,0.7,0.5,0.9c0.3,0.2,0.5,0.7,0.5,1.4C36,20.3,35.5,21.5,34.6,21.9z"/>
</svg>
