<?xml version="1.0" encoding="utf-8"?>
<!-- Generator: Adobe Illustrator 26.0.2, SVG Export Plug-In . SVG Version: 6.00 Build 0)  -->
<svg version="1.1" id="Layer_1" xmlns="http://www.w3.org/2000/svg" xmlns:xlink="http://www.w3.org/1999/xlink" x="0px" y="0px"
	 viewBox="0 0 48 48" style="enable-background:new 0 0 48 48;" xml:space="preserve">
<path d="M24,1C13.4,1,7,9.3,7,17.4c0,13.9,15.7,28.7,16.3,29.3c0.2,0.2,0.4,0.3,0.7,0.3s0.5-0.1,0.7-0.3C25.3,46.1,41,31.3,41,17.4
	C41,9.3,34.6,1,24,1z M24,44.6c-3-3-15-15.8-15-27.2C9,10.3,14.6,3,24,3s15,7.3,15,14.4C39,28.8,27,41.6,24,44.6z M24,9
	c-4.7,0-8.5,3.8-8.5,8.5S19.3,26,24,26s8.5-3.8,8.5-8.5S28.7,9,24,9z M24,24c-3.6,0-6.5-2.9-6.5-6.5S20.4,11,24,11s6.5,2.9,6.5,6.5
	S27.6,24,24,24z"/>
</svg>
