<?xml version="1.0" encoding="utf-8"?>
<!-- Generator: Adobe Illustrator 26.0.2, SVG Export Plug-In . SVG Version: 6.00 Build 0)  -->
<svg version="1.1" id="Layer_1" xmlns="http://www.w3.org/2000/svg" xmlns:xlink="http://www.w3.org/1999/xlink" x="0px" y="0px"
	 viewBox="0 0 48 48" style="enable-background:new 0 0 48 48;" xml:space="preserve">
<path d="M44.1,10c-2.5-2.5-5.8-3.9-9.4-3.9c-3.5,0-6.9,1.4-9.4,3.9s-3.9,5.8-3.9,9.4c0,3.5,1.4,6.9,3.9,9.4s5.8,3.9,9.4,3.9
	s6.9-1.4,9.4-3.9S48,23,48,19.4C48,15.9,46.6,12.5,44.1,10z M42.7,27.4c-2.1,2.1-5,3.3-8,3.3s-5.8-1.2-8-3.3s-3.3-5-3.3-8
	s1.2-5.8,3.3-8c2.1-2.1,4.9-3.3,8-3.3s5.8,1.2,8,3.3c2.1,2.1,3.3,5,3.3,8S44.8,25.2,42.7,27.4z M39.5,23.5c-0.2,0.8-0.6,1.6-1.3,2.2
	s-1.5,0.8-2.4,0.8h-0.1V27c0,0.5-0.4,1-1,1c-0.5,0-1-0.5-1-1v-0.5h-2.1c-0.6,0-1-0.4-1-1c0-0.5,0.4-1,1-1h4.2c0.4,0,0.8-0.1,1.1-0.4
	c0.3-0.2,0.5-0.6,0.6-1s0-0.8-0.2-1.2c-0.2-0.4-0.5-0.6-0.9-0.8l-4.2-1.7c-0.8-0.3-1.5-0.9-1.9-1.7c-0.4-0.8-0.5-1.7-0.4-2.5
	c0.2-0.8,0.6-1.6,1.3-2.2c0.7-0.5,1.5-0.9,2.4-0.9h0.1v-0.5c0-0.5,0.5-1,1-1c0.6,0,1,0.5,1,1v0.5h2.1c0.5,0,1,0.4,1,1s-0.5,1-1,1
	h-4.2c-0.4,0-0.8,0.1-1.1,0.4c-0.3,0.2-0.5,0.6-0.6,1s0,0.8,0.2,1.2c0.2,0.4,0.5,0.6,0.9,0.8l4.2,1.7c0.8,0.3,1.5,0.9,1.9,1.7
	C39.5,21.8,39.7,22.6,39.5,23.5z M14.8,14.8c-1.2-1.2-2.7-2-4.3-2.3c0.2-0.1,0.4-0.1,0.6-0.2c0.8-0.3,1.5-0.8,2.1-1.4
	c0.6-0.6,1.1-1.3,1.4-2.1C14.9,8,15,7.2,15,6.4S14.8,4.7,14.5,4c-0.3-0.8-0.8-1.5-1.4-2.1c-0.6-0.6-1.3-1.1-2.1-1.4
	c-1.5-0.6-3.3-0.6-4.9,0C5.5,0.8,4.8,1.3,4.2,1.9s-1.1,1.2-1.4,2S2.3,5.5,2.3,6.4c0,0.8,0.2,1.7,0.5,2.4c0.3,0.8,0.8,1.5,1.4,2.1
	c0.6,0.6,1.3,1.1,2.1,1.4c0.2,0.1,0.4,0.1,0.6,0.2c-1.6,0.3-3.1,1.1-4.3,2.3C0.9,16.4,0,18.6,0,20.9v4.6c0,0.6,0.5,1,1,1h2.2
	l0.7,5.3C4,32.3,4.5,32.7,5,32.7c0.5-0.1,0.9-0.6,0.9-1.1l-0.8-6.1c-0.1-0.5-0.5-0.9-1-0.9H2V21c0-1.8,0.7-3.5,2-4.7s2.9-2,4.7-2
	s3.5,0.7,4.7,2s2,2.9,2,4.7v3.6h-2.1c-0.5,0-0.9,0.4-1,0.9l-0.8,6.1c-0.1,0.5,0.3,1,0.9,1.1h0.1c0.5,0,0.9-0.4,1-0.9l0.7-5.3h2.2
	c0.6,0,1-0.4,1-1v-4.6C17.3,18.6,16.4,16.4,14.8,14.8z M5.6,9.5C5.2,9,4.8,8.6,4.6,8C4.4,7.5,4.3,6.9,4.3,6.4c0-0.6,0.1-1.1,0.3-1.7
	c0.2-0.5,0.5-1,1-1.4C6,2.9,6.5,2.5,7,2.3S8.1,2,8.7,2c0.6,0,1.1,0.1,1.7,0.3c0.5,0.2,1,0.5,1.4,1c0.4,0.4,0.7,0.9,1,1.4
	C12.9,5.2,13,5.8,13,6.4s-0.1,1.1-0.3,1.7c-0.2,0.5-0.5,1-1,1.4c-0.4,0.4-0.9,0.7-1.4,0.9c-1.1,0.4-2.3,0.4-3.3,0
	C6.5,10.2,6,9.9,5.6,9.5z M47,36.8H1c-0.5,0-1,0.5-1,1s0.5,1,1,1h22.2l-6.1,7.6c-0.2,0.3-0.3,0.7-0.1,1c0.2,0.3,0.5,0.6,0.9,0.6
	h12.3c0.4,0,0.7-0.2,0.9-0.6c0.2-0.3,0.1-0.8-0.1-1l-6.1-7.6H47c0.5,0,1-0.5,1-1S47.5,36.8,47,36.8z M28,46h-8l4-5.1L28,46z"/>
</svg>
