<?xml version="1.0" encoding="utf-8"?>
<!-- Generator: Adobe Illustrator 26.0.2, SVG Export Plug-In . SVG Version: 6.00 Build 0)  -->
<svg version="1.1" id="Layer_1" xmlns="http://www.w3.org/2000/svg" xmlns:xlink="http://www.w3.org/1999/xlink" x="0px" y="0px"
	 viewBox="0 0 48 48" style="enable-background:new 0 0 48 48;" xml:space="preserve">
<path d="M46.6,34.3c-0.4-0.9-1-1.7-1.7-2.4l-3.7-3.7l-2.1-5.5c0.8,0,1.5-0.1,2.3-0.3c0.9-0.2,1.8-0.6,2.8-1.2c3-2,3.5-5,3.5-7.8
	c0-4.7-4.5-11.5-9.7-13c-0.4-0.1-0.9,0.1-1.1,0.4C36.7,1.2,36.7,1.7,37,2c1.2,1.4,2.4,4,2,5.8c-0.2,0.9-0.8,1.5-1.9,1.9
	c-0.8,0.3-1.6,0.3-2.2,0C33.5,8.9,33,6.8,33,6.8c-0.1-0.3-0.4-0.6-0.7-0.7s-0.7,0-1,0.2c-1,0.9-1.9,2-2.6,3.2
	c-0.9,1.9-1.1,4.2-0.6,6.2H15c-1.1,0-2.2,0.3-3.1,1c-0.9,0.6-1.6,1.5-2,2.6l-3.3,8.9l-3.7,3.7c-0.7,0.7-1.2,1.4-1.6,2.3
	c-0.1,0.1-0.1,0.2-0.1,0.3c-0.5,1-0.7,2.1-0.7,3.3c0,1.1,0.4,2.1,1.2,2.8c0.5,0.5,1.1,0.9,1.8,1v2.1c0,1.1,0.4,2.1,1.2,2.8
	c0.8,0.8,1.8,1.2,2.8,1.2c1.1,0,2.1-0.4,2.8-1.2c0.8-0.8,1.2-1.8,1.2-2.8v-2h25v2c0,1.1,0.4,2.1,1.2,2.8c0.8,0.8,1.8,1.2,2.8,1.2
	c1.1,0,2.1-0.4,2.8-1.2c0.8-0.8,1.2-1.8,1.2-2.8v-2.1c0.7-0.2,1.3-0.5,1.8-1c0.8-0.8,1.2-1.8,1.2-2.8C47.3,36.6,47.1,35.5,46.6,34.3
	C46.6,34.4,46.6,34.4,46.6,34.3z M30.5,10.5c0.3-0.6,0.7-1.1,1.1-1.6c0.5,0.9,1.2,1.9,2.3,2.5c1.1,0.6,2.4,0.7,3.8,0.2
	c2.1-0.7,2.9-2.2,3.1-3.3c0.3-1.4,0.1-3-0.5-4.5c3,2.4,5.3,6.5,5.3,9.4c0,1.4-0.1,2.6-0.5,3.6s-1,1.9-2.1,2.6
	c-2.6,1.7-5.4,1.2-7.6,0.9h-0.1c-2.3-0.5-3.9-1.8-4.8-3.6C29.5,14.5,29.8,11.9,30.5,10.5z M11.7,20c0.2-0.7,0.7-1.2,1.3-1.6
	s1.3-0.6,2-0.6h13.9c0.8,1.6,2.6,3.7,6.1,4.5h0.2c0.6,0.1,1.2,0.2,1.8,0.3l2,5.2H8.8L11.7,20z M9.3,43.8c0,0.5-0.2,1-0.6,1.4
	c-0.8,0.8-2.1,0.8-2.8,0c-0.4-0.4-0.6-0.9-0.6-1.4v-2h4C9.3,41.8,9.3,43.8,9.3,43.8z M42.3,43.8c0,0.5-0.2,1-0.6,1.4
	c-0.8,0.8-2.1,0.8-2.8,0c-0.4-0.4-0.6-0.9-0.6-1.4v-2h4C42.3,41.8,42.3,43.8,42.3,43.8z M44.8,39.2c-0.4,0.4-0.9,0.6-1.4,0.6h-39
	c-0.5,0-1-0.2-1.4-0.6c-0.4-0.4-0.6-0.9-0.6-1.4c0-0.7,0.1-1.4,0.3-2h7.7c0.6,0,1-0.5,1-1s-0.4-1-1-1H3.8c0.1-0.2,0.2-0.3,0.4-0.4
	l3.6-3.6H40l3.6,3.6c0.1,0.1,0.3,0.3,0.4,0.4h-6.6c-0.5,0-1,0.5-1,1s0.5,1,1,1H45c0.2,0.6,0.3,1.3,0.3,2
	C45.3,38.3,45.2,38.8,44.8,39.2z"/>
</svg>
