<?xml version="1.0" encoding="utf-8"?>
<!-- Generator: Adobe Illustrator 26.0.2, SVG Export Plug-In . SVG Version: 6.00 Build 0)  -->
<svg version="1.1" id="Layer_1" xmlns="http://www.w3.org/2000/svg" xmlns:xlink="http://www.w3.org/1999/xlink" x="0px" y="0px"
	 viewBox="0 0 48 48" style="enable-background:new 0 0 48 48;" xml:space="preserve">
<path d="M47.1,22.9l-5-0.7l0.4-2.9c0,0,0,0,0-0.1l0,0l0.3-2.6l4.4-4.1c0.3-0.3,0.4-0.7,0.3-1s-0.4-0.6-0.8-0.7L40.6,10
	c-0.8-0.1-1.6,0.1-2.2,0.6l-8,6l-7.9-1.1c-1.3-0.2-2.6,0.2-3.7,1l-2.9,2.1L3.6,17c-1.1-0.2-2.1,0.6-2.2,1.7c-0.1,0.5,0,0.9,0.3,1.3
	l5.4,8.6c1.2,2,3.2,3.4,5.5,3.9c0.1,0,0.1,0,0.2,0c0.5,0,0.9-0.3,1-0.8s-0.2-1.1-0.7-1.2c-1.8-0.4-3.3-1.5-4.3-3L3.3,19L16,20.7l0,0
	l0,0L40.8,24l6,0.8c0.5,0.1,1-0.3,1.1-0.9S47.7,23,47.1,22.9z M20,18.1c0.6-0.5,1.4-0.7,2.2-0.6L40.4,20l-0.3,1.9L18.8,19L20,18.1z
	 M40.9,16.1l-0.3,2l-7.5-1l6.4-4.8C39.8,12,40,12,40.3,12l4,0.5l-3.1,2.9C41.1,15.6,41,15.8,40.9,16.1z M14.5,37.6
	c-1.1,0-2.3-0.3-3.3-0.9c-0.4-0.3-0.8-0.6-1.2-0.9c-2,2-5.3,2.5-7.8,0.9c-0.8-0.5-1.5-1.2-2-2c-0.3-0.5-0.2-1.1,0.3-1.4
	C1,33,1.6,33.1,1.9,33.6s0.8,1,1.4,1.4c2,1.2,4.7,0.6,5.9-1.4c0.2-0.3,0.5-0.5,0.8-0.5l0,0c0.3,0,0.7,0.2,0.8,0.5
	c0.3,0.6,0.8,1,1.4,1.4c2,1.2,4.7,0.6,5.9-1.4c0.2-0.3,0.5-0.5,0.8-0.5l0,0c0.3,0,0.7,0.2,0.8,0.5c0.6,1,1.7,1.7,2.9,1.9
	c0.3,0,0.5,0,0.8-0.2L35,27.9c0.5-0.3,1.2-0.4,1.7-0.2c0.5,0.2,0.9,0.5,1.1,1c0.2,0.5,0.3,1,0.1,1.5l-1.2,3.4l7.5-3.4
	c0.5-0.2,1.1-0.2,1.6,0s0.9,0.6,1.1,1.1c0.2,0.5,0.2,1,0,1.5l-0.7,1.6C46,35,45.4,35.2,44.9,35s-0.7-0.8-0.5-1.3l0.7-1.6l-7.5,3.4
	c-1,0.4-2.2,0-2.6-1c-0.2-0.5-0.2-1-0.1-1.5l1.2-3.4L24.6,37c-0.7,0.5-1.4,0.6-2.2,0.5c-1.3-0.2-2.5-0.9-3.4-1.8
	C17.8,36.9,16.2,37.6,14.5,37.6z"/>
</svg>
