<?xml version="1.0" encoding="utf-8"?>
<!-- Generator: Adobe Illustrator 26.0.2, SVG Export Plug-In . SVG Version: 6.00 Build 0)  -->
<svg version="1.1" id="Layer_1" xmlns="http://www.w3.org/2000/svg" xmlns:xlink="http://www.w3.org/1999/xlink" x="0px" y="0px"
	 viewBox="0 0 48 48" style="enable-background:new 0 0 48 48;" xml:space="preserve">
<path d="M16.4,28.2c-0.1,0-0.2,0-0.4-0.1c-5.7-2.3-10.8-5.8-14.9-10.4C0.4,16.9,0,15.9,0,14.8s0.4-2.1,1.1-2.9C6.4,6.1,15,0,23.7,0
	c0.1,0,0.2,0,0.3,0c0.1,0,0.2,0,0.3,0C33,0,41.6,6.1,46.9,11.8c0.7,0.8,1.1,1.9,1.1,2.9s-0.4,2.1-1.1,2.9c-0.7,0.8-1.5,1.5-2.3,2.3
	c-0.4,0.4-1,0.4-1.4,0s-0.4-1,0-1.4c0.8-0.7,1.5-1.4,2.1-2.2c0.4-0.4,0.6-1,0.6-1.6s-0.2-1.2-0.6-1.6C40.4,7.7,32.2,1.8,24,2
	c-0.1,0-0.2,0-0.3,0c-8,0-16.1,5.8-21.1,11.2c-0.4,0.4-0.6,1-0.6,1.6s0.2,1.2,0.6,1.6c3.9,4.3,8.7,7.7,14.1,9.9
	c0.5,0.2,0.8,0.8,0.6,1.3C17.1,28,16.8,28.2,16.4,28.2z M19.4,21.9c-0.2,0-0.4-0.1-0.6-0.2c-1.2-0.9-2.1-2.1-2.7-3.4
	s-0.8-2.8-0.7-4.3s0.6-2.9,1.5-4.1c0.8-1.2,2-2.2,3.3-2.9s2.8-1,4.3-0.9s2.9,0.5,4.2,1.3c1.3,0.8,2.3,1.9,3,3.1
	c0.7,1.3,1.1,2.7,1.1,4.2c0,0.6-0.4,1-1,1l0,0c-0.6,0-1-0.4-1-1c0-1.1-0.3-2.3-0.8-3.2c-0.6-1-1.4-1.8-2.3-2.4c-1-0.6-2.1-0.9-3.2-1
	c-1.3,0-2.5,0.2-3.5,0.7s-1.9,1.3-2.5,2.2s-1,2-1.1,3.2c-0.1,1.1,0.1,2.3,0.5,3.3c0.5,1,1.2,1.9,2.1,2.6c0.4,0.3,0.5,1,0.2,1.4
	C20,21.8,19.7,21.9,19.4,21.9z M47.7,46.3l-7.1-7.1c1.8-2.1,2.8-4.8,2.8-7.6c0-3.1-1.2-6.1-3.4-8.3s-5.2-3.4-8.3-3.4
	s-6.1,1.2-8.3,3.4S20,28.5,20,31.6s1.2,6.1,3.4,8.3s5.2,3.4,8.3,3.4c2.8,0,5.5-1,7.6-2.8l7.1,7.1c0.2,0.2,0.5,0.3,0.7,0.3
	s0.5-0.1,0.7-0.3C48.1,47.3,48.1,46.7,47.7,46.3z M24.8,38.5c-1.8-1.8-2.9-4.3-2.9-6.9s1-5,2.9-6.9c1.8-1.8,4.3-2.8,6.9-2.8
	s5,1,6.9,2.8c1.8,1.8,2.9,4.3,2.9,6.9s-1,5-2.9,6.9c-1.8,1.8-4.3,2.8-6.9,2.8C29.1,41.4,26.6,40.4,24.8,38.5z"/>
</svg>
