<?xml version="1.0" encoding="utf-8"?>
<!-- Generator: Adobe Illustrator 26.0.2, SVG Export Plug-In . SVG Version: 6.00 Build 0)  -->
<svg version="1.1" id="Layer_1" xmlns="http://www.w3.org/2000/svg" xmlns:xlink="http://www.w3.org/1999/xlink" x="0px" y="0px"
	 viewBox="0 0 48 48" style="enable-background:new 0 0 48 48;" xml:space="preserve">
<path d="M39.8,19.4l-2.6-2.7l0,0L39.8,19.4C39.9,19.4,39.9,19.4,39.8,19.4z M28.6,8.1L28.6,8.1l2.6,2.7L28.6,8.1z M10.7,32.8
	C10.7,32.8,10.6,32.8,10.7,32.8l4.5,4.5L10.7,32.8z M37.7,20.1l-9.8-9.8l0,0l7.2,7.1L37.7,20.1z M47.7,11.5l-3.4-3.4l-4.5-4.5
	l-3.4-3.4c-0.4-0.4-1-0.4-1.4,0s-0.4,1,0,1.4l2.7,2.7l-6.4,6.4l0,0L28.6,8l-3.3-3.3c-0.4-0.4-1-0.4-1.4,0s-0.4,1,0,1.4l2.7,2.7
	L8.2,27.2c-0.4,0.4-0.7,0.8-0.9,1.4c-0.2,0.5-0.3,1-0.3,1.6s0.1,1.1,0.3,1.6c0.2,0.5,0.5,1,0.9,1.4l0.4,0.4l-4.9,4.9
	c-0.2,0.2-0.3,0.4-0.3,0.7s0.1,0.5,0.3,0.7l1.5,1.5l-4.9,4.9c-0.4,0.4-0.4,1,0,1.4C0.5,47.9,0.7,48,1,48s0.5-0.1,0.7-0.3l4.9-4.9
	l1.5,1.5c0.2,0.2,0.4,0.3,0.7,0.3s0.5-0.1,0.7-0.3l4.9-4.9l0.4,0.4l0,0c0.8,0.8,1.8,1.2,3,1.2s2.2-0.4,3-1.2l5.6-5.6l0,0l0,0
	l6.7-6.7l0,0c0,0,0-0.1,0.1-0.1l6-6l2.7,2.7c0.2,0.2,0.5,0.3,0.7,0.3c0.3,0,0.5-0.1,0.7-0.3c0.4-0.4,0.4-1,0-1.4l-6-6l0,0l6.4-6.4
	l2.7,2.7c0.2,0.2,0.5,0.3,0.7,0.3s0.5-0.1,0.7-0.3C48.1,12.5,48.1,11.9,47.7,11.5z M8.9,42.2l-1.5-1.5l0,0l0,0l-1.5-1.5L10,35l3,3
	L8.9,42.2z M37.7,20.1l-5.3,5.3l-3.8-3.8c-0.4-0.4-1-0.4-1.4,0s-0.4,1,0,1.4l3.8,3.8l-5.3,5.3l-3.8-3.8c-0.4-0.4-1-0.4-1.4,0
	s-0.4,1,0,1.4l3.8,3.8l-4.9,4.9c-0.4,0.4-1,0.6-1.5,0.6c-0.6,0-1.1-0.2-1.5-0.6l-1.1-1.1l-4.5-4.6c0,0-0.1,0-0.1-0.1l-1-1
	c-0.2-0.2-0.4-0.4-0.5-0.7C9.1,30.6,9,30.4,9,30.1s0-0.6,0.2-0.8c0.1-0.3,0.3-0.5,0.5-0.7l18.4-18.4l0,0l7.1,7.1L37.7,20.1z
	 M42.2,8.9l-6.4,6.4l-3.1-3.1l6.4-6.4L42.2,8.9L42.2,8.9z M42.2,8.8L42.2,8.8l-3-3L42.2,8.8z"/>
</svg>
