<?xml version="1.0" encoding="utf-8"?>
<!-- Generator: Adobe Illustrator 26.0.2, SVG Export Plug-In . SVG Version: 6.00 Build 0)  -->
<svg version="1.1" id="Layer_1" xmlns="http://www.w3.org/2000/svg" xmlns:xlink="http://www.w3.org/1999/xlink" x="0px" y="0px"
	 viewBox="0 0 48 48" style="enable-background:new 0 0 48 48;" xml:space="preserve">
<path d="M40.4,25.4c-2.5-2.5-5.8-3.9-9.3-3.9h-2V7.1c0-1.9-0.7-3.7-2.1-5C25.8,0.7,24,0,22.1,0s-3.7,0.7-5,2.1S15,5.2,15,7.1v6
	L7.4,9.3C6.9,9,6.3,9.2,6.1,9.8c-0.2,0.5-0.1,1.1,0.4,1.3l7.3,3.7l-7.3,3.7c-0.5,0.2-0.7,0.8-0.4,1.3c0.2,0.4,0.5,0.5,0.9,0.5
	c0.2,0,0.3,0,0.5-0.1l7.6-3.9v12.8l-1.3-1.3C12.6,26.6,11,26,9.3,26S6,26.7,4.9,27.9C3.7,29.2,3,30.8,3,32.5s0.6,3.3,1.8,4.5
	l10.5,10.7c0.2,0.2,0.5,0.3,0.7,0.3c0.2,0,0.5-0.1,0.7-0.3c0.4-0.4,0.4-1,0-1.4L6.2,35.6c-0.8-0.8-1.2-2-1.2-3.1
	c0-1.2,0.5-2.3,1.3-3.1c0.8-0.8,1.9-1.3,3-1.3c1.2,0,2.2,0.4,3,1.2l3,3c0.3,0.3,0.7,0.4,1.1,0.2c0.4-0.1,0.6-0.5,0.6-0.9V20.4h10.1
	v2.1c0,0.5,0.5,1,1,1h3c3,0,5.8,1.2,7.8,3.3c2.1,2.1,3.3,5,3.3,8V47c0,0.5,0.4,1,1,1c0.5,0,1-0.5,1-1V34.7
	C44.3,31.2,42.9,27.9,40.4,25.4z M27.1,18.4H17v-7.2h10.1V18.4z M27.1,9.2H17V7.1c0-1.4,0.5-2.7,1.5-3.6c1-1,2.2-1.5,3.6-1.5
	c1.3,0,2.6,0.5,3.6,1.5c0.9,1,1.5,2.3,1.5,3.6v2.1H27.1z"/>
</svg>
