<?xml version="1.0" encoding="utf-8"?>
<!-- Generator: Adobe Illustrator 26.0.2, SVG Export Plug-In . SVG Version: 6.00 Build 0)  -->
<svg version="1.1" id="Layer_1" xmlns="http://www.w3.org/2000/svg" xmlns:xlink="http://www.w3.org/1999/xlink" x="0px" y="0px"
	 viewBox="0 0 48 48" style="enable-background:new 0 0 48 48;" xml:space="preserve">
<path d="M45,16.3h-2.7c0.1-1.1,0.2-2.3,0.2-3.6C42.5,5.6,37.9,0,32,0c-1.8,0-3.5,0.5-5.1,1.3c-1.1,0.6-2.1,1.5-3,2.4
	c-0.8-1-1.8-1.8-3-2.4C19.5,0.5,17.7,0,16,0C10.1,0,5.5,5.6,5.5,12.7c0,1.2,0.1,2.5,0.2,3.6H3c-0.5,0-1,0.5-1,1c0,0.6,0.5,1,1,1h3
	c0.7,3.7,2.2,6.7,4.5,9.2C9.1,31.2,8.4,35,8.4,39c0,2.2,0.2,4.5,0.7,6.7c0.1,0.6,0.5,1.2,1,1.7c0.5,0.4,1.2,0.7,1.8,0.7
	c0.7,0,1.4-0.3,2-0.8c0.5-0.5,0.9-1.2,1-1.9c0.7-6.8,4.6-11.9,9.1-11.9c4.4,0,8.3,5.1,9.1,11.9c0.1,0.7,0.4,1.4,1,1.9s1.3,0.8,2,0.8
	s1.3-0.2,1.8-0.7c0.5-0.4,0.9-1,1-1.7c0.5-2.2,0.7-4.5,0.7-6.7c0-4-0.7-7.8-2.1-11.5c2.3-2.4,3.8-5.5,4.5-9.2h3c0.5,0,1-0.4,1-1
	C46,16.8,45.5,16.3,45,16.3z M7.5,12.7C7.5,6.8,11.3,2,16,2c1.4,0,2.8,0.4,4.1,1.1c1.2,0.7,2.3,1.7,3.1,2.9c0.4,0.6,1.3,0.6,1.7,0
	c0.8-1.2,1.8-2.2,3.1-2.9S30.6,2,32,2c4.7,0,8.5,4.8,8.5,10.7c0,1.3-0.1,2.5-0.2,3.6h-9.9v-3.1c0-0.5-0.5-1-1-1H18.6
	c-0.5,0-1,0.5-1,1v3.1H7.7C7.6,15.2,7.5,14,7.5,12.7z M19.6,16.3v-2.1h8.7v2.1H19.6z M28.4,18.3V21h-8.7v-2.6h8.7V18.3z M35.6,26.5
	c-0.3,0.3-0.4,0.7-0.2,1.1c1.5,3.6,2.2,7.4,2.2,11.3c0,2.1-0.2,4.2-0.6,6.3c0,0.2-0.2,0.4-0.3,0.5c-0.4,0.3-0.9,0.2-1.2,0
	c-0.2-0.2-0.3-0.4-0.3-0.6c-0.9-7.9-5.5-13.7-11.1-13.7c-5.5,0-10.2,5.8-11.1,13.7c0,0.2-0.1,0.5-0.3,0.6c-0.3,0.3-0.9,0.3-1.2,0
	c-0.2-0.1-0.3-0.3-0.3-0.5c-0.4-2.1-0.6-4.2-0.6-6.3c0-3.9,0.7-7.7,2.2-11.3c0.2-0.4,0.1-0.8-0.2-1.1c-2.1-2.1-3.6-4.9-4.3-8.2h9.6
	V22c0,0.5,0.5,1,1,1h10.7c0.5,0,1-0.5,1-1v-3.6h9.6C39.2,21.7,37.7,24.4,35.6,26.5z"/>
</svg>
