<?xml version="1.0" encoding="utf-8"?>
<!-- Generator: Adobe Illustrator 26.0.2, SVG Export Plug-In . SVG Version: 6.00 Build 0)  -->
<svg version="1.1" id="Layer_1" xmlns="http://www.w3.org/2000/svg" xmlns:xlink="http://www.w3.org/1999/xlink" x="0px" y="0px"
	 viewBox="0 0 48 48" style="enable-background:new 0 0 48 48;" xml:space="preserve">
<path d="M24,0C10.8,0,0,10.8,0,24s10.8,24,24,24s24-10.8,24-24S37.2,0,24,0z M24,46C11.9,46,2,36.1,2,24S11.9,2,24,2s22,9.9,22,22
	S36.1,46,24,46z M30.4,31c-0.8,2-2.6,3.2-4.7,3.2H25v2.1c0,0.6-0.5,1-1,1s-1-0.4-1-1v-2.1h-3.6c-0.6,0-1-0.5-1-1c0-0.6,0.4-1,1-1
	h6.2c1.3,0,2.4-0.8,2.9-2c0.6-1.6-0.1-3.4-1.7-4.1l-6.3-2.5c-2-0.8-3.2-2.6-3.2-4.7c0-2.8,2.3-5.1,5.1-5.1H23v-2.1c0-0.5,0.5-1,1-1
	s1,0.5,1,1v2.1h3.6c0.5,0,1,0.5,1,1s-0.5,1-1,1h-6.2c-1.7,0-3.1,1.4-3.1,3.1c0,1.3,0.8,2.4,2,2.9l6.3,2.5
	C30.2,25.4,31.4,28.4,30.4,31z"/>
</svg>
