<?xml version="1.0" encoding="utf-8"?>
<!-- Generator: Adobe Illustrator 26.0.2, SVG Export Plug-In . SVG Version: 6.00 Build 0)  -->
<svg version="1.1" id="Layer_1" xmlns="http://www.w3.org/2000/svg" xmlns:xlink="http://www.w3.org/1999/xlink" x="0px" y="0px"
	 viewBox="0 0 48 48" style="enable-background:new 0 0 48 48;" xml:space="preserve">
<path d="M47.1,21.3c-0.6-0.8-1.4-1.4-2.3-1.7l-2.5-0.9c-0.4-0.1-0.7-0.3-1-0.6c-0.3-0.3-0.5-0.6-0.7-0.9c-0.2-0.4-0.2-0.7-0.2-1.1
	s0.1-0.8,0.3-1.1l1.2-2.4c0.4-0.9,0.6-1.9,0.4-2.9c-0.2-1-0.6-1.9-1.3-2.6S39.4,6,38.4,5.8s-2,0-2.8,0.4l-2.4,1.2
	c-0.4,0.2-0.7,0.3-1.1,0.3c-0.4,0-0.8-0.1-1.1-0.2c-0.3-0.2-0.7-0.4-0.9-0.7c-0.3-0.3-0.5-0.6-0.6-1l-0.9-2.5
	c-0.3-0.9-0.9-1.7-1.7-2.3c-1.6-1.1-3.9-1.1-5.5,0c-0.8,0.6-1.4,1.4-1.7,2.3l-0.9,2.5c-0.1,0.4-0.3,0.7-0.6,1
	c-0.3,0.3-0.6,0.5-0.9,0.6c-0.4,0.2-0.7,0.2-1.1,0.2s-0.8-0.1-1.1-0.3l-2.4-1.2c-0.9-0.4-1.9-0.6-2.9-0.4C8.6,5.9,7.7,6.3,7,7
	S5.9,8.6,5.7,9.6c-0.2,1,0,2,0.4,2.9l1.2,2.4c0.2,0.4,0.3,0.7,0.3,1.1c0,0.4-0.1,0.8-0.2,1.1C7.2,17.5,7,17.8,6.7,18
	c-0.3,0.3-0.6,0.5-1,0.6l-2.5,0.9c-0.9,0.3-1.7,0.9-2.3,1.7C0.3,22.1,0,23,0,24s0.3,1.9,0.9,2.7c0.6,0.8,1.4,1.4,2.3,1.7l2.5,0.9
	c0.4,0.1,0.7,0.3,1,0.6c0.3,0.3,0.5,0.6,0.7,0.9s0.2,0.7,0.2,1.1c0,0.4-0.1,0.8-0.3,1.1l-1.2,2.4c-0.4,0.9-0.6,1.9-0.4,2.8
	c0.2,1,0.6,1.9,1.3,2.6c0.7,0.7,1.6,1.2,2.5,1.3c1,0.2,2,0,2.8-0.4l2.4-1.1c0.4-0.2,0.7-0.3,1.1-0.3c0.4,0,0.8,0.1,1.1,0.2
	c0.4,0.1,0.7,0.4,0.9,0.6c0.3,0.3,0.5,0.6,0.6,1l0.9,2.5c0.3,0.9,0.9,1.7,1.7,2.3c1.1,0.8,2,1.1,3,1.1s1.9-0.3,2.7-0.9
	c0.8-0.6,1.4-1.4,1.7-2.3l0.9-2.5c0.1-0.4,0.3-0.7,0.6-1c0.3-0.3,0.6-0.5,0.9-0.6c0.4-0.2,0.7-0.2,1.1-0.2c0.4,0,0.8,0.1,1.1,0.3
	l2.4,1.1c0.9,0.4,1.9,0.6,2.8,0.4c1-0.2,1.9-0.6,2.6-1.3c0.7-0.7,1.2-1.6,1.3-2.5c0.2-1,0-2-0.4-2.8l-1.2-2.4
	c-0.2-0.3-0.3-0.7-0.3-1.1c0-0.4,0.1-0.8,0.2-1.1c0.2-0.3,0.4-0.7,0.7-0.9c0.3-0.3,0.6-0.5,1-0.6l2.5-0.9c0.9-0.3,1.7-0.9,2.3-1.7
	s1.1-2,1.1-3S47.7,22.1,47.1,21.3z M45.5,25.6c-0.3,0.5-0.8,0.8-1.3,1l-2.5,0.9c-0.6,0.2-1.2,0.6-1.7,1c-0.5,0.5-0.9,1-1.1,1.6
	c-0.2,0.6-0.4,1.3-0.4,1.9c0,0.7,0.2,1.3,0.5,1.9l1.2,2.4c0.2,0.5,0.3,1.1,0.2,1.6c-0.1,0.6-0.4,1.1-0.8,1.5
	c-0.4,0.4-0.9,0.7-1.5,0.8s-1.1,0-1.7-0.2L34,38.9c-0.6-0.3-1.2-0.4-1.9-0.5c-0.7,0-1.3,0.1-1.9,0.4c-0.6,0.3-1.2,0.6-1.6,1.1
	c-0.5,0.5-0.8,1.1-1,1.7l-0.9,2.5c-0.2,0.5-0.5,1-1,1.3c-0.9,0.7-2.2,0.7-3.2,0c-0.5-0.3-0.8-0.8-1-1.3l-0.9-2.5
	c-0.2-0.6-0.6-1.2-1-1.7c-0.5-0.5-1-0.9-1.6-1.1c-0.6-0.2-1.2-0.4-1.8-0.4h-0.1c-0.7,0-1.3,0.2-1.9,0.5l-2.4,1.2
	c-0.5,0.2-1.1,0.3-1.7,0.2c-0.6-0.1-1.1-0.4-1.5-0.8c-0.4-0.4-0.7-0.9-0.8-1.5c-0.1-0.6,0-1.1,0.2-1.6L9.1,34
	c0.3-0.6,0.4-1.2,0.5-1.9c0-0.7-0.1-1.3-0.4-1.9C8.9,29.5,8.5,29,8,28.5s-1-0.8-1.7-1l-2.5-0.9c-0.5-0.2-1-0.5-1.3-1S2,24.6,2,24
	s0.2-1.1,0.5-1.6s0.8-0.8,1.3-1l2.5-0.9c0.6-0.2,1.2-0.6,1.7-1c0.5-0.5,0.9-1,1.1-1.6c0.2-0.6,0.4-1.3,0.4-1.9
	c0-0.7-0.2-1.3-0.5-1.9l-1.2-2.4C7.7,11,7.6,10.5,7.7,9.9C7.8,9.3,8,8.8,8.4,8.4c0.4-0.4,1-0.6,1.5-0.7c0.6-0.1,1.1,0,1.7,0.2L14,9
	c0.6,0.3,1.2,0.4,1.9,0.5c0.7,0,1.3-0.1,1.9-0.4C18.5,8.9,19,8.5,19.5,8s0.8-1,1-1.7l0.9-2.5c0.2-0.5,0.5-1,1-1.3
	c0.9-0.7,2.2-0.7,3.2,0c0.5,0.3,0.8,0.8,1,1.3l0.9,2.5c0.2,0.6,0.6,1.2,1,1.7c0.5,0.5,1,0.9,1.6,1.1c0.6,0.2,1.3,0.4,1.9,0.4
	c0.7,0,1.3-0.2,1.9-0.5l2.4-1.2c0.5-0.2,1.1-0.3,1.7-0.2c0.6,0.1,1.1,0.4,1.5,0.8c0.4,0.4,0.7,0.9,0.8,1.5s0,1.1-0.2,1.7L38.9,14
	c-0.3,0.6-0.4,1.2-0.5,1.9c0,0.7,0.1,1.3,0.4,1.9c0.3,0.6,0.6,1.2,1.1,1.6c0.5,0.5,1,0.8,1.7,1l2.5,0.9c0.5,0.2,1,0.5,1.3,1
	s0.5,1,0.5,1.6S45.8,25.1,45.5,25.6z M24,14c-5.5,0-10,4.5-10,10s4.5,10,10,10s10-4.5,10-10S29.5,14,24,14z M24,32c-4.4,0-8-3.6-8-8
	s3.6-8,8-8s8,3.6,8,8S28.4,32,24,32z"/>
</svg>
