<?xml version="1.0" encoding="utf-8"?>
<!-- Generator: Adobe Illustrator 26.0.2, SVG Export Plug-In . SVG Version: 6.00 Build 0)  -->
<svg version="1.1" id="Layer_1" xmlns="http://www.w3.org/2000/svg" xmlns:xlink="http://www.w3.org/1999/xlink" x="0px" y="0px"
	 viewBox="0 0 48 48" style="enable-background:new 0 0 48 48;" xml:space="preserve">
<path d="M48,23C48,10.6,38,0.6,25.6,0.6C13.3,0.6,3.3,10.6,3.3,23c0,3.6,0.8,7.1,2.5,10.2L0.1,45c-0.2,0.5-0.1,1,0.2,1.4
	c0.2,0.2,0.6,0.4,0.9,0.4c0.2,0,0.4,0,0.5-0.1L13,41.4c3.7,2.6,8.1,3.9,12.7,3.9c0.5,0,1,0,1.5,0c0.1,0,0.2,0,0.2,0
	c2.1,1.4,4.6,2.2,7.2,2.2c3.5,0,6.8-1.4,9.3-3.9s3.9-5.8,3.9-9.3c0-1.6-0.3-3.1-0.8-4.5C47.7,27.5,48,25.2,48,23z M42.5,42.1
	c-2.1,2.1-4.9,3.3-7.9,3.3s-5.8-1.2-7.9-3.3s-3.3-4.9-3.3-7.9s1.2-5.8,3.3-7.9s4.9-3.3,7.9-3.3s5.8,1.2,7.9,3.3
	c2.1,2.1,3.3,4.9,3.3,7.9C45.8,37.2,44.6,40,42.5,42.1z M45.6,26.9c-0.5-0.7-1-1.4-1.7-2.1c-2.5-2.5-5.8-3.9-9.3-3.9
	s-6.9,1.4-9.4,3.9s-3.9,5.8-3.9,9.4c0,3.4,1.3,6.7,3.7,9.1c-4-0.1-7.9-1.4-11.2-3.8l0,0c-0.1,0-0.1-0.1-0.2-0.1
	c-0.3-0.2-0.7-0.2-1-0.1L2.8,44l4.9-10.3c0-0.1,0.1-0.2,0.1-0.2c0.1-0.2,0-0.5-0.1-0.7c0-0.1-0.1-0.1-0.1-0.2l0,0
	c-1.6-2.9-2.4-6.2-2.4-9.5c0-11.2,9.1-20.4,20.4-20.4C36.9,2.6,46,11.7,46,23C46,24.3,45.9,25.6,45.6,26.9z M7.7,33.7
	c0-0.1,0.1-0.2,0.1-0.2s0,0.1-0.1,0.1V33.7z M7.8,33.5c0.1-0.2,0-0.5-0.1-0.7c0-0.1-0.1-0.1-0.1-0.2C7.9,32.8,7.9,33.1,7.8,33.5z
	 M13.8,39.5c-0.1,0-0.1-0.1-0.2-0.1c-0.3-0.2-0.7-0.2-1-0.1l0,0C13.1,39.1,13.5,39.2,13.8,39.5z M35.7,40c0,0.7-0.5,1.2-1.2,1.2
	s-1.2-0.5-1.2-1.2s0.5-1.2,1.2-1.2C35.1,38.8,35.7,39.4,35.7,40z M34.6,37.2c-0.6,0-1-0.4-1-1c0-1.4,1-1.8,1.6-2
	c0.1,0,0.3-0.1,0.4-0.2c1.1-0.5,1.7-1.8,1.4-3s-1.5-2-2.7-1.8c-1.3,0.3-1.7,0.8-2.3,2c-0.2,0.5-0.8,0.7-1.3,0.5s-0.7-0.8-0.5-1.3
	c0.6-1.3,1.5-2.8,3.8-3.1c2.2-0.3,4.3,1.1,4.9,3.2c0.6,2.2-0.5,4.4-2.5,5.3C36.2,35.9,36,36,35.8,36c-0.1,0-0.2,0.1-0.2,0.1l0,0
	C35.6,36.8,35.2,37.2,34.6,37.2z"/>
</svg>
