<?xml version="1.0" encoding="utf-8"?>
<!-- Generator: Adobe Illustrator 26.0.3, SVG Export Plug-In . SVG Version: 6.00 Build 0)  -->
<svg version="1.1" id="Layer_1" xmlns="http://www.w3.org/2000/svg" xmlns:xlink="http://www.w3.org/1999/xlink" x="0px" y="0px"
	 viewBox="0 0 48 48" style="enable-background:new 0 0 48 48;" xml:space="preserve">
<style type="text/css">
	.st0{fill-rule:evenodd;clip-rule:evenodd;}
</style>
<path d="M11,3.9c3.3-2.2,7.2-3.4,11.1-3.4c3.7,0,6.8,0.8,9.3,2.2c2.5,1.4,4.5,3.4,6.2,5.8c2.7,3.9,4.6,9,6.6,14.3
	c0.4,1.1,0.8,2.2,1.3,3.3l0,0c0.1,0.4,0.2,0.8,0.1,1.2c0,0.4-0.2,0.8-0.4,1.1c-0.2,0.3-0.5,0.6-0.9,0.8c-0.4,0.2-0.8,0.3-1.2,0.3h0
	h-2.8v5c0,1.9-0.7,3.6-2.1,4.9c-1.3,1.3-3.1,2.1-4.9,2.1h-2v5c0,0.6-0.4,1-1,1c-0.6,0-1-0.4-1-1v-6c0-0.6,0.4-1,1-1h3
	c1.3,0,2.6-0.5,3.5-1.5c0.9-0.9,1.5-2.2,1.5-3.5v-6c0-0.6,0.4-1,1-1h3.8c0.1,0,0.2,0,0.2-0.1c0.1,0,0.1-0.1,0.2-0.2
	c0-0.1,0.1-0.1,0.1-0.2c0-0.1,0-0.2,0-0.2c-0.5-1.2-0.9-2.3-1.3-3.4c-2-5.3-3.8-10.1-6.4-13.8c-1.5-2.2-3.3-4-5.5-5.2
	c-2.2-1.2-4.9-1.9-8.3-1.9h0c-3.6,0-7.1,1.1-10,3.1c-2.9,2-5.2,4.9-6.5,8.2c-1.3,3.3-1.6,7-0.8,10.4c0.8,3.5,2.6,6.6,5.2,9.1
	c0.2,0.2,0.3,0.5,0.3,0.7v12.5c0,0.6-0.4,1-1,1c-0.6,0-1-0.4-1-1V34.4c-2.7-2.7-4.7-6-5.5-9.8C2,20.8,2.3,16.7,3.7,13
	C5.2,9.3,7.7,6.2,11,3.9z"/>
<path class="st0" d="M30.8,17.7c0.2-1.2,0-2.4-0.5-3.5c-0.4-0.8-1-1.5-1.7-2.1c-0.7-0.5-1.6-0.9-2.5-1c-0.9-0.1-1.8-0.1-2.7,0.2
	c-0.9,0.3-1.7,0.8-2.3,1.4l-0.6,0.6l-0.6-0.6c-0.6-0.6-1.4-1.1-2.3-1.4c-0.9-0.3-1.8-0.4-2.7-0.2c-0.9,0.1-1.8,0.5-2.5,1
	c-0.7,0.5-1.3,1.3-1.7,2.1c-0.5,1.1-0.7,2.3-0.5,3.5c0.2,1.2,0.8,2.3,1.6,3.1l8.1,8.4c0.2,0.2,0.4,0.3,0.7,0.3
	c0.3,0,0.5-0.1,0.7-0.3l8.1-8.4C30,20,30.6,18.9,30.8,17.7z M25.7,13c-0.6-0.1-1.2,0-1.8,0.1c-0.6,0.2-1.1,0.5-1.5,0.9l-1.3,1.3
	c-0.4,0.4-1,0.4-1.4,0l-1.3-1.3c-0.4-0.4-0.9-0.7-1.5-0.9C16.3,13,15.7,13,15.1,13c-0.6,0.1-1.1,0.3-1.6,0.7s-0.9,0.8-1.1,1.4
	c-0.4,0.7-0.5,1.5-0.3,2.3c0.1,0.8,0.5,1.5,1.1,2.1l0,0l7.3,7.7l7.3-7.7l0,0c0.6-0.6,0.9-1.3,1.1-2.1c0.1-0.8,0-1.6-0.4-2.3
	c-0.3-0.5-0.7-1-1.1-1.4C26.8,13.4,26.3,13.1,25.7,13z"/>
</svg>
