<?xml version="1.0" encoding="utf-8"?>
<!-- Generator: Adobe Illustrator 26.0.2, SVG Export Plug-In . SVG Version: 6.00 Build 0)  -->
<svg version="1.1" id="Layer_1" xmlns="http://www.w3.org/2000/svg" xmlns:xlink="http://www.w3.org/1999/xlink" x="0px" y="0px"
	 viewBox="0 0 48 48" style="enable-background:new 0 0 48 48;" xml:space="preserve">
<path d="M48,19v14c0,0.5-0.5,1-1,1s-1-0.5-1-1V21.4L32.1,35.3c-1.2,1.2-3.1,1.2-4.2,0l-6.2-6.2c-0.4-0.4-1-0.4-1.4,0L1.7,47.7
	C1.5,47.9,1.3,48,1,48s-0.5-0.1-0.7-0.3c-0.4-0.4-0.4-1,0-1.4l18.6-18.6c1.2-1.2,3.1-1.2,4.2,0l6.2,6.2c0.4,0.4,1,0.4,1.4,0L44.6,20
	H33c-0.5,0-1-0.5-1-1s0.5-1,1-1h14c0.1,0,0.2,0,0.2,0h0.1c0.1,0.1,0.2,0.1,0.3,0.2s0.2,0.2,0.2,0.3v0.1C48,18.8,48,18.9,48,19z
	 M13,23c-0.3,0-0.5-0.1-0.7-0.3L2.1,12C0,9.9-0.6,6.6,0.8,3.9c1.7-3.5,6-4.9,9.5-3.2C11,1,11.6,1.5,12.1,2l1,1l1-1
	c1.2-1.3,3-2,4.9-2s3.7,0.7,5,2.1c0.5,0.5,1,1.2,1.3,1.8c1.4,2.7,0.8,6-1.3,8.1L13.7,22.7C13.5,22.9,13.3,23,13,23z M7.1,2
	C5.2,2,3.4,3,2.5,4.8c-1,1.9-0.6,4.3,0.9,5.8l9.5,9.9l9.5-9.9c1.6-1.6,1.9-3.9,1-5.8c-0.2-0.5-0.6-0.9-0.9-1.3c-1-1-2.2-1.5-3.6-1.5
	c-1.3,0-2.6,0.5-3.6,1.5l-1.7,1.7c-0.4,0.4-1,0.4-1.4,0l-1.7-1.7c-0.4-0.4-0.8-0.7-1.3-0.9C8.6,2.2,7.8,2,7.1,2z"/>
</svg>
