<?xml version="1.0" encoding="utf-8"?>
<!-- Generator: Adobe Illustrator 26.0.2, SVG Export Plug-In . SVG Version: 6.00 Build 0)  -->
<svg version="1.1" id="Layer_1" xmlns="http://www.w3.org/2000/svg" xmlns:xlink="http://www.w3.org/1999/xlink" x="0px" y="0px"
	 viewBox="0 0 48 48" style="enable-background:new 0 0 48 48;" xml:space="preserve">
<path d="M24,31.8c-0.6,0-1-0.4-1-1s0.4-1,1-1c3.3,0,6-2.7,6-6c0-0.6,0.4-1,1-1s1,0.4,1,1C32,28.2,28.4,31.8,24,31.8z M17,24.8
	c-0.6,0-1-0.4-1-1c0-4.4,3.6-8,8-8c0.6,0,1,0.4,1,1s-0.4,1-1,1c-3.3,0-6,2.7-6,6C18,24.4,17.5,24.8,17,24.8z M24,37.8
	c-1.5,0-3-0.2-4.5-0.5c-0.5-0.1-0.9-0.6-0.8-1.2c0.1-0.5,0.6-0.9,1.2-0.8c1.4,0.3,2.8,0.4,4.1,0.4c10.6,0,19.5-9.1,22-11.9
	c-1.3-1.5-5-5.3-9.9-8.2c-0.5-0.3-0.6-0.9-0.4-1.4c0.3-0.5,0.9-0.6,1.4-0.4c5.2,3.1,9,7.1,10.4,8.6c0.7,0.8,0.7,1.9,0,2.6
	C44.9,28.1,35.4,37.8,24,37.8z M10.6,33.4c-0.2,0-0.4,0-0.5-0.2c-4.8-3-8.3-6.7-9.6-8.2c-0.7-0.8-0.7-1.9,0-2.6
	C3.1,19.5,12.6,9.9,24,9.9c1.6,0,3.2,0.2,4.8,0.5c0.5,0.1,0.9,0.7,0.8,1.2s-0.7,0.9-1.2,0.8c-1.5-0.3-2.9-0.5-4.3-0.5
	C13.4,11.9,4.5,21,2,23.8c1.2,1.4,4.6,4.9,9.1,7.8c0.5,0.3,0.6,0.9,0.3,1.4C11.3,33.3,10.9,33.4,10.6,33.4z M11.1,40.6
	c-0.2,0-0.4-0.1-0.6-0.2c-0.4-0.3-0.5-1-0.1-1.4L36.2,7.4c0.3-0.4,1-0.5,1.4-0.1c0.4,0.3,0.5,1,0.1,1.4L11.8,40.3
	C11.6,40.5,11.4,40.6,11.1,40.6z"/>
</svg>
