<?xml version="1.0" encoding="utf-8"?>
<!-- Generator: Adobe Illustrator 26.0.2, SVG Export Plug-In . SVG Version: 6.00 Build 0)  -->
<svg version="1.1" id="Layer_1" xmlns="http://www.w3.org/2000/svg" xmlns:xlink="http://www.w3.org/1999/xlink" x="0px" y="0px"
	 viewBox="0 0 48 48" style="enable-background:new 0 0 48 48;" xml:space="preserve">
<path d="M46.8,11.1l-9.9-9.9c-1.6-1.6-4.1-1.6-5.7,0c-1.6,1.5-1.6,4.1,0,5.6L16.9,20.9C16.3,21.5,16,22.2,16,23v7.5l-8.6,8.7
	c-0.9-0.7-2.1-0.8-3.1-0.3l-3.1,1.6c-0.2,0.1-0.4,0.2-0.5,0.4c-0.8,0.8-0.8,2,0,2.8l3.7,3.7c0.2,0.2,0.3,0.3,0.5,0.4
	C5.1,47.9,5.4,48,5.7,48c0.2,0,0.4,0,0.6-0.1c0.5-0.2,0.9-0.5,1.2-1L9,43.8c0.5-1,0.4-2.2-0.3-3.1l8.6-8.6H25c0.8,0,1.6-0.3,2.1-0.9
	l14.1-14.3c0.8,0.7,1.7,1.1,2.7,1.1s2-0.4,2.8-1.2C47.6,16,48,15,48,13.9S47.6,11.8,46.8,11.1z M7.3,42.9L5.7,46L2,42.3l3.1-1.6
	c0.1-0.1,0.3-0.1,0.4-0.1c0.3,0,0.5,0.1,0.7,0.3L7,41.7C7.4,42,7.5,42.5,7.3,42.9z M25.7,29.7C25.5,29.9,25.3,30,25,30h-7v-6.9
	c0-0.3,0.1-0.5,0.3-0.7l4.6-4.5l7.3,7.3L25.7,29.7z M31.6,23.8l-7.3-7.3l8.4-8.2l7.2,7.2L31.6,23.8z M45.4,15.3
	c-0.8,0.8-2,0.8-2.8,0l-0.5-0.5l-0.3-0.3l0,0l-8.4-8.4l0,0l-0.7-0.7c-0.8-0.8-0.8-2,0-2.8C33.1,2.2,33.6,2,34.1,2s1,0.2,1.4,0.6
	l9.9,9.9c0.4,0.4,0.6,0.9,0.6,1.4S45.8,14.9,45.4,15.3z"/>
</svg>
