<?xml version="1.0" encoding="utf-8"?>
<!-- Generator: Adobe Illustrator 26.0.2, SVG Export Plug-In . SVG Version: 6.00 Build 0)  -->
<svg version="1.1" id="Layer_1" xmlns="http://www.w3.org/2000/svg" xmlns:xlink="http://www.w3.org/1999/xlink" x="0px" y="0px"
	 viewBox="0 0 48 48" style="enable-background:new 0 0 48 48;" xml:space="preserve">
<path d="M37,48c-0.2,0-0.5-0.1-0.7-0.3L27.6,40H3c-1.7,0-3-1.3-3-3V25c0-1.7,1.3-3,3-3h3c0.6,0,1,0.4,1,1s-0.4,1-1,1H3
	c-0.6,0-1,0.4-1,1v12c0,0.6,0.4,1,1,1h25c0.2,0,0.5,0.1,0.7,0.3l7.3,6.5V39c0-0.6,0.4-1,1-1h8c0.6,0,1-0.4,1-1V25c0-0.6-0.4-1-1-1
	H21c-0.6,0-1-0.4-1-1s0.4-1,1-1h24c1.7,0,3,1.3,3,3v12c0,1.7-1.3,3-3,3h-7v7c0,0.4-0.2,0.8-0.6,0.9C37.3,48,37.1,48,37,48z M11,26
	c-0.1,0-0.3,0-0.4-0.1C10.2,25.8,10,25.4,10,25v-7H3c-1.7,0-3-1.3-3-3V3c0-1.7,1.3-3,3-3h42c1.7,0,3,1.3,3,3v12c0,1.7-1.3,3-3,3
	H20.4l-8.7,7.7C11.5,25.9,11.2,26,11,26z M3,2C2.5,2,2,2.4,2,3v12c0,0.6,0.4,1,1,1h8c0.6,0,1,0.4,1,1v5.8l7.3-6.5
	c0.2-0.2,0.4-0.3,0.7-0.3h25c0.6,0,1-0.4,1-1V3c0-0.6-0.4-1-1-1H3z"/>
</svg>
