<?xml version="1.0" encoding="utf-8"?>
<!-- Generator: Adobe Illustrator 26.0.2, SVG Export Plug-In . SVG Version: 6.00 Build 0)  -->
<svg version="1.1" id="Layer_1" xmlns="http://www.w3.org/2000/svg" xmlns:xlink="http://www.w3.org/1999/xlink" x="0px" y="0px"
	 viewBox="0 0 48 48" style="enable-background:new 0 0 48 48;" xml:space="preserve">
<path d="M19.4,48c-4.5,0-8.2-3.5-8.2-7.9V21c0-6.1,5.2-11,11.5-11c6.4,0,11.5,4.9,11.5,11v1.6c0,3-2.5,5.4-5.7,5.4
	c-2,0-3.7,1.5-3.7,3.4c0,0.4,0.1,0.9,0.3,1.3l1.9,4.5c0.8,1.9,0.8,4,0,5.9c-0.9,2-2.5,3.5-4.6,4.3C21.5,47.8,20.5,48,19.4,48
	L19.4,48C19.5,48,19.5,48,19.4,48z M22.8,12c-5.3,0-9.5,4-9.5,9v19.1c0,3.2,2.8,5.9,6.2,5.9l0,0l0,0c0.8,0,1.6-0.1,2.3-0.4
	c1.6-0.6,2.8-1.8,3.5-3.3c0.6-1.4,0.6-2.9,0-4.3l-1.9-4.5c-0.3-0.6-0.4-1.3-0.4-2c0-3,2.5-5.4,5.7-5.4c2,0,3.7-1.5,3.7-3.4V21
	C32.3,16,28,12,22.8,12z M35.4,10c-2.9,0-5.2-2.2-5.2-5s2.3-5,5.2-5s5.2,2.2,5.2,5S38.3,10,35.4,10z M35.4,2c-1.8,0-3.2,1.3-3.2,3
	s1.4,3,3.2,3s3.2-1.3,3.2-3S37.2,2,35.4,2z M24.9,6c-1.7,0-3.1-1.3-3.1-3s1.4-3,3.1-3S28,1.3,28,3S26.6,6,24.9,6z M24.9,2
	c-0.6,0-1.1,0.4-1.1,1s0.5,1,1.1,1S26,3.6,26,3S25.5,2,24.9,2z M16.4,7c-1.7,0-3.1-1.3-3.1-3s1.4-3,3.1-3s3.1,1.3,3.1,3
	S18.1,7,16.4,7z M16.4,3c-0.6,0-1.1,0.4-1.1,1s0.5,1,1.1,1s1.1-0.4,1.1-1S17,3,16.4,3z M10.1,12C8.4,12,7,10.7,7,9s1.4-3,3.1-3
	s3.1,1.3,3.1,3S11.8,12,10.1,12z M10.1,8C9.5,8,9,8.4,9,9s0.5,1,1.1,1s1.1-0.4,1.1-1S10.7,8,10.1,8z"/>
</svg>
