<?xml version="1.0" encoding="utf-8"?>
<!-- Generator: Adobe Illustrator 26.0.2, SVG Export Plug-In . SVG Version: 6.00 Build 0)  -->
<svg version="1.1" id="Layer_1" xmlns="http://www.w3.org/2000/svg" xmlns:xlink="http://www.w3.org/1999/xlink" x="0px" y="0px"
	 viewBox="0 0 48 48" style="enable-background:new 0 0 48 48;" xml:space="preserve">
<path d="M46.7,8.7c-0.2-0.5-0.5-0.9-0.9-1.2C39.6,2.6,31.9-0.1,24,0C16.2-0.1,8.4,2.6,2.2,7.5C1.8,7.8,1.5,8.2,1.3,8.7
	s-0.3,1-0.2,1.5l3.7,35.2c0.1,0.7,0.4,1.4,1,1.9s1.3,0.8,2,0.8h32.4c0.7,0,1.5-0.3,2-0.8s0.9-1.2,1-1.9l3.7-35.2
	C46.9,9.7,46.9,9.2,46.7,8.7z M41.2,45.1c0,0.2-0.1,0.5-0.3,0.6c-0.2,0.2-0.4,0.3-0.7,0.3H7.8c-0.2,0-0.5-0.1-0.7-0.3
	s-0.3-0.4-0.3-0.6L3.1,10c0-0.2,0-0.3,0.1-0.5c0.1-0.1,0.2-0.3,0.3-0.4C9.3,4.5,16.6,1.9,24,2c7.4,0,14.7,2.5,20.5,7.1
	c0.1,0.1,0.2,0.2,0.3,0.4s0.1,0.3,0.1,0.5L41.2,45.1z M15.2,41.9c-1.4,0-2.7-0.5-3.7-1.4c-1.1-1-1.8-2.3-1.9-3.7l-0.7-8.1
	c-0.1-0.8,0-1.6,0.3-2.4s0.6-1.5,1.2-2.1c0.5-0.6,1.2-1.1,1.9-1.5s1.5-0.6,2.3-0.6s1.6,0.1,2.4,0.4s1.5,0.7,2,1.3
	c0.6,0.6,1.1,1.2,1.4,2s0.5,1.5,0.5,2.4v8.1c0,1.5-0.5,2.8-1.6,3.9c-1,1.1-2.4,1.7-3.8,1.7C15.3,41.9,15.2,41.9,15.2,41.9z
	 M14.8,24.1c-0.1,0-0.1,0-0.2,0c-0.5,0-1.1,0.2-1.6,0.4c-0.5,0.2-0.9,0.6-1.3,1c-0.4,0.4-0.6,0.9-0.8,1.4s-0.2,1.1-0.2,1.6l0.7,8.1
	l0,0c0.1,0.9,0.5,1.8,1.2,2.4c0.7,0.6,1.6,0.9,2.6,0.9c0.9,0,1.8-0.4,2.5-1.1c0.6-0.7,1-1.6,1-2.5v-8.1c0-0.5-0.1-1.1-0.3-1.6
	c-0.2-0.5-0.5-0.9-0.9-1.3s-0.9-0.7-1.4-0.9C15.7,24.2,15.3,24.1,14.8,24.1z M32.8,41.9c-0.1,0-0.2,0-0.3,0
	c-1.5-0.1-2.8-0.7-3.8-1.7c-1-1.1-1.6-2.4-1.6-3.9v-8.1c0-0.8,0.2-1.6,0.5-2.4s0.8-1.4,1.4-2s1.3-1,2-1.3c0.8-0.3,1.6-0.4,2.4-0.4
	c0.8,0,1.6,0.2,2.3,0.6s1.4,0.8,1.9,1.5c0.5,0.6,0.9,1.3,1.2,2.1c0.3,0.8,0.3,1.6,0.3,2.4l-0.7,8.1c-0.1,1.5-0.8,2.8-1.9,3.7
	C35.5,41.4,34.2,41.9,32.8,41.9z M33.2,24.1c-0.5,0-1,0.1-1.4,0.3c-0.5,0.2-1,0.5-1.4,0.9s-0.7,0.8-0.9,1.3c-0.2,0.5-0.3,1-0.3,1.6
	v8.1c0,0.9,0.4,1.8,1,2.5s1.5,1.1,2.5,1.1c0.9,0,1.8-0.3,2.6-0.9c0.7-0.6,1.1-1.5,1.2-2.4l0,0l0.7-8.1c0.1-0.5,0-1.1-0.2-1.6
	s-0.4-1-0.8-1.4c-0.4-0.4-0.8-0.7-1.3-1c-0.5-0.2-1-0.4-1.6-0.4C33.3,24.1,33.3,24.1,33.2,24.1z M41.8,9.8c-0.2-0.3-0.4-0.5-0.7-0.7
	c-2.8-1.8-5.9-3.2-9.1-4c-0.8-0.2-1.5-0.4-2.3-0.5C26.2,3.9,22.6,3.8,19,4.4c-0.3,0-0.5,0.1-0.8,0.1C14.1,5.3,10.3,6.8,6.8,9
	C6.6,9.2,6.4,9.5,6.2,9.8C6,10.1,6,10.4,6,10.8V16c0,0.5,0.2,1,0.6,1.4S7.5,18,8,18h32c0.5,0,1-0.2,1.4-0.6C41.8,17,42,16.5,42,16
	v-5.3C42,10.4,41.9,10.1,41.8,9.8z M23.4,16l0.6-1.8l0.6,1.8H23.4z M40,16H26.7L25,10.7c-0.1-0.4-0.5-0.7-1-0.7s-0.8,0.3-1,0.7
	L21.3,16H8v-5.3c1.4-0.9,3-1.7,4.5-2.4l0.7,1.9c0.2,0.4,0.5,0.6,0.9,0.6c0.1,0,0.2,0,0.4-0.1c0.5-0.2,0.8-0.8,0.6-1.3l-0.7-1.9
	c1.1-0.4,2.2-0.7,3.3-0.9l0.3,2c0.1,0.5,0.5,0.8,1,0.8c0.1,0,0.1,0,0.2,0c0.5-0.1,0.9-0.6,0.8-1.2l-0.4-2C20.8,6.2,21.9,6,23,6v2
	c0,0.5,0.5,1,1,1s1-0.5,1-1V6c1.1,0,2.3,0.1,3.4,0.3l-0.4,2c-0.1,0.5,0.2,1.1,0.8,1.2c0.1,0,0.1,0,0.2,0c0.5,0,0.9-0.3,1-0.8l0.4-2
	c0.4,0.1,0.8,0.2,1.2,0.3c0.7,0.2,1.4,0.4,2.1,0.7L33,9.6c-0.2,0.5,0,1.1,0.6,1.3c0.1,0,0.2,0.1,0.4,0.1c0.4,0,0.8-0.2,0.9-0.6
	l0.7-1.9c1.6,0.7,3.1,1.5,4.5,2.4V16H40z"/>
</svg>
