<?xml version="1.0" encoding="utf-8"?>
<!-- Generator: Adobe Illustrator 26.0.2, SVG Export Plug-In . SVG Version: 6.00 Build 0)  -->
<svg version="1.1" id="Layer_1" xmlns="http://www.w3.org/2000/svg" xmlns:xlink="http://www.w3.org/1999/xlink" x="0px" y="0px"
	 viewBox="0 0 48 48" style="enable-background:new 0 0 48 48;" xml:space="preserve">
<path d="M17.8,35c-0.5,0-0.9-0.2-1.3-0.5c-0.3-0.3-0.6-0.7-0.7-1.1c-0.2-1.2-0.4-2.4-0.4-3.6c0-2,0.3-4,1-5.9
	C14.8,22,14,19.4,14,16.1c0-4,2.6-7.1,5.9-7.1c1,0,2,0.3,2.8,0.7c0.5,0.3,0.9,0.6,1.3,1c0.4-0.4,0.8-0.7,1.3-1
	C26.1,9.3,27.1,9,28.1,9c3.3,0,5.9,3.1,5.9,7.1c0,3.2-0.8,5.9-2.5,7.8c0.7,1.9,1,3.9,1,5.9c0,1.2-0.1,2.4-0.4,3.6
	c-0.1,0.5-0.3,0.9-0.7,1.1c-0.3,0.3-0.8,0.5-1.3,0.5s-1-0.2-1.4-0.5s-0.6-0.8-0.7-1.3c-0.4-3.3-2.2-5.8-4.2-5.8s-3.8,2.5-4.2,5.8
	c-0.1,0.5-0.3,1-0.7,1.3C18.8,34.8,18.3,35,17.8,35z M19.9,11c-2.1,0-3.9,2.3-3.9,5.1c0,3,0.8,5.3,2.4,6.9c0.3,0.3,0.4,0.7,0.2,1.1
	c-0.7,1.8-1.1,3.8-1.1,5.7c0,1.1,0.1,2.2,0.3,3.2c0.5-4.4,3.1-7.6,6.2-7.6s5.7,3.2,6.2,7.6c0.2-1,0.3-2.1,0.3-3.1
	c0-2-0.4-3.9-1.1-5.7c-0.2-0.4-0.1-0.8,0.2-1.1c1.6-1.6,2.4-3.9,2.4-6.9c0-2.8-1.7-5.1-3.9-5.1c-0.7,0-1.3,0.2-1.9,0.5
	s-1.1,0.8-1.4,1.4c-0.4,0.6-1.3,0.6-1.7,0c-0.3-0.6-0.8-1-1.4-1.4C21.2,11.2,20.5,11,19.9,11z M24.3,48c-0.9,0-1.8-0.2-2.6-0.5
	l-2.1-0.8C9.5,42.9,3,33.6,3,23V7.5c0-1.6,0.9-3.1,2.4-3.7C11.5,1.2,17.8-0.1,24.3,0c6.3-0.1,12.7,1.2,19,3.8
	c1.5,0.7,2.4,2.1,2.4,3.7V23c0,10.4-6.7,19.9-16.5,23.6L27,47.4C26.1,47.8,25.2,48,24.3,48z M23.6,2c-6,0-11.9,1.2-17.4,3.6
	C5.5,6,5,6.7,5,7.5V23c0,9.7,6,18.3,15.3,21.8l2.2,0.8c1.2,0.5,2.5,0.5,3.8,0l2.2-0.8c9.1-3.4,15.2-12.2,15.2-21.8V7.5
	c0-0.8-0.5-1.6-1.2-1.9c-6-2.5-12.1-3.7-18.2-3.6C24.1,2,23.9,2,23.6,2z"/>
</svg>
