<?xml version="1.0" encoding="utf-8"?>
<!-- Generator: Adobe Illustrator 26.0.2, SVG Export Plug-In . SVG Version: 6.00 Build 0)  -->
<svg version="1.1" id="Layer_1" xmlns="http://www.w3.org/2000/svg" xmlns:xlink="http://www.w3.org/1999/xlink" x="0px" y="0px"
	 viewBox="0 0 48 48" style="enable-background:new 0 0 48 48;" xml:space="preserve">
<path d="M6,30c-3.3,0-6-2.7-6-6s2.7-6,6-6s6,2.7,6,6S9.3,30,6,30z M6,20c-2.2,0-4,1.8-4,4s1.8,4,4,4s4-1.8,4-4S8.2,20,6,20z M24,48
	c-0.6,0-1.2-0.1-1.8-0.4c-0.5-0.2-0.9-0.6-1.2-0.9c-0.7,0.8-1.8,1.4-3,1.4c-2.2,0-4-1.8-4-4V4c0-2.2,1.8-4,4-4s4,1.8,4,4v14h11l0,0
	c1.9,0,3.7,1.1,4.5,2.9c1,2.1,2.4,5.2,3.9,8.4c2.6,5.6,5.6,12,6.1,13s0.6,2,0.2,3.1c-0.3,1-1.1,1.8-2,2.3l0,0c-2,1-4.4,0.2-5.4-1.8
	L34,32.3l-6.4,13.4c-0.5,1-1.3,1.7-2.3,2C24.8,47.9,24.4,48,24,48z M45.3,46.7L45.3,46.7L45.3,46.7z M22,44.1c0,0.2,0,0.4,0.1,0.6
	c0.2,0.5,0.5,0.9,1,1.2c0.5,0.2,1,0.3,1.5,0.1s0.9-0.5,1.2-1l7.3-15.3c0.2-0.3,0.5-0.6,0.9-0.6l0,0c0.4,0,0.7,0.2,0.9,0.6L42.2,45
	c0.5,1,1.7,1.4,2.7,0.9c0.5-0.2,0.8-0.6,1-1.2s0.1-1-0.1-1.5c-0.5-1-3.4-7.1-6.1-13c-1.5-3.2-3-6.3-3.9-8.4c-0.5-1-1.6-1.7-2.7-1.7
	l0,0H21c-0.6,0-1-0.4-1-1V4c0-1.1-0.9-2-2-2s-2,0.9-2,2v40c0,1.1,0.9,2,2,2s2-0.9,2-1.9c0-0.1,0-0.2,0-0.2V29c0-0.6,0.4-1,1-1h6.6
	c0.3,0,0.7,0.2,0.8,0.5c0.2,0.3,0.2,0.6,0.1,1l-6.3,13.7C22.1,43.5,22,43.8,22,44.1L22,44.1C22,44,22,44,22,44.1z M22,30v8.8
	l4.1-8.8H22z"/>
</svg>
