<?xml version="1.0" encoding="utf-8"?>
<!-- Generator: Adobe Illustrator 26.0.2, SVG Export Plug-In . SVG Version: 6.00 Build 0)  -->
<svg version="1.1" id="Layer_1" xmlns="http://www.w3.org/2000/svg" xmlns:xlink="http://www.w3.org/1999/xlink" x="0px" y="0px"
	 viewBox="0 0 48 48" style="enable-background:new 0 0 48 48;" xml:space="preserve">
<path d="M35,48c-7.2,0-13-5.8-13-13s5.8-13,13-13s13,5.8,13,13S42.2,48,35,48z M35,24c-6.1,0-11,4.9-11,11s4.9,11,11,11
	s11-4.9,11-11S41.1,24,35,24z M17,30H7c-0.5,0-1,0.5-1,1s0.5,1,1,1h10c0.5,0,1-0.5,1-1S17.5,30,17,30z M19,24H7c-0.5,0-1,0.5-1,1
	s0.5,1,1,1h12c0.5,0,1-0.5,1-1S19.5,24,19,24z M23,18H7c-0.5,0-1,0.5-1,1s0.5,1,1,1h16c0.5,0,1-0.5,1-1S23.5,18,23,18z M16,12H7
	c-0.5,0-1,0.5-1,1s0.5,1,1,1h9c0.5,0,1-0.5,1-1S16.5,12,16,12z M33.7,10.3l-10-10C23.5,0.1,23.3,0,23,0H1C0.5,0,0,0.5,0,1v42
	c0,0.5,0.5,1,1,1h20c0.5,0,1-0.5,1-1s-0.5-1-1-1H2V2h20v9c0,0.5,0.5,1,1,1h9v7c0,0.5,0.5,1,1,1s1-0.5,1-1v-8
	C34,10.7,33.9,10.5,33.7,10.3z M24,10V3.4l6.6,6.6H24z M35,42.5c-0.6,0-1-0.4-1-1v-0.6h-1.4c-0.6,0-1-0.4-1-1s0.4-1,1-1h3.3
	c0.5,0,0.9-0.3,1.1-0.7c0.2-0.6,0-1.3-0.6-1.5L33,35.4c-1.2-0.5-2-1.6-2-2.9c0-1.7,1.3-3.1,3-3.1v-0.6c0-0.6,0.4-1,1-1s1,0.4,1,1
	v0.6h1.4c0.6,0,1,0.4,1,1s-0.4,1-1,1h-3.2c-0.6,0-1.1,0.5-1.1,1.1c0,0.5,0.3,0.9,0.7,1.1l3.3,1.3c1.6,0.6,2.4,2.5,1.7,4.1
	c-0.5,1.2-1.5,1.9-2.8,2v0.6C36,42.1,35.6,42.5,35,42.5z"/>
</svg>
