<?xml version="1.0" encoding="utf-8"?>
<!-- Generator: Adobe Illustrator 26.0.2, SVG Export Plug-In . SVG Version: 6.00 Build 0)  -->
<svg version="1.1" id="Layer_1" xmlns="http://www.w3.org/2000/svg" xmlns:xlink="http://www.w3.org/1999/xlink" x="0px" y="0px"
	 viewBox="0 0 48 48" style="enable-background:new 0 0 48 48;" xml:space="preserve">
<path d="M28.6,17.3c-0.1,0-0.3,0-0.4-0.1c-3.5-1.7-7.9-1.7-11.4,0c-0.5,0.2-1.1,0-1.3-0.5s0-1.1,0.5-1.3c4.1-2,9.1-2,13.2,0
	c0.5,0.2,0.7,0.8,0.5,1.3C29.3,17.1,29,17.3,28.6,17.3z M14.3,23.2c0,0.3-0.1,0.7-0.3,1s-0.5,0.5-0.8,0.7C13,25,12.7,25,12.5,25
	c-0.1,0-0.2,0-0.3,0c-0.3-0.1-0.7-0.2-0.9-0.5c-0.2-0.2-0.4-0.6-0.5-0.9s0-0.7,0.1-1s0.4-0.6,0.7-0.8c0.7-0.5,1.6-0.4,2.2,0.2
	C14.1,22.3,14.3,22.8,14.3,23.2z M47,18.4c-0.5,0-1,0.5-1,1c0,1.4-0.5,2.7-1.5,3.6c-0.7,0.7-1.7,1.2-2.7,1.4
	c-0.3-5.1-2.8-9.6-7-12.6C29.6,8.1,22.3,6.9,16,8.7c-2.9-4.1-8.7-4.2-8.9-4.2l0,0c-0.3,0-0.6,0.1-0.8,0.3C6.2,5.2,6.1,5.5,6.1,5.7
	l1.2,8.5c-1.5,1.7-2.6,3.6-3.3,5.7H1c-0.5,0-1,0.5-1,1v12.3c0,0.5,0.5,1,1,1h4.5c1,1.6,2.2,3.1,3.7,4.3v5.4c0,0.7,0.3,1.3,0.7,1.8
	c0.5,0.5,1.1,0.7,1.8,0.7h3.1c0.7,0,1.3-0.3,1.8-0.7c0.5-0.5,0.7-1.1,0.7-1.8v-1.2c3.3,0.9,6.9,0.9,10.3,0v1.2
	c0,0.7,0.3,1.3,0.7,1.8c0.5,0.5,1.1,0.7,1.8,0.7h3.1c0.7,0,1.3-0.3,1.8-0.7c0.5-0.5,0.7-1.1,0.7-1.8v-5.4c1.8-1.5,3.3-3.5,4.4-5.6
	c1-2,1.6-4.2,1.7-6.5c1.5-0.2,3-0.9,4.1-2c1.4-1.3,2.1-3.1,2.1-5C48,18.8,47.5,18.4,47,18.4z M39.9,25.5c0,2.3-0.6,4.5-1.5,6.5
	c-1,2-2.5,3.8-4.2,5.2c-0.2,0.2-0.4,0.5-0.4,0.8v5.9c0,0.1,0,0.3-0.1,0.4c-0.1,0.1-0.2,0.2-0.4,0.2h-3.1c-0.1,0-0.3-0.1-0.4-0.2
	c-0.1-0.1-0.2-0.2-0.2-0.4v-2.5c0-0.3-0.1-0.6-0.4-0.8c-0.2-0.1-0.4-0.2-0.6-0.2c-0.1,0-0.2,0-0.3,0c-3.8,1.2-7.9,1.2-11.6,0
	c-0.3-0.1-0.6-0.1-0.9,0.1c-0.3,0.2-0.4,0.5-0.4,0.8v2.5c0,0.1,0,0.3-0.2,0.4c-0.1,0.1-0.2,0.2-0.4,0.2h-3.1c-0.1,0-0.3-0.1-0.4-0.2
	c-0.1-0.1-0.2-0.2-0.2-0.4V38c0-0.3-0.1-0.6-0.4-0.8C9.3,36,8,34.5,7,32.7c-0.2-0.3-0.5-0.5-0.9-0.5H2V21.9h2.8c0.4,0,0.8-0.3,1-0.7
	c0.7-2.2,1.9-4.3,3.4-6c0.2-0.2,0.3-0.5,0.2-0.8L8.3,6.7c1.7,0.2,5,1,6.4,3.7c0.2,0.4,0.7,0.6,1.2,0.5c5.9-2,12.9-1,17.8,2.5
	C36.5,15.5,39.9,19.2,39.9,25.5L39.9,25.5z"/>
</svg>
