<?xml version="1.0" encoding="utf-8"?>
<!-- Generator: Adobe Illustrator 26.0.2, SVG Export Plug-In . SVG Version: 6.00 Build 0)  -->
<svg version="1.1" id="Layer_1" xmlns="http://www.w3.org/2000/svg" xmlns:xlink="http://www.w3.org/1999/xlink" x="0px" y="0px"
	 viewBox="0 0 48 48" style="enable-background:new 0 0 48 48;" xml:space="preserve">
<path d="M24.4,0.1c-0.2-0.1-0.5-0.1-0.8,0C23.7,0,23.9,0,24,0S24.3,0,24.4,0.1z M35.2,12.2c-0.2,0.2-0.4,0.3-0.7,0.3
	c-0.2,0-0.5-0.1-0.7-0.3L25,3.4v22.7c0,0.6-0.5,1-1,1s-1-0.4-1-1V3.4l-8.8,8.8c-0.4,0.4-1,0.4-1.4,0s-0.4-1,0-1.4L23.3,0.3
	c0.1-0.1,0.2-0.2,0.3-0.2c0.2-0.1,0.5-0.1,0.8,0c0.1,0.1,0.2,0.1,0.3,0.2l10.4,10.5C35.5,11.1,35.5,11.8,35.2,12.2z M37.6,48H10.4
	c-1.1,0-2-0.9-2-2V18.7c0-1.1,0.9-2,2-2h8.4c0.6,0,1,0.4,1,1s-0.4,1-1,1h-8.4V46h27.3V18.7h-8.4c-0.6,0-1-0.4-1-1s0.4-1,1-1h8.4
	c1.1,0,2,0.9,2,2V46C39.6,47.1,38.7,48,37.6,48z"/>
</svg>
