<?xml version="1.0" encoding="utf-8"?>
<!-- Generator: Adobe Illustrator 26.0.2, SVG Export Plug-In . SVG Version: 6.00 Build 0)  -->
<svg version="1.1" id="Layer_1" xmlns="http://www.w3.org/2000/svg" xmlns:xlink="http://www.w3.org/1999/xlink" x="0px" y="0px"
	 viewBox="0 0 48 48" style="enable-background:new 0 0 48 48;" xml:space="preserve">
<path d="M47.7,46.3L36.5,35.1C39.9,31.4,42,26.4,42,21C42,9.4,32.6,0,21,0S0,9.4,0,21s9.4,21,21,21c5.4,0,10.4-2.1,14.1-5.5l0,0
	l11.2,11.2c0.2,0.2,0.5,0.3,0.7,0.3s0.5-0.1,0.7-0.3C48.1,47.3,48.1,46.7,47.7,46.3z M2,21C2,10.5,10.5,2,21,2s19,8.5,19,19
	s-8.5,19-19,19S2,31.5,2,21z"/>
</svg>
