<?xml version="1.0" encoding="utf-8"?>
<!-- Generator: Adobe Illustrator 26.0.2, SVG Export Plug-In . SVG Version: 6.00 Build 0)  -->
<svg version="1.1" id="Layer_1" xmlns="http://www.w3.org/2000/svg" xmlns:xlink="http://www.w3.org/1999/xlink" x="0px" y="0px"
	 viewBox="0 0 48 48" style="enable-background:new 0 0 48 48;" xml:space="preserve">
<path d="M29.2,23c-0.4,0-0.7-0.1-1-0.3L24,20.4l-4.2,2.3C19.4,22.9,19,23,18.6,23c-0.4,0-0.8-0.2-1.2-0.5c-0.3-0.3-0.5-0.7-0.6-1.1
	s-0.1-0.9,0.1-1.2l1.7-3.8l-3-2.9c-0.3-0.2-0.5-0.6-0.6-1c0-0.5,0-0.9,0.1-1.3c0.2-0.4,0.4-0.7,0.8-0.9c0.3-0.2,0.7-0.3,1.2-0.3h3.3
	l1.8-3.9c0.2-0.4,0.5-0.7,0.8-0.9c0.7-0.4,1.5-0.4,2.1,0c0.3,0.2,0.6,0.5,0.8,0.8l0,0l1.8,3.8H31c0.4,0,0.8,0.1,1.1,0.3
	s0.6,0.5,0.8,0.9s0.2,0.8,0.1,1.2c-0.1,0.4-0.3,0.8-0.6,1l-2.9,2.9l1.6,3.8c0.2,0.4,0.2,0.8,0.1,1.3c-0.1,0.4-0.3,0.8-0.6,1.1
	c-0.3,0.3-0.7,0.5-1.2,0.5C29.3,23,29.3,23,29.2,23z M24,18.2c0.2,0,0.3,0,0.5,0.1l4.6,2.6l-1.8-4.5c-0.2-0.4-0.1-0.8,0.2-1.1L31,12
	h-4c-0.4,0-0.7-0.2-0.9-0.6l-2-4.4l0,0L22,11.4c-0.2,0.4-0.6,0.6-1,0.6h-4l3.5,3.4c0.3,0.3,0.4,0.7,0.2,1.1l-1.9,4.4l4.7-2.6
	C23.7,18.3,23.8,18.2,24,18.2z M47.1,6.9C46.5,6.3,45.8,6,45,6h-5.5l0.4-3.8c0-0.3,0-0.6-0.1-0.8c-0.1-0.3-0.2-0.5-0.4-0.7
	S39,0.3,38.7,0.2C38.5,0,38.2,0,37.9,0H10.1C9.8,0,9.6,0,9.3,0.2C9,0.3,8.8,0.5,8.6,0.6C8.4,0.9,8.3,1.1,8.2,1.4
	C8.1,1.6,8.1,1.9,8.1,2.2L8.5,6H3C2.2,6,1.5,6.3,0.9,6.9S0,8.2,0,9v2c0,1.8,0.6,3.6,1.6,5.1c1.1,1.5,2.5,2.7,4.3,3.3
	c0.1,0,0.2,0.1,0.3,0.1c0.4,0,0.8-0.2,0.9-0.7c0.2-0.5-0.1-1.1-0.6-1.3C5.1,17,4,16.1,3.2,14.9C2.4,13.8,2,12.4,2,11V9
	c0-0.3,0.1-0.5,0.3-0.7S2.7,8,3,8h5.7l1,10.1c0.2,2.2,0.8,4.4,2,6.3c1.1,2,2.6,3.6,4.4,5c2.1,1.5,4.5,2.3,6.9,2.5V39
	c-6.8,0.3-12,3.7-12,8c0,0.5,0.5,1,1,1h24c0.5,0,1-0.5,1-1c0-4.3-5.2-7.7-12-8v-7c1.6-0.1,3.2-0.5,4.7-1.2c4.7-2.1,8-6.7,8.5-11.6
	L39.3,8H45c0.3,0,0.5,0.1,0.7,0.3S46,8.7,46,9v2c0,1.4-0.4,2.8-1.2,4s-2,2.1-3.3,2.6c-0.5,0.2-0.8,0.8-0.6,1.3
	c0.1,0.4,0.5,0.7,0.9,0.7c0.1,0,0.2,0,0.3-0.1c1.7-0.6,3.2-1.8,4.3-3.3c1-1.5,1.6-3.3,1.6-5.1V9C48,8.2,47.7,7.5,47.1,6.9z M34.8,46
	H13.2c0.9-2.8,5.5-5,10.8-5S33.9,43.2,34.8,46z M37.4,6.8v0.3L36.2,19c-0.4,4.2-3.3,8.1-7.3,10c-1.6,0.6-3.2,1-4.9,1l0,0
	c-2.3,0-4.7-0.8-6.7-2.2c-1.6-1.2-2.9-2.6-3.9-4.3c-1-1.7-1.5-3.6-1.7-5.5L10.6,7V6.8L10.1,2h27.8L37.4,6.8z"/>
</svg>
