<?xml version="1.0" encoding="utf-8"?>
<!-- Generator: Adobe Illustrator 26.0.2, SVG Export Plug-In . SVG Version: 6.00 Build 0)  -->
<svg version="1.1" id="Layer_1" xmlns="http://www.w3.org/2000/svg" xmlns:xlink="http://www.w3.org/1999/xlink" x="0px" y="0px"
	 viewBox="0 0 48 48" style="enable-background:new 0 0 48 48;" xml:space="preserve">
<path d="M26.7,12.7c-1.7,0-3.3-0.7-4.5-1.9S20.3,8,20.3,6.3S21,3,22.2,1.8C23.4,0.7,25,0,26.7,0s3.3,0.7,4.5,1.9
	C32.4,3,33,4.7,33,6.4s-0.7,3.3-1.9,4.5C30,12.1,28.4,12.7,26.7,12.7z M26.7,2c-1.2,0-2.3,0.5-3.1,1.3c-0.8,0.8-1.3,1.9-1.3,3.1
	s0.5,2.3,1.3,3.1s1.9,1.3,3.1,1.3s2.3-0.5,3.1-1.3c0.8-0.9,1.2-2,1.2-3.1s-0.5-2.3-1.3-3.1C28.9,2.5,27.8,2,26.7,2z M40.5,48
	c-1.7,0-3.3-0.7-4.5-1.9s-1.9-2.8-1.9-4.5s0.7-3.3,1.9-4.5s2.8-1.9,4.5-1.9s3.3,0.7,4.5,1.9s1.9,2.8,1.9,4.5s-0.7,3.3-1.9,4.5
	S42.2,48,40.5,48z M40.5,37.3c-1.2,0-2.3,0.5-3.1,1.3s-1.3,1.9-1.3,3.1c0,1.1,0.5,2.3,1.3,3.1s1.9,1.3,3.1,1.3s2.3-0.5,3.1-1.3
	s1.3-1.9,1.3-3.1c0-1.2-0.5-2.3-1.3-3.1C42.7,37.7,41.6,37.3,40.5,37.3z M31.1,41.1c-0.8-0.8-1.8-1.2-2.9-1.2h-8.4l-3.4-5.7
	c-0.4-0.6-0.9-1.1-1.5-1.4c-0.6-0.3-1.3-0.5-2-0.5H5.2c-1.1,0-2.1,0.4-2.9,1.2s-1.2,1.8-1.2,2.9c0,1.1,0.4,2.1,1.2,2.9
	c0.8,0.8,1.8,1.2,2.9,1.2h5.4L14,46H5.2c-0.5,0-1.1-0.2-1.5-0.6c-0.4-0.4-0.6-0.9-0.6-1.5c0-0.5-0.5-1-1-1c-0.6,0-1,0.5-1,1
	c0,1.1,0.4,2.1,1.2,2.9C3.1,47.6,4.1,48,5.2,48h23c1.1,0,2.1-0.4,2.9-1.2s1.2-1.8,1.2-2.9C32.3,42.8,31.9,41.8,31.1,41.1z
	 M29.7,45.4c-0.4,0.4-0.9,0.6-1.5,0.6H17.5c-0.3,0-0.7-0.1-1-0.3s-0.6-0.4-0.8-0.7L12,38.8c-0.2-0.3-0.5-0.5-0.8-0.5h-6
	c-0.5,0-1.1-0.2-1.5-0.6c-0.4-0.4-0.6-0.9-0.6-1.5s0.2-1.1,0.6-1.5s0.9-0.6,1.5-0.6h7.7c0.4,0,0.7,0.1,1,0.3s0.6,0.4,0.8,0.7
	l3.7,6.2c0.2,0.3,0.5,0.5,0.9,0.5h9c0.6,0,1.1,0.2,1.5,0.6s0.6,0.9,0.6,1.5C30.3,44.5,30.1,45,29.7,45.4z M28.2,35.7
	c-1,0-2-0.4-2.7-1c-0.7-0.7-1.2-1.6-1.3-2.6c-0.1-1,0.1-2,0.7-2.8s1.4-1.4,2.4-1.6l1.5-0.4c0.4-0.1,0.8-0.4,1.1-0.7s0.4-0.8,0.4-1.3
	c0-0.6,0.4-1,1-1s1,0.4,1,1c0,0.9-0.3,1.8-0.9,2.5s-1.3,1.2-2.2,1.4l-1.5,0.4c-0.5,0.1-0.9,0.4-1.2,0.8c-0.3,0.4-0.4,0.9-0.4,1.4
	c0.1,0.5,0.3,1,0.7,1.3c0.4,0.3,0.9,0.5,1.4,0.5l0,0c0.2,0,0.3,0,0.5-0.1l1.5-0.4c1.8-0.4,3.4-1.5,4.5-2.9s1.7-3.2,1.7-5V24
	c0-1.4-0.5-2.7-1.5-3.6s-2.3-1.5-3.6-1.5h-8.9c-1.3,0-2.7,0.3-3.9,1c-1.2,0.6-2.2,1.6-3,2.7l-3.4,5.1c-0.3,0.5-0.9,0.6-1.4,0.3
	c-0.5-0.3-0.6-0.9-0.3-1.4l3.4-5.1c0.9-1.4,2.2-2.5,3.7-3.3s3.1-1.2,4.8-1.2h8.9c1.9,0,3.7,0.7,5,2.1s2.1,3.1,2.1,5v1.3
	c0,2.3-0.8,4.5-2.2,6.3c-1.4,1.8-3.4,3.1-5.6,3.6L29,35.7C28.9,35.7,28.5,35.7,28.2,35.7L28.2,35.7z"/>
</svg>
