<?xml version="1.0" encoding="utf-8"?>
<!-- Generator: Adobe Illustrator 26.0.2, SVG Export Plug-In . SVG Version: 6.00 Build 0)  -->
<svg version="1.1" id="Layer_1" xmlns="http://www.w3.org/2000/svg" xmlns:xlink="http://www.w3.org/1999/xlink" x="0px" y="0px"
	 viewBox="0 0 48 48" style="enable-background:new 0 0 48 48;" xml:space="preserve">
<path d="M38.1,38.1l-0.9-5.5C37,31.1,35.7,30,34.1,30H14.8l2.6-18.2C18,7.4,22.1,4,26.8,4H28c0.4,1.2,1.6,2,2.9,2h8.5
	c1.7,0,3.1-1.4,3.1-3c0-1.7-1.4-3-3.1-3h-8.5c-1.3,0-2.5,0.8-2.9,2h-1.1c-5.8,0-10.7,4.1-11.5,9.5l-2.7,19.3L11.3,40h-1.1
	c-1.3,0-2.5,0.8-2.9,2l-1.2,3.3c-0.2,0.5-0.1,1,0.1,1.5s0.7,0.8,1.2,1C7.6,48,7.8,48,8.1,48h7.6c1.1,0,2.1-0.9,2.1-2
	c0-0.2,0-0.4-0.1-0.7L16.5,42c-0.4-1.2-1.6-2-2.9-2h-0.2l1.1-8h19.6c0.6,0,1.1,0.4,1.2,0.9l0.8,5.2C33.8,38.6,32,40.6,32,43
	c0,2.8,2.3,5,5.2,5s5.2-2.2,5.2-5C42.5,40.5,40.6,38.5,38.1,38.1z M30.9,2h8.5c0.6,0,1.1,0.5,1.1,1S40,4,39.4,4h-8.5
	c-0.6,0-1.1-0.5-1.1-1S30.3,2,30.9,2z M13.5,42c0.5,0,0.9,0.3,1.1,0.7l1.1,3.3H8l1.2-3.3c0.1-0.4,0.6-0.7,1.1-0.7H13.5z M37.3,46
	c-1.8,0-3.2-1.4-3.2-3c0-1.7,1.5-3,3.2-3c1.8,0,3.2,1.3,3.2,3C40.5,44.6,39,46,37.3,46z"/>
</svg>
