<?xml version="1.0" encoding="utf-8"?>
<!-- Generator: Adobe Illustrator 26.0.2, SVG Export Plug-In . SVG Version: 6.00 Build 0)  -->
<svg version="1.1" id="Layer_1" xmlns="http://www.w3.org/2000/svg" xmlns:xlink="http://www.w3.org/1999/xlink" x="0px" y="0px"
	 viewBox="0 0 48 48" style="enable-background:new 0 0 48 48;" xml:space="preserve">
<path d="M47.2,16.9L43.3,14c0.1-0.1,0.1-0.3,0.1-0.5V5.3c0-1.1-1-2-2.3-2H36c-1.3,0-2.3,0.9-2.3,2V7l-8.5-6.3l0,0
	c-0.8-0.5-1.8-0.5-2.5,0L0.8,16.9c-0.7,0.5-1,1.5-0.7,2.3c0.3,0.9,1.1,1.4,2,1.4h2.5v19.9c0,1.7,1.4,3.1,3.1,3.1h12.1
	c0.5,0,1-0.4,1-1c0-0.5-0.5-1-1-1H7.7c-0.6,0-1.1-0.5-1.1-1.1V20.6h39.3c0.9,0,1.7-0.6,2-1.4C48.2,18.4,47.9,17.4,47.2,16.9z
	 M35.7,8.1V5.4c0.1,0,0.2-0.1,0.3-0.1h5.1c0.1,0,0.2,0,0.3,0.1v7.2l-5.7-4.2C35.7,8.3,35.7,8.2,35.7,8.1z M45.9,18.6H2.1
	c0,0-0.1,0-0.1-0.1v-0.1L24,2.3l0,0c0,0,0,0,0.1,0L46,18.5C46,18.5,46,18.5,45.9,18.6C46,18.6,45.9,18.6,45.9,18.6z M34.5,37.8
	c-0.6,0-1-0.4-1-1c0-1.5,1-1.8,1.6-2c0.1,0,0.3-0.1,0.5-0.2c1.2-0.5,1.8-1.8,1.5-3.1c-0.3-1.2-1.6-2-2.8-1.9c-1.3,0.2-1.8,0.8-2.3,2
	c-0.2,0.5-0.8,0.7-1.3,0.5s-0.7-0.8-0.5-1.3c0.6-1.4,1.5-2.8,3.9-3.2c2.3-0.3,4.4,1.1,5,3.3s-0.5,4.5-2.6,5.5
	c-0.2,0.1-0.4,0.2-0.6,0.2c-0.1,0-0.2,0.1-0.2,0.1l0,0C35.5,37.4,35,37.8,34.5,37.8z M34.5,21.7c-7.2,0-13,5.8-13,13s5.9,13,13,13
	c7.2,0,13-5.9,13-13S41.6,21.7,34.5,21.7z M34.5,45.8c-6.1,0-11-5-11-11c0-6.1,5-11,11-11c6.1,0,11,5,11,11S40.5,45.8,34.5,45.8z
	 M34.3,39.5c0.7,0,1.2,0.5,1.2,1.2s-0.5,1.2-1.2,1.2s-1.2-0.5-1.2-1.2S33.6,39.5,34.3,39.5z"/>
</svg>
