<?xml version="1.0" encoding="utf-8"?>
<!-- Generator: Adobe Illustrator 26.0.2, SVG Export Plug-In . SVG Version: 6.00 Build 0)  -->
<svg version="1.1" id="Layer_1" xmlns="http://www.w3.org/2000/svg" xmlns:xlink="http://www.w3.org/1999/xlink" x="0px" y="0px"
	 viewBox="0 0 48 48" style="enable-background:new 0 0 48 48;" xml:space="preserve">
<path d="M8.7,20.4c-1.9,0-3.7-0.7-5-2.1s-2.1-3.1-2.1-5s0.7-3.7,2.1-5C5,7,6.8,6.2,8.7,6.2s3.7,0.7,5,2.1c1.3,1.3,2.1,3.1,2.1,5
	s-0.7,3.7-2.1,5C12.4,19.7,10.6,20.4,8.7,20.4z M8.7,8.1C7.3,8.1,6,8.7,5,9.6c-1,1-1.5,2.3-1.5,3.6S4,15.9,5,16.8
	c1,1,2.3,1.5,3.6,1.5s2.7-0.5,3.6-1.5c1-1,1.5-2.3,1.5-3.6s-0.5-2.7-1.5-3.6C11.3,8.7,10,8.1,8.7,8.1z M37.8,6.1H25.5
	c-0.6,0-1,0.4-1,1v15.3c0,0.5,0.4,1,1,1h5.1V24c0,1.8-0.7,3.5-2,4.7c-1.2,1.3-2.9,2-4.7,2h-6.7v-0.5c0-2.3-0.9-4.5-2.5-6.1
	s-3.8-2.5-6.1-2.5s-4.5,0.9-6.1,2.5c-1.6,1.5-2.5,3.7-2.5,6v4.6c0,0.6,0.5,1,1,1h2.2l1.4,11.4c0.1,0.5,0.5,0.9,1,0.9h6.1
	c0.5,0,0.9-0.4,1-0.9l1.4-11.4h2.2c0.6,0,1-0.4,1-1v-2.1H24c2.3,0,4.5-0.9,6.1-2.5s2.5-3.8,2.5-6.1v-0.5h5.1c0.5,0,1-0.5,1-1V7.1
	C38.8,6.6,38.3,6.1,37.8,6.1z M15.3,33.7h-2.1c-0.5,0-0.9,0.4-1,0.9L10.8,46H6.5L5.1,34.6c-0.1-0.5-0.5-0.9-1-0.9H2v-3.6
	c0-1.8,0.7-3.5,2-4.7s2.9-2,4.7-2s3.5,0.7,4.7,2s2,2.9,2,4.7L15.3,33.7L15.3,33.7z M36.8,15.3h-5.1c-0.6,0-1,0.5-1,1
	c0,0.6,0.4,1,1,1h5.1v4.1H26.5V8.1h10.3V15.3z M48,47c0,0.5-0.5,1-1,1h-6.1c-0.6,0-1-0.5-1-1s0.4-1,1-1H43V11.7c0-2.6-1-5-2.8-6.9
	c-2-1.8-4.4-2.8-7-2.8h-6.1c-0.6,0-1-0.5-1-1s0.4-1,1-1h6.1c3.1,0,6.1,1.2,8.3,3.4s3.4,5.2,3.4,8.3V46H47C47.5,46,48,46.5,48,47z"/>
</svg>
