<?xml version="1.0" encoding="utf-8"?>
<!-- Generator: Adobe Illustrator 26.0.2, SVG Export Plug-In . SVG Version: 6.00 Build 0)  -->
<svg version="1.1" id="Layer_1" xmlns="http://www.w3.org/2000/svg" xmlns:xlink="http://www.w3.org/1999/xlink" x="0px" y="0px"
	 viewBox="0 0 48 48" style="enable-background:new 0 0 48 48;" xml:space="preserve">
<path d="M35,48c-0.3,0-0.5-0.1-0.7-0.3L24.1,37c-1-1-1.7-2.4-2-3.8c-0.2-1.5,0-3,0.7-4.3c0.5-1,1.2-1.9,2.1-2.5c0.9-0.7,2-1.1,3-1.3
	c1.1-0.2,2.2-0.1,3.3,0.2s2,0.9,2.8,1.7l1,1l1-1c0.8-0.8,1.8-1.4,2.8-1.7s2.2-0.4,3.3-0.2c1.1,0.2,2.2,0.6,3,1.3
	c0.9,0.7,1.6,1.5,2.1,2.5c0.7,1.3,0.9,2.8,0.7,4.3s-0.9,2.8-2,3.9L35.7,47.7C35.5,47.9,35.3,48,35,48z M29,27c-0.3,0-0.5,0-0.8,0.1
	c-0.8,0.1-1.5,0.4-2.2,0.9c-0.6,0.5-1.2,1.1-1.5,1.8c-0.5,1-0.6,2-0.5,3.1c0.2,1.1,0.7,2,1.4,2.8l9.5,9.9l9.5-9.9
	c0.8-0.8,1.3-1.7,1.4-2.8c0.2-1.1,0-2.1-0.5-3.1c-0.4-0.7-0.9-1.3-1.5-1.8s-1.4-0.8-2.2-0.9S40,27,39.2,27.3c-0.8,0.2-1.5,0.7-2,1.2
	l-1.7,1.7c-0.4,0.4-1,0.4-1.4,0l-1.7-1.7c-0.6-0.6-1.3-1-2-1.2C30.1,27.1,29.6,27,29,27z M3,40c-0.3,0-0.5-0.1-0.7-0.3
	C2,39.4,1.9,39,2.1,38.6l3.7-8.4c-1.7-1.4-3.1-3.2-4-5.1C0.7,22.9,0.1,20.5,0,18C0,8.1,9.9,0,22,0s22,8.1,22,18
	c0,1.1-0.1,2.1-0.4,3.2c-0.1,0.5-0.7,0.9-1.2,0.8s-0.9-0.7-0.8-1.2c0.2-0.9,0.3-1.8,0.3-2.7c0-8.8-9-16-20-16S2,9.2,2,18
	c0,2.1,0.6,4.3,1.6,6.2c1,1.9,2.4,3.6,4.1,4.9c0.4,0.3,0.5,0.8,0.3,1.2L5,37l8.9-4.1c0.2-0.1,0.5-0.1,0.7,0c1.5,0.5,3,0.8,4.5,1
	C19.6,34,20,34.5,20,35c-0.1,0.5-0.6,0.9-1.1,0.9c-1.5-0.2-3.1-0.5-4.6-0.9L3.4,40C3.3,40,3.1,40,3,40z"/>
</svg>
