<?xml version="1.0" encoding="utf-8"?>
<!-- Generator: Adobe Illustrator 26.0.2, SVG Export Plug-In . SVG Version: 6.00 Build 0)  -->
<svg version="1.1" id="Layer_1" xmlns="http://www.w3.org/2000/svg" xmlns:xlink="http://www.w3.org/1999/xlink" x="0px" y="0px"
	 viewBox="0 0 48 48" style="enable-background:new 0 0 48 48;" xml:space="preserve">
<path d="M24,48C10.8,48,0,37.2,0,24S10.8,0,24,0s24,10.8,24,24S37.2,48,24,48z M24,2C11.9,2,2,11.9,2,24s9.9,22,22,22s22-9.9,22-22
	S36.1,2,24,2z M19.9,20h-7.5c-0.6,0-1-0.4-1-1s0.4-1,1-1h7.5c0.6,0,1,0.4,1,1S20.5,20,19.9,20z M35.5,20H28c-0.6,0-1-0.4-1-1
	s0.4-1,1-1h7.5c0.6,0,1,0.4,1,1S36.1,20,35.5,20z M35.8,33H12.5c-0.6,0-1-0.4-1-1s0.4-1,1-1h23.3c0.6,0,1,0.4,1,1
	C36.8,32.6,36.3,33,35.8,33z"/>
</svg>
