<?xml version="1.0" encoding="utf-8"?>
<!-- Generator: Adobe Illustrator 26.0.2, SVG Export Plug-In . SVG Version: 6.00 Build 0)  -->
<svg version="1.1" id="Layer_1" xmlns="http://www.w3.org/2000/svg" xmlns:xlink="http://www.w3.org/1999/xlink" x="0px" y="0px"
	 viewBox="0 0 48 48" style="enable-background:new 0 0 48 48;" xml:space="preserve">
<path d="M47,35.5h-6.5V15.4C40.5,9.7,35.7,5,29.9,5H2.2C1,5,0,6,0,7.2v28.1c0,1.2,1,2.2,2.2,2.2h5.7c0.5,2.7,2.9,4.7,5.7,4.7
	s5.2-2,5.7-4.7H47c0.5,0,1-0.5,1-1C48,35.9,47.5,35.5,47,35.5z M13.6,40.2c-2.1,0-3.8-1.7-3.8-3.7s1.7-3.7,3.8-3.7s3.8,1.7,3.8,3.7
	S15.7,40.2,13.6,40.2z M38.5,35.5H19.3c-0.5-2.7-2.9-4.7-5.7-4.7c-2.9,0-5.2,2-5.7,4.7H2.2c-0.1,0-0.2-0.1-0.2-0.2V7.2
	C2,7.1,2.1,7,2.2,7h27.7c4.8,0,8.6,3.8,8.6,8.4V35.5z M26.3,12H9.4c-1.2,0-2.2,1-2.2,2.2v7c0,1.2,1,2.2,2.2,2.2h16.9
	c1.2,0,2.2-1,2.2-2.2v-7C28.5,13,27.5,12,26.3,12z M16.8,21.4H9.4c-0.1,0-0.2-0.1-0.2-0.2v-7c0-0.1,0.1-0.2,0.2-0.2h7.4V21.4z
	 M26.5,21.2c0,0.1-0.1,0.2-0.2,0.2h-7.4V14h7.4c0.1,0,0.2,0.1,0.2,0.2V21.2z"/>
</svg>
