<?xml version="1.0" encoding="utf-8"?>
<!-- Generator: Adobe Illustrator 26.0.2, SVG Export Plug-In . SVG Version: 6.00 Build 0)  -->
<svg version="1.1" id="Layer_1" xmlns="http://www.w3.org/2000/svg" xmlns:xlink="http://www.w3.org/1999/xlink" x="0px" y="0px"
	 viewBox="0 0 48 48" style="enable-background:new 0 0 48 48;" xml:space="preserve">
<path d="M47,11.6H1c-0.6,0-1-0.4-1-1s0.4-1,1-1h46c0.6,0,1,0.4,1,1S47.6,11.6,47,11.6z M4.3,36.6c0,0.1,0,0.1,0,0.2
	c0,0.4-0.2,0.8-0.5,1c-0.3,0.3-0.7,0.5-1,0.5c-0.1,0-0.1,0-0.2,0s-0.1,0-0.2,0c-0.4,0-0.8-0.2-1-0.5c-0.3-0.3-0.5-0.6-0.5-1
	c0-0.1,0-0.1,0-0.2s0-0.1,0-0.2c0-0.4,0.2-0.8,0.5-1.1s0.7-0.5,1-0.5c0.1,0,0.1,0,0.2,0s0.1,0,0.2,0c0.4,0,0.8,0.2,1,0.5
	c0.3,0.3,0.5,0.7,0.5,1.1C4.3,36.5,4.3,36.6,4.3,36.6z M10.5,29c0,0.1,0,0.1,0,0.2c0,0.4-0.2,0.8-0.5,1c-0.3,0.3-0.7,0.5-1,0.5
	c-0.1,0-0.1,0-0.2,0c-0.1,0-0.1,0-0.2,0c-0.4,0-0.8-0.2-1.1-0.5C7.2,30,7,29.6,7,29.2C7,29.1,7,29,7,29s0-0.1,0-0.2
	c0-0.4,0.2-0.8,0.5-1c0.3-0.3,0.7-0.5,1.1-0.5c0.1,0,0.1,0,0.2,0c0.1,0,0.1,0,0.2,0c0.4,0,0.8,0.2,1,0.5c0.3,0.3,0.5,0.7,0.5,1
	C10.5,28.8,10.5,28.9,10.5,29z M18.2,36.6c0,0.1,0,0.1,0,0.2c0,0.4-0.2,0.8-0.5,1c-0.3,0.3-0.7,0.5-1,0.5c-0.1,0-0.1,0-0.2,0
	s-0.1,0-0.2,0c-0.4,0-0.8-0.2-1-0.5c-0.3-0.3-0.5-0.6-0.5-1c0-0.1,0-0.1,0-0.2s0-0.1,0-0.2c0-0.4,0.2-0.8,0.5-1.1s0.6-0.5,1-0.5
	c0.1,0,0.1,0,0.2,0s0.1,0,0.2,0c0.4,0,0.8,0.2,1.1,0.5c0.3,0.3,0.5,0.7,0.5,1.1C18.1,36.5,18.2,36.6,18.2,36.6z M47.3,36.6
	c0,0.1,0,0.1,0,0.2c0,0.4-0.2,0.8-0.5,1c-0.3,0.3-0.7,0.5-1,0.5c-0.1,0-0.1,0-0.2,0s-0.1,0-0.2,0c-0.4,0-0.8-0.2-1-0.5
	c-0.3-0.3-0.5-0.6-0.5-1c0-0.1,0-0.1,0-0.2s0-0.1,0-0.2c0-0.4,0.2-0.8,0.5-1.1s0.6-0.5,1-0.5c0.1,0,0.1,0,0.2,0s0.1,0,0.2,0
	c0.4,0,0.8,0.2,1.1,0.5s0.5,0.7,0.5,1.1C47.3,36.5,47.3,36.6,47.3,36.6z M41.2,29c0,0.1,0,0.1,0,0.2c0,0.4-0.2,0.8-0.5,1
	c-0.3,0.3-0.7,0.5-1,0.5c-0.1,0-0.1,0-0.2,0s-0.1,0-0.2,0c-0.4,0-0.8-0.2-1-0.5c-0.3-0.3-0.5-0.7-0.5-1c0-0.1,0-0.1,0-0.2
	s0-0.1,0-0.2c0-0.4,0.2-0.8,0.5-1c0.3-0.3,0.6-0.5,1-0.5c0.1,0,0.1,0,0.2,0s0.1,0,0.2,0c0.4,0,0.8,0.2,1,0.5c0.3,0.3,0.5,0.7,0.5,1
	C41.1,28.8,41.2,28.9,41.2,29z M33.5,36.6c0,0.1,0,0.1,0,0.2c0,0.4-0.2,0.8-0.5,1c-0.3,0.3-0.7,0.5-1,0.5c-0.1,0-0.1,0-0.2,0
	s-0.1,0-0.2,0c-0.4,0-0.8-0.2-1.1-0.5c-0.3-0.3-0.5-0.6-0.5-1c0-0.1,0-0.1,0-0.2s0-0.1,0-0.2c0-0.4,0.2-0.8,0.5-1.1s0.7-0.5,1.1-0.5
	c0.1,0,0.1,0,0.2,0s0.1,0,0.2,0c0.4,0,0.8,0.2,1,0.5c0.3,0.3,0.5,0.7,0.5,1.1C33.5,36.5,33.5,36.6,33.5,36.6z M25.8,29
	c0,0.1,0,0.1,0,0.2c0,0.4-0.2,0.8-0.5,1.1c-0.3,0.3-0.6,0.5-1,0.5c-0.1,0-0.1,0-0.2,0s-0.1,0-0.2,0c-0.4,0-0.8-0.2-1-0.5
	c-0.3-0.3-0.5-0.7-0.5-1c0-0.1,0-0.1,0-0.2s0-0.1,0-0.2c0-0.4,0.2-0.8,0.5-1c0.3-0.3,0.7-0.5,1-0.5c0.1,0,0.1,0,0.2,0s0.1,0,0.2,0
	c0.4,0,0.8,0.2,1,0.5c0.3,0.3,0.5,0.7,0.5,1C25.8,28.8,25.8,28.9,25.8,29z M1,23.9c-0.3,0-0.7-0.2-0.8-0.5c-0.3-0.4-0.2-1,0.3-1.3
	l0.8-0.5c4.4-2.8,11-7.1,18.4-1.6c2.5,1.9,6.1,1.9,8.6,0c7.5-5.6,14.2-1.2,18.2,1.5c0.3,0.2,0.7,0.4,1,0.6c0.5,0.3,0.6,0.9,0.3,1.4
	s-0.9,0.6-1.4,0.3c-0.3-0.2-0.7-0.4-1-0.7c-4-2.6-9.6-6.3-15.9-1.5c-1.6,1.2-3.5,1.8-5.5,1.8s-3.9-0.7-5.5-1.8
	c-6.3-4.7-11.8-1.2-16.2,1.6l-0.8,0.5C1.4,23.9,1.2,23.9,1,23.9z"/>
</svg>
