<?xml version="1.0" encoding="utf-8"?>
<!-- Generator: Adobe Illustrator 26.0.2, SVG Export Plug-In . SVG Version: 6.00 Build 0)  -->
<svg version="1.1" id="Layer_1" xmlns="http://www.w3.org/2000/svg" xmlns:xlink="http://www.w3.org/1999/xlink" x="0px" y="0px"
	 viewBox="0 0 48 48" style="enable-background:new 0 0 48 48;" xml:space="preserve">
<path d="M24,0C10.8,0,0,10.8,0,24s10.8,24,24,24s24-10.8,24-24S37.2,0,24,0z M24,46C11.9,46,2,36.1,2,24S11.9,2,24,2s22,9.9,22,22
	S36.1,46,24,46z M27.7,42c-0.5,0-0.9-0.3-1-0.8c-0.3-1.3-0.3-2.7,0-4c1.1-4.8,5.9-7.8,10.7-6.7c0.5,0.1,0.9,0.7,0.8,1.2
	s-0.7,0.9-1.2,0.8c-3.7-0.9-7.5,1.5-8.3,5.2c-0.2,1-0.2,2.1,0,3.1c0.1,0.5-0.2,1.1-0.8,1.2C27.9,42,27.8,42,27.7,42z M34.9,20.3
	c-0.1,0.4-0.2,0.7-0.5,0.9c-0.2,0.2-0.6,0.4-0.9,0.5c-0.1,0-0.2,0-0.4,0s-0.5,0-0.7-0.1c-0.3-0.1-0.6-0.4-0.8-0.7
	c-0.2-0.3-0.3-0.7-0.3-1c0-0.5,0.2-0.9,0.5-1.3c0.6-0.6,1.6-0.7,2.3-0.2c0.3,0.2,0.5,0.5,0.7,0.8C34.9,19.6,34.9,20,34.9,20.3z
	 M16.7,20.3c-0.1,0.4-0.2,0.7-0.5,0.9c-0.3,0.2-0.6,0.4-0.9,0.5c-0.1,0-0.2,0-0.3,0c-0.2,0-0.5,0-0.7-0.1c-0.3-0.1-0.6-0.4-0.8-0.7
	c-0.2-0.3-0.3-0.6-0.3-1c0-0.5,0.2-0.9,0.5-1.3c0.6-0.6,1.6-0.7,2.3-0.2c0.3,0.2,0.5,0.5,0.7,0.8C16.7,19.6,16.7,20,16.7,20.3z"/>
</svg>
