<?xml version="1.0" encoding="utf-8"?>
<!-- Generator: Adobe Illustrator 26.0.2, SVG Export Plug-In . SVG Version: 6.00 Build 0)  -->
<svg version="1.1" id="Layer_1" xmlns="http://www.w3.org/2000/svg" xmlns:xlink="http://www.w3.org/1999/xlink" x="0px" y="0px"
	 viewBox="0 0 48 48" style="enable-background:new 0 0 48 48;" xml:space="preserve">
<path d="M47,7H1C0.5,7,0,7.5,0,8v32.9c0,0.5,0.5,1,1,1h46c0.5,0,1-0.5,1-1V8C48,7.5,47.5,7,47,7z M44.9,9L27.8,22.1
	c-2.2,1.7-5.5,1.7-7.6,0L3.1,9H44.9z M46,39.9H2V10.7l17,13.1c1.4,1.1,3.2,1.7,5,1.7s3.6-0.6,5-1.7l17-13.1V39.9z"/>
</svg>
