<?xml version="1.0" encoding="utf-8"?>
<!-- Generator: Adobe Illustrator 26.0.2, SVG Export Plug-In . SVG Version: 6.00 Build 0)  -->
<svg version="1.1" id="Layer_1" xmlns="http://www.w3.org/2000/svg" xmlns:xlink="http://www.w3.org/1999/xlink" x="0px" y="0px"
	 viewBox="0 0 48 48" style="enable-background:new 0 0 48 48;" xml:space="preserve">
<path d="M42.5,12.7C42.5,5.6,37.9,0,32,0c-1.8,0-3.5,0.5-5.1,1.3c-1.1,0.6-2.1,1.5-3,2.4c-0.8-1-1.8-1.8-3-2.4C19.5,0.5,17.7,0,16,0
	C10.1,0,5.5,5.6,5.5,12.7c0,6.2,1.7,11.2,5,14.8C9.1,31.2,8.4,35,8.4,39c0,2.2,0.2,4.5,0.7,6.7c0.1,0.6,0.5,1.2,1,1.7
	c0.5,0.4,1.2,0.7,1.8,0.7c0.7,0,1.4-0.3,2-0.8c0.5-0.5,0.9-1.2,1-1.9c0.7-6.8,4.6-11.9,9.1-11.9c4.4,0,8.3,5.1,9.1,11.9
	c0.1,0.7,0.4,1.4,1,1.9s1.3,0.8,2,0.8s1.3-0.2,1.8-0.7c0.5-0.4,0.9-1,1-1.7c0.5-2.2,0.7-4.5,0.7-6.7c0-4-0.7-7.8-2.1-11.5
	C40.8,23.9,42.5,18.9,42.5,12.7z M7.5,12.7C7.5,6.8,11.3,2,16,2c1.4,0,2.8,0.4,4.1,1.1c1.2,0.7,2.3,1.7,3.1,2.9
	c0.4,0.6,1.3,0.6,1.7,0c0.8-1.2,1.8-2.2,3.1-2.9S30.6,2,32,2c4.7,0,8.5,4.8,8.5,10.7c0,1.3-0.1,2.5-0.2,3.6h-6.6v-1.9
	c0-0.5,0-1-0.2-1.4c-0.2-0.5-0.4-0.9-0.8-1.2c-0.3-0.3-0.7-0.6-1.2-0.8s-0.9-0.3-1.4-0.3H17.9c-0.4,0-0.9,0.1-1.4,0.3
	s-0.9,0.5-1.2,0.8s-0.6,0.8-0.8,1.2c-0.2,0.5-0.2,0.9-0.2,1.4v2H7.7C7.6,15.2,7.5,14,7.5,12.7z M37.6,39c0,2.1-0.2,4.2-0.6,6.3
	c0,0.2-0.2,0.4-0.3,0.5c-0.4,0.3-0.9,0.2-1.2,0c-0.2-0.2-0.3-0.4-0.3-0.6c-0.9-7.9-5.5-13.7-11.1-13.7c-5.5,0-10.2,5.8-11.1,13.7
	c0,0.2-0.1,0.5-0.3,0.6c-0.3,0.3-0.9,0.3-1.2,0c-0.2-0.1-0.3-0.3-0.3-0.5c-0.4-2.1-0.6-4.2-0.6-6.3c0-3.9,0.7-7.7,2.2-11.3
	c0.2-0.4,0.1-0.8-0.2-1.1c-2.1-2.1-3.6-4.9-4.3-8.2h7.3c0.5,0,1-0.4,1-1v-3c0-0.2,0-0.4,0.1-0.6c0.1-0.2,0.2-0.4,0.3-0.5
	c0.1-0.2,0.3-0.3,0.5-0.4c0.2-0.1,0.4-0.2,0.6-0.1h12.2l0,0c0.2,0,0.4,0,0.6,0.1s0.4,0.2,0.5,0.4c0.2,0.1,0.3,0.3,0.3,0.5
	c0.1,0.2,0.1,0.4,0.1,0.7v3c0,0.6,0.5,1,1,1h7.3c-0.7,3.3-2.2,6.1-4.3,8.2c-0.3,0.3-0.4,0.7-0.2,1.1C36.9,31.2,37.6,35.1,37.6,39z"
	/>
</svg>
