<?xml version="1.0" encoding="utf-8"?>
<!-- Generator: Adobe Illustrator 26.0.2, SVG Export Plug-In . SVG Version: 6.00 Build 0)  -->
<svg version="1.1" id="Layer_1" xmlns="http://www.w3.org/2000/svg" xmlns:xlink="http://www.w3.org/1999/xlink" x="0px" y="0px"
	 viewBox="0 0 48 48" style="enable-background:new 0 0 48 48;" xml:space="preserve">
<path d="M47.1,24.9C46.5,24.3,45.8,24,45,24h-7c-0.5,0-1,0.5-1,1s0.5,1,1,1h7c0.3,0,0.5,0.1,0.7,0.3S46,26.7,46,27v19H36V29
	c0-0.5-0.5-1-1-1s-1,0.5-1,1v17h-6v-2c0-0.5-0.2-1-0.6-1.4C27,42.2,26.5,42,26,42h-4c-0.5,0-1,0.2-1.4,0.6C20.2,43,20,43.5,20,44v2
	h-6V29c0-0.5-0.5-1-1-1s-1,0.5-1,1v17H2V27c0-0.3,0.1-0.5,0.3-0.7S2.7,26,3,26h7c0.5,0,1-0.5,1-1s-0.5-1-1-1H3
	c-0.8,0-1.5,0.3-2.1,0.9S0,26.2,0,27v19c0,0.5,0.2,1,0.6,1.4C1,47.8,1.5,48,2,48h44c0.5,0,1-0.2,1.4-0.6C47.8,47,48,46.5,48,46V27
	C48,26.2,47.7,25.5,47.1,24.9z M26,46h-4v-2h4V46z M24,28c-7.7,0-14-6.3-14-14S16.3,0,24,0s14,6.3,14,14S31.7,28,24,28z M24,2
	c-6.6,0-12,5.4-12,12s5.4,12,12,12s12-5.4,12-12S30.6,2,24,2z M9,34H5c-0.6,0-1-0.4-1-1s0.4-1,1-1h4c0.6,0,1,0.4,1,1S9.6,34,9,34z
	 M9,38H5c-0.6,0-1-0.4-1-1s0.4-1,1-1h4c0.6,0,1,0.4,1,1S9.6,38,9,38z M9,42H5c-0.6,0-1-0.4-1-1s0.4-1,1-1h4c0.6,0,1,0.4,1,1
	S9.6,42,9,42z M43,34h-4c-0.6,0-1-0.4-1-1s0.4-1,1-1h4c0.6,0,1,0.4,1,1S43.6,34,43,34z M43,38h-4c-0.6,0-1-0.4-1-1s0.4-1,1-1h4
	c0.6,0,1,0.4,1,1S43.6,38,43,38z M43,42h-4c-0.6,0-1-0.4-1-1s0.4-1,1-1h4c0.6,0,1,0.4,1,1S43.6,42,43,42z M19,36h-2
	c-0.6,0-1-0.4-1-1s0.4-1,1-1h2c0.6,0,1,0.4,1,1S19.6,36,19,36z M19,40h-2c-0.6,0-1-0.4-1-1s0.4-1,1-1h2c0.6,0,1,0.4,1,1
	S19.6,40,19,40z M25,36h-2c-0.6,0-1-0.4-1-1s0.4-1,1-1h2c0.6,0,1,0.4,1,1S25.6,36,25,36z M25,40h-2c-0.6,0-1-0.4-1-1s0.4-1,1-1h2
	c0.6,0,1,0.4,1,1S25.6,40,25,40z M31,36h-2c-0.6,0-1-0.4-1-1s0.4-1,1-1h2c0.6,0,1,0.4,1,1S31.6,36,31,36z M31,40h-2
	c-0.6,0-1-0.4-1-1s0.4-1,1-1h2c0.6,0,1,0.4,1,1S31.6,40,31,40z M25.6,22h-3.1c-0.5,0-0.9-0.2-1.3-0.5c-0.3-0.3-0.5-0.8-0.5-1.3v-2.9
	h-2.9c-0.5,0-0.9-0.2-1.3-0.5C16.2,16.5,16,16,16,15.6v-3.1c0-0.5,0.2-0.9,0.5-1.3c0.3-0.3,0.8-0.5,1.3-0.5h2.9V7.8
	c0-0.5,0.2-0.9,0.5-1.3C21.5,6.2,22,6,22.4,6h3.1c0.5,0,0.9,0.2,1.3,0.5c0.3,0.3,0.5,0.8,0.5,1.3v2.9h2.9c0.5,0,0.9,0.2,1.3,0.5
	c0.3,0.3,0.5,0.8,0.5,1.3v3.1c0,0.5-0.2,0.9-0.5,1.3c-0.3,0.3-0.8,0.5-1.3,0.5h-2.9v2.9c0,0.5-0.2,0.9-0.5,1.3
	C26.5,21.8,26,22,25.6,22z M22.7,20h2.7v-3.7c0-0.6,0.4-1,1-1H30v-2.7h-3.7c-0.6,0-1-0.4-1-1V8h-2.7v3.7c0,0.6-0.4,1-1,1H18v2.7h3.7
	c0.6,0,1,0.4,1,1V20z M30.2,12.7L30.2,12.7L30.2,12.7z"/>
</svg>
