<?xml version="1.0" encoding="utf-8"?>
<!-- Generator: Adobe Illustrator 26.0.2, SVG Export Plug-In . SVG Version: 6.00 Build 0)  -->
<svg version="1.1" id="Layer_1" xmlns="http://www.w3.org/2000/svg" xmlns:xlink="http://www.w3.org/1999/xlink" x="0px" y="0px"
	 viewBox="0 0 48 48" style="enable-background:new 0 0 48 48;" xml:space="preserve">
<path d="M24,48c-6.4,0-12.4-2.5-17-7S0,30.4,0,24S2.5,11.6,7,7s10.6-7,17-7s12.4,2.5,17,7s7,10.6,7,17s-2.5,12.4-7,17S30.4,48,24,48
	z M24,2C18.1,2,12.6,4.3,8.4,8.4C4.3,12.6,2,18.1,2,24s2.3,11.4,6.4,15.6C12.6,43.7,18.1,46,24,46s11.4-2.3,15.6-6.4
	C43.7,35.4,46,29.9,46,24s-2.3-11.4-6.4-15.6C35.4,4.3,29.9,2,24,2z M27.1,38.8H21c-0.7,0-1.3-0.3-1.8-0.7c-0.5-0.5-0.7-1.1-0.7-1.8
	v-6.7h-6.7c-0.7,0-1.3-0.3-1.8-0.7c-0.5-0.5-0.7-1.1-0.7-1.8V21c0-0.7,0.3-1.3,0.7-1.8c0.5-0.5,1.1-0.7,1.8-0.7h6.7v-6.7
	c0-0.7,0.3-1.3,0.7-1.8c0.5-0.5,1.1-0.7,1.8-0.7h6.1c0.7,0,1.3,0.3,1.8,0.7c0.5,0.5,0.7,1.1,0.7,1.8v6.7h6.7c0.7,0,1.3,0.3,1.8,0.7
	c0.5,0.5,0.7,1.1,0.7,1.8v6.1c0,0.7-0.3,1.3-0.7,1.8c-0.5,0.5-1.1,0.7-1.8,0.7h-6.7v6.7c0,0.7-0.3,1.3-0.7,1.8
	C28.4,38.5,27.7,38.8,27.1,38.8z M11.7,20.4c-0.1,0-0.3,0.1-0.4,0.2c-0.1,0.1-0.2,0.2-0.2,0.4v6.1c0,0.1,0.1,0.3,0.2,0.4
	c0.1,0.1,0.2,0.2,0.4,0.2h7.7c0.6,0,1,0.4,1,1v7.7c0,0.1,0.1,0.3,0.2,0.4c0.1,0.1,0.2,0.2,0.4,0.2h6.1c0.1,0,0.3-0.1,0.4-0.2
	c0.1-0.1,0.2-0.2,0.2-0.4v-7.7c0-0.6,0.4-1,1-1h7.7c0.1,0,0.3-0.1,0.4-0.2c0.1-0.1,0.2-0.2,0.2-0.4V21c0-0.1-0.1-0.3-0.2-0.4
	c-0.1-0.1-0.2-0.2-0.4-0.2h-7.7c-0.6,0-1-0.4-1-1v-7.7c0-0.1-0.1-0.3-0.2-0.4c-0.1-0.1-0.2-0.2-0.4-0.2H21c-0.1,0-0.3,0.1-0.4,0.2
	c-0.1,0.1-0.2,0.2-0.2,0.4v7.7c0,0.6-0.4,1-1,1H11.7z"/>
</svg>
