<?xml version="1.0" encoding="utf-8"?>
<!-- Generator: Adobe Illustrator 26.0.2, SVG Export Plug-In . SVG Version: 6.00 Build 0)  -->
<svg version="1.1" id="Layer_1" xmlns="http://www.w3.org/2000/svg" xmlns:xlink="http://www.w3.org/1999/xlink" x="0px" y="0px"
	 viewBox="0 0 48 48" style="enable-background:new 0 0 48 48;" xml:space="preserve">
<path d="M24,30.3c-0.6,0-1-0.4-1-1V11.2c0-0.6,0.4-1,1-1s1,0.4,1,1v18.2C25,29.9,24.6,30.3,24,30.3z M24,0C10.8,0,0,10.8,0,24
	s10.8,24,24,24s24-10.8,24-24S37.2,0,24,0z M24,46C11.9,46,2,36.1,2,24S11.9,2,24,2s22,9.9,22,22S36.1,46,24,46z M25.8,36.1
	c-0.1,0.3-0.2,0.7-0.5,0.9c-0.2,0.2-0.6,0.4-0.9,0.5c-0.1,0-0.2,0-0.3,0c-0.2,0-0.5-0.1-0.7-0.1c-0.3-0.1-0.6-0.4-0.8-0.7
	c-0.2-0.3-0.3-0.6-0.3-1c0-0.5,0.2-0.9,0.5-1.3c0.6-0.6,1.6-0.7,2.3-0.2c0.3,0.2,0.5,0.5,0.7,0.8C25.8,35.4,25.8,35.8,25.8,36.1z"/>
</svg>
