<?xml version="1.0" encoding="utf-8"?>
<!-- Generator: Adobe Illustrator 26.0.2, SVG Export Plug-In . SVG Version: 6.00 Build 0)  -->
<svg version="1.1" id="Layer_1" xmlns="http://www.w3.org/2000/svg" xmlns:xlink="http://www.w3.org/1999/xlink" x="0px" y="0px"
	 viewBox="0 0 48 48" style="enable-background:new 0 0 48 48;" xml:space="preserve">
<path d="M46,10.1H28V9c0-2.7-2.2-5-5-5c-2.7,0-5,2.2-5,5v5h-6.7c-1.1,0-2.2,0.5-2.5,1.4l-4.3,7.8l-0.1,0.1L1.5,26
	c-1,1-1.5,2.3-1.5,3.6V38c0,1.2,0.9,2,2,2h3.1c0.5,2.2,2.5,3.8,4.8,3.8s4.3-1.6,4.8-3.8h18.4c0.5,2.2,2.5,3.8,4.8,3.8
	s4.3-1.6,4.8-3.8H46c1.2,0,2-0.9,2-2V12.1C48,10.9,47.1,10.1,46,10.1z M20,9c0-1.4,1.1-3,3-3c1.4,0,3,1.1,3,3v1.1h-6V9z M10.5,16.3
	c0-0.1,0.3-0.3,0.8-0.3H18v7H6.8L10.5,16.3z M5.1,38.1L2,38v-2.1h4C5.5,36.5,5.2,37.3,5.1,38.1z M10,41.8c-1.8,0-3-1.5-3-3
	s1.1-3,3-3c1.8,0,3,1.5,3,3C13,40.7,11.4,41.8,10,41.8z M2,33.9v-4.2c0-0.8,0.3-1.6,1-2.2L5.4,25H18v8.9H2z M14,35.9h20
	c-0.5,0.6-0.8,1.4-0.9,2.2H14.9C14.8,37.3,14.4,36.5,14,35.9z M38,41.8c-1.8,0-3-1.5-3-3s1.1-3,3-3c1.8,0,3,1.5,3,3
	C41,40.7,39.4,41.8,38,41.8z M46,38.1h-3c-0.1-0.8-0.4-1.5-0.9-2.2h4L46,38.1L46,38.1z M46,33.9H20V12.1h26V33.9z M34,30h-2.1
	c-1.2,0-2-0.9-2-2v-1.9H28c-1.2,0-2-0.9-2-2V22c0-1.2,0.9-2,2-2h1.9v-2c0-1.2,0.9-2,2-2H34c1.2,0,2,0.9,2,2v1.9h2c1.2,0,2,0.9,2,2
	V24c0,1.2-0.9,2-2,2h-1.9v2C36.1,29.2,35.2,30,34,30z M28,21.9V24h3c0.6,0,1,0.4,1,1v3h2.1v-3c0-0.6,0.4-1,1-1H38v-2.1v-0.1h-3
	c-0.6,0-1-0.4-1-1V18h-2.1v3c0,0.6-0.4,1-1,1H28V21.9z"/>
</svg>
