<?xml version="1.0" encoding="utf-8"?>
<!-- Generator: Adobe Illustrator 26.0.2, SVG Export Plug-In . SVG Version: 6.00 Build 0)  -->
<svg version="1.1" id="Layer_1" xmlns="http://www.w3.org/2000/svg" xmlns:xlink="http://www.w3.org/1999/xlink" x="0px" y="0px"
	 viewBox="0 0 48 48" style="enable-background:new 0 0 48 48;" xml:space="preserve">
<path d="M16.9,44H12c-0.5,0-0.9-0.4-1-0.9L9.8,34H7c-0.6,0-1-0.4-1-1v-5.5c0-2,0.9-4,2.5-5.4s3.7-2.2,5.9-2.2s4.3,0.8,5.9,2.2
	c1.6,1.4,2.5,3.4,2.5,5.4V33c0,0.6-0.4,1-1,1H19l-1.1,9.1C17.8,43.6,17.4,44,16.9,44z M12.8,42H16l1.1-9.1c0.1-0.5,0.5-0.9,1-0.9
	h2.7v-4.5c0-1.5-0.7-2.9-1.8-4c-1.2-1.1-2.9-1.7-4.6-1.7s-3.4,0.6-4.6,1.7C8.7,24.6,8,26,8,27.5V32h2.7c0.5,0,0.9,0.4,1,0.9L12.8,42
	z M14.4,18.8c-0.9,0-1.8-0.2-2.6-0.5s-1.6-0.9-2.2-1.5c-0.6-0.6-1.1-1.4-1.5-2.2c-0.4-0.8-0.5-1.7-0.5-2.6s0.2-1.8,0.5-2.6
	c0.3-1,0.8-1.7,1.4-2.4c0.6-0.6,1.4-1.1,2.2-1.5c1.7-0.7,3.6-0.7,5.3,0c0.8,0.3,1.6,0.9,2.2,1.5s1.2,1.4,1.5,2.2s0.5,1.7,0.5,2.6
	s-0.2,1.8-0.5,2.6s-0.9,1.6-1.5,2.2s-1.4,1.1-2.2,1.5C16.2,18.6,15.3,18.8,14.4,18.8z M14.4,7c-0.6,0-1.3,0.1-1.9,0.4
	c-0.6,0.2-1.1,0.6-1.6,1.1s-0.8,1-1.1,1.6c-0.2,0.6-0.4,1.2-0.4,1.9c0,0.6,0.1,1.3,0.4,1.9c0.2,0.6,0.6,1.1,1.1,1.6s1,0.8,1.6,1.1
	c1.2,0.5,2.6,0.5,3.8,0c0.6-0.2,1.1-0.6,1.6-1.1s0.8-1,1.1-1.6c0.2-0.6,0.4-1.2,0.4-1.9c0-0.6-0.1-1.3-0.4-1.9
	c-0.2-0.6-0.6-1.1-1.1-1.6s-1-0.8-1.6-1.1C15.7,7.1,15,7,14.4,7z M37,44h-4.9c-0.5,0-0.9-0.4-1-0.9L30,34h-2.8c-0.6,0-1-0.4-1-1
	v-5.5c0-2,0.9-4,2.5-5.4s3.7-2.2,5.9-2.2s4.3,0.8,5.9,2.2c1.6,1.4,2.5,3.4,2.5,5.4V33c0,0.6-0.4,1-1,1h-2.8L38,43.1
	C38,43.6,37.6,44,37,44z M33,42h3.2l1.1-9.1c0.1-0.5,0.5-0.9,1-0.9H41v-4.5c0-1.5-0.7-2.9-1.8-4c-1.2-1.1-2.9-1.7-4.6-1.7
	c-1.7,0-3.4,0.6-4.6,1.7s-1.8,2.5-1.8,4V32h2.7c0.5,0,0.9,0.4,1,0.9L33,42z M34.6,18.8c-0.9,0-1.8-0.2-2.6-0.5
	c-0.8-0.3-1.6-0.9-2.2-1.5s-1.1-1.4-1.5-2.2c-0.3-0.8-0.5-1.7-0.5-2.6s0.2-1.8,0.5-2.6c0.2-1,0.7-1.7,1.4-2.4
	c0.6-0.6,1.4-1.1,2.2-1.5c1.7-0.7,3.6-0.7,5.3,0C38,5.8,38.8,6.4,39.4,7c0.6,0.6,1.2,1.4,1.5,2.2c0.4,0.8,0.5,1.7,0.5,2.6
	s-0.2,1.8-0.5,2.6c-0.4,0.8-0.9,1.6-1.5,2.2s-1.4,1.1-2.2,1.5C36.4,18.6,35.5,18.8,34.6,18.8z M34.6,7c-0.7,0-1.3,0.1-1.9,0.4
	c-0.6,0.2-1.1,0.6-1.6,1.1s-0.8,1-1.1,1.6c-0.2,0.6-0.4,1.2-0.4,1.9c0,0.6,0.1,1.3,0.4,1.9c0.2,0.6,0.6,1.1,1.1,1.6s1,0.8,1.6,1.1
	c1.2,0.5,2.6,0.5,3.8,0c0.6-0.2,1.1-0.6,1.6-1.1s0.8-1,1.1-1.6c0.2-0.6,0.4-1.2,0.4-1.9c0-0.6-0.1-1.3-0.4-1.9
	C39,9.5,38.6,9,38.1,8.5s-1-0.8-1.6-1.1C35.9,7.1,35.2,7,34.6,7z"/>
</svg>
