<?xml version="1.0" encoding="utf-8"?>
<!-- Generator: Adobe Illustrator 26.0.2, SVG Export Plug-In . SVG Version: 6.00 Build 0)  -->
<svg version="1.1" id="Layer_1" xmlns="http://www.w3.org/2000/svg" xmlns:xlink="http://www.w3.org/1999/xlink" x="0px" y="0px"
	 viewBox="0 0 48 48" style="enable-background:new 0 0 48 48;" xml:space="preserve">
<path d="M17.5,12h-9c-0.5,0-1,0.5-1,1s0.5,1,1,1h9c0.5,0,1-0.5,1-1S18,12,17.5,12z M24.5,18h-16c-0.5,0-1,0.5-1,1s0.5,1,1,1h16
	c0.5,0,1-0.5,1-1S25,18,24.5,18z M20.5,24h-12c-0.5,0-1,0.5-1,1s0.5,1,1,1h12c0.5,0,1-0.5,1-1S21,24,20.5,24z M18.5,30h-10
	c-0.5,0-1,0.5-1,1s0.5,1,1,1h10c0.5,0,1-0.5,1-1S19,30,18.5,30z M35.2,10.3l-10-10C25,0.1,24.8,0,24.5,0h-22c-0.5,0-1,0.5-1,1v42
	c0,0.5,0.5,1,1,1H21c0.5,0,1-0.5,1-1s-0.5-1-1-1H3.5V2h20v9c0,0.5,0.5,1,1,1h9v13.5c0,0.5,0.5,1,1,1s1-0.5,1-1V11
	C35.5,10.7,35.4,10.5,35.2,10.3z M25.5,10V3.4l6.6,6.6H25.5z M24.5,48c-0.3,0-0.5-0.1-0.7-0.3s-0.3-0.6-0.3-0.9l1.3-6.6
	c0-0.2,0.1-0.4,0.3-0.5l13.4-13.4c0.9-0.9,2.1-1.4,3.3-1.4s2.4,0.5,3.3,1.4c0.9,0.9,1.4,2.1,1.4,3.3c0,1.3-0.5,2.4-1.4,3.3
	L31.8,46.4c-0.1,0.1-0.3,0.2-0.5,0.3L24.7,48C24.6,48,24.6,48,24.5,48z M26.7,40.9l-1,4.8l4.8-1l13.1-13.1l0,0
	c0.5-0.5,0.8-1.2,0.8-1.9c0-0.7-0.3-1.4-0.8-1.9c-1.1-1.1-2.8-1-3.8,0L26.7,40.9z M31.1,45.7L31.1,45.7L31.1,45.7z"/>
</svg>
