<?xml version="1.0" encoding="utf-8"?>
<!-- Generator: Adobe Illustrator 26.0.2, SVG Export Plug-In . SVG Version: 6.00 Build 0)  -->
<svg version="1.1" id="Layer_1" xmlns="http://www.w3.org/2000/svg" xmlns:xlink="http://www.w3.org/1999/xlink" x="0px" y="0px"
	 viewBox="0 0 48 48" style="enable-background:new 0 0 48 48;" xml:space="preserve">
<path d="M47.7,12.5L43.2,17l0,0l-0.1,0.1c-0.2,0.1-0.4,0.2-0.6,0.2c-0.2,0-0.4-0.1-0.6-0.2c-0.1,0-0.1-0.1-0.2-0.1l0,0l-4.6-4.5
	c-0.4-0.4-0.4-1,0-1.4s1-0.4,1.4,0l2.9,2.9v-3.7c0-1.4-0.5-2.7-1.5-3.6c-1-1-2.3-1.5-3.6-1.5c-0.6,0-1-0.5-1-1c0-0.6,0.4-1,1-1
	c1.9,0,3.7,0.7,5,2.1s2.1,3.1,2.1,5V14l2.9-2.9c0.4-0.4,1-0.4,1.4,0C48.1,11.4,48.1,12,47.7,12.5z M12.7,43.9c0,0.6-0.4,1-1,1
	c-1.9,0-3.7-0.7-5-2.1c-1.3-1.3-2.1-3.1-2.1-5v-3.7L1.7,37c-0.2,0.2-0.5,0.3-0.7,0.3S0.5,37.2,0.3,37c-0.4-0.4-0.4-1,0-1.4L4.9,31
	c0.1-0.1,0.2-0.2,0.3-0.2h0.1c0.1,0,0.2,0,0.2,0c0.1,0,0.2,0,0.2,0c0.1,0,0.1,0,0.1,0c0.1,0,0.2,0.1,0.3,0.2l4.6,4.6
	c0.4,0.4,0.4,1,0,1.4s-1,0.4-1.4,0l-2.9-2.9v3.7c0,1.4,0.5,2.7,1.5,3.6c1,1,2.3,1.5,3.6,1.5C12.3,42.9,12.7,43.4,12.7,43.9z
	 M28.6,38.8h-3.1c-0.6,0-1-0.4-1-1s0.4-1,1-1h3.1c0.6,0,1,0.4,1,1S29.2,38.8,28.6,38.8z M40.9,38.8h-3.1c-0.6,0-1-0.4-1-1s0.4-1,1-1
	h3.1c0.6,0,1,0.4,1,1S41.4,38.8,40.9,38.8z M46.9,34.8l-2.1-3.5l-2.3-7.5c0-0.1-0.1-0.1-0.1-0.2c-0.4-0.7-0.9-1.2-1.6-1.6
	s-1.4-0.5-2.2-0.5h-5.5c-0.5,0-1,0.5-1,1s0.5,1,1,1h5.5c0.4,0,0.8,0.1,1.1,0.2c0.3,0.2,0.6,0.4,0.8,0.7l1.9,6.2H23.8l0.1-0.2
	c0.2-0.5-0.1-1.1-0.7-1.2c-0.5-0.2-1.1,0.1-1.2,0.7l-0.4,1.4l-2,3.5c-0.7,0.8-1.1,1.7-1.1,2.8v3.3c0,1.1,0.4,2.1,1.2,2.9
	c0.5,0.5,1.2,0.9,1.9,1.1V47c0,0.5,0.4,1,1,1s1-0.5,1-1v-2.1h19.5V47c0,0.5,0.5,1,1,1c0.6,0,1-0.5,1-1v-2.2c0.7-0.2,1.4-0.5,1.9-1.1
	c0.8-0.8,1.2-1.8,1.2-2.9v-3.3C48,36.5,47.6,35.5,46.9,34.8z M46,40.9c0,0.5-0.2,1.1-0.6,1.5C45,42.8,44.5,43,43.9,43H22.5
	c-0.5,0-1.1-0.2-1.5-0.6c-0.4-0.4-0.6-0.9-0.6-1.5v-3.3c0-0.5,0.2-1.1,0.6-1.5c0.1-0.1,0.1-0.1,0.2-0.2l1.9-3.2h20.3l1.9,3.2
	c0,0.1,0.1,0.1,0.2,0.2c0.4,0.4,0.6,0.9,0.6,1.5v3.3H46z M28.5,13.3l-2-3.5l-2.3-7.5c0-0.1,0-0.1-0.1-0.2c-0.4-0.7-0.9-1.2-1.6-1.6
	C21.7,0.1,21,0,20.2,0H9.4C8.6,0,7.9,0.1,7.2,0.5S6,1.4,5.6,2.1c0,0.1-0.1,0.1-0.1,0.2L3.2,9.8l-2.1,3.5C0.4,14,0,15,0,16.1v3.3
	c0,1.1,0.4,2.1,1.2,2.9c0.5,0.5,1.2,0.9,1.9,1.1v2.2c0,0.5,0.4,1,1,1c0.5,0,1-0.5,1-1v-2.1h19.5v2.1c0,0.5,0.4,1,1,1s1-0.5,1-1v-2.2
	c0.7-0.2,1.3-0.5,1.9-1.1c0.8-0.8,1.2-1.8,1.2-2.9v-3.3C29.6,15,29.2,14,28.5,13.3z M7.3,3c0.2-0.3,0.5-0.6,0.8-0.7
	C8.5,2.1,8.9,2,9.3,2h10.9c0,0,0,0,0.1,0c0.4,0,0.8,0.1,1.1,0.3C21.8,2.4,22,2.7,22.2,3l1.9,6.2H5.4L7.3,3z M27.6,19.4
	c0,0.6-0.2,1.1-0.6,1.5s-0.9,0.6-1.5,0.6H4.1c-0.6,0-1.1-0.2-1.5-0.6S2,20,2,19.4v-3.3c0-0.5,0.2-1.1,0.6-1.5
	c0.1-0.1,0.1-0.1,0.2-0.2l1.9-3.2H25l1.9,3.2c0,0.1,0.1,0.1,0.2,0.2c0.4,0.4,0.6,0.9,0.6,1.5v3.3H27.6z M10.2,17.3H7.1
	c-0.6,0-1-0.4-1-1s0.4-1,1-1h3.1c0.6,0,1,0.4,1,1S10.8,17.3,10.2,17.3z M22.5,17.3h-3.1c-0.6,0-1-0.4-1-1s0.4-1,1-1h3.1
	c0.6,0,1,0.4,1,1S23,17.3,22.5,17.3z"/>
</svg>
