<?xml version="1.0" encoding="utf-8"?>
<!-- Generator: Adobe Illustrator 26.0.2, SVG Export Plug-In . SVG Version: 6.00 Build 0)  -->
<svg version="1.1" id="Layer_1" xmlns="http://www.w3.org/2000/svg" xmlns:xlink="http://www.w3.org/1999/xlink" x="0px" y="0px"
	 viewBox="0 0 48 48" style="enable-background:new 0 0 48 48;" xml:space="preserve">
<path d="M17.5,16.1l-2.2-0.4c1.7-1.5,3-3.9,2.5-8C17.2,3.6,14.2,1,10.3,1C9,1,7.7,1.3,6.6,2C2.6,3.9,0,9.6,0,16.1
	c0,6.6,2.6,12.3,6.5,14.2c1.1,0.6,2.4,1,3.7,1c3.9,0,6.9-2.6,7.5-6.7l0,0c0.4-3-0.2-5.1-1.2-6.6l0.5,0.1c2,0.4,3.4,2.2,3.4,4.2V46
	c0,0.5,0.4,1,1,1c0.5,0,1-0.5,1-1V22.2C22.4,19.3,20.3,16.7,17.5,16.1z M15.8,24.3c-0.5,3.1-2.5,5-5.5,5c-1,0-1.9-0.2-2.8-0.8
	C4.2,26.9,2,22,2,16.1C2,10.3,4.2,5.4,7.5,3.7C8.3,3.3,9.3,3,10.3,3c3,0,5,1.9,5.5,5c0.5,3.3-0.4,5.5-2.7,6.8l-1.4-3.1
	c-0.2-0.5-0.8-0.7-1.3-0.5S9.7,12,9.9,12.5l1.6,3.7l-1.6,3.7c-0.2,0.5,0,1.1,0.5,1.3c0.1,0.1,0.3,0.1,0.4,0.1c0.4,0,0.8-0.2,0.9-0.6
	l1.4-3.1C15.4,18.8,16.3,21,15.8,24.3z M41.5,2c-1.1-0.6-2.4-1-3.7-1c-3.9,0-6.9,2.6-7.5,6.7c-0.6,4,0.7,6.5,2.5,8l-2.2,0.4
	c-2.9,0.6-5,3.2-5,6.1V46c0,0.5,0.5,1,1,1c0.6,0,1-0.5,1-1V22.2c0-2,1.4-3.7,3.4-4.2l0.5-0.1c-1,1.5-1.6,3.6-1.2,6.6l0,0
	c0.6,4.1,3.6,6.7,7.5,6.7c1.3,0,2.6-0.3,3.7-1c4-1.9,6.6-7.6,6.6-14.2C48,9.6,45.4,3.9,41.5,2z M40.5,28.6c-0.8,0.5-1.8,0.7-2.8,0.7
	c-3,0-5-1.9-5.5-5c-0.5-3.3,0.4-5.5,2.7-6.8l1.4,3.1c0.2,0.4,0.5,0.6,0.9,0.6c0.1,0,0.3,0,0.4-0.1c0.5-0.2,0.7-0.8,0.5-1.3l-1.6-3.7
	l1.6-3.7c0.2-0.5,0-1.1-0.5-1.3s-1.1,0-1.3,0.5l-1.4,3.1c-2.3-1.3-3.2-3.5-2.7-6.8c0.5-3.1,2.5-5,5.5-5c1,0,1.9,0.2,2.8,0.7
	C43.8,5.2,46,10.2,46,16C46,22,43.8,26.9,40.5,28.6z"/>
</svg>
