<?xml version="1.0" encoding="utf-8"?>
<!-- Generator: Adobe Illustrator 26.0.2, SVG Export Plug-In . SVG Version: 6.00 Build 0)  -->
<svg version="1.1" id="Layer_1" xmlns="http://www.w3.org/2000/svg" xmlns:xlink="http://www.w3.org/1999/xlink" x="0px" y="0px"
	 viewBox="0 0 48 48" style="enable-background:new 0 0 48 48;" xml:space="preserve">
<path d="M47,44h-3.6V22.7h2.5c0.9,0,1.7-0.6,2-1.5s0-1.8-0.7-2.4l-3.9-2.9c0.1-0.1,0.1-0.3,0.1-0.5V7.1c0-1.1-1-2-2.3-2H36
	c-1.3,0-2.3,0.9-2.3,2v1.7l-8.5-6.4c-0.8-0.6-1.8-0.6-2.5,0L0.8,18.9c-0.7,0.5-1,1.5-0.7,2.3c0.3,0.9,1.1,1.5,2,1.5h2.5V44H1
	c-0.5,0-1,0.5-1,1s0.5,1,1,1h46c0.5,0,1-0.5,1-1S47.5,44,47,44z M35.7,10V7.2c0.1,0,0.2-0.1,0.3-0.1h5.1c0.1,0,0.2,0,0.3,0.1v7.4
	l-5.7-4.3C35.7,10.2,35.7,10.1,35.7,10z M2.1,20.7C2.1,20.7,2,20.6,2.1,20.7C2,20.5,2,20.5,2,20.5L24,4l0,0c0,0,0,0,0.1,0L46,20.5
	v0.1c0,0.1,0,0.1-0.1,0.1H2.1z M21.5,44h-7.2V29.6c0-0.4,0.2-0.7,0.1-0.7h6.8c0.1,0,0.2,0.3,0.2,0.7L21.5,44L21.5,44z M41.4,44H23.5
	V29.6c0-1.5-0.9-2.7-2.1-2.7h-6.9c-1.2,0-2.1,1.2-2.1,2.7V44H6.6V22.7h34.8C41.4,22.7,41.4,44,41.4,44z M35.8,26.9h-6.7
	c-0.8,0-1.5,0.7-1.5,1.5v6.8c0,0.8,0.7,1.5,1.5,1.5h6.7c0.8,0,1.5-0.7,1.5-1.5v-6.8C37.3,27.6,36.6,26.9,35.8,26.9z M35.3,34.7h-5.7
	v-5.8h5.7V34.7z"/>
</svg>
