<?xml version="1.0" encoding="utf-8"?>
<!-- Generator: Adobe Illustrator 26.0.2, SVG Export Plug-In . SVG Version: 6.00 Build 0)  -->
<svg version="1.1" id="Layer_1" xmlns="http://www.w3.org/2000/svg" xmlns:xlink="http://www.w3.org/1999/xlink" x="0px" y="0px"
	 viewBox="0 0 48 48" style="enable-background:new 0 0 48 48;" xml:space="preserve">
<path d="M46.8,6.2C46,5.4,45,5,43.9,5h-21c-1.1,0-2.1,0.4-2.9,1.2C19.2,7,18.8,8,18.8,9.1v2.1c0,0.5,0.2,1.1,0.6,1.5
	s0.9,0.6,1.5,0.6l0,0v24.1c0,1.4,0.5,2.7,1.5,3.7s2.3,1.5,3.7,1.5h14.7c1.4,0,2.7-0.5,3.7-1.5s1.5-2.3,1.5-3.7V13.3l0,0
	c0.5,0,1.1-0.2,1.5-0.6c0.4-0.4,0.6-0.9,0.6-1.5V9.1C48,8,47.6,7,46.8,6.2z M43.9,32.2H31.2V19.6h12.6L43.9,32.2L43.9,32.2z
	 M43.9,17.6H31.3c-0.5,0-1.1,0.2-1.4,0.6c-0.4,0.4-0.6,0.9-0.6,1.5v12.6c0,0.5,0.2,1.1,0.6,1.5s0.9,0.6,1.4,0.6h12.6v3.2
	c0,0.8-0.3,1.6-0.9,2.2c-0.6,0.6-1.4,0.9-2.3,0.9H26c-0.8,0-1.6-0.3-2.3-0.9c-0.6-0.6-0.9-1.4-0.9-2.2V13.3h21L43.9,17.6L43.9,17.6z
	 M46,11.2L46,11.2h-1.1H20.8V9.1c0-0.6,0.2-1.1,0.6-1.5c0.4-0.4,1-0.6,1.5-0.6h21c0.6,0,1.1,0.2,1.5,0.6C45.8,8,46,8.6,46,9.1V11.2z
	 M17.5,35.5c-0.8-0.8-1.8-1.2-2.9-1.2H4.1c-1.1,0-2.1,0.4-2.9,1.2S0,37.4,0,38.5s0.4,2.1,1.2,2.9C2,42.2,3,42.6,4.1,42.6h10.5
	c1.1,0,2.2-0.4,2.9-1.2c0.8-0.8,1.2-1.8,1.2-2.9C18.8,37.4,18.3,36.3,17.5,35.5z M2.6,40C2.2,39.6,2,39,2,38.5
	c0-0.6,0.2-1.1,0.6-1.5s1-0.6,1.5-0.6h4.2v4.3H4.1C3.6,40.6,3,40.4,2.6,40z M16.1,40c-0.4,0.4-0.9,0.6-1.5,0.6h-4.2v-4.3h4.2
	c0.6,0,1.1,0.2,1.5,0.6c0.4,0.4,0.6,0.9,0.6,1.5C16.8,39,16.5,39.6,16.1,40z M17.5,17.6c-0.4-0.4-0.8-0.7-1.3-0.9
	c-1-0.4-2.2-0.4-3.2,0c-0.5,0.2-1,0.5-1.3,0.9L9,20.3l0,0l0,0L4.3,25c-0.8,0.8-1.2,1.8-1.2,2.9s0.4,2.1,1.2,2.9S6.1,32,7.2,32l0,0
	c1.1,0,2.1-0.4,2.9-1.2l7.4-7.4c0.8-0.8,1.2-1.8,1.2-2.9C18.8,19.5,18.3,18.4,17.5,17.6z M8.7,29.5c-0.4,0.4-0.9,0.6-1.5,0.6
	s-1.1-0.2-1.5-0.6S5.1,28.6,5.1,28s0.2-1.1,0.6-1.5l4-4l3,3L8.7,29.5z M16.1,22.1l-2,2.1l-3-3l2-2c0.2-0.2,0.4-0.4,0.7-0.5
	s0.5-0.2,0.8-0.2s0.6,0,0.8,0.2c0.3,0.1,0.5,0.3,0.7,0.5c0.4,0.4,0.6,0.9,0.6,1.5S16.5,21.7,16.1,22.1z"/>
</svg>
