<?xml version="1.0" encoding="utf-8"?>
<!-- Generator: Adobe Illustrator 26.0.2, SVG Export Plug-In . SVG Version: 6.00 Build 0)  -->
<svg version="1.1" id="Layer_1" xmlns="http://www.w3.org/2000/svg" xmlns:xlink="http://www.w3.org/1999/xlink" x="0px" y="0px"
	 viewBox="0 0 48 48" style="enable-background:new 0 0 48 48;" xml:space="preserve">
<path d="M39.8,11.5l-2-2.2c-0.5-0.6-1.3-1-2.1-1.2S34,7.9,33.3,8.2c-0.8,0.3-1.4,0.8-1.9,1.5s-0.7,1.5-0.7,2.3v12.8L25,20.4V1
	c0-0.5-0.5-1-1-1s-1,0.5-1,1v19.4l-5.7,4.4V12c0-0.8-0.2-1.6-0.7-2.3s-1.1-1.2-1.9-1.5C14,7.9,13.1,7.8,12.3,8s-1.5,0.6-2.1,1.2
	l-2,2.2C2.9,17.3,0,24.9,0,32.8v8.1c0,1.2,0.3,2.3,0.8,3.3s1.3,1.9,2.3,2.6c1,0.7,2.1,1.1,3.2,1.2c0.2,0,0.5,0,0.8,0
	c0.9,0,1.8-0.2,2.7-0.5l5-2c0.8-0.3,1.4-0.8,1.8-1.5c0.5-0.7,0.7-1.5,0.7-2.3V27.4l6.7-5.2l6.7,5.2v14.3c0,0.8,0.2,1.6,0.7,2.3
	s1.1,1.2,1.9,1.5l5,2c0.8,0.3,1.8,0.5,2.7,0.5c0.2,0,0.5,0,0.8,0c1.2-0.1,2.3-0.5,3.2-1.2c1-0.6,1.8-1.5,2.3-2.6
	c0.5-1,0.8-2.2,0.8-3.3v-8.1C48,24.9,45.1,17.3,39.8,11.5z M15.3,26.4l-5,3.9l-2.4-2.4c-0.4-0.4-1-0.4-1.4,0s-0.4,1,0,1.4l2.8,2.8
	v4.2c0,0.6,0.5,1,1,1s1-0.4,1-1v-4.1l4.1-3.2v12.8c0,0.4-0.1,0.8-0.4,1.2c-0.2,0.3-0.6,0.6-0.9,0.8l-5,2c-0.8,0.3-1.6,0.4-2.5,0.3
	C5.8,46,5,45.7,4.3,45.3c-0.7-0.7-1.3-1.3-1.7-2C2.2,42.5,2,41.7,2,40.9v-8.1c0-7.4,2.7-14.5,7.7-20l2-2.2c0.3-0.3,0.6-0.5,1-0.6
	c0.2,0,0.3-0.1,0.5-0.1s0.5,0,0.7,0.1c0.4,0.1,0.7,0.4,1,0.8c0.2,0.4,0.4,0.8,0.4,1.2C15.3,12,15.3,26.4,15.3,26.4z M46,40.9
	c0,0.8-0.2,1.7-0.6,2.4c-0.4,0.7-1,1.4-1.7,1.9S42.2,46,41.4,46c-0.8,0.1-1.7,0-2.5-0.3l-5-2c-0.4-0.2-0.7-0.4-0.9-0.8
	c-0.2-0.4-0.4-0.8-0.4-1.2V28.9l4.1,3.2v4.1c0,0.6,0.5,1,1,1s1-0.4,1-1V32l2.8-2.8c0.4-0.4,0.4-1,0-1.4s-1-0.4-1.4,0l-2.4,2.4
	l-5-3.9V12c0-0.4,0.1-0.8,0.4-1.2c0.2-0.3,0.6-0.6,1-0.8c0.2-0.1,0.5-0.1,0.7-0.1s0.3,0,0.5,0.1c0.4,0.1,0.8,0.3,1,0.6l2,2.2
	c5,5.5,7.7,12.6,7.7,20C46,32.8,46,40.9,46,40.9z"/>
</svg>
