<?xml version="1.0" encoding="utf-8"?>
<!-- Generator: Adobe Illustrator 26.0.2, SVG Export Plug-In . SVG Version: 6.00 Build 0)  -->
<svg version="1.1" id="Layer_1" xmlns="http://www.w3.org/2000/svg" xmlns:xlink="http://www.w3.org/1999/xlink" x="0px" y="0px"
	 viewBox="0 0 48 48" style="enable-background:new 0 0 48 48;" xml:space="preserve">
<path d="M43,39.8H5c-2.8,0-5-2.1-5-4.6V13.6C0,11.1,2.2,9,5,9h38c2.8,0,5,2.1,5,4.6v21.6C48,37.7,45.8,39.8,43,39.8z M5,11
	c-1.7,0-3,1.2-3,2.6v21.6c0,1.4,1.3,2.6,3,2.6h38c1.7,0,3-1.2,3-2.6V13.6c0-1.4-1.3-2.6-3-2.6H5z M24,28.2c-2.1,0-3.9-1.7-3.9-3.9
	s1.7-3.9,3.9-3.9s3.9,1.7,3.9,3.9S26.1,28.2,24,28.2z M24,22.5c-1,0-1.9,0.8-1.9,1.9c0,1,0.8,1.9,1.9,1.9s1.9-0.8,1.9-1.9
	S25,22.5,24,22.5z M38.2,34H9.8c-2.2,0-4-1.4-4-3.2V17.9c0-1.8,1.8-3.2,4-3.2h28.5c2.2,0,4,1.4,4,3.2v12.9
	C42.2,32.6,40.5,34,38.2,34z M9.8,16.8c-1.1,0-2,0.6-2,1.2v12.9c0,0.5,0.9,1.2,2,1.2h28.5c1.1,0,2-0.6,2-1.2v-13
	c0-0.5-0.9-1.2-2-1.2H9.8V16.8z"/>
</svg>
