<?xml version="1.0" encoding="utf-8"?>
<!-- Generator: Adobe Illustrator 26.0.2, SVG Export Plug-In . SVG Version: 6.00 Build 0)  -->
<svg version="1.1" id="Layer_1" xmlns="http://www.w3.org/2000/svg" xmlns:xlink="http://www.w3.org/1999/xlink" x="0px" y="0px"
	 viewBox="0 0 48 48" style="enable-background:new 0 0 48 48;" xml:space="preserve">
<path d="M27.1,48c-10.9,0-13.7-3.8-15-5.6c-0.1-0.2-0.3-0.4-0.4-0.6c-0.5,0-1,0.2-1.3,0.6c-0.4,0.4-0.6,0.9-0.6,1.5V47
	c0,0.6-0.4,1-1,1s-1-0.4-1-1v-3.1c0-1.1,0.4-2.1,1.2-2.9c0.8-0.8,1.8-1.2,2.9-1.2c0.9,0,1.4,0.7,1.9,1.4c1.3,1.7,3.6,4.8,13.4,4.8
	c13.1,0,17.4-11.7,17.4-17.4c0-12.4-8-20.5-20.5-20.5c-1.1,0-2.1-0.4-2.9-1.2S20,5.1,20,4V1c0-0.6,0.4-1,1-1s1,0.4,1,1v3.1
	c0,0.6,0.2,1.1,0.6,1.5s0.9,0.6,1.5,0.6c13.6,0,22.5,8.8,22.5,22.5C46.5,34.9,41.7,48,27.1,48z M17.8,31.1c-0.8,1.1-3.7,4.7-6,4.7
	c-2.2,0-4.2,0.9-5.8,2.4c-1.5,1.5-2.4,3.6-2.4,5.8v3c0,0.5-0.4,1-1,1s-1-0.5-1-1v-3.1c0-2.7,1.1-5.3,3-7.2s4.5-3,7.2-3
	c0.6,0,2.4-1.2,4.4-3.9c3.1-4,5.8-10.4,4.4-16.2c-1.4-0.5-2.6-1.2-3.8-2.4c-1.9-1.9-3-4.5-3-7.2V1c0-0.5,0.5-1,1-1s1,0.5,1,1v3.1
	c0,2.2,0.9,4.2,2.4,5.8c1.1,1.1,2.1,1.7,3.4,2h0.1c0,0,0,0,0.1,0c0,0,0.1,0,0.1,0.1c0.2,0.1,0.4,0.3,0.5,0.6
	C24.2,19.3,21.2,26.5,17.8,31.1z M27.1,41.9c-3,0-7.1,0-7.1-4.1c0-3.9,8.4-8.7,10.2-8.7c5.9,0,7.1,3,7.1,5.6
	C37.3,40.1,30.4,41.9,27.1,41.9z M30.1,31.1c-1.4,0.1-8.2,4.4-8.2,6.7c0,1.8,1.3,2.1,5.1,2.1c2.6,0,8.2-1.3,8.2-5.1
	C35.3,32.2,33.7,31.1,30.1,31.1z"/>
</svg>
