<?xml version="1.0" encoding="utf-8"?>
<!-- Generator: Adobe Illustrator 26.0.2, SVG Export Plug-In . SVG Version: 6.00 Build 0)  -->
<svg version="1.1" id="Layer_1" xmlns="http://www.w3.org/2000/svg" xmlns:xlink="http://www.w3.org/1999/xlink" x="0px" y="0px"
	 viewBox="0 0 48 48" style="enable-background:new 0 0 48 48;" xml:space="preserve">
<path d="M35.5,27.9c3.1-3.1,4.8-7.2,4.8-11.6s-1.7-8.5-4.8-11.5C32.5,1.7,28.4,0,24,0s-8.5,1.7-11.5,4.8C9.4,7.9,7.7,12,7.7,16.3
	c0,4.4,1.7,8.5,4.8,11.6c2.8,2.8,6.6,4.5,10.5,4.8v7.2h-5.1c-0.6,0-1,0.4-1,1c0,0.5,0.4,1,1,1H23V47c0,0.5,0.5,1,1,1s1-0.5,1-1v-5.1
	h5.1c0.6,0,1-0.5,1-1c0-0.6-0.4-1-1-1H25v-7.2C29,32.4,32.7,30.7,35.5,27.9z M13.9,26.5c-2.7-2.7-4.2-6.3-4.2-10.1S11.2,9,13.9,6.3
	C16.6,3.5,20.2,2,24,2s7.4,1.5,10.1,4.2s4.2,6.3,4.2,10.1s-1.5,7.4-4.2,10.1s-6.3,4.2-10.1,4.2S16.6,29.2,13.9,26.5z"/>
</svg>
