<?xml version="1.0" encoding="utf-8"?>
<!-- Generator: Adobe Illustrator 26.0.2, SVG Export Plug-In . SVG Version: 6.00 Build 0)  -->
<svg version="1.1" id="Layer_1" xmlns="http://www.w3.org/2000/svg" xmlns:xlink="http://www.w3.org/1999/xlink" x="0px" y="0px"
	 viewBox="0 0 48 48" style="enable-background:new 0 0 48 48;" xml:space="preserve">
<path d="M0,32.8c0,0.1,0,0.1,0,0.2C0,32.9,0,32.9,0,32.8L0,32.8z M48,33c0-0.1,0-0.1,0-0.2l0,0C48,32.9,48,32.9,48,33z M48,32.8
	l-2.7-16L44,8.9V4c0-1.1-0.4-2.1-1.2-2.8C42.1,0.4,41.1,0,40,0H8C6.9,0,5.9,0.4,5.2,1.2C4.4,1.9,4,2.9,4,4v4.9l-1.3,7.9L0,32.8
	c0,0.1,0,0.1,0,0.2v9c0,1.1,0.4,2.1,1.2,2.8C1.9,45.6,2.9,46,4,46h2v1c0,0.5,0.5,1,1,1s1-0.5,1-1v-1h32v1c0,0.5,0.5,1,1,1s1-0.5,1-1
	v-1h2c1.1,0,2.1-0.4,2.8-1.2C47.6,44,48,43,48,42v-9C48,32.9,48,32.9,48,32.8z M6,4c0-0.5,0.2-1,0.6-1.4S7.5,2,8,2h32
	c0.5,0,1,0.2,1.4,0.6C41.8,3,42,3.5,42,4v4h-2.2V7.7c-0.1-0.5-0.3-0.9-0.7-1.2C38.8,6.2,38.3,6,37.8,6l0,0h-9.5
	c-0.3,0-0.5,0-0.8,0.1c-0.2,0.1-0.5,0.3-0.6,0.5S26.5,7,26.5,7.3c-0.1,0.2-0.2,0.5-0.2,0.8v0.2h-4.1V8c0-0.3,0-0.5-0.1-0.8
	C22,7,21.8,6.8,21.6,6.6c-0.2-0.2-0.4-0.3-0.6-0.4C20.7,6,20.5,6,20.2,6h-9.5c-0.5,0-1,0.2-1.3,0.5C9,6.8,8.8,7.2,8.7,7.7V8H6V4z
	 M38.3,12h-9.9l-0.1-4h9.5L38,9v0.2L38.3,12z M20.2,8l-0.1,4h-10l0.4-2.8V9l0.1-1H20.2z M5.8,10h2.6l-0.2,1.7c0,0.3,0,0.6,0.1,0.9
	c0.1,0.3,0.2,0.5,0.4,0.8c0.2,0.2,0.4,0.4,0.7,0.5s0.5,0.2,0.8,0.2l0,0h9.9c0.5,0,1-0.2,1.4-0.6c0.4-0.4,0.6-0.9,0.6-1.4v-1.8h4.2
	v1.8c0,0.5,0.2,1,0.6,1.4s0.9,0.6,1.4,0.6h9.9l0,0c0.3,0,0.6-0.1,0.8-0.2c0.3-0.1,0.5-0.3,0.7-0.5s0.3-0.5,0.4-0.7
	c0.1-0.3,0.1-0.6,0.1-0.9L40.1,10h2.1l1,6H4.8L5.8,10z M4.5,18h39l2.3,14H2.2L4.5,18z M46,42c0,0.5-0.2,1-0.6,1.4
	C45,43.8,44.5,44,44,44H4c-0.5,0-1-0.2-1.4-0.6C2.2,43,2,42.5,2,42v-8h44V42z"/>
</svg>
