<?xml version="1.0" encoding="utf-8"?>
<!-- Generator: Adobe Illustrator 26.0.2, SVG Export Plug-In . SVG Version: 6.00 Build 0)  -->
<svg version="1.1" id="Layer_1" xmlns="http://www.w3.org/2000/svg" xmlns:xlink="http://www.w3.org/1999/xlink" x="0px" y="0px"
	 viewBox="0 0 48 48" style="enable-background:new 0 0 48 48;" xml:space="preserve">
<path d="M23,20H7c-0.5,0-1,0.5-1,1c0,0.6,0.5,1,1,1h16c0.5,0,1-0.4,1-1C24,20.5,23.5,20,23,20z M41,20h-6c-0.5,0-1,0.5-1,1
	c0,0.6,0.5,1,1,1h6c0.5,0,1-0.4,1-1C42,20.5,41.5,20,41,20z M13,25.4H7c-0.5,0-1,0.4-1,1c0,0.5,0.5,1,1,1h6c0.5,0,1-0.5,1-1
	C14,25.8,13.5,25.4,13,25.4z M43,5.8H5c-2.8,0-5,2.3-5,5.1v26.4c0,2.8,2.2,5.1,5,5.1h38c2.8,0,5-2.3,5-5.1V10.8
	C48,8,45.8,5.8,43,5.8z M46,37.2c0,1.7-1.3,3.1-3,3.1H5c-1.7,0-3-1.4-3-3.1V14.9h44V37.2z M46,12.9H2v-2.1c0-1.7,1.3-3.1,3-3.1h38
	c1.7,0,3,1.4,3,3.1V12.9z"/>
</svg>
