<?xml version="1.0" encoding="utf-8"?>
<!-- Generator: Adobe Illustrator 26.0.2, SVG Export Plug-In . SVG Version: 6.00 Build 0)  -->
<svg version="1.1" id="Layer_1" xmlns="http://www.w3.org/2000/svg" xmlns:xlink="http://www.w3.org/1999/xlink" x="0px" y="0px"
	 viewBox="0 0 48 48" style="enable-background:new 0 0 48 48;" xml:space="preserve">
<path d="M47,44.5h-3.6V21.9h0.5c0.7,0,1.4-0.2,2-0.5s1.1-0.8,1.5-1.4s0.6-1.3,0.6-2s-0.1-1.4-0.4-2c0,0-0.1-0.1-0.1-0.2l-5.6-7.6
	V5.6c0-1.1-0.4-2.1-1.2-2.9s-1.8-1.2-2.9-1.2H10.2C9.1,1.5,8.1,2,7.3,2.7C6.6,3.5,6.1,4.5,6.1,5.6v2.7l-5.6,7.6c0,0.1,0,0.1-0.1,0.1
	C0.1,16.7,0,17.4,0,18s0.2,1.4,0.6,2s0.9,1.1,1.5,1.4s1.3,0.5,2,0.5h0.5v22.5H1c-0.5,0-1,0.4-1,1c0,0.5,0.5,1,1,1h46
	c0.5,0,1-0.5,1-1S47.5,44.5,47,44.5z M8.1,5.6c0-0.5,0.2-1.1,0.6-1.5c0.4-0.4,0.9-0.6,1.5-0.6h27.6c0.5,0,1.1,0.2,1.5,0.6
	s0.6,0.9,0.6,1.5v2.1H8.1V5.6z M29.1,44.5H18.9v-9.7c0-1.3,0.5-2.7,1.5-3.6c1-1,2.3-1.5,3.6-1.5s2.7,0.5,3.6,1.5
	c1,1,1.5,2.3,1.5,3.6V44.5z M41.4,44.5H31.1v-9.7c0-1.9-0.8-3.7-2.1-5c-1.3-1.4-3.1-2.1-5-2.1s-3.7,0.7-5,2.1
	c-1.3,1.3-2.1,3.2-2.1,5v9.7H6.6V21.9h34.8C41.4,21.9,41.4,44.5,41.4,44.5z M4.1,19.9c-0.4,0-0.7-0.1-1-0.3S2.5,19.2,2.3,19
	C2.1,18.6,2,18.3,2,18s0-0.6,0.2-0.9l5.5-7.3h32.7l5.5,7.3C46,17.3,46,17.6,46,18s-0.1,0.7-0.3,1s-0.4,0.5-0.8,0.7s-0.7,0.3-1,0.3
	H4.1V19.9z"/>
</svg>
