<?xml version="1.0" encoding="utf-8"?>
<!-- Generator: Adobe Illustrator 26.0.2, SVG Export Plug-In . SVG Version: 6.00 Build 0)  -->
<svg version="1.1" id="Layer_1" xmlns="http://www.w3.org/2000/svg" xmlns:xlink="http://www.w3.org/1999/xlink" x="0px" y="0px"
	 viewBox="0 0 48 48" style="enable-background:new 0 0 48 48;" xml:space="preserve">
<path d="M33.3,24c0,0.3-0.1,0.5-0.3,0.7l-8.2,8.1C24.5,33,24.3,33,24,33s-0.5-0.1-0.7-0.3c-0.4-0.4-0.4-1,0-1.4l6.5-6.3H1
	c-0.5,0-1-0.5-1-1s0.5-1,1-1h28.8l-6.5-6.3c-0.4-0.4-0.4-1,0-1.4s1-0.4,1.4,0l8.2,8C33.2,23.5,33.3,23.7,33.3,24z M48,24.5
	c-0.1,5.4-2.1,10.6-5.6,14.8c-3.5,4.1-8.4,7.1-13.8,8.2c-1.7,0.4-3.5,0.6-5.3,0.6c-3.7,0-7.4-0.8-10.8-2.4c-5-2.3-9-6.3-11.5-11.1
	c-0.2-0.5,0-1.1,0.4-1.3c0.5-0.2,1.1,0,1.3,0.5c2.2,4.4,6,8,10.5,10.2c4.6,2.2,9.8,2.7,14.8,1.7c5-1.1,9.5-3.7,12.7-7.5
	s5-8.6,5.1-13.5s-1.5-9.8-4.6-13.7C38.3,6.8,33.9,4,29,2.7c-4.9-1.2-10.2-0.8-14.8,1.1S5.7,9.3,3.3,13.6C3,14.1,2.4,14.3,1.9,14
	s-0.7-0.9-0.4-1.4C4.1,8,8.3,4.2,13.4,2s10.8-2.6,16.1-1.2C34.9,2.1,39.6,5.2,43,9.5C46.3,13.8,48.1,19.1,48,24.5z"/>
</svg>
