<?xml version="1.0" encoding="utf-8"?>
<!-- Generator: Adobe Illustrator 26.0.2, SVG Export Plug-In . SVG Version: 6.00 Build 0)  -->
<svg version="1.1" id="Layer_1" xmlns="http://www.w3.org/2000/svg" xmlns:xlink="http://www.w3.org/1999/xlink" x="0px" y="0px"
	 viewBox="0 0 48 48" style="enable-background:new 0 0 48 48;" xml:space="preserve">
<path d="M35.2,37.2L24.7,47.7C24.5,47.9,24.3,48,24,48s-0.5-0.1-0.7-0.3L12.8,37.2c-0.4-0.4-0.4-1,0-1.4s1-0.4,1.4,0l8.8,8.8V21.9
	c0-0.5,0.5-1,1-1s1,0.5,1,1v22.7l8.8-8.8c0.4-0.4,1-0.4,1.4,0C35.5,36.2,35.5,36.9,35.2,37.2z M39.6,2v27.3c0,1.1-0.9,2-2,2h-8.4
	c-0.6,0-1-0.4-1-1c0-0.5,0.4-1,1-1h8.4V2H10.4v27.3h8.4c0.6,0,1,0.5,1,1c0,0.6-0.4,1-1,1h-8.4c-1.1,0-2-0.9-2-2V2c0-1.1,0.9-2,2-2
	h27.3C38.7,0,39.6,0.9,39.6,2z"/>
</svg>
