<?xml version="1.0" encoding="utf-8"?>
<!-- Generator: Adobe Illustrator 26.0.2, SVG Export Plug-In . SVG Version: 6.00 Build 0)  -->
<svg version="1.1" id="Layer_1" xmlns="http://www.w3.org/2000/svg" xmlns:xlink="http://www.w3.org/1999/xlink" x="0px" y="0px"
	 viewBox="0 0 48 48" style="enable-background:new 0 0 48 48;" xml:space="preserve">
<path d="M47.5,22.6L47.5,22.6C44.9,19.7,35.4,10,24,10S3.1,19.7,0.5,22.6c-0.6,0.8-0.6,1.9,0,2.6c2.6,3,12.1,12.6,23.5,12.6
	s20.9-9.7,23.5-12.6C48.2,24.5,48.2,23.4,47.5,22.6z M24,35.9C13.4,35.9,4.5,26.7,2,24c2.5-2.8,11.4-12,22-12s19.5,9.1,22,11.9
	C43.5,26.8,34.6,35.9,24,35.9z M24,16c-4.4,0-8,3.6-8,8s3.6,8,8,8s8-3.6,8-8C32,19.5,28.4,16,24,16z M24,29.9c-3.3,0-6-2.7-6-6
	s2.7-6,6-6s6,2.7,6,6S27.3,29.9,24,29.9z"/>
</svg>
