<?xml version="1.0" encoding="utf-8"?>
<!-- Generator: Adobe Illustrator 26.0.2, SVG Export Plug-In . SVG Version: 6.00 Build 0)  -->
<svg version="1.1" id="Layer_1" xmlns="http://www.w3.org/2000/svg" xmlns:xlink="http://www.w3.org/1999/xlink" x="0px" y="0px"
	 viewBox="0 0 48 48" style="enable-background:new 0 0 48 48;" xml:space="preserve">
<path d="M48,0.8V0.7c0-0.1-0.1-0.2-0.2-0.3C47.5,0.1,47.3,0,47,0H32.5c-0.6,0-1,0.5-1,1s0.4,1,1,1h12L28.4,18.2
	c-1.4-1.3-3-2.3-4.8-3c-3.1-1.3-6.5-1.6-9.9-1c-1.7,0.3-3.2,0.9-4.7,1.7s-2.8,1.8-4,3c-1.6,1.6-2.8,3.5-3.7,5.5
	C0.4,26.5,0,28.7,0,30.9s0.4,4.5,1.3,6.5c0.9,2.1,2.1,4,3.7,5.6c2.4,2.4,5.4,4,8.8,4.7c1.1,0.2,2.2,0.3,3.3,0.3
	c2.2,0,4.4-0.4,6.5-1.3c3.1-1.3,5.8-3.5,7.7-6.3c1.9-2.8,2.9-6.1,2.9-9.5s-1-6.7-2.9-9.5c-0.4-0.7-0.9-1.3-1.4-1.9L46,3.4v12
	c0,0.6,0.5,1,1,1s1-0.4,1-1V1C48,0.9,48,0.8,48,0.8z M32.2,30.9c0,3-0.9,5.9-2.5,8.4c-1.7,2.5-4,4.4-6.8,5.5
	c-2.8,1.2-5.8,1.4-8.7,0.9c-2.9-0.6-5.6-2-7.7-4.1c-1.4-1.4-2.5-3-3.3-4.9C2.4,34.9,2,32.9,2,30.9s0.4-3.9,1.2-5.8
	c0.8-1.8,1.9-3.5,3.3-4.9l0,0c2.1-2.1,4.8-3.5,7.7-4.1c1-0.2,2-0.3,3-0.3c2,0,3.9,0.4,5.8,1.1c2.8,1.1,5.1,3.1,6.8,5.6
	C31.3,25,32.2,28,32.2,30.9z"/>
</svg>
