<?xml version="1.0" encoding="utf-8"?>
<!-- Generator: Adobe Illustrator 26.0.2, SVG Export Plug-In . SVG Version: 6.00 Build 0)  -->
<svg version="1.1" id="Layer_1" xmlns="http://www.w3.org/2000/svg" xmlns:xlink="http://www.w3.org/1999/xlink" x="0px" y="0px"
	 viewBox="0 0 48 48" style="enable-background:new 0 0 48 48;" xml:space="preserve">
<path d="M47,24.6H9.4c-0.5,0-1,0.4-1,1V34H7.1c-1.3,0-2.7-0.5-3.6-1.5c-1-1-1.5-2.2-1.5-3.6V17.8c0-1.3,0.5-2.5,1.5-3.4
	C4.4,13.5,5.7,13,7.1,13h22.3c0.5,4.7,4.5,8.4,9.3,8.4c5.2,0,9.4-4.2,9.4-9.4s-4.2-9.4-9.4-9.4c-4.8,0-8.8,3.7-9.3,8.4H7.1
	c-1.9,0-3.7,0.7-5,2C0.8,14.2,0,16,0,17.8v11.1c0,1.9,0.7,3.7,2.1,5c1.3,1.3,3.1,2,5,2.1h1.2v8.4c0,0.5,0.5,1,1,1H47
	c0.5,0,1-0.5,1-1V25.6C48,25,47.5,24.6,47,24.6z M38.6,4.6c4.1,0,7.4,3.3,7.4,7.4s-3.3,7.4-7.4,7.4S31.3,16,31.3,12
	S34.6,4.6,38.6,4.6z M46,43.4H10.4V26.6H46V43.4z M34.5,39.1H15.6c-0.6,0-1-0.4-1-1v-6.3c0-0.6,0.4-1,1-1h18.8c0.6,0,1,0.4,1,1v6.3
	C35.5,38.7,35,39.1,34.5,39.1z M16.6,37.1h16.8v-4.3H16.6V37.1z M38.5,16c-2.3,0-4.1-1.9-4.1-4.1s1.9-4.1,4.1-4.1s4.1,1.9,4.1,4.1
	S40.8,16,38.5,16z M38.5,9.7c-1.2,0-2.1,1-2.1,2.1s1,2.1,2.1,2.1s2.1-1,2.1-2.1S39.7,9.7,38.5,9.7z M42.5,38.5
	c-0.1,0.4-0.2,0.7-0.5,0.9c-0.2,0.2-0.6,0.4-0.9,0.5c-0.1,0-0.2,0-0.4,0s-0.5,0-0.7-0.1c-0.3-0.1-0.6-0.4-0.8-0.7s-0.3-0.6-0.3-1
	c0-0.5,0.2-0.9,0.5-1.3c0.6-0.6,1.6-0.7,2.3-0.2c0.3,0.2,0.5,0.5,0.7,0.8C42.5,37.8,42.5,38.1,42.5,38.5z M42.5,32.2
	c-0.1,0.3-0.2,0.7-0.5,0.9s-0.6,0.4-0.9,0.5c-0.1,0-0.2,0-0.4,0s-0.5,0-0.7-0.1c-0.3-0.1-0.6-0.4-0.8-0.7s-0.3-0.6-0.3-1
	c0-0.5,0.2-0.9,0.5-1.3c0.6-0.6,1.6-0.7,2.3-0.2c0.3,0.2,0.5,0.5,0.7,0.8C42.5,31.5,42.5,31.8,42.5,32.2z"/>
</svg>
