<?xml version="1.0" encoding="utf-8"?>
<!-- Generator: Adobe Illustrator 26.0.2, SVG Export Plug-In . SVG Version: 6.00 Build 0)  -->
<svg version="1.1" id="Layer_1" xmlns="http://www.w3.org/2000/svg" xmlns:xlink="http://www.w3.org/1999/xlink" x="0px" y="0px"
	 viewBox="0 0 48 48" style="enable-background:new 0 0 48 48;" xml:space="preserve">
<path d="M42.8,2.2C42,1.4,41,1,39.8,1H5.2C4,1,3,1.4,2.2,2.2S1,4,1,5.1v24.8C1,31,1.4,32,2.2,32.8S4,34,5.2,34h12.6c0.6,0,1-0.4,1-1
	c0-0.5-0.4-1-1-1H5.2c-0.6,0-1.1-0.2-1.5-0.6C3.2,31,3,30.5,3,29.9V9.5h39v11c0,0.6,0.4,1,1,1c0.5,0,1-0.4,1-1V5.1
	C44,4,43.5,3,42.8,2.2z M3,7.5V5.1C3,4.5,3.2,4,3.6,3.6S4.6,3,5.2,3h34.7c0.6,0,1.1,0.2,1.5,0.6C41.8,4,42,4.6,42,5.1v2.4H3z
	 M24.5,16h-16c-0.6,0-1-0.4-1-1s0.4-1,1-1h16c0.6,0,1,0.4,1,1S25,16,24.5,16z M15.5,22h-7c-0.6,0-1-0.4-1-1s0.4-1,1-1h7
	c0.6,0,1,0.4,1,1S16,22,15.5,22z M43.2,24.8C40.7,22.4,37.5,21,34,21s-6.7,1.4-9.2,3.8C22.3,27.3,21,30.5,21,34s1.3,6.7,3.8,9.2
	c2.5,2.4,5.7,3.8,9.2,3.8s6.7-1.4,9.2-3.8c2.5-2.5,3.8-5.7,3.8-9.2S45.6,27.3,43.2,24.8z M41.8,41.8C39.7,43.9,36.9,45,34,45
	s-5.7-1.1-7.8-3.2C24.1,39.7,23,36.9,23,34s1.1-5.7,3.2-7.8S31,23,34,23c2.9,0,5.7,1.1,7.8,3.2S45,31,45,34
	C45,36.9,43.8,39.7,41.8,41.8z M39.2,33.2c-0.2,0.2-0.5,0.3-0.7,0.3c-0.3,0-0.5-0.1-0.7-0.3L35,30.4V40c0,0.6-0.5,1-1,1
	c-0.6,0-1-0.4-1-1v-9.6l-2.8,2.8c-0.4,0.4-1,0.4-1.4,0s-0.4-1,0-1.4l4.5-4.5l0,0c0.1,0,0.1-0.1,0.2-0.1s0.1-0.1,0.2-0.1
	c0.2-0.1,0.5-0.1,0.8,0c0.1,0.1,0.2,0.1,0.3,0.2l0.1,0.1c0,0,0,0,0,0.1l4.4,4.4C39.6,32.2,39.6,32.8,39.2,33.2z"/>
</svg>
