<?xml version="1.0" encoding="utf-8"?>
<!-- Generator: Adobe Illustrator 26.0.2, SVG Export Plug-In . SVG Version: 6.00 Build 0)  -->
<svg version="1.1" id="Layer_1" xmlns="http://www.w3.org/2000/svg" xmlns:xlink="http://www.w3.org/1999/xlink" x="0px" y="0px"
	 viewBox="0 0 48 48" style="enable-background:new 0 0 48 48;" xml:space="preserve">
<path d="M47.3,27.1c0-0.1-0.1-0.2-0.1-0.2c-0.4-0.9-0.9-1.7-1.6-2.3l-3.7-3.7l0,0l-3.4-9.2c-0.9-2.2-3-3.7-5.4-3.7H15
	c-2.3,0-4.4,1.5-5.2,3.6l-3.4,9.1l-3.8,3.8C1.9,25.2,1.4,26,1,26.8C0.8,27,0.8,27,0.7,27.1C0.2,28.2,0,29.3,0,30.5
	c0,1.9,1.3,3.5,3.1,3.9v2.2c0,2.2,1.8,4.1,4.1,4.1c2.2,0,4.1-1.8,4.1-4.1v-2.1h25.6v2.1c0,2.2,1.8,4.1,4.1,4.1
	c2.2,0,4.1-1.8,4.1-4.1v-2.2c1.8-0.4,3.1-2,3.1-3.9C48,29.3,47.8,28.2,47.3,27.1z M24.8,10h8.3c1.5,0,2.9,0.9,3.4,2.3l3,8H26.3
	l1.5-3.5c0.2-0.5,0-1-0.4-1.3L22.9,13L24.8,10z M11.6,12.3c0.5-1.4,1.9-2.3,3.4-2.3h7.5l-1.8,2.9c-0.1,0.2-0.2,0.5-0.1,0.8
	s0.2,0.5,0.5,0.6l4.7,2.5l-1.5,3.4H8.6L11.6,12.3z M9.2,36.6c0,1.2-0.9,2.1-2.1,2.1S5,37.8,5,36.6v-2.1h4.1L9.2,36.6L9.2,36.6z
	 M42.9,36.6c0,1.2-0.9,2.1-2.1,2.1c-1.1,0-2.1-0.9-2.1-2.1v-2.1h4.1L42.9,36.6L42.9,36.6z M43.9,32.6H4.1C3,32.6,2,31.7,2,30.5
	c0-0.7,0.1-1.4,0.3-2.1h7.9c0.6,0,1-0.5,1-1c0-0.6-0.4-1-1-1H3.5c0.1-0.2,0.3-0.3,0.4-0.5l3.7-3.7h32.9l3.7,3.7
	c0.2,0.2,0.3,0.3,0.4,0.5h-6.8c-0.6,0-1,0.4-1,1c0,0.5,0.4,1,1,1h7.9c0.2,0.7,0.3,1.4,0.3,2.1C46,31.6,45.1,32.6,43.9,32.6z"/>
</svg>
