<?xml version="1.0" encoding="utf-8"?>
<!-- Generator: Adobe Illustrator 26.0.2, SVG Export Plug-In . SVG Version: 6.00 Build 0)  -->
<svg version="1.1" id="Layer_1" xmlns="http://www.w3.org/2000/svg" xmlns:xlink="http://www.w3.org/1999/xlink" x="0px" y="0px"
	 viewBox="0 0 48 48" style="enable-background:new 0 0 48 48;" xml:space="preserve">
<path d="M25.5,27.6c-0.5,0-1,0.5-1,1v8.2H2V7.1c0-0.5,0.2-1,0.6-1.4S3.5,5.1,4,5.1h13.8c0.5,0,1-0.5,1-1s-0.5-1-1-1H4.1
	C3,3.1,1.9,3.5,1.2,4.3C0.4,5,0,6,0,7.1v36.8C0,45,0.4,46,1.2,46.8C2,47.6,3.1,48,4.1,48h18.4c1.1,0,2.1-0.4,2.9-1.2
	s1.2-1.8,1.2-2.9V28.6C26.6,28.1,26,27.6,25.5,27.6z M24.5,43.9c0,0.5-0.2,1-0.6,1.4C23.5,45.8,23,46,22.5,46H4.1
	c-0.5,0-1-0.2-1.4-0.6c-0.5-0.5-0.7-1-0.7-1.5v-5.1h22.5V43.9z M44.1,3.9C41.6,1.3,38.3,0,34.7,0s-6.8,1.3-9.4,3.9s-3.9,5.8-3.9,9.4
	s1.3,6.8,3.9,9.4s5.8,3.9,9.4,3.9s6.8-1.4,9.4-3.9c2.6-2.6,3.9-5.8,3.9-9.4S46.7,6.4,44.1,3.9z M42.7,21.2c-2.1,2.1-4.9,3.3-8,3.3
	s-5.8-1.1-8-3.3c-2.1-2.1-3.3-4.9-3.3-8s1.1-5.8,3.3-8s4.9-3.3,8-3.3s5.8,1.1,8,3.3s3.3,4.9,3.3,8S44.8,19.1,42.7,21.2z M40,15.5
	l-4.6,4.6c-0.1,0.1-0.2,0.2-0.3,0.2H35c-0.1,0-0.2,0-0.2,0h-0.2h-0.1c-0.1,0-0.2-0.1-0.3-0.2l-4.6-4.6c-0.4-0.4-0.4-1,0-1.4
	s1-0.4,1.4,0l2.9,2.9V7.1c0-0.5,0.5-1,1-1s1,0.5,1,1V17l2.9-2.9c0.4-0.4,1-0.4,1.4,0C40.4,14.5,40.4,15.1,40,15.5z"/>
</svg>
