<?xml version="1.0" encoding="utf-8"?>
<!-- Generator: Adobe Illustrator 26.0.2, SVG Export Plug-In . SVG Version: 6.00 Build 0)  -->
<svg version="1.1" id="Layer_1" xmlns="http://www.w3.org/2000/svg" xmlns:xlink="http://www.w3.org/1999/xlink" x="0px" y="0px"
	 viewBox="0 0 48 48" style="enable-background:new 0 0 48 48;" xml:space="preserve">
<path d="M26.6,27.9c-1.1-1.1-3.1-1.1-4.2,0c-0.6,0.6-0.9,1.3-0.9,2.1s0.3,1.5,0.9,2.1c0.3,0.3,0.7,0.6,1.1,0.7V38c0,0.5,0.5,1,1,1
	s1-0.5,1-1v-5.2c0.4-0.1,0.8-0.4,1.1-0.7c0.6-0.6,0.9-1.3,0.9-2.1S27.2,28.5,26.6,27.9z M25.2,30.7c-0.4,0.4-1,0.4-1.4,0
	c-0.2-0.2-0.3-0.4-0.3-0.7s0.1-0.5,0.3-0.7c0.2-0.2,0.5-0.3,0.7-0.3c0.3,0,0.5,0.1,0.7,0.3s0.3,0.4,0.3,0.7
	C25.5,30.3,25.4,30.5,25.2,30.7z M41.5,18h-5v-6c0-3.2-1.2-6.2-3.5-8.5S27.7,0,24.5,0S18.3,1.2,16,3.5s-3.5,5.3-3.5,8.5v6h-5
	c-0.5,0-1,0.5-1,1v28c0,0.5,0.5,1,1,1h34c0.5,0,1-0.5,1-1V19C42.5,18.5,42,18,41.5,18z M14.5,12c0-2.7,1-5.2,2.9-7.1S21.8,2,24.5,2
	s5.2,1,7.1,2.9s2.9,4.4,2.9,7.1v6h-20V12z M40.5,46h-32V20h32V46z"/>
</svg>
