<?xml version="1.0" encoding="utf-8"?>
<!-- Generator: Adobe Illustrator 26.0.2, SVG Export Plug-In . SVG Version: 6.00 Build 0)  -->
<svg version="1.1" id="Layer_1" xmlns="http://www.w3.org/2000/svg" xmlns:xlink="http://www.w3.org/1999/xlink" x="0px" y="0px"
	 viewBox="0 0 48 48" style="enable-background:new 0 0 48 48;" xml:space="preserve">
<path d="M38,7.5c-0.9,0-1.8,0.3-2.5,0.8v-1c0-2.6-2-4.7-4.4-4.7c-1,0-1.9,0.3-2.6,0.9C28,1.4,26.3,0,24.2,0S20.5,1.4,20,3.4
	c-0.7-0.6-1.6-0.9-2.6-0.9C15,2.5,13,4.6,13,7.2v10.2h-2.5C8,17.4,6,19.5,6,22.1V32c0,5.4,7.1,16,16.3,16H30c6.9,0,12.5-6,12.5-13.4
	V12.2C42.5,9.6,40.5,7.5,38,7.5z M40.5,34.6C40.5,40.9,35.8,46,30,46h-7.7C14.6,46,8,36.7,8,32.1v-9.9c0-1.5,1.1-2.7,2.5-2.7H13
	v10.2c0,0.5,0.4,1,1,1c0.5,0,1-0.5,1-1V7.2c0-1.5,1.1-2.7,2.4-2.7c1.4,0,2.5,1.2,2.5,2.7v12.4c0,0.6,0.5,1,1,1s1-0.4,1-1V4.7
	C21.9,3.2,23,2,24.4,2s2.5,1.2,2.5,2.7v14.9c0,0.6,0.5,1,1,1s1-0.4,1-1V7.2c0-1.5,1.1-2.7,2.5-2.7c1.3,0,2.4,1.2,2.4,2.7v14.9
	c0,0.5,0.5,1,1,1c0.6,0,1-0.5,1-1v-10c0-1.5,1.1-2.7,2.5-2.7s2.5,1.2,2.5,2.7v22.5H40.5z"/>
</svg>
