<?xml version="1.0" encoding="utf-8"?>
<!-- Generator: Adobe Illustrator 26.0.2, SVG Export Plug-In . SVG Version: 6.00 Build 0)  -->
<svg version="1.1" id="Layer_1" xmlns="http://www.w3.org/2000/svg" xmlns:xlink="http://www.w3.org/1999/xlink" x="0px" y="0px"
	 viewBox="0 0 48 48" style="enable-background:new 0 0 48 48;" xml:space="preserve">
<path d="M24.6,13c-0.1,0-0.2,0-0.3,0c-2.9,0.1-5.7-1.4-7.2-3.8l-4.6,0.7C10.9,10.1,9.3,9,9,7.3C8.9,6.5,9.1,5.7,9.6,5.1
	c0.5-0.7,1.2-1.1,2-1.2l5.3-0.8C17.5,2,18.3,1,19.4,0.4C20,0,20.8,0,21.5,0.3c0.9,0.4,1.9,0.7,2.9,0.6c1,0,2.1-0.2,3-0.7
	c0.6-0.3,1.4-0.3,2,0.1C30.5,1,31.3,2,31.9,3.1l5.3,0.8l0,0c0.8,0.1,1.5,0.6,2,1.2s0.7,1.4,0.5,2.2c-0.3,1.6-1.8,2.8-3.5,2.5
	l-4.6-0.7C30.2,11.5,27.5,13,24.6,13z M24.3,10.9c2.5,0.1,4.8-1.2,5.9-3.4c0.2-0.4,0.6-0.6,1.1-0.5l5.2,0.8c0.6,0.1,1.1-0.3,1.2-0.9
	l0,0c0-0.3,0-0.5-0.2-0.7s-0.4-0.4-0.7-0.4l0,0L31.1,5c-0.3-0.1-0.7-0.3-0.8-0.6c-0.4-0.9-1.1-1.7-2-2.3C27,2.7,25.6,3,24.3,3
	s-2.6-0.3-3.8-0.9c-1,0.6-1.7,1.4-2.1,2.3C18.3,4.7,18,4.9,17.7,5l-5.9,0.9c-0.3,0-0.5,0.2-0.7,0.4C11,6.5,11,6.7,11,7
	c0.1,0.6,0.6,0.9,1.2,0.8L17.4,7c0.4-0.1,0.9,0.2,1.1,0.5C19.6,9.7,21.9,11,24.3,10.9z M24.6,30.5c-0.1,0-0.2,0-0.3,0
	c-2.9,0.1-5.7-1.4-7.2-3.8l-4.6,0.7c-1.7,0.3-3.2-0.9-3.5-2.5c-0.1-0.8,0.1-1.6,0.5-2.2c0.5-0.7,1.2-1.1,2-1.2l5.3-0.8
	c0.6-1.1,1.4-2,2.5-2.7c0.6-0.4,1.4-0.4,2.1-0.1c1.9,0.9,4,0.9,5.9,0c0.6-0.3,1.4-0.3,2,0.1c1.1,0.7,1.9,1.6,2.5,2.7l5.3,0.8h0.1
	c0.8,0.1,1.4,0.6,1.9,1.2s0.7,1.4,0.5,2.2c-0.3,1.6-1.8,2.8-3.5,2.5l-4.6-0.7C30.2,29,27.5,30.5,24.6,30.5z M24.3,28.5
	c2.5,0.1,4.8-1.2,5.9-3.4c0.2-0.4,0.6-0.6,1.1-0.5l5.2,0.8c0.6,0.1,1.1-0.3,1.2-0.8c0-0.3,0-0.5-0.2-0.7s-0.4-0.4-0.7-0.4h-0.1
	L31,22.6c-0.3-0.1-0.7-0.3-0.8-0.6c-0.4-0.9-1.1-1.7-2-2.3c-2.5,1.2-5.3,1.2-7.8,0c-1,0.6-1.7,1.4-2.1,2.3c-0.1,0.3-0.4,0.6-0.8,0.6
	l-5.8,0.9c-0.3,0-0.5,0.2-0.7,0.4c0,0.1,0,0.4,0,0.6c0.1,0.6,0.6,0.9,1.2,0.8l5.2-0.8c0.4-0.1,0.9,0.2,1.1,0.5
	C19.6,27.2,21.9,28.6,24.3,28.5z M24.6,48c-0.1,0-0.2,0-0.3,0c-2.9,0.1-5.7-1.4-7.2-3.8l-4.6,0.7C10.9,45.1,9.3,44,9,42.4
	c-0.1-0.8,0.1-1.6,0.5-2.2c0.5-0.7,1.2-1.1,2-1.2l5.3-0.8c0.6-1.1,1.4-2,2.5-2.7c0.6-0.4,1.4-0.4,2.1-0.1c1.9,0.9,4,0.9,5.9,0
	c0.6-0.3,1.4-0.3,2,0.1c1.1,0.7,1.9,1.6,2.5,2.7l5.3,0.8h0.1c0.8,0.1,1.4,0.6,1.9,1.2c0.5,0.6,0.7,1.4,0.5,2.2
	c-0.3,1.6-1.8,2.8-3.5,2.5l-4.6-0.7C30.2,46.5,27.5,48,24.6,48z M24.3,46c2.5,0.1,4.8-1.2,5.9-3.4c0.2-0.4,0.6-0.6,1.1-0.5l5.2,0.8
	c0.6,0.1,1.1-0.3,1.2-0.8c0-0.3,0-0.5-0.2-0.7S37.1,41,36.8,41h-0.1l-5.6-1c-0.3-0.1-0.7-0.3-0.8-0.6c-0.4-0.9-1.1-1.7-2-2.3
	c-2.5,1.2-5.3,1.2-7.8,0c-1,0.6-1.7,1.4-2.1,2.3C18.3,39.7,18,40,17.6,40l-5.8,0.9c-0.3,0-0.5,0.2-0.7,0.4C11,41.5,11,41.8,11,42
	c0.1,0.6,0.6,0.9,1.2,0.8l5.2-0.8c0.4-0.1,0.9,0.2,1.1,0.5C19.6,44.8,21.9,46.1,24.3,46z"/>
</svg>
