<?xml version="1.0" encoding="utf-8"?>
<!-- Generator: Adobe Illustrator 26.0.2, SVG Export Plug-In . SVG Version: 6.00 Build 0)  -->
<svg version="1.1" id="Layer_1" xmlns="http://www.w3.org/2000/svg" xmlns:xlink="http://www.w3.org/1999/xlink" x="0px" y="0px"
	 viewBox="0 0 48 48" style="enable-background:new 0 0 48 48;" xml:space="preserve">
<path d="M47.8,26.5C47.7,26.2,47.3,26,47,26h-3.5l-2.8-3.6c0,0-0.1-0.1-0.1-0.2L36,16.4l-2-2.5c-0.5-0.6-1.1-1.1-1.8-1.4
	C31.5,12.2,30.8,12,30,12h-3.7l-7.7-7.7c-0.4-0.4-1-0.4-1.4,0s-0.4,1,0,1.4l6.3,6.3H8.8c-0.3,0-0.6,0.1-0.8,0.2
	c-0.3,0.1-0.5,0.3-0.7,0.5l-3.5,4c-0.2,0.3-0.4,0.6-0.5,1c0,0.4,0,0.8,0.2,1.1c0.2,0.4,0.4,0.7,0.7,0.9S4.9,20,5.3,20h6.4l-1.5,6
	H7.7c-0.4,0-0.8,0.1-1.2,0.4c-0.3,0.2-0.6,0.6-0.7,1L2,38.7c-0.2,0.5,0.1,1.1,0.6,1.3c0.1,0,0.2,0,0.3,0c0.4,0,0.8-0.3,1-0.7L7.7,28
	h37.7l-4.7,9.3c-0.2,0.5-0.1,1.1,0.4,1.3s1.1,0.1,1.3-0.4l5.5-10.8C48,27.1,48,26.8,47.8,26.5z M34.7,18l3.1,4H26.7
	c-0.8,0-1.6-0.3-2.1-0.9L21.4,18H34.7z M12.3,26l1.4-5.5c0.1-0.3,0.1-0.6,0-0.9s-0.2-0.6-0.4-0.8c-0.2-0.2-0.4-0.4-0.7-0.6
	C12.3,18.1,12,18,11.7,18H5.3l3.5-4H26h4.1c0.5,0,0.9,0.1,1.3,0.3s0.8,0.5,1,0.8l0.7,0.9H21.4c-0.4,0-0.8,0.1-1.1,0.3
	c-0.3,0.2-0.6,0.5-0.7,0.9c-0.2,0.4-0.2,0.8-0.1,1.2c0.1,0.4,0.3,0.8,0.5,1l3.1,3.1c0.9,0.9,2.2,1.5,3.5,1.5h12.7l1.6,2H12.3z
	 M45.6,45c-3.4,0-6.2-2.3-7.5-3.6c-0.7,0.9-1.6,1.6-2.6,2.2c-1.4,0.8-2.9,1.2-4.5,1.2c-1.6,0-3.2-0.4-4.5-1.2
	c-0.9-0.5-1.8-1.2-2.5-2.1c-0.7,0.8-1.5,1.5-2.5,2.1c-1.4,0.8-2.9,1.2-4.5,1.2s-3.1-0.5-4.5-1.2c-1-0.6-1.9-1.3-2.6-2.2
	c-1.6,1.5-5,4.3-9.1,3.4c-0.5-0.1-0.9-0.6-0.8-1.2c0.1-0.5,0.6-0.9,1.2-0.8c4.2,0.9,8-3.6,8-3.7c0.2-0.2,0.5-0.4,0.8-0.4
	s0.6,0.2,0.8,0.5c0.7,1,1.6,1.9,2.6,2.5c1.1,0.6,2.3,0.9,3.5,1c1.2,0,2.4-0.3,3.5-0.9c1.1-0.6,2-1.5,2.6-2.5
	c0.2-0.3,0.5-0.5,0.9-0.5l0,0c0.4,0,0.7,0.2,0.9,0.5c0.6,1.1,1.5,1.9,2.6,2.5s2.3,0.9,3.5,0.9c1.2,0,2.4-0.4,3.5-1s2-1.5,2.7-2.5
	c0.2-0.3,0.5-0.4,0.8-0.5c0.3,0,0.6,0.1,0.8,0.4c0,0,3.8,4.6,8,3.7c0.5-0.1,1.1,0.2,1.2,0.8c0.1,0.5-0.2,1.1-0.8,1.2
	C46.7,44.9,46.1,45,45.6,45z"/>
</svg>
