<?xml version="1.0" encoding="utf-8"?>
<!-- Generator: Adobe Illustrator 26.0.2, SVG Export Plug-In . SVG Version: 6.00 Build 0)  -->
<svg version="1.1" id="Layer_1" xmlns="http://www.w3.org/2000/svg" xmlns:xlink="http://www.w3.org/1999/xlink" x="0px" y="0px"
	 viewBox="0 0 48 48" style="enable-background:new 0 0 48 48;" xml:space="preserve">
<path d="M14.1,29.3c-0.4,0-0.9-0.1-1.2-0.4c-0.4-0.3-0.6-0.8-0.7-1.3l-0.6-6.4H9.9c-0.6,0-1-0.4-1-1s0.4-1,1-1h2.6
	c0.5,0,0.9,0.4,1,0.9l0.7,6.9l3.5-7.5c0.2-0.5,0.8-0.7,1.3-0.5s0.7,0.8,0.5,1.3l-3.7,7.8c-0.3,0.6-0.9,1-1.5,1.1
	C14.2,29.3,14.1,29.3,14.1,29.3z M20.6,29.4c-0.1,0-0.1,0-0.2,0c-0.5-0.1-0.9-0.6-0.8-1.2l1.6-8.2c0.1-0.5,0.6-0.9,1.2-0.8
	c0.5,0.1,0.9,0.6,0.8,1.2l-1.6,8.2C21.5,29,21.1,29.4,20.6,29.4z M26.6,29.6c-0.7,0-1.5-0.1-2.3-0.4c-0.5-0.2-0.8-0.8-0.6-1.3
	c0.2-0.5,0.8-0.8,1.3-0.6c1.1,0.4,2,0.4,2.5,0.1s0.7-0.8,0.8-1c0.1-0.4-0.4-0.9-1.3-1.5c-2.2-1.4-2.8-2.9-1.8-4.6
	c1-1.8,3.5-1.7,4.8-1.3c0.5,0.1,0.9,0.7,0.7,1.2S30,21,29.5,20.9c-0.4-0.1-2.1-0.4-2.6,0.4c-0.3,0.5-0.4,0.9,1.2,1.8
	c2.2,1.4,2.4,2.8,2.2,3.7c-0.3,1-0.9,1.8-1.8,2.2C27.9,29.5,27.3,29.6,26.6,29.6z M38.8,26.1v-0.4L38.4,21c-0.1-0.7-0.4-1.2-1-1.5
	c-0.5-0.2-1-0.3-1.4-0.1c-0.5,0.2-0.9,0.5-1.1,1l-3.8,7.7c-0.2,0.5,0,1.1,0.5,1.3c0.1,0.1,0.3,0.1,0.4,0.1c0.4,0,0.7-0.2,0.9-0.6
	l0.9-1.9h3.1l0.1,1.4c0,0.6,0.5,1,1.1,0.9c0.5,0,1-0.5,0.9-1.1L38.8,26.1z M34.8,24.9l1.7-3.5l0.3,3.5H34.8z M38.8,25.9V26v-0.4
	C38.8,25.7,38.8,25.8,38.8,25.9z M43,6H5c-2.8,0-5,2.3-5,5.1v26.4c0,2.8,2.2,5.1,5,5.1h38c2.8,0,5-2.3,5-5.1V11.1
	C48,8.3,45.8,6,43,6z M46,37.4c0,1.7-1.3,3.1-3,3.1H5c-1.7,0-3-1.4-3-3.1V11.1C2,9.4,3.3,8,5,8h38c1.7,0,3,1.4,3,3.1V37.4z"/>
</svg>
