<?xml version="1.0" encoding="utf-8"?>
<!-- Generator: Adobe Illustrator 26.0.2, SVG Export Plug-In . SVG Version: 6.00 Build 0)  -->
<svg version="1.1" id="Layer_1" xmlns="http://www.w3.org/2000/svg" xmlns:xlink="http://www.w3.org/1999/xlink" x="0px" y="0px"
	 viewBox="0 0 48 48" style="enable-background:new 0 0 48 48;" xml:space="preserve">
<path d="M36,25H25c-0.6,0-1-0.4-1-1s0.4-1,1-1h11c0.6,0,1,0.4,1,1S36.6,25,36,25z M15,27c-0.3,0-0.5-0.1-0.7-0.3l-3-3
	c-0.4-0.4-0.4-1,0-1.4s1-0.4,1.4,0l2.3,2.3l5.3-5.3c0.4-0.4,1-0.4,1.4,0s0.4,1,0,1.4l-6,6C15.5,26.9,15.3,27,15,27z M36,35.1H25
	c-0.6,0-1-0.4-1-1s0.4-1,1-1h11c0.6,0,1,0.4,1,1S36.6,35.1,36,35.1z M15,37c-0.3,0-0.5-0.1-0.7-0.3l-3-3c-0.4-0.4-0.4-1,0-1.4
	s1-0.4,1.4,0l2.3,2.3l5.3-5.3c0.4-0.4,1-0.4,1.4,0s0.4,1,0,1.4l-6,6C15.5,36.9,15.3,37,15,37z M42,5h-9.4c-0.9-1.4-2-2.7-3.4-3.5
	c-3.1-2-7.2-2-10.3,0c-1.4,0.9-2.6,2.1-3.4,3.5H6C5.5,5,5,5.5,5,6v41c0,0.5,0.5,1,1,1h36c0.5,0,1-0.5,1-1V6C43,5.5,42.5,5,42,5z
	 M19.9,3.2c2.5-1.6,5.7-1.6,8.2,0c0.8,0.5,1.5,1.1,2,1.8H17.9C18.5,4.3,19.1,3.7,19.9,3.2z M14,7h20v4H14V7z M41,46H7V7h5v4
	c0,1.1,0.9,2,2,2h20c1.1,0,2-0.9,2-2V7h5V46z"/>
</svg>
