<?xml version="1.0" encoding="utf-8"?>
<!-- Generator: Adobe Illustrator 26.0.2, SVG Export Plug-In . SVG Version: 6.00 Build 0)  -->
<svg version="1.1" id="Layer_1" xmlns="http://www.w3.org/2000/svg" xmlns:xlink="http://www.w3.org/1999/xlink" x="0px" y="0px"
	 viewBox="0 0 48 48" style="enable-background:new 0 0 48 48;" xml:space="preserve">
<path d="M15,23.2c0,0.3-0.1,0.7-0.3,1s-0.5,0.5-0.8,0.7C13.7,25,13.5,25,13.3,25c-0.1,0-0.2,0-0.4,0c-0.3-0.1-0.7-0.2-0.9-0.5
	c-0.2-0.2-0.4-0.6-0.5-0.9s0-0.7,0.1-1s0.4-0.6,0.7-0.8c0.7-0.5,1.7-0.4,2.2,0.2C14.8,22.3,15,22.8,15,23.2z M34,46.5h-3.1
	c-0.7,0-1.3-0.3-1.8-0.7c-0.5-0.5-0.7-1.1-0.7-1.8v-1.2c-3.4,0.9-6.9,0.9-10.3,0V44c0,0.7-0.3,1.3-0.7,1.8c-0.5,0.5-1.1,0.7-1.8,0.7
	h-3.1c-0.7,0-1.3-0.3-1.8-0.7C10.2,45.3,10,44.7,10,44v-5.4c-1.4-1.2-2.7-2.7-3.7-4.3H1.8c-0.6,0-1-0.4-1-1V20.9c0-0.6,0.4-1,1-1
	h3.1c0.7-2.1,1.9-4,3.3-5.7L6.9,5.7c0-0.3,0-0.6,0.2-0.8c0.2-0.2,0.5-0.3,0.8-0.3l0,0c0.3,0,6.2,0.1,9,4.4h0.9c0.6,0,1,0.4,1,1
	s-0.4,1-1,1h-1.5c-0.4,0-0.7-0.2-0.9-0.5C14,7.7,10.8,6.9,9.1,6.7l1.1,7.7c0,0.3-0.1,0.6-0.3,0.8c-1.6,1.7-2.7,3.8-3.4,6
	c-0.1,0.4-0.5,0.7-1,0.7H2.8v10.3h4.1c0.4,0,0.7,0.2,0.9,0.5c1,1.8,2.3,3.3,3.9,4.6c0.2,0.2,0.4,0.5,0.4,0.8V44
	c0,0.1,0.1,0.3,0.2,0.4c0.1,0.1,0.2,0.2,0.4,0.2h3.1c0.1,0,0.3-0.1,0.4-0.2c0.1-0.1,0.2-0.2,0.2-0.4v-2.5c0-0.3,0.2-0.6,0.4-0.8
	c0.3-0.2,0.6-0.2,0.9-0.1c3.8,1.3,7.9,1.3,11.6,0c0.3-0.1,0.6,0,0.9,0.1c0.3,0.2,0.4,0.5,0.4,0.8V44c0,0.1,0.1,0.3,0.2,0.4
	c0.1,0.1,0.2,0.2,0.4,0.2H34c0.1,0,0.3-0.1,0.4-0.2c0.1-0.1,0.2-0.2,0.2-0.4v-5.9c0-0.3,0.1-0.6,0.4-0.8c1.8-1.4,3.2-3.2,4.2-5.2
	c0.3-0.6,0.5-1.1,0.7-1.7c0.2-0.5,0.7-0.8,1.3-0.6c0.5,0.2,0.8,0.8,0.6,1.3c-0.2,0.7-0.5,1.3-0.8,1.9c-1,2.1-2.6,4.1-4.4,5.6V44
	c0,0.7-0.3,1.3-0.7,1.8C35.3,46.2,34.6,46.5,34,46.5z M43.3,5.4c-2.5-2.5-5.8-3.9-9.4-3.9c-3.5,0-6.9,1.4-9.4,3.9s-3.9,5.8-3.9,9.4
	s1.4,6.9,3.9,9.4s5.8,3.9,9.4,3.9c3.5,0,6.9-1.4,9.4-3.9s3.9-5.8,3.9-9.4S45.8,7.9,43.3,5.4z M41.9,22.8c-2.1,2.1-5,3.3-8,3.3
	s-5.8-1.2-8-3.3c-2.1-2.1-3.3-5-3.3-8s1.2-5.8,3.3-8c2.1-2.1,5-3.3,8-3.3s5.8,1.2,8,3.3c2.1,2.1,3.3,5,3.3,8S44.1,20.6,41.9,22.8z
	 M39.3,17l-4.6,4.5v0.1c-0.2,0.2-0.5,0.3-0.7,0.3c-0.1,0-0.2,0-0.2,0h-0.1c-0.1,0-0.2-0.1-0.3-0.2L28.7,17c-0.4-0.4-0.4-1,0-1.4
	s1-0.4,1.4,0l2.9,2.9V8.7c0-0.6,0.4-1,1-1s1,0.4,1,1v9.8l2.9-2.9c0.4-0.4,1-0.4,1.4,0C39.7,16,39.7,16.6,39.3,17z"/>
</svg>
