<?xml version="1.0" encoding="utf-8"?>
<!-- Generator: Adobe Illustrator 26.0.2, SVG Export Plug-In . SVG Version: 6.00 Build 0)  -->
<svg version="1.1" id="Layer_1" xmlns="http://www.w3.org/2000/svg" xmlns:xlink="http://www.w3.org/1999/xlink" x="0px" y="0px"
	 viewBox="0 0 48 48" style="enable-background:new 0 0 48 48;" xml:space="preserve">
<path d="M48,8.6V4c0-2.2-1.8-4-4.1-4H25.5c-2.2,0-4.1,1.8-4.1,4v4.6c0,2.5,0.5,4.9,1.5,7h-8.1c-2.3,0-4.4,1.5-5.2,3.6l-3.4,9L2.5,32
	c-0.7,0.7-1.2,1.4-1.6,2.3c-0.1,0.1-0.1,0.2-0.1,0.3c-0.5,1-0.7,2.2-0.7,3.3c0,1.9,1.3,3.5,3.1,3.9V44c0,2.2,1.8,4,4.1,4
	c2.2,0,4.1-1.8,4.1-4v-2H37v2c0,2.2,1.8,4,4.1,4c2.2,0,4.1-1.8,4.1-4v-2.2c1.8-0.4,3.1-2,3.1-3.9c0-1.2-0.2-2.3-0.7-3.3l0,0
	c0-0.1-0.1-0.2-0.1-0.2l0,0c-0.4-0.9-0.9-1.6-1.6-2.3l-3.8-3.8l-2-5.3C44.8,20,48,14.7,48,8.6z M11.5,19.9c0.5-1.4,1.9-2.3,3.4-2.3
	H24c0,0,0,0,0.1,0c2.3,3.6,6,6.2,10.4,7.2c0.1,0,0.1,0,0.2,0s0.2,0,0.2,0c1-0.2,2-0.5,3-1l1.5,3.9H8.6L11.5,19.9z M9.2,44
	c0,1.1-0.9,2-2.1,2S5,45.1,5,44v-2h4.1L9.2,44L9.2,44z M42.9,44c0,1.1-0.9,2-2.1,2s-2.1-0.9-2.1-2v-2h4.1L42.9,44L42.9,44z
	 M40.5,29.8l3.7,3.6c0.1,0.1,0.3,0.3,0.4,0.4h-6.7c-0.5,0-1,0.5-1,1c0,0.6,0.5,1,1,1h7.9c0.2,0.7,0.3,1.3,0.3,2c0,1.1-0.9,2-2.1,2
	H4.1c-1.1,0-2.1-0.9-2.1-2c0-0.7,0.1-1.4,0.3-2h7.9c0.5,0,1-0.4,1-1c0-0.5-0.5-1-1-1H3.5c0.1-0.1,0.3-0.3,0.4-0.4l3.7-3.6
	C7.6,29.8,40.5,29.8,40.5,29.8z M34.7,22.8C28,21.2,23.4,15.4,23.4,8.6V4c0-1.1,0.9-2,2.1-2h18.4C45.1,2,46,2.9,46,4v4.6
	C46,15.4,41.4,21.2,34.7,22.8z M40.3,11.6c0,0.6-0.5,1-1,1h-3.6v3.6c0,0.6-0.4,1-1,1c-0.5,0-1-0.4-1-1v-3.6h-3.6c-0.5,0-1-0.4-1-1
	s0.5-1,1-1h3.6V7.1c0-0.5,0.5-1,1-1c0.6,0,1,0.5,1,1v3.6h3.6C39.9,10.6,40.3,11.1,40.3,11.6z"/>
</svg>
