<?xml version="1.0" encoding="utf-8"?>
<!-- Generator: Adobe Illustrator 26.0.2, SVG Export Plug-In . SVG Version: 6.00 Build 0)  -->
<svg version="1.1" id="Layer_1" xmlns="http://www.w3.org/2000/svg" xmlns:xlink="http://www.w3.org/1999/xlink" x="0px" y="0px"
	 viewBox="0 0 48 48" style="enable-background:new 0 0 48 48;" xml:space="preserve">
<path d="M47,48c-0.6,0-1-0.4-1-1V31.2c0-5.3-1.8-10.5-5.1-14.6S33,9.5,27.8,8.3L0.8,2C0.2,1.8-0.1,1.3,0,0.8C0.2,0.2,0.7-0.1,1.2,0
	l27,6.3c5.6,1.3,10.6,4.5,14.2,9S48,25.5,48,31.2V47C48,47.6,47.6,48,47,48z M22.5,48c-0.6,0-1-0.4-1-1v-5.2c0-1-0.3-2-0.8-2.8
	c-0.6-0.8-1.3-1.5-2.3-1.9L0.6,29.5c-0.5-0.2-0.7-0.8-0.5-1.3s0.8-0.7,1.3-0.5l17.8,7.6c1.3,0.6,2.4,1.5,3.1,2.6
	c0.8,1.2,1.2,2.5,1.2,3.9V47C23.5,47.6,23,48,22.5,48z M30.1,32.7c-0.3,0-0.7,0-1-0.1c-1.6-0.2-3-1-4.1-2.1c-1-1-1.6-2.2-1.9-3.6
	L0.7,18.8c-0.5-0.2-0.8-0.8-0.6-1.3s0.8-0.8,1.3-0.6l23,8.3c0.4,0.1,0.6,0.5,0.7,0.8c0.1,1.1,0.6,2.2,1.4,3s1.9,1.4,3,1.5
	c1.1,0.2,2.3-0.1,3.3-0.6c1-0.6,1.8-1.5,2.2-2.5c0.4-1.1,0.5-2.2,0.2-3.3s-1-2.1-1.9-2.7c-0.9-0.7-2.1-1-3.2-1s-2.2,0.5-3.1,1.2
	c-0.3,0.2-0.7,0.3-1,0.2L0.6,11.1c-0.5-0.2-0.7-0.8-0.5-1.3s0.8-0.7,1.3-0.5L26,19.7c1.1-0.8,2.5-1.3,3.8-1.3
	c1.6-0.1,3.2,0.4,4.5,1.3s2.2,2.3,2.7,3.8c0.4,1.5,0.4,3.2-0.2,4.6c-0.6,1.5-1.7,2.7-3,3.5C32.6,32.3,31.4,32.7,30.1,32.7z M31.7,48
	c-0.5,0-0.9-0.3-1-0.8L29.1,38c0-0.3,0-0.6,0.2-0.8s0.5-0.4,0.8-0.4l0,0l0,0c1.6,0,3.2-0.3,4.6-1c1.5-0.7,2.8-1.6,3.8-2.8
	c0.3-0.3,0.8-0.4,1.2-0.3c0.4,0.2,0.6,0.6,0.6,1l-1.5,13.4c-0.1,0.5-0.6,0.9-1.1,0.9c-0.5-0.1-0.9-0.6-0.9-1.1L38,36.2
	c-0.8,0.6-1.6,1-2.4,1.4c-1.4,0.6-2.8,1-4.3,1.1l1.3,8.1C32.7,47.3,32.3,47.9,31.7,48C31.8,48,31.7,48,31.7,48z"/>
</svg>
