<?xml version="1.0" encoding="utf-8"?>
<!-- Generator: Adobe Illustrator 26.0.2, SVG Export Plug-In . SVG Version: 6.00 Build 0)  -->
<svg version="1.1" id="Layer_1" xmlns="http://www.w3.org/2000/svg" xmlns:xlink="http://www.w3.org/1999/xlink" x="0px" y="0px"
	 viewBox="0 0 48 48" style="enable-background:new 0 0 48 48;" xml:space="preserve">
<path d="M37.6,28.5c0,0.1,0,0.1,0,0.2c0,0.4-0.2,0.8-0.5,1.1c-0.3,0.3-0.7,0.5-1.1,0.5c-0.1,0-0.1,0-0.2,0s-0.1,0-0.2,0
	c-0.4,0-0.8-0.2-1.1-0.5S34,29.1,34,28.7c0-0.1,0-0.1,0-0.2s0-0.1,0-0.2c0-0.4,0.2-0.8,0.5-1.1c0.3-0.3,0.7-0.5,1.1-0.5
	c0.1,0,0.1,0,0.2,0s0.1,0,0.2,0c0.4,0,0.8,0.2,1.1,0.5s0.5,0.7,0.5,1.1C37.5,28.3,37.6,28.4,37.6,28.5z M46.8,21.2
	c-0.5-0.5-1.2-0.9-1.9-1v-6.6c0-1-0.4-2.1-1.2-2.8c-0.5-0.5-1.2-0.9-1.9-1V6.1c0-1.1-0.4-2.1-1.2-2.8c-0.8-0.8-1.8-1.2-2.9-1.2H5.6
	c-1.5,0-2.9,0.6-3.9,1.6C0.6,4.7,0,6.1,0,7.6v32.9c0,1.5,0.6,2.9,1.7,3.9S4.2,46,5.6,46h35.3c1.1,0,2.1-0.4,2.9-1.2
	C44.6,44.1,45,43,45,42v-5.1c0.7-0.2,1.3-0.5,1.9-1C47.6,35,48,34,48,33v-9C48,23,47.6,21.9,46.8,21.2z M42.9,41.9
	c0,0.5-0.2,1-0.6,1.4c-0.4,0.4-0.9,0.6-1.5,0.6H5.6c-0.9,0-1.9-0.4-2.6-1c-0.7-0.7-1-1.5-1-2.5V7.6c0-0.9,0.4-1.8,1-2.5
	c0.7-0.7,1.6-1,2.5-1h32.2c0.5,0,1.1,0.2,1.5,0.6s0.6,0.9,0.6,1.4v3.5h-29c-0.5,0-1-0.1-1.4-0.3s-0.8-0.6-1-1
	C8.3,7.8,7.6,7.6,7.2,7.9C6.7,8.2,6.5,8.8,6.8,9.3c0.4,0.7,1,1.3,1.8,1.7c0.7,0.4,1.6,0.6,2.4,0.6h29.9c0.5,0,1.1,0.2,1.5,0.6
	c0.4,0.4,0.6,0.9,0.6,1.4V20h-6.7c-2.3,0-4.5,0.9-6.1,2.5c-1.7,1.6-2.6,3.7-2.6,6s0.9,4.4,2.6,6c1.6,1.6,3.8,2.5,6.1,2.5H43
	L42.9,41.9L42.9,41.9z M46,33c0,0.5-0.2,1-0.6,1.4C45,34.7,44.5,35,43.9,35h-7.7c-1.8,0-3.5-0.7-4.7-1.9s-1.9-2.8-1.9-4.6
	c0-1.7,0.7-3.3,1.9-4.6c1.2-1.2,3-1.9,4.7-1.9h7.7c0.5,0,1.1,0.2,1.5,0.6C45.8,23,46,23.5,46,24V33z"/>
</svg>
