<?xml version="1.0" encoding="utf-8"?>
<!-- Generator: Adobe Illustrator 26.0.2, SVG Export Plug-In . SVG Version: 6.00 Build 0)  -->
<svg version="1.1" id="Layer_1" xmlns="http://www.w3.org/2000/svg" xmlns:xlink="http://www.w3.org/1999/xlink" x="0px" y="0px"
	 viewBox="0 0 48 48" style="enable-background:new 0 0 48 48;" xml:space="preserve">
<path d="M18.5,30h-10c-0.5,0-1,0.5-1,1s0.5,1,1,1h10c0.5,0,1-0.5,1-1S19,30,18.5,30z M20.5,24h-12c-0.5,0-1,0.5-1,1s0.5,1,1,1h12
	c0.5,0,1-0.5,1-1S21,24,20.5,24z M24.5,18h-16c-0.5,0-1,0.5-1,1s0.5,1,1,1h16c0.5,0,1-0.5,1-1S25,18,24.5,18z M17.5,12h-9
	c-0.5,0-1,0.5-1,1s0.5,1,1,1h9c0.5,0,1-0.5,1-1S18,12,17.5,12z M35.2,10.3l-10-10C25,0.1,24.8,0,24.5,0h-22c-0.5,0-1,0.5-1,1v42
	c0,0.5,0.5,1,1,1H23c0.5,0,1-0.5,1-1s-0.5-1-1-1H3.5V2h20v9c0,0.5,0.5,1,1,1h9v7c0,0.5,0.5,1,1,1s1-0.5,1-1v-8
	C35.5,10.7,35.4,10.5,35.2,10.3z M25.5,10V3.4l6.6,6.6H25.5z M45.5,31h-2v-2c0-1.9-0.7-3.6-2-5s-3.1-2-5-2s-3.6,0.7-5,2s-2,3.1-2,5
	v2h-2c-0.5,0-1,0.5-1,1v15c0,0.5,0.5,1,1,1h18c0.5,0,1-0.5,1-1V32C46.5,31.5,46,31,45.5,31z M31.5,29c0-1.3,0.5-2.6,1.5-3.5
	c0.9-0.9,2.2-1.5,3.5-1.5s2.6,0.5,3.5,1.5c0.9,0.9,1.5,2.2,1.5,3.5v2h-10V29z M44.5,46h-16V33h16V46z M38.2,39.9
	c-0.1,0.3-0.2,0.7-0.5,0.9c-0.2,0.2-0.6,0.4-0.9,0.5c-0.1,0-0.2,0-0.3,0c-0.2,0-0.5,0-0.7-0.1c-0.3-0.1-0.6-0.4-0.8-0.7
	s-0.3-0.6-0.3-1c0-0.5,0.2-0.9,0.5-1.2c0.6-0.6,1.5-0.7,2.2-0.2c0.3,0.2,0.5,0.5,0.6,0.8C38.2,39.2,38.3,39.6,38.2,39.9z"/>
</svg>
