<?xml version="1.0" encoding="utf-8"?>
<!-- Generator: Adobe Illustrator 26.0.2, SVG Export Plug-In . SVG Version: 6.00 Build 0)  -->
<svg version="1.1" id="Layer_1" xmlns="http://www.w3.org/2000/svg" xmlns:xlink="http://www.w3.org/1999/xlink" x="0px" y="0px"
	 viewBox="0 0 48 48" style="enable-background:new 0 0 48 48;" xml:space="preserve">
<path d="M47,44.5h-2.8v-42c0-0.8-0.7-1.5-1.5-1.5H36c-0.8,0-1.5,0.7-1.5,1.5v42h-5.7V9.8c0-0.8-0.7-1.5-1.5-1.5h-6.7
	c-0.8,0-1.5,0.7-1.5,1.5v34.8h-5.7V9.8c0-0.8-0.7-1.5-1.5-1.5H5.3C4.5,8.3,3.8,9,3.8,9.8v34.8H1c-0.5,0-1,0.5-1,1c0,0.6,0.5,1,1,1
	h46c0.5,0,1-0.4,1-1S47.5,44.5,47,44.5z M11.5,44.5H5.8V10.2h5.7V44.5z M26.8,44.5h-5.7V10.2h5.7V44.5z M36.5,3h5.7v41.5h-5.7V3z"/>
</svg>
