<?xml version="1.0" encoding="utf-8"?>
<!-- Generator: Adobe Illustrator 26.0.2, SVG Export Plug-In . SVG Version: 6.00 Build 0)  -->
<svg version="1.1" id="Layer_1" xmlns="http://www.w3.org/2000/svg" xmlns:xlink="http://www.w3.org/1999/xlink" x="0px" y="0px"
	 viewBox="0 0 48 48" style="enable-background:new 0 0 48 48;" xml:space="preserve">
<path d="M29.9,39.3c-0.4,0-0.8-0.1-1.1-0.3L24,36.2L19.1,39c-0.4,0.2-0.8,0.3-1.3,0.3s-0.9-0.2-1.2-0.5c-0.3-0.3-0.6-0.7-0.7-1.2
	c-0.1-0.5-0.1-0.9,0.1-1.3l1.9-4.5l-3.5-3.4c-0.3-0.3-0.5-0.7-0.6-1.1s0-0.9,0.1-1.3s0.5-0.8,0.8-1c0.4-0.2,0.8-0.4,1.2-0.4h3.7
	L22,20c0.2-0.4,0.5-0.7,0.8-0.9c0.3-0.2,0.8-0.3,1.2-0.3c0.4,0,0.8,0.1,1.1,0.3c0.3,0.2,0.6,0.5,0.8,0.9l0,0l2.3,4.5H32
	c0.4,0,0.8,0.1,1.2,0.4c0.4,0.2,0.7,0.6,0.8,1c0.2,0.4,0.2,0.9,0.1,1.3c-0.1,0.4-0.3,0.8-0.6,1.1L30,31.7l1.9,4.5
	c0.2,0.4,0.2,0.9,0.1,1.4c-0.1,0.5-0.3,0.9-0.7,1.2c-0.4,0.3-0.8,0.5-1.2,0.5C30.1,39.3,30,39.3,29.9,39.3z M24,34.1
	c0.2,0,0.3,0,0.5,0.1l5.3,3h0.1c0,0,0.1,0,0.1-0.1l0.1-0.1v-0.1l-2.2-5.1c-0.2-0.4-0.1-0.8,0.2-1.1l4-3.9l0.1-0.1v-0.1
	c0,0,0-0.1-0.1-0.1H32h-4.4c-0.4,0-0.7-0.2-0.9-0.5l-2.5-5c0,0,0-0.1-0.1-0.1H24h-0.1L23.8,21l-2.5,5c-0.2,0.3-0.5,0.5-0.9,0.5H16
	c-0.1,0-0.1,0-0.1,0l-0.1,0.1v0.1c0,0,0,0.1,0.1,0.1l4,3.9c0.3,0.3,0.4,0.7,0.2,1.1L17.9,37v0.1c0,0,0,0.1,0.1,0.1
	c0,0,0.1,0,0.1,0.1h0.1l5.4-3C23.7,34.1,23.8,34.1,24,34.1z M36.6,17.5c-0.2-0.2-0.5-0.5-0.7-0.7l5.9-15.5c0.1-0.3,0.1-0.7-0.1-0.9
	S41.2,0,40.9,0H7.1C6.8,0,6.5,0.2,6.3,0.4S6.1,1,6.2,1.4l5.9,15.5c-0.2,0.2-0.5,0.4-0.7,0.7C8,20.9,6.1,25.4,6.1,30.1
	c0,4.8,1.9,9.3,5.2,12.6C14.7,46.1,19.2,48,24,48s9.3-1.9,12.6-5.2c3.4-3.4,5.2-7.9,5.2-12.6C41.9,25.4,40,20.9,36.6,17.5z
	 M34.3,15.5c-1.6-1.1-3.4-2-5.3-2.5l2-11h8.5L34.3,15.5z M28.9,2L27,12.5c-1-0.2-2-0.2-3-0.2s-2,0.1-3,0.2L19.1,2H28.9z M8.6,2H17
	l2,11c-1.9,0.5-3.7,1.4-5.3,2.5L8.6,2z M35.2,41.3c-3,3-7,4.7-11.2,4.7s-8.2-1.7-11.2-4.7s-4.7-7-4.7-11.2s1.7-8.2,4.7-11.2
	c0.4-0.3,0.7-0.7,1.1-1c0,0,0,0,0.1,0c1.9-1.5,4-2.6,6.4-3.2l0,0l0,0c1.2-0.3,2.4-0.4,3.6-0.4s2.4,0.1,3.5,0.4h0.1l0,0
	c2.3,0.5,4.5,1.6,6.4,3.2c0,0,0,0,0.1,0c0.4,0.3,0.8,0.7,1.1,1c3,3,4.7,7,4.7,11.2C39.9,34.4,38.2,38.4,35.2,41.3z"/>
</svg>
