<?xml version="1.0" encoding="utf-8"?>
<!-- Generator: Adobe Illustrator 26.0.2, SVG Export Plug-In . SVG Version: 6.00 Build 0)  -->
<svg version="1.1" id="Layer_1" xmlns="http://www.w3.org/2000/svg" xmlns:xlink="http://www.w3.org/1999/xlink" x="0px" y="0px"
	 viewBox="0 0 48 48" style="enable-background:new 0 0 48 48;" xml:space="preserve">
<path d="M46.8,8.3l-7.2-7.2c-1.6-1.5-4-1.5-5.5,0C33.6,1.6,33.2,2.3,33,3l-0.5-0.5c-0.8-0.8-1.8-1.2-2.8-1.2l0,0
	c-1.1,0-2.1,0.4-2.8,1.2c-0.5,0.5-0.9,1.2-1,1.8L25.4,4c-0.8-0.8-1.8-1.2-2.8-1.2c-1.1,0-2.1,0.4-2.8,1.2c-0.8,0.8-1.2,1.8-1.2,2.8
	s0.4,2.1,1.2,2.9l6.4,6.4l-10,10l-6.4-6.4C9,18.9,8,18.5,6.9,18.5s-2.1,0.4-2.8,1.2c-1.6,1.6-1.6,4.1,0,5.7l0.4,0.4
	c-0.6,0.2-1.2,0.5-1.8,1c-1.6,1.5-1.6,4.1-0.1,5.7L3,32.9c-0.7,0.2-1.3,0.5-1.8,1c-1.6,1.6-1.6,4.1,0,5.7l7.1,7.1
	c0.8,0.8,1.8,1.2,2.8,1.2c1.1,0,2.1-0.4,2.9-1.2c0.5-0.5,0.9-1.2,1-1.8l0.4,0.4c0,0,0.1,0.1,0.2,0.1c0.8,0.7,1.7,1.1,2.8,1.1h0.1
	c1.1,0,2.1-0.5,2.8-1.3c0.5-0.5,0.8-1.1,1-1.7l0.3,0.3c0.8,0.8,1.8,1.2,2.8,1.2c1.1,0,2.1-0.4,2.8-1.2c1.6-1.6,1.6-4.1,0-5.7
	l-6.4-6.4l10-10l6.5,6.5c0.8,0.7,1.7,1.1,2.8,1.1h0.1c1.1,0,2.1-0.5,2.8-1.2c1.5-1.6,1.5-4.2-0.1-5.7L43.5,22c0.7-0.2,1.3-0.5,1.8-1
	c1.6-1.6,1.6-4.1,0-5.7L45,15c0.7-0.2,1.3-0.5,1.8-1C48.4,12.4,48.4,9.8,46.8,8.3z M12.6,45.4c-0.8,0.8-2.1,0.8-2.9,0l-7.1-7.1
	c-0.8-0.8-0.8-2.1,0-2.9C3,35,3.5,34.8,4,34.8s1,0.2,1.4,0.6l0,0l7.1,7.1l0,0C13.4,43.3,13.4,44.6,12.6,45.4z M19.8,44
	c-0.4,0.4-0.9,0.6-1.4,0.6S17.3,44.4,17,44l-2.9-2.9c0,0,0,0,0-0.1l0,0l-7.2-7l0,0l0,0L4,31.1c-0.8-0.8-0.8-2.1,0.1-2.9
	c0.8-0.8,2-0.8,2.8,0l0,0l12.8,12.9l0,0c0.4,0.4,0.6,0.9,0.6,1.4C20.4,43.1,20.2,43.6,19.8,44z M26.9,39.7c0.8,0.8,0.8,2.1,0,2.9
	c-0.8,0.8-2.1,0.8-2.9,0L21.4,40l-0.3-0.3L8.3,26.8l-0.1-0.1L5.5,24c-0.8-0.8-0.8-2.1,0-2.9c0.4-0.4,0.9-0.6,1.4-0.6s1,0.2,1.4,0.6
	l7.1,7.2l4.3,4.3L26.9,39.7z M20.4,30.4l-2.9-2.9l10-10l2.9,2.9L20.4,30.4z M42.6,26.8c-0.4,0.4-0.9,0.6-1.4,0.6s-1-0.2-1.5-0.6
	l-7.1-7.1l-4.3-4.3l-7.1-7.1c-0.8-0.8-0.8-2.1,0-2.9s2.1-0.8,2.9,0l2.8,2.8l0,0L39.7,21l2.9,2.9C43.4,24.8,43.4,26,42.6,26.8z
	 M44,19.7c-0.8,0.8-2.1,0.8-2.9,0l0,0l0,0L28.3,6.8l0,0c-0.8-0.8-0.8-2.1,0-2.9c0.4-0.4,0.9-0.6,1.4-0.6l0,0c0.5,0,1,0.2,1.4,0.6
	l2.8,2.8c0,0,0,0,0.1,0.1c0,0,0.1,0,0.1,0.1l6.9,7l0.1,0.1l0.1,0.1l2.8,2.8C44.8,17.6,44.8,18.9,44,19.7z M45.4,12.5
	c-0.4,0.4-0.9,0.6-1.4,0.6s-1-0.2-1.4-0.5l0,0l-7.2-7.2l0,0c-0.8-0.8-0.7-2.1,0.1-2.9c0.8-0.7,2-0.7,2.8,0l7.1,7.1
	C46.2,10.5,46.2,11.8,45.4,12.5z"/>
</svg>
