<?xml version="1.0" encoding="utf-8"?>
<!-- Generator: Adobe Illustrator 26.0.2, SVG Export Plug-In . SVG Version: 6.00 Build 0)  -->
<svg version="1.1" id="Layer_1" xmlns="http://www.w3.org/2000/svg" xmlns:xlink="http://www.w3.org/1999/xlink" x="0px" y="0px"
	 viewBox="0 0 48 48" style="enable-background:new 0 0 48 48;" xml:space="preserve">
<path d="M24,0C10.8,0,0,10.8,0,24s10.8,24,24,24s24-10.8,24-24S37.2,0,24,0z M24,46C11.9,46,2,36.1,2,24S11.9,2,24,2s22,9.9,22,22
	S36.1,46,24,46z M13.3,38.4c-0.1,0-0.2,0-0.4-0.1c-0.5-0.2-0.8-0.8-0.6-1.3c1.3-3.2,3.7-5.7,6.8-7.1c3-1.3,6.4-1.4,9.5-0.1
	c3.2,1.3,5.7,3.9,7,7.2c0.2,0.5,0,1.1-0.6,1.3s-1.1,0-1.3-0.6c-1.1-2.8-3.2-5-5.9-6.1c-2.6-1.1-5.4-1-7.9,0.1
	c-2.6,1.1-4.6,3.3-5.7,6C14.1,38.1,13.7,38.4,13.3,38.4z M34.9,20.3c-0.1,0.4-0.2,0.7-0.5,0.9c-0.2,0.2-0.6,0.4-0.9,0.5
	c-0.1,0-0.2,0-0.4,0s-0.5,0-0.7-0.1c-0.3-0.1-0.6-0.4-0.8-0.7c-0.2-0.3-0.3-0.7-0.3-1c0-0.5,0.2-0.9,0.5-1.3
	c0.6-0.6,1.6-0.7,2.3-0.2c0.3,0.2,0.5,0.5,0.7,0.8C34.9,19.6,34.9,20,34.9,20.3z M16.7,20.3c-0.1,0.4-0.2,0.7-0.5,0.9
	c-0.3,0.2-0.6,0.4-0.9,0.5c-0.1,0-0.2,0-0.3,0c-0.2,0-0.5,0-0.7-0.1c-0.3-0.1-0.6-0.4-0.8-0.7c-0.2-0.3-0.3-0.6-0.3-1
	c0-0.5,0.2-0.9,0.5-1.3c0.6-0.6,1.6-0.7,2.3-0.2c0.3,0.2,0.5,0.5,0.7,0.8C16.7,19.6,16.7,20,16.7,20.3z"/>
</svg>
