<?xml version="1.0" encoding="utf-8"?>
<!-- Generator: Adobe Illustrator 26.0.2, SVG Export Plug-In . SVG Version: 6.00 Build 0)  -->
<svg version="1.1" id="Layer_1" xmlns="http://www.w3.org/2000/svg" xmlns:xlink="http://www.w3.org/1999/xlink" x="0px" y="0px"
	 viewBox="0 0 48 48" style="enable-background:new 0 0 48 48;" xml:space="preserve">
<path d="M43.9,48c-0.6,0-1-0.4-1-1v-3.4c0-2-0.8-4-2.2-5.5s-3.3-2.3-5.3-2.4h-6.9c-0.6,0-1-0.4-1-1V17.9c0-1-0.4-1.9-1.1-2.5
	c-1.4-1.4-3.7-1.4-5.1,0c-0.7,0.7-1.1,1.6-1.1,2.5v23c0,0.4-0.3,0.8-0.7,1c-0.4,0.1-0.9,0-1.1-0.4L14.7,36c-0.5-0.8-1.3-1.3-2.2-1.5
	s-1.9,0-2.7,0.5s-1.2,1.1-1.5,2c-0.2,0.9-0.1,1.9,0.4,2.7l3.9,6.8c0.3,0.5,0.1,1.1-0.4,1.4c-0.5,0.3-1.1,0.1-1.4-0.4L7,40.7
	c-0.7-1.3-0.9-2.8-0.6-4.2s1.2-2.6,2.5-3.4c1.2-0.8,2.7-1,4.2-0.7c1.4,0.3,2.7,1.2,3.5,2.4l1.8,2.8V17.9c0-1.5,0.6-2.9,1.6-4
	c1.1-1.1,2.5-1.6,4-1.6s2.9,0.6,4,1.6c1.1,1.1,1.6,2.5,1.6,4v15.9h5.9c2.6,0.1,5,1.2,6.7,3.1c1.8,1.9,2.7,4.3,2.7,6.8V47
	C44.9,47.6,44.5,48,43.9,48z M47.7,11c0.4,0.4,0.4,1,0,1.4c-0.2,0.2-0.5,0.3-0.7,0.3s-0.5-0.1-0.7-0.3l-4.7-4.7L37,12.4
	c-0.2,0.2-0.4,0.3-0.7,0.3s-0.5-0.1-0.7-0.3c-0.4-0.4-0.4-1,0-1.4l4.7-4.6l-4.7-4.7c-0.4-0.4-0.4-1,0-1.4s1-0.4,1.4,0L41.6,5
	l4.7-4.7c0.4-0.4,1-0.4,1.4,0s0.4,1,0,1.4L43,6.4L47.7,11z M7.1,12.7c-0.3,0-0.5-0.1-0.7-0.3L0.3,6.3c-0.4-0.4-0.4-1,0-1.4
	s1-0.4,1.4,0L7,10.2l7-9.8c0.3-0.5,0.9-0.6,1.4-0.2c0.4,0.3,0.6,0.9,0.2,1.4L7.9,12.3C7.8,12.6,7.5,12.7,7.1,12.7
	C7.2,12.7,7.2,12.7,7.1,12.7z"/>
</svg>
