<?xml version="1.0" encoding="utf-8"?>
<!-- Generator: Adobe Illustrator 26.0.2, SVG Export Plug-In . SVG Version: 6.00 Build 0)  -->
<svg version="1.1" id="Layer_1" xmlns="http://www.w3.org/2000/svg" xmlns:xlink="http://www.w3.org/1999/xlink" x="0px" y="0px"
	 viewBox="0 0 48 48" style="enable-background:new 0 0 48 48;" xml:space="preserve">
<path d="M42,38c-1,0-1.8-0.8-1.8-1.9v-13c0-9.2-7-16.8-15.7-17.1V1c0-0.5-0.4-1-1-1c-0.5,0-1,0.5-1,1v5.1c-8.2,0.8-14.7,8.1-14.7,17
	v13C7.8,37.2,7,38,6,38c-0.5,0-1,0.5-1,1s0.5,1,1,1h36c0.5,0,1-0.5,1-1S42.5,38,42,38z M9.3,38c0.3-0.6,0.5-1.2,0.5-1.9v-13
	C9.8,14.8,16.2,8,24,8s14.2,6.8,14.2,15.1v13c0,0.7,0.2,1.4,0.5,1.9H9.3z M29.3,43.2c-0.7,2.9-3.1,4.8-5.9,4.8c-0.3,0-0.7,0-1-0.1
	c-2.5-0.5-4.3-2.4-4.8-4.7c-0.1-0.6,0.2-1.1,0.8-1.2c0.5-0.1,1.1,0.2,1.2,0.8c0.3,1.6,1.5,2.8,3.2,3.2c2.1,0.3,4.1-1,4.6-3.2
	c0.1-0.5,0.7-0.9,1.2-0.8C29.1,42.1,29.5,42.7,29.3,43.2z M33.3,22c0,0.5-0.5,1-1,1c-0.6,0-1-0.5-1-1c0-2.7-1.3-5-3.4-6.1
	c-0.5-0.2-0.7-0.9-0.4-1.4s0.9-0.7,1.4-0.4C31.6,15.5,33.3,18.5,33.3,22z"/>
</svg>
