<?xml version="1.0" encoding="utf-8"?>
<!-- Generator: Adobe Illustrator 26.0.2, SVG Export Plug-In . SVG Version: 6.00 Build 0)  -->
<svg version="1.1" id="Layer_1" xmlns="http://www.w3.org/2000/svg" xmlns:xlink="http://www.w3.org/1999/xlink" x="0px" y="0px"
	 viewBox="0 0 48 48" style="enable-background:new 0 0 48 48;" xml:space="preserve">
<path d="M43,6H5c-2.8,0-5,2.3-5,5.1v26.4c0,2.8,2.2,5.1,5,5.1h38c2.8,0,5-2.3,5-5.1V11.1C48,8.3,45.8,6,43,6z M46,37.4
	c0,1.7-1.3,3.1-3,3.1H5c-1.7,0-3-1.4-3-3.1V11.1C2,9.4,3.3,8,5,8h38c1.7,0,3,1.4,3,3.1V37.4z M31,13.1c-2.6,0-5,0.9-7,2.6
	c-1.9-1.6-4.4-2.6-7-2.6c-6.1,0-11,5-11,11.2c0,6.1,4.9,11.1,11,11.1c2.7,0,5.1-1,7-2.6c1.9,1.7,4.4,2.6,7,2.6c6.1,0,11-5,11-11.1
	C42,18.1,37.1,13.1,31,13.1z M24.7,19.5c0.3,0.5,0.5,0.9,0.7,1.4C25.3,21,25.1,21,25,21l0,0l0,0c-0.3,0-0.6-0.2-0.7-0.5l-0.1-0.3
	C24.2,19.9,24.4,19.6,24.7,19.5z M17,15.3c0.4,0,0.8,0.4,0.8,0.8c0,0.4-0.4,0.8-0.8,0.8s-0.8-0.4-0.8-0.8S16.5,15.3,17,15.3z
	 M9.3,19.5c0.3,0.1,0.5,0.4,0.5,0.8c0,0.2-0.1,0.3-0.1,0.3C9.6,20.8,9.3,21,9,21c-0.1,0-0.3,0-0.4-0.1C8.8,20.4,9,19.9,9.3,19.5z
	 M9.3,29c-0.3-0.5-0.5-0.9-0.7-1.4c0.1-0.1,0.2-0.1,0.3-0.1c0.3,0,0.6,0.2,0.7,0.4c0.1,0.1,0.1,0.2,0.1,0.4
	C9.8,28.6,9.6,28.9,9.3,29z M17,33.2c-0.4,0-0.8-0.3-0.8-0.8s0.4-0.8,0.8-0.8s0.8,0.4,0.8,0.8S17.4,33.2,17,33.2z M17.6,33.4
	c0.3-0.2,0.5-0.6,0.5-1c0-0.7-0.5-1.2-1.2-1.2s-1.2,0.5-1.2,1.2c0,0.4,0.2,0.8,0.6,1c-2.8-0.2-5.3-1.7-6.8-4
	c0.4-0.2,0.7-0.6,0.7-1.1c0-0.7-0.5-1.2-1.2-1.2c-0.2,0-0.3,0-0.5,0.1C8.2,26.5,8.1,25.7,8,25c0.2,0.3,0.6,0.5,1,0.5
	c0.7,0,1.2-0.5,1.2-1.2S9.7,23.1,9,23.1c-0.4,0-0.8,0.2-1,0.5c0.1-0.8,0.2-1.5,0.5-2.3c0.2,0.1,0.3,0.1,0.5,0.1
	c0.7,0,1.2-0.5,1.2-1.2c0-0.5-0.3-0.9-0.7-1.1c1.5-2.3,4-3.8,6.8-4c-0.3,0.2-0.6,0.6-0.6,1c0,0.7,0.5,1.2,1.2,1.2s1.2-0.5,1.2-1.2
	c0-0.4-0.2-0.8-0.5-1c2.2,0.2,4.2,1.1,5.7,2.6l0,0c0.4,0.4,0.8,0.9,1.1,1.4c-0.4,0.2-0.7,0.6-0.7,1.1c0,0.7,0.5,1.2,1.2,1.2
	c0.2,0,0.4,0,0.5-0.1c0.2,0.7,0.4,1.5,0.5,2.3c-0.2-0.3-0.6-0.5-1-0.5c-0.7,0-1.2,0.5-1.2,1.2s0.5,1.2,1.2,1.2c0.4,0,0.8-0.2,1-0.5
	c-0.1,0.8-0.2,1.5-0.5,2.3c-0.2-0.1-0.3-0.1-0.5-0.1c-0.7,0-1.2,0.5-1.2,1.2c0,0.5,0.3,0.9,0.7,1.1C22.9,31.6,20.5,33.2,17.6,33.4z
	 M8.2,24.2c0-0.4,0.4-0.8,0.8-0.8s0.8,0.4,0.8,0.8S9.4,25,9,25S8.2,24.7,8.2,24.2z M25.8,24.2c0,0.4-0.4,0.8-0.8,0.8
	s-0.8-0.4-0.8-0.8s0.4-0.8,0.8-0.8S25.8,23.8,25.8,24.2z M24.7,29c-0.3-0.1-0.5-0.4-0.5-0.7l0.1-0.4c0.1-0.3,0.4-0.5,0.7-0.5l0,0
	c0.1,0,0.3,0,0.4,0.1C25.2,28.1,24.9,28.6,24.7,29z M31,33.4c-2,0-4-0.7-5.6-2C27,29.5,28,27,28,24.2c0-2.7-1-5.2-2.6-7.2
	c1.6-1.3,3.5-2,5.6-2c5,0,9,4.1,9,9.2S36,33.4,31,33.4z M13,19.4c-0.7,0-1.2-0.5-1.2-1.2S12.3,17,13,17s1.2,0.5,1.2,1.2
	C14.2,18.8,13.7,19.4,13,19.4z M13,17.4c-0.4,0-0.8,0.4-0.8,0.8S12.6,19,13,19s0.8-0.4,0.8-0.8S13.4,17.4,13,17.4z M21,19.4
	c-0.7,0-1.2-0.5-1.2-1.2S20.3,17,21,17s1.2,0.5,1.2,1.2C22.2,18.8,21.7,19.4,21,19.4z M21,17.4c-0.4,0-0.8,0.4-0.8,0.8
	S20.5,19,21,19s0.8-0.4,0.8-0.8S21.4,17.4,21,17.4z M21,23.4c-0.7,0-1.2-0.5-1.2-1.2S20.3,21,21,21s1.2,0.5,1.2,1.2
	S21.7,23.4,21,23.4z M21,21.4c-0.4,0-0.8,0.4-0.8,0.8S20.5,23,21,23s0.8-0.4,0.8-0.8S21.4,21.4,21,21.4z M21,27.5
	c-0.7,0-1.2-0.5-1.2-1.2s0.5-1.2,1.2-1.2s1.2,0.5,1.2,1.2C22.2,26.9,21.7,27.5,21,27.5z M21,25.5c-0.4,0-0.8,0.4-0.8,0.8
	s0.4,0.8,0.8,0.8s0.8-0.4,0.8-0.8S21.4,25.5,21,25.5z M21,31.5c-0.7,0-1.2-0.5-1.2-1.2s0.5-1.2,1.2-1.2s1.2,0.5,1.2,1.2
	S21.7,31.5,21,31.5z M21,29.5c-0.4,0-0.8,0.4-0.8,0.8s0.4,0.8,0.8,0.8s0.8-0.4,0.8-0.8S21.4,29.5,21,29.5z M13,23.4
	c-0.7,0-1.2-0.5-1.2-1.2S12.3,21,13,21s1.2,0.5,1.2,1.2S13.7,23.4,13,23.4z M13,21.4c-0.4,0-0.8,0.4-0.8,0.8S12.6,23,13,23
	s0.8-0.4,0.8-0.8S13.4,21.4,13,21.4z M13,27.5c-0.7,0-1.2-0.5-1.2-1.2s0.5-1.2,1.2-1.2s1.2,0.5,1.2,1.2C14.2,26.9,13.7,27.5,13,27.5
	z M13,25.5c-0.4,0-0.8,0.4-0.8,0.8s0.4,0.8,0.8,0.8s0.8-0.4,0.8-0.8S13.4,25.5,13,25.5z M13,31.5c-0.7,0-1.2-0.5-1.2-1.2
	s0.5-1.2,1.2-1.2s1.2,0.5,1.2,1.2S13.7,31.5,13,31.5z M13,29.5c-0.4,0-0.8,0.4-0.8,0.8s0.4,0.8,0.8,0.8s0.8-0.4,0.8-0.8
	S13.4,29.5,13,29.5z M17,21.4c-0.7,0-1.2-0.5-1.2-1.2S16.3,19,17,19s1.2,0.5,1.2,1.2S17.7,21.4,17,21.4z M17,19.4
	c-0.4,0-0.8,0.4-0.8,0.8S16.6,21,17,21s0.8-0.4,0.8-0.8S17.4,19.4,17,19.4z M17,25.5c-0.7,0-1.2-0.5-1.2-1.2S16.3,23,17,23
	s1.2,0.5,1.2,1.2S17.7,25.5,17,25.5z M17,23.5c-0.4,0-0.8,0.4-0.8,0.8S16.6,25,17,25s0.8-0.4,0.8-0.8S17.4,23.5,17,23.5z M17,29.5
	c-0.7,0-1.2-0.5-1.2-1.2s0.5-1.2,1.2-1.2s1.2,0.5,1.2,1.2S17.7,29.5,17,29.5z M17,27.5c-0.4,0-0.8,0.4-0.8,0.8s0.4,0.8,0.8,0.8
	s0.8-0.4,0.8-0.8S17.4,27.5,17,27.5z"/>
</svg>
