<?xml version="1.0" encoding="utf-8"?>
<!-- Generator: Adobe Illustrator 26.0.2, SVG Export Plug-In . SVG Version: 6.00 Build 0)  -->
<svg version="1.1" id="Layer_1" xmlns="http://www.w3.org/2000/svg" xmlns:xlink="http://www.w3.org/1999/xlink" x="0px" y="0px"
	 viewBox="0 0 48 48" style="enable-background:new 0 0 48 48;" xml:space="preserve">
<path d="M46,18c0.5,0,1-0.2,1.4-0.6C47.8,17,48,16.5,48,16v-5c0-1.3-0.5-2.6-1.5-3.5C45.6,6.5,44.3,6,43,6H5C3.7,6,2.4,6.5,1.5,7.5
	C0.5,8.4,0,9.7,0,11v5c0,0.5,0.2,1,0.6,1.4S1.5,18,2,18c1.6,0,3.1,0.6,4.2,1.8C7.4,20.9,8,22.4,8,24s-0.6,3.1-1.8,4.2
	C5.1,29.4,3.6,30,2,30c-0.5,0-1,0.2-1.4,0.6S0,31.5,0,32v5c0,1.3,0.5,2.6,1.5,3.5C2.4,41.5,3.7,42,5,42h38c1.3,0,2.6-0.5,3.5-1.5
	S48,38.3,48,37v-5c0-0.5-0.2-1-0.6-1.4C47,30.2,46.5,30,46,30c-1.6,0-3.1-0.6-4.2-1.8C40.6,27.1,40,25.6,40,24s0.6-3.1,1.8-4.2
	C42.9,18.6,44.4,18,46,18z M38,24c0,2.1,0.8,4.1,2.3,5.7c1.5,1.5,3.5,2.3,5.7,2.3v5c0,0.8-0.3,1.6-0.9,2.1C44.5,39.7,43.8,40,43,40
	H5c-0.8,0-1.5-0.3-2.1-0.9C2.3,38.6,2,37.8,2,37v-5c2.1,0,4.2-0.8,5.7-2.3C9.2,28.1,10,26.1,10,24s-0.8-4.2-2.3-5.7S4.1,16,2,16v-5
	c0-0.8,0.3-1.6,0.9-2.1C3.5,8.3,4.2,8,5,8h38c0.8,0,1.5,0.3,2.1,0.9C45.7,9.4,46,10.2,46,11v5c-2.1,0-4.2,0.8-5.7,2.3S38,21.9,38,24
	z M20,31.7L20,31.7c-0.5,0-0.9-0.2-1.2-0.4c-0.3-0.3-0.6-0.6-0.7-1s-0.1-0.9,0-1.3l1.2-3.2l-2.4-1.9c-0.3-0.3-0.6-0.6-0.7-1
	s-0.1-0.8,0-1.2c0.1-0.4,0.4-0.7,0.7-1c0.3-0.2,0.7-0.4,1.2-0.4h2.5l1.4-3.4c0.2-0.4,0.4-0.7,0.7-0.9c0.7-0.4,1.6-0.4,2.2,0
	c0.3,0.2,0.6,0.5,0.7,0.9l1.4,3.4h2.6c0.4,0,0.8,0.1,1.2,0.4s0.6,0.6,0.7,1s0.2,0.8,0,1.2c-0.1,0.4-0.3,0.7-0.7,1l-2.4,1.9l1.2,3.2
	c0.1,0.4,0.2,0.8,0,1.3c-0.1,0.4-0.4,0.8-0.7,1c-0.3,0.3-0.8,0.4-1.2,0.4c-0.4,0-0.9-0.1-1.2-0.4l-2.8-2l-2.8,2
	C20.9,31.6,20.5,31.7,20,31.7z M18.2,22.4l3,2.4c0.3,0.3,0.5,0.7,0.3,1.1L20,29.7l3.4-2.4c0.3-0.2,0.8-0.2,1.2,0l3.4,2.4l-1.4-3.8
	c-0.2-0.4,0-0.9,0.3-1.1l3-2.4h-3.2c-0.4,0-0.8-0.2-0.9-0.6l-1.7-4l0,0l-1.7,4c-0.2,0.4-0.5,0.6-0.9,0.6
	C21.5,22.4,18.2,22.4,18.2,22.4z M23.1,17.4L23.1,17.4L23.1,17.4z M10.5,12c0,0.1,0,0.1,0,0.2c0,0.3-0.2,0.6-0.4,0.9
	c-0.2,0.2-0.5,0.4-0.9,0.4c-0.1,0-0.1,0-0.2,0s-0.1,0-0.2,0c-0.3,0-0.6-0.2-0.9-0.4c-0.2-0.2-0.4-0.5-0.4-0.9c0-0.1,0-0.1,0-0.2
	s0-0.1,0-0.2c0-0.3,0.2-0.6,0.4-0.9c0.2-0.2,0.5-0.4,0.9-0.4c0.1,0,0.1,0,0.2,0s0.1,0,0.2,0c0.3,0,0.6,0.2,0.9,0.4
	c0.2,0.2,0.4,0.5,0.4,0.9C10.5,11.9,10.5,11.9,10.5,12z M16.5,12c0,0.1,0,0.1,0,0.2c0,0.3-0.2,0.6-0.4,0.9c-0.2,0.2-0.5,0.4-0.9,0.4
	c-0.1,0-0.1,0-0.2,0s-0.1,0-0.2,0c-0.3,0-0.6-0.2-0.9-0.4c-0.2-0.2-0.4-0.5-0.4-0.9c0-0.1,0-0.1,0-0.2s0-0.1,0-0.2
	c0-0.3,0.2-0.6,0.4-0.9c0.2-0.2,0.5-0.4,0.9-0.4c0.1,0,0.1,0,0.2,0s0.1,0,0.2,0c0.3,0,0.6,0.2,0.9,0.4c0.2,0.2,0.4,0.5,0.4,0.9
	C16.5,11.9,16.5,11.9,16.5,12z M22.5,12c0,0.1,0,0.1,0,0.2c0,0.3-0.2,0.6-0.4,0.9c-0.2,0.2-0.5,0.4-0.9,0.4c-0.1,0-0.1,0-0.2,0
	s-0.1,0-0.2,0c-0.3,0-0.6-0.2-0.9-0.4c-0.2-0.2-0.4-0.5-0.4-0.9c0-0.1,0-0.1,0-0.2s0-0.1,0-0.2c0-0.3,0.2-0.6,0.4-0.9
	c0.2-0.2,0.5-0.4,0.9-0.4c0.1,0,0.1,0,0.2,0s0.1,0,0.2,0c0.3,0,0.6,0.2,0.9,0.4c0.2,0.2,0.4,0.5,0.4,0.9
	C22.5,11.9,22.5,11.9,22.5,12z M28.5,12c0,0.1,0,0.1,0,0.2c0,0.3-0.2,0.6-0.4,0.9c-0.2,0.2-0.5,0.4-0.9,0.4c-0.1,0-0.1,0-0.2,0
	s-0.1,0-0.2,0c-0.3,0-0.6-0.2-0.9-0.4c-0.2-0.2-0.4-0.5-0.4-0.9c0-0.1,0-0.1,0-0.2s0-0.1,0-0.2c0-0.3,0.2-0.6,0.4-0.9
	c0.2-0.2,0.5-0.4,0.9-0.4c0.1,0,0.1,0,0.2,0s0.1,0,0.2,0c0.3,0,0.6,0.2,0.9,0.4c0.2,0.2,0.4,0.5,0.4,0.9
	C28.5,11.9,28.5,11.9,28.5,12z M34.5,12c0,0.1,0,0.1,0,0.2c0,0.3-0.2,0.6-0.4,0.9c-0.2,0.2-0.5,0.4-0.9,0.4c-0.1,0-0.1,0-0.2,0
	s-0.1,0-0.2,0c-0.3,0-0.6-0.2-0.9-0.4c-0.2-0.2-0.4-0.5-0.4-0.9c0-0.1,0-0.1,0-0.2s0-0.1,0-0.2c0-0.3,0.2-0.6,0.4-0.9
	c0.2-0.2,0.5-0.4,0.9-0.4c0.1,0,0.1,0,0.2,0s0.1,0,0.2,0c0.3,0,0.6,0.2,0.9,0.4c0.2,0.2,0.4,0.5,0.4,0.9
	C34.5,11.9,34.5,11.9,34.5,12z M40.5,12c0,0.1,0,0.1,0,0.2c0,0.3-0.2,0.6-0.4,0.9c-0.2,0.2-0.5,0.4-0.9,0.4c-0.1,0-0.1,0-0.2,0
	s-0.1,0-0.2,0c-0.3,0-0.6-0.2-0.9-0.4c-0.2-0.2-0.4-0.5-0.4-0.9c0-0.1,0-0.1,0-0.2s0-0.1,0-0.2c0-0.3,0.2-0.6,0.4-0.9
	c0.2-0.2,0.5-0.4,0.9-0.4c0.1,0,0.1,0,0.2,0s0.1,0,0.2,0c0.3,0,0.6,0.2,0.9,0.4c0.2,0.2,0.4,0.5,0.4,0.9
	C40.5,11.9,40.5,11.9,40.5,12z M10.5,36c0,0.1,0,0.1,0,0.2c0,0.3-0.2,0.6-0.4,0.9c-0.2,0.2-0.5,0.4-0.9,0.4c-0.1,0-0.1,0-0.2,0
	s-0.1,0-0.2,0c-0.3,0-0.6-0.2-0.9-0.4c-0.2-0.2-0.4-0.5-0.4-0.9c0-0.1,0-0.1,0-0.2s0-0.1,0-0.2c0-0.3,0.2-0.6,0.4-0.9
	c0.2-0.2,0.5-0.4,0.9-0.4c0.1,0,0.1,0,0.2,0s0.1,0,0.2,0c0.3,0,0.6,0.2,0.9,0.4c0.2,0.2,0.4,0.5,0.4,0.9
	C10.5,35.9,10.5,35.9,10.5,36z M16.5,36c0,0.1,0,0.1,0,0.2c0,0.3-0.2,0.6-0.4,0.9c-0.2,0.2-0.5,0.4-0.9,0.4c-0.1,0-0.1,0-0.2,0
	s-0.1,0-0.2,0c-0.3,0-0.6-0.2-0.9-0.4c-0.2-0.2-0.4-0.5-0.4-0.9c0-0.1,0-0.1,0-0.2s0-0.1,0-0.2c0-0.3,0.2-0.6,0.4-0.9
	c0.2-0.2,0.5-0.4,0.9-0.4c0.1,0,0.1,0,0.2,0s0.1,0,0.2,0c0.3,0,0.6,0.2,0.9,0.4c0.2,0.2,0.4,0.5,0.4,0.9
	C16.5,35.9,16.5,35.9,16.5,36z M22.5,36c0,0.1,0,0.1,0,0.2c0,0.3-0.2,0.6-0.4,0.9c-0.2,0.2-0.5,0.4-0.9,0.4c-0.1,0-0.1,0-0.2,0
	s-0.1,0-0.2,0c-0.3,0-0.6-0.2-0.9-0.4c-0.2-0.2-0.4-0.5-0.4-0.9c0-0.1,0-0.1,0-0.2s0-0.1,0-0.2c0-0.3,0.2-0.6,0.4-0.9
	c0.2-0.2,0.5-0.4,0.9-0.4c0.1,0,0.1,0,0.2,0s0.1,0,0.2,0c0.3,0,0.6,0.2,0.9,0.4c0.2,0.2,0.4,0.5,0.4,0.9
	C22.5,35.9,22.5,35.9,22.5,36z M28.5,36c0,0.1,0,0.1,0,0.2c0,0.3-0.2,0.6-0.4,0.9c-0.2,0.2-0.5,0.4-0.9,0.4c-0.1,0-0.1,0-0.2,0
	s-0.1,0-0.2,0c-0.3,0-0.6-0.2-0.9-0.4c-0.2-0.2-0.4-0.5-0.4-0.9c0-0.1,0-0.1,0-0.2s0-0.1,0-0.2c0-0.3,0.2-0.6,0.4-0.9
	c0.2-0.2,0.5-0.4,0.9-0.4c0.1,0,0.1,0,0.2,0s0.1,0,0.2,0c0.3,0,0.6,0.2,0.9,0.4c0.2,0.2,0.4,0.5,0.4,0.9
	C28.5,35.9,28.5,35.9,28.5,36z M34.5,36c0,0.1,0,0.1,0,0.2c0,0.3-0.2,0.6-0.4,0.9c-0.2,0.2-0.5,0.4-0.9,0.4c-0.1,0-0.1,0-0.2,0
	s-0.1,0-0.2,0c-0.3,0-0.6-0.2-0.9-0.4c-0.2-0.2-0.4-0.5-0.4-0.9c0-0.1,0-0.1,0-0.2s0-0.1,0-0.2c0-0.3,0.2-0.6,0.4-0.9
	c0.2-0.2,0.5-0.4,0.9-0.4c0.1,0,0.1,0,0.2,0s0.1,0,0.2,0c0.3,0,0.6,0.2,0.9,0.4c0.2,0.2,0.4,0.5,0.4,0.9
	C34.5,35.9,34.5,35.9,34.5,36z M40.5,36c0,0.1,0,0.1,0,0.2c0,0.3-0.2,0.6-0.4,0.9c-0.2,0.2-0.5,0.4-0.9,0.4c-0.1,0-0.1,0-0.2,0
	s-0.1,0-0.2,0c-0.3,0-0.6-0.2-0.9-0.4c-0.2-0.2-0.4-0.5-0.4-0.9c0-0.1,0-0.1,0-0.2s0-0.1,0-0.2c0-0.3,0.2-0.6,0.4-0.9
	c0.2-0.2,0.5-0.4,0.9-0.4c0.1,0,0.1,0,0.2,0s0.1,0,0.2,0c0.3,0,0.6,0.2,0.9,0.4c0.2,0.2,0.4,0.5,0.4,0.9
	C40.5,35.9,40.5,35.9,40.5,36z"/>
</svg>
