<?xml version="1.0" encoding="utf-8"?>
<!-- Generator: Adobe Illustrator 26.0.2, SVG Export Plug-In . SVG Version: 6.00 Build 0)  -->
<svg version="1.1" id="Layer_1" xmlns="http://www.w3.org/2000/svg" xmlns:xlink="http://www.w3.org/1999/xlink" x="0px" y="0px"
	 viewBox="0 0 48 48" style="enable-background:new 0 0 48 48;" xml:space="preserve">
<path d="M44.1,25.3c-2.5-2.5-5.8-3.9-9.4-3.9c-3.5,0-6.9,1.4-9.4,3.9s-3.9,5.8-3.9,9.4c0,3.5,1.4,6.9,3.9,9.4s5.8,3.9,9.4,3.9
	s6.9-1.4,9.4-3.9s3.9-5.8,3.9-9.4C48,31.2,46.6,27.9,44.1,25.3z M42.7,42.7c-2.1,2.1-5,3.3-8,3.3s-5.8-1.2-8-3.3
	c-2.1-2.1-3.3-5-3.3-8s1.2-5.8,3.3-8c2.1-2.1,4.9-3.3,8-3.3s5.8,1.2,8,3.3c2.1,2.1,3.3,5,3.3,8S44.8,40.6,42.7,42.7z M40,38.6
	c0.4,0.4,0.4,1,0,1.4c-0.2,0.2-0.4,0.3-0.7,0.3c-0.2,0-0.5-0.1-0.7-0.3l-3.9-3.9L30.8,40c-0.2,0.2-0.5,0.3-0.7,0.3s-0.5-0.1-0.7-0.3
	c-0.4-0.4-0.4-1,0-1.4l3.9-3.9l-3.9-3.9c-0.4-0.4-0.4-1,0-1.4s1-0.4,1.4,0l3.9,3.9l3.9-3.9c0.4-0.4,1-0.4,1.4,0s0.4,1,0,1.4
	l-3.9,3.9L40,38.6z M34.5,4.3c-0.8-0.8-1.8-1.2-2.9-1.2h-5.1V1c0-0.5-0.5-1-1-1c-0.6,0-1,0.5-1,1v2.1H11.2V1c0-0.5-0.5-1-1-1
	c-0.6,0-1,0.5-1,1v2.1H4.1C3,3.1,2,3.5,1.2,4.3S0,6.1,0,7.2v24.5c0,1.1,0.4,2.1,1.2,2.9s1.8,1.2,2.9,1.2h12.3c0.6,0,1-0.4,1-1
	c0-0.5-0.4-1-1-1H4.1c-0.6,0-1.1-0.2-1.5-0.6c-0.4-0.5-0.6-1-0.6-1.5V14.3h31.7v2.1c0,0.6,0.5,1,1,1c0.6,0,1-0.4,1-1V7.2
	C35.7,6.1,35.3,5.1,34.5,4.3z M33.7,12.3H2V7.2c0-0.5,0.2-1.1,0.6-1.5C3,5.3,3.5,5.1,4.1,5.1h5.1v2c0,0.6,0.4,1,1,1c0.5,0,1-0.4,1-1
	v-2h13.3v2c0,0.6,0.4,1,1,1c0.5,0,1-0.4,1-1v-2h5.1c0.5,0,1.1,0.2,1.5,0.6c0.4,0.4,0.6,0.9,0.6,1.5C33.7,7.2,33.7,12.3,33.7,12.3z"
	/>
</svg>
