<?xml version="1.0" encoding="utf-8"?>
<!-- Generator: Adobe Illustrator 26.0.2, SVG Export Plug-In . SVG Version: 6.00 Build 0)  -->
<svg version="1.1" id="Layer_1" xmlns="http://www.w3.org/2000/svg" xmlns:xlink="http://www.w3.org/1999/xlink" x="0px" y="0px"
	 viewBox="0 0 48 48" style="enable-background:new 0 0 48 48;" xml:space="preserve">
<path d="M24,48c-4.1,0-7.9-1.6-10.7-4.4c-2.9-2.9-4.4-6.7-4.4-10.7c0-10.4,9.1-25.6,13-31.6c0.2-0.4,0.5-0.7,0.9-0.9
	c0.8-0.4,1.7-0.4,2.5,0c0.4,0.2,0.7,0.5,0.9,0.9c3.9,6,13,21.2,13,31.6c0,4.1-1.6,7.9-4.4,10.7C31.9,46.4,28.1,48,24,48z M24,2
	c-0.1,0-0.2,0-0.3,0.1c-0.1,0-0.2,0.1-0.2,0.2c-3,4.6-12.7,20.4-12.7,30.6c0,3.5,1.4,6.8,3.9,9.3s5.8,3.9,9.3,3.9s6.8-1.4,9.3-3.9
	s3.9-5.8,3.9-9.3c0-10.1-9.7-25.9-12.7-30.6c-0.1-0.1-0.1-0.2-0.2-0.2S24.1,2,24,2z M24,41.7c-1.2,0-2.3-0.2-3.4-0.7
	s-2.1-1.1-2.9-1.9c-0.8-0.8-1.5-1.8-1.9-2.9c-0.4-1.1-0.7-2.2-0.7-3.4c0-0.6,0.4-1,1-1l0,0c0.6,0,1,0.4,1,1c0,0.9,0.2,1.8,0.5,2.6
	s0.8,1.6,1.5,2.2c0.6,0.6,1.4,1.1,2.2,1.5c0.8,0.3,1.7,0.5,2.6,0.5c0.6,0,1,0.4,1,1S24.6,41.7,24,41.7z"/>
</svg>
