<?xml version="1.0" encoding="utf-8"?>
<!-- Generator: Adobe Illustrator 26.0.2, SVG Export Plug-In . SVG Version: 6.00 Build 0)  -->
<svg version="1.1" id="Layer_1" xmlns="http://www.w3.org/2000/svg" xmlns:xlink="http://www.w3.org/1999/xlink" x="0px" y="0px"
	 viewBox="0 0 48 48" style="enable-background:new 0 0 48 48;" xml:space="preserve">
<path d="M41,10h-9V7c0-2.8-2.2-5-5-5h-6c-2.8,0-5,2.2-5,5v3H7c-3.8,0-7,3.1-7,7v20c0,3.8,3.2,7,7,7h8c0.5,0,1-0.5,1-1V12h16v12.8
	c0,0.5,0.5,1,1,1s1-0.5,1-1V12h4v10.9c0,0.6,0.5,1,1,1s1-0.4,1-1V12h1c2.8,0,5,2.2,5,5v5.2c0,0.5,0.5,1,1,1s1-0.5,1-1V17
	C48,13.1,44.8,10,41,10z M8,42H7c-2.8,0-5-2.3-5-5V17c0-2.8,2.2-5,5-5h1V42z M14,42h-4V12h4V42z M30,10H18V7c0-1.7,1.3-3,3-3h6
	c1.7,0,3,1.3,3,3V10z M47.8,29.6c-0.5-1.4-1.6-2.5-3-2.8c-1.1-0.3-2.2,0-3.2,0.6L36.7,31l-11-4.3c-0.6-0.2-1.2-0.1-1.7,0.2l-2,1.6
	c-0.1,0.1-0.2,0.2-0.3,0.3c-0.3,0.4-0.4,0.8-0.4,1.3s0.2,0.9,0.6,1.2l0.1,0.1l7.2,4.7l-2.7,2l-2.9-1.8c0,0-0.1-0.1-0.2-0.1
	c-0.5-0.2-1.1-0.1-1.6,0.3L19,39c-0.1,0.1-0.2,0.2-0.3,0.3c-0.3,0.3-0.4,0.8-0.3,1.2c0,0.4,0.2,0.8,0.6,1.1l6.6,4.9
	c0.4,0.3,0.8,0.4,1.2,0.4c0.4,0,0.8-0.1,1.1-0.4L46,34.7c1.2-0.8,1.9-2.2,1.9-3.7C48,30.6,47.9,30.1,47.8,29.6z M45,33.1L26.8,44.9
	l-6.3-4.7l2.2-2.1l3.1,2c0.3,0.2,0.8,0.2,1.1,0l4.4-3.3c0.3-0.2,0.4-0.5,0.4-0.8s-0.2-0.6-0.4-0.8l-8.1-5.3l1.7-1.3L36.5,33
	c0.3,0.1,0.7,0.1,1-0.1l5.3-3.9c0.4-0.3,1-0.4,1.5-0.3c0.7,0.2,1.3,0.8,1.6,1.5C46,30.5,46,30.8,46,31C46,31.9,45.6,32.6,45,33.1z"
	/>
</svg>
